<?xml version="1.0"?>
<svg xmlns="http://www.w3.org/2000/svg" height="512px" viewBox="0 -9 434 433" width="512px" class=""><g><path d="m424 .5h-92.625c-5.523438 0-10 4.476562-10 10v27.660156h-72.453125c-27.601563.03125-49.96875 22.398438-50 50v108.917969h-96.921875v-46.585937c0-5.523438-4.476562-10-10-10h-82c-5.523438 0-10 4.476562-10 10v115.9375c0 5.523437 4.476562 10 10 10h82c5.523438 0 10-4.476563 10-10v-49.351563h96.921875v111.6875c.03125 27.601563 22.398437 49.96875 50 50h72.453125v27.65625c0 5.523437 4.476562 10 10 10h92.625c5.523438 0 10-4.476563 10-10v-75.3125c0-5.523437-4.476562-10-10-10h-92.625c-5.523438 0-10 4.476563-10 10v27.65625h-72.453125c-16.5625-.019531-29.980469-13.4375-30-30v-111.6875h102.453125v27.65625c0 5.523437 4.476562 10 10 10h92.625c5.523438 0 10-4.476563 10-10v-75.3125c0-5.523437-4.476562-10-10-10h-92.625c-5.523438 0-10 4.476563-10 10v27.65625h-102.453125v-108.917969c.019531-16.558594 13.4375-29.980468 30-30h72.453125v27.65625c0 5.523438 4.476562 10 10 10h92.625c5.523438 0 10-4.476562 10-10v-75.316406c0-5.523438-4.476562-10-10-10zm-342 255.929688h-62v-95.9375h62zm259.375 84.679687h72.625v55.3125h-72.625zm0-161.6875h72.625v55.3125h-72.625zm72.625-103.609375h-72.625v-55.3125h72.625zm0 0" data-original="#000000" class="active-path" data-old_color="#000000" fill="#FFFFFF"/></g> </svg>
