<svg id="Слой_1" data-name="Слой 1" xmlns="http://www.w3.org/2000/svg" xmlns:xlink="http://www.w3.org/1999/xlink" viewBox="0 0 551.36 332.72"><defs><style>.cls-1{fill:url(#linear-gradient);}.cls-2{fill:#fff;}.cls-3{fill:url(#linear-gradient-2);}</style><linearGradient id="linear-gradient" x1="509.76" y1="-67.73" x2="34.43" y2="407.61" gradientUnits="userSpaceOnUse"><stop offset="0" stop-color="#ffc05c"/><stop offset="1" stop-color="#ff3857"/></linearGradient><linearGradient id="linear-gradient-2" x1="264.95" y1="136.57" x2="191.17" y2="-45.4" xlink:href="#linear-gradient"/></defs><title>bg</title><rect class="cls-1" width="551.36" height="332.72"/><path class="cls-2" d="M551.36,102.38V332.71H217.06c-20.29-20.29-41.38-54.8-8.48-93.92,52.46-62.36,115.17-13,151.44-94.64C395.8,63.59,475.26,58.35,551.36,102.38Z" transform="translate(0 0)"/><path class="cls-2" d="M429.09,65.18a106.3,106.3,0,0,0-40.6,24.23c-12.33,11.69-22.64,26.75-30.64,44.76-21.09,47.48-50.74,53.46-82.13,59.8-26.79,5.41-54.51,11-80.23,41.59-15.84,18.83-21.54,38.49-17,58.42,3,13.12,10.4,26.13,21.95,38.73H202c-21.55-23.15-38.24-57.67-5.63-96.45,25.47-30.29,53-35.84,79.61-41.22,31.67-6.39,61.59-12.43,82.91-60.43,15.66-35.25,39.4-58.26,70.58-68.39,35.1-11.4,78-5.23,121.93,17.32V82.31C507.33,59.84,464.33,53.73,429.09,65.18Z" transform="translate(0 0)"/><path class="cls-3" d="M287.48,21A69.27,69.27,0,1,1,152.2,0h132A69.19,69.19,0,0,1,287.48,21Z" transform="translate(0 0)"/><path class="cls-2" d="M185.66,0s-5.91,16.41-39,32.64c-13,6.38-30.17,12.74-52.84,18.06C54.09,60,28,70.68,11.27,84.9A72.4,72.4,0,0,0,0,96.83V0Z" transform="translate(0 0)"/></svg>