<?xml version="1.0" encoding="UTF-8" ?>
<!DOCTYPE svg PUBLIC "-//W3C//DTD SVG 1.1//EN" "http://www.w3.org/Graphics/SVG/1.1/DTD/svg11.dtd">
<svg width="79pt" height="31pt" viewBox="0 0 79 31" version="1.1" xmlns="http://www.w3.org/2000/svg">
<g id="#ffffffff">
<path fill="#ffffff" opacity="1.00" d=" M 0.00 0.00 L 4.87 0.00 C 4.92 3.27 4.94 6.55 4.86 9.82 C 7.55 6.53 13.54 6.25 15.55 10.41 C 17.04 14.32 17.04 19.75 13.54 22.63 C 11.06 24.65 7.40 24.24 5.03 22.23 C 4.94 22.58 4.75 23.27 4.66 23.62 C 3.11 23.57 1.55 23.55 0.00 23.52 L 0.00 0.00 M 6.49 11.59 C 4.33 13.13 4.50 16.45 5.34 18.65 C 6.83 21.51 11.31 20.02 11.35 16.96 C 12.49 13.98 9.94 9.39 6.49 11.59 Z" />
<path fill="#ffffff" opacity="1.00" d=" M 16.97 0.00 L 21.90 0.00 C 21.97 7.85 21.91 15.70 21.93 23.55 C 20.29 23.55 18.64 23.55 17.00 23.55 C 16.74 15.70 17.05 7.85 16.97 0.00 Z" />
<path fill="#ffffff" opacity="1.00" d=" M 55.94 0.00 L 60.85 0.00 C 60.91 5.02 60.88 10.04 60.88 15.06 C 62.48 12.59 64.07 10.12 65.68 7.66 C 67.63 7.67 69.58 7.67 71.53 7.68 C 69.63 10.17 67.73 12.66 65.82 15.15 C 67.85 17.94 69.88 20.74 71.91 23.54 C 69.93 23.55 67.96 23.55 65.99 23.55 C 64.29 20.93 62.60 18.31 60.90 15.70 C 60.89 18.32 60.88 20.93 60.89 23.55 C 59.17 23.55 57.46 23.55 55.75 23.55 C 55.74 15.70 56.04 7.85 55.94 0.00 Z" />
<path fill="#ffffff" opacity="1.00" d=" M 70.03 0.00 L 76.15 0.00 C 76.66 1.76 77.18 1.76 77.69 0.00 L 79.00 0.00 L 79.00 4.60 C 78.55 3.96 77.64 2.68 77.18 2.04 C 76.61 2.64 75.47 3.83 74.89 4.42 C 74.83 2.95 74.77 1.48 74.71 0.01 C 73.28 0.90 72.64 2.23 72.79 4.00 L 71.92 4.01 C 71.92 3.26 71.94 1.75 71.94 1.00 C 71.47 0.75 70.51 0.25 70.03 0.00 Z" />
<path fill="#ffffff" opacity="1.00" d=" M 22.25 7.67 C 24.07 7.67 25.89 7.67 27.71 7.67 C 28.90 11.52 30.13 15.35 31.17 19.24 C 32.25 15.35 33.48 11.51 34.68 7.67 C 36.30 7.67 37.92 7.67 39.54 7.68 C 37.25 13.74 35.08 19.84 32.65 25.85 C 31.74 28.25 29.84 30.20 27.37 31.00 L 23.38 31.00 C 23.23 29.74 23.09 28.47 22.98 27.21 C 25.76 27.80 27.97 26.44 28.81 23.74 C 26.61 18.39 24.43 13.03 22.25 7.67 Z" />
<path fill="#ffffff" opacity="1.00" d=" M 39.96 7.67 C 41.61 7.67 43.26 7.67 44.91 7.67 L 44.85 9.97 C 47.05 6.75 52.95 6.04 54.71 10.02 C 55.91 14.41 54.90 19.05 55.19 23.55 C 53.61 23.55 52.02 23.55 50.43 23.55 C 50.35 20.03 50.63 16.50 50.26 12.99 C 49.79 10.35 45.87 10.58 45.18 12.94 C 44.58 16.44 45.03 20.02 44.89 23.55 C 43.27 23.55 41.65 23.56 40.03 23.57 C 39.95 18.27 40.03 12.97 39.96 7.67 Z" />
</g>
</svg>
