<svg xmlns="http://www.w3.org/2000/svg" viewBox="0 0 108.24 121.69"><path fill="#e8e5ea" d="M107.73 79.05a36.57 36.57 0 0 1-11.78 21 44.64 44.64 0 0 1-6.9 5c-8.65 5.23-19.37 8.4-30.53 11l-1.91.43a19.2 19.2 0 0 1-5.06.46C33.8 116.2 21.71 89.89 18 62.2 14.67 37.55 20.16 9.63 44.74 8.39c9.23-.46 20 4.14 30 11.54.72.53 1.44 1.08 2.15 1.64l.44.35c18.67 14.86 33.92 38.99 30.4 57.13zM20.6 102.27c1.4 2.81 1.91 6.36-.89 7.51-3.12 1.28-8.09-.79-9.54-5.48-.92-3-.6-7.18 1.95-8.79 2.19-1.37 6.78 3.31 8.48 6.76zM97 39.24c-1.25-1.08-2.25-2.7-1.2-3.79s3.93-1.18 5.6.81c1.07 1.27 1.82 3.35 1 4.61-.76 1.13-3.89-.29-5.4-1.63z"/><path fill="#d8d5db" d="M46.77 121.69a15.36 15.36 0 0 1-2-.24.12.12 0 0 1-.1-.14.12.12 0 0 1 .15-.1 14.54 14.54 0 0 0 2 .23.13.13 0 0 1 .12.14.12.12 0 0 1-.17.11zm2 0a.13.13 0 0 1-.13-.11.14.14 0 0 1 .12-.14 16.32 16.32 0 0 0 2-.25.13.13 0 0 1 .15.09.13.13 0 0 1-.1.15 15.21 15.21 0 0 1-2 .26zm-5.92-.7c-.62-.19-1.26-.43-1.89-.69a.13.13 0 1 1 .1-.23c.62.26 1.25.49 1.86.68a.11.11 0 0 1 .08.15.11.11 0 0 1-.15.1zm9.84-.06a.12.12 0 0 1 0-.24l.9-.31 1-.37a.11.11 0 0 1 .16.07.13.13 0 0 1-.07.16l-1 .37c-.29.12-.6.22-.9.32zm3.75-1.4a.12.12 0 0 1-.11-.08.12.12 0 0 1 .07-.17l1.85-.73a.13.13 0 0 1 .17.06.14.14 0 0 1-.07.17l-1.86.74zm-17.27-.09h-.06c-.58-.31-1.16-.65-1.73-1a.13.13 0 0 1 0-.17.13.13 0 0 1 .18 0c.56.36 1.14.71 1.71 1a.13.13 0 0 1 .05.17.13.13 0 0 1-.15-.01zm21-1.41a.13.13 0 0 1-.12-.08.14.14 0 0 1 .07-.16l1.84-.78a.13.13 0 0 1 .17.06.12.12 0 0 1-.07.17l-1.86.76zm-24.34-.77h-.07c-.53-.4-1.05-.83-1.56-1.27a.13.13 0 0 1 0-.18.14.14 0 0 1 .18 0c.51.44 1 .86 1.55 1.26a.12.12 0 0 1 0 .17.12.12 0 0 1-.12.01zm28-.82a.14.14 0 0 1-.12-.07.13.13 0 0 1 .07-.17l1.82-.83a.12.12 0 0 1 .16.06.13.13 0 0 1-.06.17l-1.82.83zm3.63-1.7a.13.13 0 0 1-.12-.07.13.13 0 0 1 .06-.17c.6-.29 1.2-.59 1.79-.9a.13.13 0 0 1 .17.06.12.12 0 0 1-.06.17l-1.79.9zm-34.68-.09a.12.12 0 0 1-.08 0c-.47-.45-1-.93-1.41-1.43a.12.12 0 1 1 .18-.17c.46.49.94 1 1.4 1.42a.13.13 0 0 1 0 .18.15.15 0 0 1-.09-.01zM71 112.89a.11.11 0 0 1-.11-.06.12.12 0 0 1 0-.17l1.74-1a.12.12 0 0 1 .17 0 .13.13 0 0 1 0 .17l-1.75 1zm-41-1.18a.11.11 0 0 1-.09 0c-.43-.5-.86-1-1.28-1.55a.14.14 0 0 1 0-.18.14.14 0 0 1 .18 0c.42.53.84 1.05 1.27 1.55a.12.12 0 0 1 0 .17.11.11 0 0 1-.08.01zm44.44-.83a.14.14 0 0 1-.11-.06.13.13 0 0 1 0-.17l1.68-1.07a.14.14 0 0 1 .18 0 .14.14 0 0 1 0 .18c-.54.35-1.11.72-1.69 1.08zm3.35-2.2a.16.16 0 0 1-.11-.05.14.14 0 0 1 0-.18c.56-.39 1.1-.79 1.61-1.18a.13.13 0 0 1 .18 0 .13.13 0 0 1 0 .18c-.51.39-1.06.79-1.61 1.19zm-50.27-.11a.12.12 0 0 1-.1 0c-.39-.53-.78-1.08-1.16-1.64a.12.12 0 0 1 0-.17.12.12 0 0 1 .17 0c.39.56.77 1.11 1.16 1.63a.13.13 0 0 1 0 .18zM81 106.25a.12.12 0 0 1-.09 0 .13.13 0 0 1 0-.18c.52-.42 1-.86 1.51-1.3a.12.12 0 0 1 .18 0 .12.12 0 0 1 0 .17c-.49.45-1 .89-1.52 1.32a.11.11 0 0 1-.08-.01zm-55.71-1a.11.11 0 0 1-.1-.06c-.36-.56-.71-1.13-1.06-1.71a.12.12 0 0 1 0-.17.13.13 0 0 1 .17 0c.35.58.7 1.15 1.06 1.7a.13.13 0 0 1 0 .18zM84 103.56a.18.18 0 0 1-.09 0 .13.13 0 0 1 0-.18c.48-.47 1-1 1.38-1.44a.14.14 0 0 1 .18 0 .13.13 0 0 1 0 .18c-.44.49-.91 1-1.39 1.45a.15.15 0 0 1-.08-.01zm-60.74-1.73a.11.11 0 0 1-.11-.06c-.33-.57-.65-1.16-1-1.75a.12.12 0 0 1 .05-.17.12.12 0 0 1 .17.05c.32.59.64 1.18 1 1.75a.12.12 0 0 1 0 .17zm63.43-1.23h-.08a.12.12 0 0 1 0-.17c.42-.52.83-1.05 1.22-1.58a.12.12 0 0 1 .17 0 .13.13 0 0 1 0 .15c-.39.53-.8 1.06-1.23 1.58a.12.12 0 0 1-.11.02zm-65.36-2.29a.12.12 0 0 1-.11-.07c-.31-.6-.61-1.21-.89-1.8a.12.12 0 1 1 .22-.11c.29.59.58 1.19.89 1.79a.12.12 0 0 1-.06.17zM89 97.37h-.07a.13.13 0 0 1 0-.18c.35-.55.7-1.13 1-1.71a.12.12 0 0 1 .17 0 .12.12 0 0 1 0 .17c-.33.58-.67 1.16-1 1.72a.14.14 0 0 1-.1 0zM19.59 94.7a.13.13 0 0 1-.12-.08c-.27-.6-.55-1.21-.81-1.83a.12.12 0 0 1 .06-.16.11.11 0 0 1 .16.06c.27.62.54 1.23.82 1.83a.12.12 0 0 1-.06.16zM91 93.88a.13.13 0 0 1-.06-.17c.29-.59.56-1.21.81-1.82a.14.14 0 0 1 .17-.07.13.13 0 0 1 .06.17c-.25.61-.53 1.23-.82 1.83a.12.12 0 0 1-.16.06zM18 91a.13.13 0 0 1-.12-.08q-.37-.91-.75-1.86a.14.14 0 0 1 .07-.16.13.13 0 0 1 .17.07c.24.62.49 1.24.74 1.86A.12.12 0 0 1 18 91zm74.52-.84h-.05a.13.13 0 0 1-.07-.16c.21-.62.41-1.26.59-1.9a.14.14 0 0 1 .15-.09.13.13 0 0 1 .09.16q-.27 1-.6 1.92a.11.11 0 0 1-.12.09zm-76-2.89a.12.12 0 0 1-.12-.08c-.23-.63-.46-1.25-.69-1.89a.14.14 0 0 1 .08-.16.13.13 0 0 1 .16.08c.22.63.45 1.26.68 1.88a.12.12 0 0 1-.07.16zm77.05-1a.14.14 0 0 1-.1-.15c.14-.66.27-1.32.37-2a.13.13 0 0 1 .14-.11.14.14 0 0 1 .11.15c-.11.64-.23 1.31-.38 2a.12.12 0 0 1-.13.17zm-78.38-2.76a.13.13 0 0 1-.12-.08c-.21-.63-.42-1.27-.62-1.91a.12.12 0 0 1 .08-.15.12.12 0 0 1 .16.08c.2.63.41 1.27.62 1.9a.14.14 0 0 1-.08.16zm79-1.13a.12.12 0 0 1-.11-.14c.07-.65.13-1.31.17-2a.12.12 0 0 1 .12-.11.12.12 0 0 1 .12.13c0 .67-.1 1.35-.17 2a.13.13 0 0 1-.1.12zM14 79.7a.12.12 0 0 1-.12-.09c-.19-.64-.38-1.28-.56-1.92a.13.13 0 0 1 .08-.16.13.13 0 0 1 .16.09c.18.64.37 1.28.56 1.92a.12.12 0 0 1-.09.15zm80.46-1.31a.12.12 0 0 1-.12-.13c0-.65 0-1.32-.11-2a.12.12 0 0 1 .12-.13.11.11 0 0 1 .13.11c.06.67.1 1.35.11 2a.13.13 0 0 1-.13.13zm-81.58-2.54a.14.14 0 0 1-.12-.1v-.1c-.17-.64-.34-1.29-.5-1.94a.12.12 0 0 1 .09-.15.11.11 0 0 1 .15.09c.16.65.33 1.3.5 1.94v.1a.12.12 0 0 1-.08.15zm81.21-1.45a.12.12 0 0 1-.12-.11c-.1-.64-.22-1.3-.37-2a.13.13 0 0 1 .1-.15.12.12 0 0 1 .15.09c.14.66.27 1.33.37 2a.13.13 0 0 1-.11.14zm-82.18-2.55a.12.12 0 0 1-.12-.09c-.15-.66-.29-1.32-.42-2a.13.13 0 0 1 .1-.14.12.12 0 0 1 .15.09c.13.64.26 1.3.41 2a.12.12 0 0 1-.09.15zm81.33-1.36a.14.14 0 0 1-.12-.09c-.17-.63-.37-1.27-.58-1.91a.13.13 0 0 1 .08-.16.12.12 0 0 1 .15.08c.22.65.42 1.29.59 1.92a.13.13 0 0 1-.08.16zm-82.11-2.57a.13.13 0 0 1-.13-.1c-.11-.65-.22-1.32-.32-2a.12.12 0 0 1 .1-.14.14.14 0 0 1 .15.1c.1.66.2 1.33.32 2a.12.12 0 0 1-.1.14zM92 66.69a.12.12 0 0 1-.11-.08c-.24-.61-.5-1.23-.77-1.84a.14.14 0 0 1 .07-.17.14.14 0 0 1 .16.07c.27.62.53 1.24.77 1.85a.13.13 0 0 1-.07.17zM10.52 64a.12.12 0 0 1-.12-.11c-.09-.66-.16-1.33-.23-2a.12.12 0 0 1 .11-.14.14.14 0 0 1 .14.12c.06.66.14 1.32.23 2a.12.12 0 0 1-.11.14zm79.84-1a.14.14 0 0 1-.11-.07c-.28-.59-.59-1.19-.91-1.78a.13.13 0 1 1 .22-.12c.32.6.63 1.2.92 1.79a.12.12 0 0 1-.06.16zm-80.25-3a.12.12 0 0 1-.12-.12c-.06-.68-.1-1.35-.13-2a.12.12 0 0 1 .12-.13.12.12 0 0 1 .13.12c0 .65.07 1.32.13 2a.14.14 0 0 1-.12.14zm78.36-.48a.15.15 0 0 1-.11-.07c-.32-.56-.67-1.14-1-1.71a.12.12 0 0 1 .21-.13c.36.57.71 1.15 1 1.72a.13.13 0 0 1 0 .17zm-2.13-3.4a.11.11 0 0 1-.1-.06c-.36-.53-.74-1.09-1.14-1.64a.13.13 0 0 1 0-.17.13.13 0 0 1 .18 0l1.14 1.65a.13.13 0 0 1 0 .18zM9.91 56a.12.12 0 0 1-.12-.13v-2a.13.13 0 0 1 .13-.13.12.12 0 0 1 .12.13v2a.14.14 0 0 1-.13.13zM84 52.84a.12.12 0 0 1-.1-.05c-.41-.54-.83-1.07-1.23-1.58a.12.12 0 0 1 0-.18.12.12 0 0 1 .17 0c.41.51.83 1.05 1.24 1.59a.12.12 0 0 1 0 .17.11.11 0 0 1-.08.05zM10 52a.12.12 0 0 1-.12-.13c0-.67.06-1.35.12-2a.12.12 0 0 1 .13-.11.14.14 0 0 1 .12.13c-.06.66-.1 1.33-.12 2A.13.13 0 0 1 10 52zm71.57-2.26a.14.14 0 0 1-.1-.05c-.44-.52-.88-1-1.31-1.51a.13.13 0 0 1 .14-.18l1.31 1.52a.13.13 0 0 1 0 .18zM10.26 48a.12.12 0 0 1-.11-.14c.08-.68.17-1.35.28-2a.12.12 0 0 1 .14-.11.13.13 0 0 1 .1.15q-.15 1-.27 2a.13.13 0 0 1-.14.1zm68.6-1.28a.11.11 0 0 1-.09 0c-.45-.48-.92-1-1.38-1.44a.13.13 0 1 1 .18-.18c.46.48.93 1 1.38 1.46a.12.12 0 0 1 0 .17.11.11 0 0 1-.09-.03zM10.9 44a.13.13 0 0 1-.09-.15c.13-.65.28-1.31.45-2a.13.13 0 0 1 .15-.09.13.13 0 0 1 .09.16c-.16.64-.31 1.29-.45 1.94a.12.12 0 0 1-.15.14zm65.16-.19a.16.16 0 0 1-.09 0c-.48-.48-1-.94-1.44-1.39a.12.12 0 1 1 .17-.18c.48.45 1 .91 1.45 1.39a.13.13 0 0 1 0 .18.14.14 0 0 1-.09.02zm-2.93-2.75a.11.11 0 0 1-.08 0c-.5-.44-1-.89-1.51-1.32a.12.12 0 0 1 .16-.19c.51.44 1 .88 1.51 1.33a.11.11 0 0 1 0 .17.1.1 0 0 1-.08.03zm-61.22-.93a.12.12 0 0 1-.08-.16c.21-.65.43-1.29.67-1.89a.11.11 0 0 1 .16-.07.12.12 0 0 1 .07.16c-.23.6-.46 1.23-.66 1.88a.14.14 0 0 1-.16.1zm58.18-1.68h-.08c-.52-.45-1.01-.85-1.56-1.25a.12.12 0 0 1 0-.18.12.12 0 0 1 .17 0c.52.4 1.05.83 1.57 1.25a.13.13 0 0 1 0 .18.11.11 0 0 1-.1.02zm-56.73-2h-.06a.12.12 0 0 1-.06-.16c.29-.61.6-1.22.92-1.79a.12.12 0 0 1 .17-.05.13.13 0 0 1 .05.17c-.32.57-.63 1.17-.91 1.77a.13.13 0 0 1-.11.03zM66.94 36a.13.13 0 0 1-.08 0c-.53-.4-1.07-.79-1.61-1.18a.12.12 0 0 1 .14-.2c.55.39 1.09.78 1.62 1.18a.13.13 0 0 1-.01.2.14.14 0 0 1-.06 0zm-3.27-2.33h-.07l-1.66-1.11a.12.12 0 0 1 0-.17.13.13 0 0 1 .17 0l1.68 1.11a.14.14 0 0 1 0 .18.16.16 0 0 1-.12 0zm-48.36-.75a.11.11 0 0 1-.07 0 .12.12 0 0 1 0-.17 19.28 19.28 0 0 1 1.19-1.62.11.11 0 0 1 .17 0 .12.12 0 0 1 0 .17c-.41.51-.8 1.05-1.17 1.61a.14.14 0 0 1-.12.02zm45-1.42h-.07c-.56-.34-1.14-.69-1.72-1a.13.13 0 1 1 .12-.22c.58.34 1.16.68 1.73 1a.12.12 0 0 1 0 .17.11.11 0 0 1-.06.06zm-42.5-1.7h-.09a.13.13 0 0 1 0-.18 19.18 19.18 0 0 1 1.46-1.39.12.12 0 0 1 .17 0 .12.12 0 0 1 0 .17c-.5.43-1 .89-1.44 1.37a.12.12 0 0 1-.1.03zm39-.29h-.06L55 28.56a.12.12 0 0 1-.06-.16.12.12 0 0 1 .17-.06c.59.3 1.19.61 1.78.93a.13.13 0 0 1 0 .17.14.14 0 0 1-.06.07zm-3.56-1.81l-1.82-.83a.13.13 0 0 1-.07-.16.13.13 0 0 1 .17-.06c.61.26 1.23.54 1.83.82a.13.13 0 0 1 .06.17.14.14 0 0 1-.17.06zm-32.42-.51a.12.12 0 0 1-.1-.05.13.13 0 0 1 0-.18c.54-.38 1.11-.75 1.69-1.08a.12.12 0 1 1 .13.21 18.45 18.45 0 0 0-1.68 1.08zm28.75-1.08c-.62-.24-1.25-.48-1.87-.7a.12.12 0 0 1-.08-.16.14.14 0 0 1 .16-.08c.63.23 1.26.46 1.88.71a.11.11 0 0 1 .07.16.12.12 0 0 1-.16.07zm-25.29-.92a.12.12 0 0 1-.11-.08.11.11 0 0 1 .06-.16c.6-.28 1.22-.54 1.86-.77a.14.14 0 0 1 .16.08.13.13 0 0 1-.08.16c-.63.23-1.25.48-1.84.76zm21.51-.42c-.64-.2-1.29-.39-1.92-.55a.13.13 0 0 1-.09-.16.14.14 0 0 1 .11-.06c.64.17 1.29.36 1.93.56a.13.13 0 0 1 .09.16.13.13 0 0 1-.12.05zm-17.75-.95a.11.11 0 0 1-.12-.09.12.12 0 0 1 .08-.15c.64-.17 1.3-.33 2-.46a.12.12 0 0 1 .15.1.13.13 0 0 1-.1.15c-.66.13-1.31.28-1.94.45zm13.87-.07c-.66-.15-1.32-.27-2-.38a.12.12 0 0 1-.11-.14.13.13 0 0 1 .15-.1c.64.1 1.31.23 2 .37a.13.13 0 0 1 .1.15.14.14 0 0 1-.14.1zm-4-.64C37.29 23 36.62 23 36 23a.12.12 0 0 1-.12-.13.13.13 0 0 1 .12-.17c.66 0 1.34.08 2 .16a.13.13 0 0 1 0 .25zm-6 0a.13.13 0 0 1-.13-.11.12.12 0 0 1 .11-.14c.66-.07 1.33-.11 2-.13a.13.13 0 0 1 0 .25c-.67 0-1.34.06-2 .13z"/><path fill="#d1cdd3" d="M94 79.14v.33c-.25 2.79-2.65 8.74-5 14 .08 1.9.14 3.6.15 5v.74h-.29c.07 1.24.16 3.39.23 5.86-8.65 5.23-19.37 8.4-30.53 11l-1.91.43a19.2 19.2 0 0 1-5.06.46 4.19 4.19 0 0 1-.11-1.28 135.7 135.7 0 0 1 1.72-16.83l-.62-.09c2.27-7.66 3.41-18.71 4-28.3.07-1.13.13-2.23.18-3.32-1.45 1.48-2.45 2.4-2.45 2.4l-3.07-5c-3.79 2.74-7.37 5.16-9.12 6.28-1.45 1.36-3.92 1.56-5.86-1-3.14-4.11-7.57-21.36-8.09-24.29a.77.77 0 0 1-.18-.18c-.72-1-3.24-6.45-3-7.51s1.42-3.35 2.79-3.66c-.16-.49-.34-1-.6-1.71-.58-1.58-1.27-3.18-.23-3s3.42 6 3.83 7c.06-.47.12-.85.12-.85.32-.94 1.95-1.44 1.75 0-.29 2 .41 3 .38 4.65v.33a1.35 1.35 0 0 1 0 .18.53.53 0 0 1 0 .13v.07a12.17 12.17 0 0 1-1.28 3.51c1.09 3.56 6.09 12.87 9 18 1.78-1.48 4-3.24 6.3-5l-.2-.33s11.86-11.09 18-11.93c.09-.43.15-.9.21-1.39.06-.64.1-1.32.12-2-4.51 0-4.93-3.37-4.48-7.59l-.68-.14.98-2.73v-.2a.79.79 0 0 1-.19-.48c0-.33.09-.61.27-.62a.11.11 0 0 1 .08 0c0-.24.08-.48.11-.72.08-.53.18-1 .28-1.49a2.1 2.1 0 0 0-.81 0l-.11-.49a2.85 2.85 0 0 1 1 0 13.46 13.46 0 0 1 1.59-3.8c-1.44-.1-2.12-.57-1.12-1.73 1.55-1.8 8.89-2.7 12.59-1.94 1.3.27 2.15.74 2.16 1.44v.2a2.19 2.19 0 0 0 .94-.76l.42.28a2.82 2.82 0 0 1-.92.83l-.15.08c3.92 2.54-1.68 16.32-1.7 16.37-.11 2.37-.18 4.71-.17 6.36 3.56.41 5.81 1.45 7.3 3.08C86.63 51 92.78 64.2 92.78 64.2l-2.51.66c1.79 5.74 3.31 11.5 3.75 13.43a3.41 3.41 0 0 1-.02.85z"/><rect width="66.93" height="52.25" x="8.48" y="4.72" fill="#4d8dff" opacity=".3" rx="6.72" transform="rotate(180 41.945 30.85)"/><path fill="#4d8dff" d="M70.94 61.7H8a8 8 0 0 1-8-8V8a8 8 0 0 1 8-8h62.94a8 8 0 0 1 8 8v45.67a8 8 0 0 1-8 8.03zM8 .25A7.79 7.79 0 0 0 .25 8v45.67A7.79 7.79 0 0 0 8 61.45h62.94a7.79 7.79 0 0 0 7.77-7.78V8A7.79 7.79 0 0 0 70.94.25z" opacity=".3"/><g fill="#4d8dff" opacity=".3"><rect width="11.18" height="8.73" x="14.02" y="11.48" rx="1.12" transform="rotate(180 19.61 15.845)"/><rect width="11.18" height="8.73" x="28.91" y="11.48" rx="1.12" transform="rotate(180 34.5 15.845)"/><rect width="11.18" height="8.73" x="43.8" y="11.48" rx="1.12" transform="rotate(180 49.39 15.845)"/><rect width="11.18" height="8.73" x="58.69" y="11.48" rx="1.12" transform="rotate(180 64.285 15.845)"/></g><g fill="#4d8dff" opacity=".3"><rect width="11.18" height="8.73" x="14.02" y="26.49" rx="1.12" transform="rotate(180 19.61 30.85)"/><rect width="11.18" height="8.73" x="28.91" y="26.49" rx="1.12" transform="rotate(180 34.5 30.85)"/><rect width="11.18" height="8.73" x="43.8" y="26.49" rx="1.12" transform="rotate(180 49.39 30.85)"/><rect width="11.18" height="8.73" x="58.69" y="26.49" rx="1.12" transform="rotate(180 64.285 30.85)"/></g><g fill="#4d8dff" opacity=".3"><rect width="11.18" height="8.73" x="14.02" y="41.49" rx="1.12" transform="rotate(180 19.61 45.855)"/><rect width="11.18" height="8.73" x="28.91" y="41.49" rx="1.12" transform="rotate(180 34.5 45.855)"/><rect width="11.18" height="8.73" x="43.8" y="41.49" rx="1.12" transform="rotate(180 49.39 45.855)"/><rect width="11.18" height="8.73" x="58.69" y="41.49" rx="1.12" transform="rotate(180 64.285 45.855)"/></g><rect width="11.18" height="8.73" x="45.22" y="10.07" fill="#4d8dff" rx="1.12" transform="rotate(180 50.81 14.43)"/><rect width="11.18" height="8.73" x="45.22" y="40.07" fill="#ff4e4a" rx="1.12" transform="rotate(180 50.81 44.44)"/><rect width="11.18" height="8.73" x="15.44" y="25.07" fill="#ffc84d" rx="1.12" transform="rotate(180 21.03 29.435)"/><path fill="#ffad69" d="M83.21 29.75c-.33 2.18-1 14-.72 16.7s-13 3.52-11.23.5.5-13 .5-13z"/><path fill="#d88344" d="M82.3 30.08l-10.53 3.86a54.56 54.56 0 0 1 .28 9.92c4.34-1.78 3.38-5.43 3.38-7.39 0-1.78 6.88-6.05 6.87-6.39zM68.42 30.54l-1.64 3.5 2 .81-.36-4.31z"/><path fill="#ffad69" d="M68.39 29.38c-1 6.73-2.64 13.43 5.52 12.33s9.42-11.56 9.39-13.53c-.12-10.52-13-12.03-14.91 1.2z"/><path fill="#232323" d="M84.3 22a2.83 2.83 0 0 0 1.06-.91l-.36-.27a2.28 2.28 0 0 1-1 .77 1.64 1.64 0 0 0 0-.22c0-2.71-12.66-1.93-14.76.5-1.23 1.43.08 1.81 2.23 1.75a.9.9 0 0 0-.34.47c-1.41 6.91 5.25 13.71 6 14.3h5.47S88.22 24.55 84.3 22z"/><path fill="#ffad69" d="M101.1 78.29c-.72-3.21-4.48-17.09-7.45-23.75L86 56.16s5 16.42 7.56 22.55C93 82 89.87 97.35 88 101.65c-.83 1.95 2.34 2.77 3.12 1.81s9.51-18.52 10-24v-.33a3 3 0 0 0-.02-.84z"/><path fill="#e5aa33" d="M89.66 47.77c4 3.12 10.2 16.44 10.2 16.44l-13.1 3.4s-7.62-28.08 2.9-19.84z"/><path fill="#232323" d="M96 100.06a44.64 44.64 0 0 1-6.9 5c-8.65 5.23-19.37 8.4-30.53 11a2.54 2.54 0 0 1 0-.39c.36-6.19.95-13.26 2-17.75l28.61.57 6.76.14c-.05.37-.02.82.06 1.43z"/><path fill="#ffc84d" d="M80.08 44.58c7.86.26 10.51 2.91 11.87 7.49 1.53 5.21 4.24 36.65 4.24 47.16 0 0-23.5 1.66-36.52-.47 4.08-13.79 4.52-38.59 4.6-46 .06-5.52 5.86-8.51 15.81-8.18z"/><path fill="#fff" d="M81.65 50.27a.72.72 0 0 1-.59-.29l-2.14-2.84a.77.77 0 0 1-.07-.79.76.76 0 0 1 .67-.41h3.28a.74.74 0 0 1 .62.33.76.76 0 0 1 .08.7l-1.15 2.84a.74.74 0 0 1-.6.46zm-2.13-3.83a.24.24 0 0 0-.22.14.25.25 0 0 0 0 .26l2.13 2.83a.23.23 0 0 0 .23.1.24.24 0 0 0 .2-.15L83 46.78a.26.26 0 0 0 0-.23.26.26 0 0 0-.21-.11z"/><path fill="#232323" d="M68.56 30.65c0 .32-.09.6-.27.62s-.29-.27-.37-.57.1-.61.27-.62.34.24.37.57zM69.76 28.66a1.87 1.87 0 0 0-1.91-.81l-.1-.48a2.35 2.35 0 0 1 2.43 1z"/><path fill="#e5aa33" d="M64.25 54.58c-.06 3.63-.2 9.42-.59 15.89 3.33-4 6.6-8.73 6.79-12.28.27-4.88-2.53-5.19-6.2-3.61z"/><path fill="#ffad69" d="M68.68 56.28l-4-6.66s-11 7.94-16.91 12.84c-2.92-5.13-7.92-14.45-9-18A12.5 12.5 0 0 0 40 40.93a.64.64 0 0 1 0-.07.66.66 0 0 1 0-.14v-.18-.33c0-1.62-.67-2.61-.39-4.65.2-1.42-1.43-.93-1.74 0 0 0-.07.39-.13.85-.41-1-2.88-6.87-3.83-7s-.34 1.46.24 3c.25.68.44 1.22.6 1.71-1.38.31-2.6 2.67-2.8 3.66s2.32 6.52 3 7.51a.81.81 0 0 0 .19.18c.51 2.93 4.94 20.18 8.08 24.3 1.94 2.55 4.42 2.35 5.87 1C52.7 68.54 63.63 61 68.68 56.28z"/><path fill="#ffc84d" d="M75.43 49.62c-.41 7.35-14 19.94-14 19.94l-7.55-12.4s22.28-20.89 21.55-7.54z"/><path fill="#ffad69" d="M71.23 31.45c-.3 1.77-.74 3.51.91 3.39s2.07-2.87 2.09-3.4c.14-2.79-2.41-3.44-3 .01z"/></svg>