<svg xmlns="http://www.w3.org/2000/svg" viewBox="0 0 106.52 104.01"><path fill="#e8e5ea" d="M99.94 61.64c-.33.53-.66 1-1 1.57a80.4 80.4 0 0 1-11.1 13.11l-.59.57c-.6.57-1.22 1.14-1.84 1.69q-1.61 1.47-3.29 2.84c-.59.5-1.2 1-1.8 1.47a125.71 125.71 0 0 1-21.79 14C56.24 98 54 99 51.71 99.92 40 104.57 29 105.66 21.5 101.05a18 18 0 0 1-6.08-6.19l-.78-1.29c-2.41-4-4.71-8.08-6.73-12.15-.48-1-.93-1.89-1.37-2.84-7.33-15.75-10.12-31.69.27-47.37 4-6.1 10.67-10.85 18.63-14.21a65.41 65.41 0 0 1 7.1-2.54c1.21-.38 2.43-.71 3.68-1 1.57-.4 3.17-.75 4.79-1 1.24-.24 2.48-.45 3.73-.63l1.56-.21a94.48 94.48 0 0 1 11.15-.76h1.46q3.38 0 6.68.28c.59 0 1.18.09 1.77.16 11.23 1.09 21.53 4.31 28.53 9.65a27.55 27.55 0 0 1 4.09 3.8c.22.25.43.5.63.76l.2.24a26.77 26.77 0 0 1 3.48 5.62c4.45 9.63 1.85 20.31-4.35 30.27zM77.31 90.93c-2.7 2.83-4.62 6.87-1.72 9.27 3.24 2.67 9.93 2 13.38-3 2.21-3.2 3.38-8.32.93-11.2-2.09-2.42-9.28 1.46-12.59 4.93z"/><path fill="#d8d5db" d="M63.51.11c-.66-.06-1.34-.1-2-.11a.12.12 0 0 0-.13.12.12.12 0 0 0 .12.13c.67 0 1.34 0 2 .11a.13.13 0 0 0 .13-.12.12.12 0 0 0-.12-.13zm-4-.08c-.67 0-1.35.1-2 .18a.12.12 0 0 0-.11.14.13.13 0 0 0 .13.11c.66-.08 1.33-.14 2-.18a.12.12 0 0 0 .11-.13.13.13 0 0 0-.15-.15zm8 .69c-.66-.14-1.33-.27-2-.37a.14.14 0 0 0-.15.1.13.13 0 0 0 .11.15c.65.1 1.31.22 2 .36a.14.14 0 0 0 .13-.1.13.13 0 0 0-.1-.14zm-12-.2c-.66.13-1.32.28-2 .46a.11.11 0 0 0-.09.15.12.12 0 0 0 .12.09c.64-.17 1.3-.32 2-.45a.14.14 0 0 0 .1-.15.14.14 0 0 0-.16-.1zm15.9 1.29q-1-.33-1.92-.6a.13.13 0 0 0-.16.09.12.12 0 0 0 .09.15c.63.18 1.28.38 1.91.6a.13.13 0 0 0 .13-.05.12.12 0 0 0-.08-.19zm-19.82-.25c-.63.21-1.27.45-1.89.7a.12.12 0 0 0-.07.16.13.13 0 0 0 .11.08c.62-.25 1.25-.49 1.88-.7a.11.11 0 0 0 .07-.15.12.12 0 0 0-.1-.09zM75.12 3.3c-.61-.27-1.23-.54-1.85-.79a.13.13 0 0 0-.16.07.12.12 0 0 0 .07.17c.62.24 1.24.51 1.84.78a.14.14 0 0 0 .12-.07.12.12 0 0 0-.02-.16zM48 3.14a.12.12 0 0 0-.17-.06c-.59.28-1.2.59-1.79.91a.13.13 0 0 0-.05.17.12.12 0 0 0 .11.07h.06c.59-.32 1.19-.62 1.78-.91a.12.12 0 0 0 .06-.18zm30.7 2c-.59-.33-1.19-.66-1.78-1a.13.13 0 0 0-.17.06.14.14 0 0 0 .06.17c.59.3 1.18.61 1.76.94a.07.07 0 0 0 .06 0 .11.11 0 0 0 .11-.06.12.12 0 0 0-.02-.12zM44.49 5a.14.14 0 0 0-.17 0c-.57.35-1.14.71-1.7 1.09a.13.13 0 0 0 0 .18.12.12 0 0 0 .1.05h.07c.56-.38 1.12-.74 1.69-1.08a.14.14 0 0 0 .01-.24zm37.63 2.28c-.55-.39-1.11-.76-1.68-1.12a.13.13 0 0 0-.17 0 .12.12 0 0 0 0 .17c.56.36 1.12.73 1.67 1.11a.1.1 0 0 0 .07 0 .1.1 0 0 0 .1 0 .12.12 0 0 0 .01-.16zm-41 0a.12.12 0 0 0-.17 0c-.53.38-1.06.8-1.6 1.22a.13.13 0 0 0 .08.23.13.13 0 0 0 .08 0c.53-.43 1.06-.84 1.59-1.22a.14.14 0 0 0 .05-.23zm44.19 2.46c-.51-.44-1-.86-1.56-1.27a.13.13 0 1 0-.16.2c.53.4 1 .83 1.56 1.26a.11.11 0 0 0 .08 0 .12.12 0 0 0 .09-.05.12.12 0 0 0-.01-.14zM38 9.78a.13.13 0 0 0-.18 0c-.36.31-.72.62-1.07.94a2.73 2.73 0 0 0-.25.23l-.19.16a.14.14 0 0 0 0 .18.18.18 0 0 0 .1 0 .11.11 0 0 0 .08 0l.33-.3.36-.33L38 10a.14.14 0 0 0 0-.22zm50.24 2.71c-.47-.48-1-1-1.44-1.41a.13.13 0 0 0-.18 0 .14.14 0 0 0 0 .18c.49.45 1 .93 1.43 1.4a.13.13 0 0 0 .09 0 .09.09 0 0 0 .08 0 .12.12 0 0 0 .03-.17zM35 12.48a.12.12 0 0 0-.17 0c-.47.45-1 .93-1.43 1.42a.11.11 0 0 0 0 .17.1.1 0 0 0 .09 0 .12.12 0 0 0 .09 0c.47-.48 1-1 1.42-1.41a.13.13 0 0 0 0-.18zm55.88 3c-.42-.53-.86-1-1.3-1.55a.12.12 0 0 0-.17 0 .12.12 0 0 0 0 .18c.43.49.87 1 1.28 1.53a.14.14 0 0 0 .1.05.13.13 0 0 0 .08 0 .12.12 0 0 0 .04-.18zm-58.7-.17a.12.12 0 0 0-.17 0c-.46.48-.91 1-1.36 1.48a.13.13 0 0 0 0 .18.11.11 0 0 0 .08 0 .11.11 0 0 0 .09 0c.45-.5.91-1 1.36-1.48a.13.13 0 0 0 .03-.15zm61.05 3.43c-.36-.56-.74-1.11-1.13-1.66a.13.13 0 0 0-.18 0 .14.14 0 0 0 0 .18c.39.54.78 1.09 1.14 1.65a.12.12 0 0 0 .1.05.1.1 0 0 0 .07 0 .12.12 0 0 0 .03-.19zM29.5 18.3a.14.14 0 0 0-.18 0c-.43.5-.87 1-1.3 1.53a.13.13 0 0 0 0 .18.11.11 0 0 0 .08 0 .12.12 0 0 0 .09-.05c.43-.52.87-1 1.3-1.53a.14.14 0 0 0 .04-.1zm65.8 3.95l-.38-.7c-.19-.36-.39-.71-.6-1.06a.13.13 0 0 0-.17 0 .12.12 0 0 0 0 .17c.21.36.41.73.62 1.11l.34.65a.14.14 0 0 0 .11.06h.06a.13.13 0 0 0 .02-.23zM27 21.42a.14.14 0 0 0-.18 0c-.41.5-.8 1-1.2 1.53V23a.12.12 0 0 0 0 .18.11.11 0 0 0 .07 0 .11.11 0 0 0 .08 0c.42-.54.83-1.06 1.25-1.58a.14.14 0 0 0-.02-.18zm70 4.49l-.2-.47-.11-.26c-.15-.37-.32-.75-.49-1.12A.13.13 0 0 0 96 24a.12.12 0 0 0-.06.16c.12.26.24.52.35.78s.15.34.21.5a5.32 5.32 0 0 1 .21.5V26a.12.12 0 0 0 .11.08.12.12 0 0 0 .08-.13 NaN NaN 0 0 0 .1-.04zM24.49 24.6a.14.14 0 0 0-.18 0q-.6.79-1.2 1.62a.13.13 0 0 0 0 .17.11.11 0 0 0 .07 0 .14.14 0 0 0 .11-.06c.39-.54.79-1.08 1.19-1.61a.12.12 0 0 0 .01-.12zm-2.38 3.24a.13.13 0 0 0-.18 0l-1.16 1.64a.13.13 0 0 0 0 .17.12.12 0 0 0 .08 0 .12.12 0 0 0 .1-.05c.38-.55.77-1.1 1.16-1.64a.13.13 0 0 0 0-.12zm76.05 1.43c-.15-.5-.31-1-.47-1.47a.13.13 0 0 0-.16-.08.13.13 0 0 0-.08.16q.28.82.54 1.68c0 .08.05.15.07.23a.13.13 0 0 0 .12.09.13.13 0 0 0 .08-.16c0-.15-.05-.3-.1-.45zM19.8 31.13a.12.12 0 0 0-.17 0l-.05.07c-.37.55-.75 1.11-1.11 1.67a.13.13 0 0 0 0 .18h.07a.11.11 0 0 0 .1-.06c.37-.56.74-1.12 1.12-1.67l.05-.07a.13.13 0 0 0-.01-.12zm79.44 2.44c-.11-.63-.26-1.26-.41-1.9a.11.11 0 0 0-.15-.09.12.12 0 0 0-.09.15c.15.61.28 1.22.4 1.83v.13a.12.12 0 0 0 .12.1.13.13 0 0 0 .1-.15s.03-.05.03-.07zm-81.69 1a.12.12 0 0 0-.17 0c-.35.57-.7 1.14-1 1.72a.12.12 0 0 0 0 .17h.06a.11.11 0 0 0 .11-.06c.34-.58.69-1.15 1-1.72a.12.12 0 0 0 0-.12zm82 1.07a.11.11 0 0 0-.14-.1.12.12 0 0 0-.1.14c.09.66.17 1.33.23 2a.12.12 0 0 0 .13.11.11.11 0 0 0 .11-.13q-.05-1.02-.2-2.03zM15.5 38a.13.13 0 0 0-.17.05c-.34.59-.66 1.19-1 1.77a.12.12 0 0 0 .05.16h.06a.12.12 0 0 0 .11-.07c.31-.57.63-1.17 1-1.76a.13.13 0 0 0-.05-.15zm84.5 1.65a.13.13 0 0 0-.25 0c0 .66.05 1.33.05 2a.13.13 0 0 0 .12.13.13.13 0 0 0 .13-.13c-.05-.65-.05-1.34-.05-2zm-86.4 1.91a.13.13 0 0 0-.17 0c-.3.6-.6 1.21-.88 1.81a.13.13 0 0 0 .06.17h.05a.11.11 0 0 0 .11-.07c.29-.6.59-1.21.89-1.8a.13.13 0 0 0-.06-.11zm86.24 2a.15.15 0 0 0-.13.12c0 .67-.07 1.34-.13 2a.12.12 0 0 0 .11.14.12.12 0 0 0 .12-.12c.07-.66.11-1.33.14-2 .05-.09-.04-.15-.11-.16zm-88 1.65a.12.12 0 0 0-.16.07c-.27.61-.54 1.23-.79 1.85a.13.13 0 0 0 .07.16.12.12 0 0 0 .11-.08c.25-.61.52-1.23.79-1.84a.12.12 0 0 0 .01-.18zm87.62 2.35a.13.13 0 0 0-.14.11c-.09.66-.2 1.32-.32 2a.13.13 0 0 0 .1.15.14.14 0 0 0 .13-.1c.12-.67.23-1.34.32-2a.14.14 0 0 0-.06-.18zm-89.11 1.35a.13.13 0 0 0-.16.07c-.24.63-.47 1.27-.68 1.9a.13.13 0 0 0 .07.16.12.12 0 0 0 .16-.04c.22-.63.45-1.27.68-1.89a.13.13 0 0 0-.07-.2zm88.42 2.59a.13.13 0 0 0-.15.09c-.14.64-.31 1.29-.49 1.95a.13.13 0 0 0 .09.15.12.12 0 0 0 .12-.1c.18-.65.35-1.31.5-2a.13.13 0 0 0-.07-.09zM9 52.71a.12.12 0 0 0-.15.09c-.2.64-.39 1.29-.56 1.93a.13.13 0 0 0 .09.15.14.14 0 0 0 .12-.09c.16-.64.35-1.29.55-1.93a.13.13 0 0 0-.05-.15zm88.67 2.66a.12.12 0 0 0-.16.08c-.21.61-.46 1.24-.73 1.86a.12.12 0 0 0 .07.17.13.13 0 0 0 .11-.08c.27-.63.52-1.26.73-1.88a.13.13 0 0 0 .02-.15zM8 56.59a.13.13 0 0 0-.15.1c-.14.66-.28 1.32-.4 2a.14.14 0 0 0 .1.15.12.12 0 0 0 .12-.1c.12-.65.25-1.31.4-2a.13.13 0 0 0-.07-.15zm88.13 2.47a.15.15 0 0 0-.17.06c-.29.57-.62 1.16-1 1.74A.13.13 0 0 0 95 61h.06a.11.11 0 0 0 .14 0c.36-.59.69-1.18 1-1.76a.13.13 0 0 0-.07-.18zM7.28 60.55a.11.11 0 0 0-.14.1c-.09.68-.16 1.35-.22 2a.12.12 0 0 0 .12.13.12.12 0 0 0 .12-.11c.06-.66.13-1.33.22-2a.12.12 0 0 0-.1-.12zm86.8 2a.12.12 0 0 0-.17 0c-.37.54-.77 1.09-1.17 1.62a.13.13 0 0 0 0 .18h.08a.12.12 0 0 0 .1-.05c.4-.53.8-1.08 1.17-1.63a.12.12 0 0 0-.01-.15zm-87 3v-.89a.13.13 0 1 0-.25 0v2.02a.13.13 0 0 0 .12.12H7a.13.13 0 0 0 .12-.13c-.06-.36-.07-.73-.07-1.1zm84.61.15a.13.13 0 0 0-.18 0c-.41.5-.86 1-1.32 1.51a.13.13 0 0 0 0 .18.11.11 0 0 0 .08 0 .13.13 0 0 0 .09 0c.47-.51.92-1 1.34-1.52a.12.12 0 0 0-.04-.15zm-2.71 3a.13.13 0 0 0-.18 0c-.46.46-1 .93-1.44 1.39a.12.12 0 0 0 0 .17.11.11 0 0 0 .09 0 .16.16 0 0 0 .09 0c.49-.46 1-.93 1.45-1.4a.11.11 0 0 0 .01-.17zm-81.75 0a.12.12 0 0 0-.13-.11.12.12 0 0 0-.1.11c.07.68.16 1.35.27 2a.13.13 0 0 0 .13.1.12.12 0 0 0 .1-.14c-.13-.66-.23-1.31-.3-1.99zM86 71.42a.14.14 0 0 0-.18 0c-.49.42-1 .85-1.54 1.29a.12.12 0 0 0 0 .17.14.14 0 0 0 .1 0 .13.13 0 0 0 .08 0C85 72.46 85.51 72 86 71.6a.13.13 0 0 0 0-.18zM7.91 72.61a.13.13 0 0 0-.16-.09.14.14 0 0 0-.09.15c.18.66.38 1.31.6 1.93a.12.12 0 0 0 .12.09.12.12 0 0 0 .07-.16c-.18-.63-.37-1.27-.54-1.92zm75 1.35a.12.12 0 0 0-.17 0c-.53.4-1.08.8-1.62 1.19a.12.12 0 0 0 0 .17.14.14 0 0 0 .1 0 .12.12 0 0 0 .08 0c.54-.39 1.09-.79 1.62-1.19a.11.11 0 0 0-.04-.13zm-3.26 2.36a.13.13 0 0 0-.17 0l-.11.07c-.28.19-.58.39-.87.57l-.7.46a.12.12 0 0 0 0 .17.11.11 0 0 0 .1.06h.07l1-.67.66-.43a.12.12 0 0 0-.01-.23zm-69.48 1.82a17.48 17.48 0 0 1-.92-1.77.13.13 0 0 0-.17-.06.13.13 0 0 0-.06.17c.28.6.59 1.21.93 1.79a.11.11 0 0 0 .11.06h.06a.13.13 0 0 0 .05-.19zm66 .3a.13.13 0 0 0-.17 0l-.32.19c-.46.28-.93.55-1.42.82a.12.12 0 0 0 0 .17.11.11 0 0 0 .11.06h.06l1.74-1a.12165525.12165525 0 0 0 .04-.24zm-3.5 2a.13.13 0 0 0-.17 0c-.57.31-1.18.62-1.78.92a.11.11 0 0 0-.06.14.14.14 0 0 0 .11.07h.06l.16-.08c.56-.27 1.1-.56 1.63-.84a.13.13 0 0 0 .09-.24zm-60.22 1c-.44-.5-.86-1-1.24-1.56a.13.13 0 0 0-.18 0 .12.12 0 0 0 0 .17c.35.5.74 1 1.14 1.46l.11.13a.15.15 0 0 0 .09 0 .16.16 0 0 0 .09 0 .12.12 0 0 0 0-.14.06184658.06184658 0 0 0 .03-.12zm56.63.84a.12.12 0 0 0-.17-.06c-.58.27-1.17.55-1.83.84a.12.12 0 0 0-.06.16.13.13 0 0 0 .11.08c.66-.29 1.26-.56 1.84-.84a.14150972.14150972 0 0 0 .15-.24zm-53.71 1.86l-.67-.55c-.29-.25-.56-.51-.83-.76a.13.13 0 0 0-.18.18c.32.3.65.6 1 .89.17.15.34.3.52.44a.11.11 0 0 0 .08 0 .13.13 0 0 0 .08-.23zm50.07-.28a.12.12 0 0 0-.16-.07c-.61.25-1.24.51-1.87.75a.14.14 0 0 0-.07.17.13.13 0 0 0 .12.08l1.91-.79a.12.12 0 0 0 .07-.14zm-3.9 1.4l-1.89.67a.12.12 0 0 0-.08.15.12.12 0 0 0 .12.09c.63-.21 1.26-.44 1.89-.67a.12.12 0 0 0 .08-.16.12.12 0 0 0-.12-.08zM18.66 86.4l-.07-.05q-.84-.48-1.62-1a.12.12 0 0 0-.17 0 .13.13 0 0 0 0 .17c.52.35 1.07.7 1.63 1l.08.05h.06a.11.11 0 0 0 .11-.06.12.12 0 0 0-.02-.11zm39.08.15l-.4.13-1.51.46a.12.12 0 0 0-.09.15.13.13 0 0 0 .12.09l1.49-.45.43-.14a.13.13 0 0 0-.08-.24zm-35.46 1.54l-.65-.25c-.41-.16-.8-.34-1.19-.52a.13.13 0 1 0-.11.23c.42.2.86.38 1.3.56l.56.22a.12.12 0 0 0 0-.24zm31.61-.42c-.63.17-1.28.34-1.94.5a.13.13 0 0 0 0 .25l2-.49a.13.13 0 0 0-.07-.25zm-3.9 1L48 89a.12.12 0 0 0-.1.14.13.13 0 0 0 .13.1l1.41-.24.6-.13a.13.13 0 0 0 .1-.15.13.13 0 0 0-.14-.1zm-23.87.61c-.66-.15-1.31-.32-1.94-.5a.12.12 0 0 0-.16.08.13.13 0 0 0 .09.16c.61.17 1.23.34 1.86.49h.15l.05-.07a.14.14 0 0 0-.05-.21zm19.93.14l-2 .29a.12.12 0 0 0-.11.14.14.14 0 0 0 .13.11l2-.3a.12.12 0 0 0 .1-.14.12.12 0 0 0-.12-.15zm-16 .54c-.66-.07-1.33-.17-2-.28a.13.13 0 0 0-.15.1.12.12 0 0 0 .11.14c.65.12 1.32.21 2 .29a.12.12 0 0 0 .12-.11.12.12 0 0 0-.07-.19zm12 0l-2 .18a.12.12 0 0 0-.12.13.13.13 0 0 0 .13.12l2-.18a.14.14 0 0 0 .12-.14.12.12 0 0 0-.11-.17zm-8 .31c-.68 0-1.36-.06-2-.1a.11.11 0 0 0-.14.11.14.14 0 0 0 .12.14c.65 0 1.33.08 2 .1a.13.13 0 0 0 0-.25zm4 0h-2a.12.12 0 0 0-.12.13.12.12 0 0 0 .12.12h2a.12.12 0 0 0 .12-.13.15.15 0 0 0-.1-.2z"/><path fill="#fff" d="M62.34 25.44l6.6 11.43 1.88 3.26 1.1 1.9 7.15 12.38 2.57 4.46 2.58-4.46 11.93-20.67.42-.72 3.26-5.64.9-1.57.08-.13.14-.24zM99.46 27l-1.3 2.26-.17.29-1.88 3.25-.41.72-12.06 20.89-2 3.46-2-3.46L72.49 42l-1.1-1.9-2.45-4.25-5.74-9.91h36.88z"/><path fill="#d1cdd3" d="M68.56 76.42a.71.71 0 0 1-.13.47A7.18 7.18 0 0 1 67 78.58c-.13.11-.26.22-.39.31a3.52 3.52 0 0 1-1 .64c-1 .34-5.43-.24-6.5-.82a.76.76 0 0 1-.17-.13 16.52 16.52 0 0 1-1.88 0c-.36 0-.75 0-1.17-.11a17.33 17.33 0 0 1-3.34-.73 16.56 16.56 0 0 1-1.87-.69 20 20 0 0 1-1.84-.94c-.15-.08-.26-.18-.39-.26.12.92.24 1.83.37 2.73 0 .25.08.5.11.74.11.71.22 1.41.34 2.1A74 74 0 0 0 50.84 89c.06.24.13.48.2.71l-.62.09c0 .23.09.47.13.71.5 2.7.88 6 1.16 9.45-11.71 4.61-22.71 5.7-30.21 1.09a18 18 0 0 1-6.08-6.19l-.78-1.29c0-1.41.11-2.6.16-3.41h-.29c0-1.63.07-3.77.18-6.24v-.31c0-.7.08-1.42.13-2.17 0-.92.1-1.86.16-2.84.09-1.42.19-2.9.3-4.4a24.05 24.05 0 0 1-5.63-2.05 3.79 3.79 0 0 1-2-3.43 2.74 2.74 0 0 1 0-.8c.57-1.89 2.53-7.52 4.75-13.11L10 54s7.19-12.81 11.41-15.63h.05c1.49-1.38 3.64-2.27 6.86-2.63 0-2.67-.19-7.18-.41-10.63a3.54 3.54 0 0 1-2.16-1.83 1.86 1.86 0 0 1-.13-.23 4.37 4.37 0 0 1-.29-.7 2.21 2.21 0 0 1 .42-2.08c-.09-.73-.22-1.93-.27-3.19-.1-2.32 0-4.86 1.08-5.09a.43.43 0 0 0 0-.07 2.55 2.55 0 0 1 .24-1.78l.44.23a2.2 2.2 0 0 0-.24 1.31c.84-.93 3.67-1.23 6.64-1.06h.52c.61 0 1.22.11 1.82.2a5.4 5.4 0 0 1 .58.09l.31.05a17.89 17.89 0 0 1 1.84.41 7.77 7.77 0 0 1 2.35 1 2.41 2.41 0 0 1 .44.38c.5.58.58 1 .36 1.26a1.26 1.26 0 0 1-.62.34 19.7 19.7 0 0 1 .19 2.24l.18.5.15.47.18.14a2.35 2.35 0 0 1 .57.78l-.45.21c.12.51.23 1 .31 1.6.12.83.25 1.66.38 2.47l.12.92c.09.62.17 1.23.22 1.81a4.73 4.73 0 0 1 0 .52c.21 2.64 0 4.83-1.62 5.93a3.44 3.44 0 0 1-1.07.52 6.3 6.3 0 0 1-1.86.27c0 .7.06 1.38.12 2 0 .25.06.5.1.73s.07.48.12.7a11.08 11.08 0 0 1 6 3.19c.06.06.13.12.19.19a11.8 11.8 0 0 1 2.05 3A44.69 44.69 0 0 1 49.33 48c.05.15.1.31.16.46s.11.33.16.5c.28.83.54 1.66.78 2.45.18.59.34 1.16.5 1.7.77 2.71 1.22 4.71 1.22 4.71l-1.22.29-.5.12-.36.09.36 1.43v.16c.16.62.31 1.25.46 1.86.77 3.13 1.42 6 1.71 8a30.23 30.23 0 0 1 2.42 2.85 7.16 7.16 0 0 0 4.4 2.38 12.56 12.56 0 0 1 3.35-1.73l.34-.08h.21c.4-.08.46-.05.7.1a3.32 3.32 0 0 0 .4.27c.78.46 1.6.89 2.31 1.31a4 4 0 0 1 1.77 1.52.42.42 0 0 1 .06.03z"/><path fill="#ffad69" d="M71.53 73.49c-.71-.43-.5-.49-1.31-.34A11.44 11.44 0 0 0 66.53 75c-4.29-.73-5.05-3.77-6.78-5.2-1-6.3-5.8-23.43-5.8-23.43L46.63 49c1.07 7.22 5.34 21 6.45 24a3.23 3.23 0 0 0 .68.91 4.94 4.94 0 0 0 2.08 2.12 18.33 18.33 0 0 0 10.1 2.47.76.76 0 0 0 .17.13c1.07.59 5.48 1.16 6.5.82s3.19-2.51 3-3.11c-.22-.9-2.29-1.78-4.08-2.85z"/><path fill="#ffc84d" d="M47.38 41.69c-2.06 4.63-1.3 19.3-1.3 19.3l13.16-3.14s-6.43-28.37-11.86-16.16z"/><path fill="#232323" d="M58.52 96.88C56.24 98 54 99 51.71 99.92 40 104.57 29 105.66 21.5 101.05c.11-4.33.26-8.84.38-10.89 0-.24 0-.45.05-.62l4-.08h.19L48 89h2.8l6.46-.13c.07.3.14.62.2.94.46 2 .79 4.45 1.06 7.07z"/><path fill="#ffc84d" d="M37.71 35.49c-7.85.25-10.51 2.91-11.86 7.51-1.54 5.21-4.25 36.65-4.25 47.16 0 0 23.51 1.66 36.53-.47-4.09-13.79-4.53-38.59-4.61-46-.06-5.54-5.85-8.53-15.81-8.2z"/><path fill="#fff" d="M38.49 48.49v14.87h12.44V48.49zm11.94 14.37H39V49h11.43z"/><path fill="#232323" d="M44.63 22.63c.77-.58 4.81-.06 3.65-8.27-.43-3-3.24-1-5.24-.6s-.72 9-.72 9z"/><path fill="#ffad69" d="M34.58 20.66c.34 2.18 1 14 .73 16.7s12.95 3.52 11.22.5-.5-13-.5-13z"/><path fill="#d88344" d="M35.5 21L46 24.85a54.56 54.56 0 0 0-.28 9.92c-8-.62-10.1-10.76-10.23-12.72A9.46 9.46 0 0 1 35.5 21z"/><path fill="#ffad69" d="M49.41 20.29c1 6.73 2.63 13.43-5.52 12.33s-9.42-11.56-9.4-13.53c.13-10.52 13-12.03 14.92 1.2z"/><path fill="#232323" d="M48.54 12.78c-1.92-2.23-12.71-3.07-14.5-1.1a2.2 2.2 0 0 1 .21-1.39l-.44-.23a2.55 2.55 0 0 0-.24 1.78.43.43 0 0 1 0 .07c-2 .43-.71 9-.71 9l2.31-.15a20.49 20.49 0 0 0 4-7.15c4.31.72 11.83 2 9.37-.83z"/><path fill="#ffad69" d="M47.39 73.72c-.82 0-4 .61-5.15.34-3.79-.88-13.53-5.25-18.78-7.69 3.23-7 8-19.41 8-19.41L24 44.77c-3.46 6.42-8.25 20-9.21 23.13a3.16 3.16 0 0 0 0 .8 3.82 3.82 0 0 0 2 3.43c4.15 2.53 19.81 5 24.15 5.46a.89.89 0 0 0 .36.41c1.06.59 5.89 1 6.88 1.22 1.25.22 5 .54 4.86 0-.3-.8-1.71-5.72-5.65-5.5z"/><path fill="#ffc84d" d="M28.46 38.32C24.24 41.14 17.05 54 17.05 54l12.81 4.37s9.71-27.47-1.4-20.05z"/><path fill="#232323" d="M42.54 20a.54.54 0 0 0 .4.62c.24 0 .46-.23.49-.55a.53.53 0 0 0-.4-.63c-.24-.06-.46.19-.49.56zM47.74 20.09a.53.53 0 0 0 .39.63c.25 0 .47-.23.5-.55a.55.55 0 0 0-.4-.63c-.23-.02-.47.23-.49.55zM41.26 18.12l-.41-.28a2.34 2.34 0 0 1 2.43-1l-.11.48a1.89 1.89 0 0 0-1.91.8zM49.13 18.74a1.85 1.85 0 0 0-1.77-1.08v-.5a2.34 2.34 0 0 1 2.25 1.37zM44.21 26.15a3.94 3.94 0 0 1-3.48-1.92l.43-.26a3.47 3.47 0 0 0 3.51 1.65l.09.49a3.55 3.55 0 0 1-.55.04z"/><path fill="#d88344" d="M48.06 23.87l-2.43-.03v-.5l1.76.02-1.09-3.68.48-.15 1.28 4.34z"/><path fill="#ffad69" d="M36.56 21.52c.73 1.66 1.66 3.26-.66 3.56s-3.39-2.3-3.52-2.81c-.7-2.71 2.73-4.02 4.18-.75z"/><path fill="#fff" d="M99.18 81.42H3.49A1.43 1.43 0 0 1 2.07 80a1.43 1.43 0 0 1 1.42-1.42h95.69A1.43 1.43 0 0 1 100.6 80a1.43 1.43 0 0 1-1.42 1.42z"/><path fill="#d8d5db" d="M38.9 81.42H2.78A1.43 1.43 0 0 1 1.36 80a1.43 1.43 0 0 1 1.42-1.42H38.9A1.43 1.43 0 0 1 40.32 80a1.43 1.43 0 0 1-1.42 1.42z"/><path fill="#2b2b2b" d="M94.49 76.32H64.81a1.67 1.67 0 0 1-1.68-2l3.24-17.8a2.58 2.58 0 0 1 2.43-2.06h29.68a1.67 1.67 0 0 1 1.68 2.06l-3.24 17.8a2.58 2.58 0 0 1-2.43 2z"/><path fill="#232323" d="M95.22 76.32H65.54a1.66 1.66 0 0 1-1.68-2l3.23-17.8a2.58 2.58 0 0 1 2.43-2.06H99.2a1.66 1.66 0 0 1 1.68 2.06l-3.23 17.8a2.59 2.59 0 0 1-2.43 2z"/><path fill="#fff" d="M79 61.27l-1.49 8.2h8.2l1.5-8.2zm6.3 7.7h-7.18l1.31-7.2h7.19z"/><path fill="#232323" d="M59.61 76.89a1.69 1.69 0 0 0 1.68 1.69h31.05A1.69 1.69 0 0 0 94 76.89z"/><path fill="#2b2b2b" d="M50.58 76.89a1.69 1.69 0 0 0 1.69 1.69h12.21a1.69 1.69 0 0 0 1.69-1.69z"/><path fill="#377adb" d="M84.69 21.65a1.9 1.9 0 0 0-1.9 1.9h3.8a1.9 1.9 0 0 0-1.9-1.9z"/><path fill="#4d8dff" d="M84.69 21.65v18.48A1.9 1.9 0 0 1 82.78 42H68.94V23.55a1.91 1.91 0 0 1 1.9-1.9z"/><path fill="#6ea9ff" d="M80.89 40.13H67a1.9 1.9 0 0 0 1.9 1.9h13.88a1.89 1.89 0 0 1-1.89-1.9z"/><path fill="#fff" d="M71.01 24.25h11.61v.5H71.01zM71.01 26.14h11.61v.5H71.01zM71.01 28.04h11.61v.5H71.01zM71.01 29.93h11.61v.5H71.01zM71.01 31.83h11.61v.5H71.01zM71.01 33.72h11.61v.5H71.01zM71.01 35.61h11.61v.5H71.01zM71.01 37.51h11.61v.5H71.01z"/><circle cx="99.24" cy="26.78" r="6.79" fill="#ffc84d"/><path fill="#232323" d="M99.24 26.78l5.39 5.39a7.62 7.62 0 0 1-13-4.73z"/><path fill="#fff" d="M99.24 26.78l-7.58.88a7.61 7.61 0 0 1 .14-2.56 7.8 7.8 0 0 1 1-2.37z"/><rect width="8.45" height="8.45" x="58.91" y="8.51" fill="#232323" rx="1.35"/><rect width="8.45" height="8.45" x="57.23" y="10.19" fill="#ff4e4a" rx="1.35"/></svg>