<svg xmlns="http://www.w3.org/2000/svg" version="1" viewBox="0 0 675 845"><path fill="#d0e1f2" d="M491 29c0-2 3-2 5-2l21 1 16 1-1 29h-16c-3 5-3 10-6 14-2-4-2-9-5-13l-14-2V29m12 15c2 4 5 6 8 9l9-8c1-4-1-9-5-10l-4 4c-2-2-3-5-6-4-4 1-4 6-2 9z"/><path fill="#fc6f5a" d="M503 44c-2-3-2-8 2-9 3-1 4 2 6 4l4-4c4 1 6 6 5 10l-9 8c-3-3-6-5-8-9z"/><g fill="#e8eef5"><path d="M168 38h13c14 0 29-1 43 1l26 1v12l-1 42h-11l5-4c1-3 0-6-2-7-5-4-11-6-17-8v-3c4-5 6-11 3-17-2-4-7-6-11-4-3 2-4 5-6 8-2-3-3-7-6-9-4-1-8 2-11 5-2 5-1 10 0 14l-8 5c-1-3-3-6-6-8l-4 3-6-1-1 3h-1c-1-7 1-15 1-23V38zM570 50h10c13 2 25 0 38 1l33 1c8 1 16 0 24 2v51l-2 8-3-13-6 4-18-6-13-2-1-8 8-2 2-4-10-1-2-9h-4v10h-10l-3-11c-4 2-4 7-4 10l-7 1v5h9l1 12h-9c-7 0-12-4-17-8l-17-8-3 12c-1-12 1-25 1-37 0-3 0-6 3-8zM586 355c0-3-1-7 3-8h25c17 2 34 0 51 2v21c0 6 1 13-1 19-3-5-10-4-15-4l-40-1c-7-5-13-10-21-13l-2 14c-2-10 0-20 0-30m10 13l-1 3c7 2 15 1 22 2l37 1v-4l-58-2zM31 396c17-2 35 0 52-2 3 0 6 0 8 2a408 408 0 0 1 1 40l-2-12c-8 1-14 7-21 11 1-5 3-11 1-16 0-5-3-9-7-10-5-2-10 0-13 4l-4 10c-3-5-5-12-11-13-5 0-10 4-12 8-4 5-3 12-1 17-4 2-9 5-14 5-3 1-5-1-8-2v-42h31z"/></g><g fill="#fe6d57"><path d="M193 55c3-3 7-6 11-5 3 2 4 6 6 9 2-3 3-6 6-8 4-2 9 0 11 4 3 6 1 12-3 17l-16 12c-5-5-11-9-15-15-1-4-2-9 0-14zM50 413c3-4 8-6 13-4 4 1 7 5 7 10 2 5 0 11-1 16l-23 22-15-11c-4-3-7-7-9-11-2-5-3-12 1-17 2-4 7-8 12-8 6 1 8 8 11 13l4-10z"/></g><g fill="#dae3ec"><path d="M175 69l4-3c3 2 5 5 6 8l8-5c4 6 10 10 15 15l16-12v3c6 2 12 4 17 8 2 1 3 4 2 7l-5 4h-20c-3 1-4 4-5 6l-5 17c-4-6-4-14-7-21 0-3-3-3-5-3l-24-1c-2-1-5-2-4-4V71l1-3 6 1zM569 83l17 8c5 4 10 8 17 8l-1 4 10 2c1 4 0 10 5 13l1-13h11c1 4 0 10 5 12v-12l9-1v-4l-9-1-1-3 13 2 18 6 6-4 3 13-1 22-11 1h-25c-4 0-8 0-11 2-12 7-23 17-37 22l17-24c-10-2-21-1-31-2-3-1-6-1-7-4l-1-11V95l3-12zM588 371c8 3 14 8 21 13-4 0-11-2-15 3 10 2 19 1 28 1l32 1v-3l-5-1c5 0 12-1 15 4l-2 21h-29c-5 0-9 4-13 7-6 3-11 8-18 10l12-18-23-1c-2 0-5-1-5-4v-19l2-14zM69 435c7-4 13-10 21-11l3 12c0 10 1 19-1 29 0 2-3 2-5 3l-28 1 14 22c-12-4-21-13-31-19-4-2-7-2-11-2l-31-1v-31c3 1 5 3 8 2 5 0 10-3 14-5 2 4 5 8 9 11l15 11 23-22z"/></g><path fill="#7cabfb" d="M609 81c0-3 0-8 4-10l3 11h10V72h4l2 9 10 1-2 4-8 2a118 118 0 0 0 2 11l9 1v4l-9 1v12c-5-2-4-8-5-12h-11l-1 13c-5-3-4-9-5-13l-10-2 1-4h9l-1-12h-9v-5l7-1m7 6l1 12h11l-1-12h-11z"/><path fill="#e3ebf2" d="M616 87h11l1 12h-11l-1-12z"/><path fill="#3f9cf9" d="M128 139h410v26c-4 0-7-1-11-3l1-4c-2 1-6 1-7 4-2 2-2 5-3 8l-4-9c-1-3-5-3-7-2l-7 5c-2 2-5 4-6 7l-6-3-3 5v-16H373l-77 1H147l-1 14c-3-4-4-9-8-12-4 0-7 2-10 3v-24z"/><path fill="#edf4fb" d="M296 158l77-1h112v16l-22 1H152c-2-1-5 0-6-2l1-14h149z"/><path fill="#ebf4fa" d="M507 159c2-1 6-1 7 2l4 9 3 5-7-3h-9c-3-2-3-5-5-8l7-5m1 2c-3 1-4 4-3 7 2 3 7 1 7-3 1-2-2-4-4-4z"/><path fill="#2e8ae8" d="M521 162c1-3 5-3 7-4l-1 4c4 2 7 3 11 3v24H128v-26c3-1 6-3 10-3 4 3 5 8 8 12 1 2 4 1 6 2h311l22-1 3-5 6 3c1-3 4-5 6-7 2 3 2 6 5 8h9l7 3-3-5c1-3 1-6 3-8z"/><path fill="#3994f2" d="M508 161c2 0 5 2 4 4 0 4-5 6-7 3-1-3 0-6 3-7z"/><path fill="#f3f6f9" d="M127 189h411v29H420l-23 1c-2 1-2 4-3 6l-1 43v32c0 7-1 14 1 21 0 2 2 3 3 3l12 1-13 13c-7 3-13 10-20 14v-29c0-2-1-4-3-4-8-3-16-2-24-2-10 0-19-1-29 1-3-8-6-15-11-21-3-6-9-10-14-14h81v-6l-102 1h-79c-7 0-14-1-21 1l2 3 7 1h85l12 1c-8 3-15 9-22 15l-19 20-13-1h-53c-2 0-3 3-4 5v23c0 8-1 16 3 24-14 10-28 23-31 41-2 8 0 16 6 21l1 6-4 8c-3 5-4 11-8 15-2 4-6 7-6 11v19c1 11 2 23 6 34l9 5c9 1 18 0 27 2l24 8c3 0 7 1 9 4-11 0-23-1-35 1v4h96l1 4-1 10-1 4h-93v5h93l-1 19h-82l-12 1v4h94l-1 18h-44l-31-1-20 1c-2 0-2 3-2 4 1 3 1 6 4 6 6 2 13 4 20 4 6 0 11 2 16 5l8 6 8 1 2 3c-17-2-34-3-50 0-3 0-7-1-8-5l-3-24c-1-3-4-3-6-2l-14 3c-4-1-6 3-8 6l-4-3c-2 12-2 24-2 36 0 9 1 19-1 28v-50l1-31v-32-109-158c0-9 1-18-1-26l20 1c2-8 1-17 1-25 0-17 2-33 1-50l-23-1v-12m48 45v5h195l7-1c-1-2-2-5-5-5H219l-44 1m30 21h-24l-7 1v3c7 2 15 1 22 1h179c0-2 2-4 0-5l-6-1H248l-43 1z"/><g fill="#d5e4f5"><path d="M47 201c0-2 3-2 5-2l28 1h32l15 1 23 1c1 17-1 33-1 50 0 8 1 17-1 25l-20-1h-1l-18-1 7-3c-1-3-4-4-7-5l-3-3c3-4 4-10 4-15l12-1v-4l-11-1 1-13 10-1v-4l-9-2c0-4 1-10-4-11l-2 12H95l-1-13c-5 3-5 8-5 12l-11 1v4l10 2-1 13c-4 0-8 0-11 2-1 1-3 3-4 2-6-3-9-8-15-10-4 0-7 2-10 4-2-6 0-13 0-19v-21z"/><path d="M94 229l12 1-1 13H93l1-14z"/></g><path fill="#7dabfb" d="M89 223c0-4 0-9 5-12l1 13h12l2-12c5 1 4 7 4 11l9 2v4l-10 1-1 13 11 1v4l-12 1c0 5-1 11-4 15-4-4-2-10-2-15H92l-2 11c0 2-4 3-4 1v-11c-4-1-9 0-10-5 3-2 7-2 11-2l1-13-10-2v-4l11-1m5 6l-1 14h12l1-13-12-1z"/><path fill="#c2d9f2" d="M397 219l23-1h137c3 0 6 0 8 3l1 6v69c-1-7-3-15-2-23 0-8 2-17-4-23-2-2-5-2-8-1-3 0-5 3-7 4-1-1-3-3-5-3l-25 1h-39c-7-4-15-2-22-5l-16-5-14-5c-1-2-1-4-3-5l-7-1c-3-4-7-8-12-9l-8 4c1-2 1-5 3-6z"/><path fill="#bed5ef" d="M394 225l8-4c5 1 9 5 12 9l7 1c2 1 2 3 3 5l14 5 16 5c7 3 15 1 22 5h-49c-4 0-9 0-13 2l2 3h84a722 722 0 0 1 45-3c2-1 4-4 7-4 3-1 6-1 8 1 6 6 4 15 4 23-1 8 1 16 2 23l-1 27c0-7 0-14-3-20-1-4-6-3-9-4l-1-5-7 4-8-4-1 6-14 2-12 1 4 11c-3-2-7-4-10-3l-8-5-11-1-13-3-13-2-3 1-11-2 2-4c9 0 19 1 28-1l1-4h-27l8-14h76l11-1-1-4h-27l-57 1c1-3 1-7-1-10h-5c-4 3-6 7-8 10-11 0-22-2-33 1 2 2 3 4 5 4l26-1-10 16-13-1-7-10c-3-2-6-3-8-6-2-2-5-4-8-4l-3 23v27c-2-7-1-14-1-21v-32l1-43z"/><g fill="#c4cfde"><path d="M175 234l44-1h153c3 0 4 3 5 5l-7 1H175v-5zM205 255l43-1h121l6 1c2 1 0 3 0 5H196c-7 0-15 1-22-1v-3l7-1h24zM274 278l102-1v6h-81l-15 1-12-1h-85l-7-1-2-3c7-2 14-1 21-1h79z"/></g><path fill="#c7daec" d="M47 241c3-2 6-4 10-4 6 2 9 7 15 10 1 1 3-1 4-2 1 5 6 4 10 5v11c0 2 4 1 4-1l2-11h12c0 5-2 11 2 15l3 3c3 1 6 2 7 5l-7 3c-3 9-6 18-11 26l-7-27H69c-8-1-15 0-23-2-1-10 1-21 1-31z"/><g fill="#fefefe"><path d="M515 251l25-1c2 0 4 2 5 3-3 2-6 2-9 2l-36 1h-84l-2-3c4-2 9-2 13-2h88zM412 273c11-3 22-1 33-1l-2 4-26 1c-2 0-3-2-5-4zM447 295l2-5h27l-1 4c-9 2-19 1-28 1zM173 318h53l13 1c-20 20-44 36-67 51-4-8-3-16-3-24v-23c1-2 2-5 4-5zM320 318c10-2 19-1 29-1 8 0 16-1 24 2 2 0 3 2 3 4v29c-10 7-22 11-34 15l-17 4c-8-2-17-5-22-13 6-2 13-5 16-12 4-9 4-19 1-28zM307 596h13c5 32 13 63 18 94-10 3-20 6-31 4-5 0-9-2-12-6l4-33 8-59zM368 615l26 1h58l40 1c2 0 6 0 6 2l1 12v28l-1 14v25c-2 6-3 13-3 20-4 0-8 1-11-1-5-1-9-5-14-8l-3 5-5-6-5 3-2-8-3 7-16-10-12-6c-3-2-6-2-9-2-13-3-26-7-39-6l-8-71z"/></g><path fill="#d4855a" d="M453 262h5c2 3 2 7 1 10l-2 4-8 14-2 5-2 4-14 25-19 26-16-12 13-13a227 227 0 0 0 24-33l10-16 2-4c2-3 4-7 8-10z"/><path fill="#b0cbe9" d="M397 271c3 0 6 2 8 4 2 3 5 4 8 6l7 10h-5l-1 4 16 1c-6 10-13 20-21 29l-12-1c-1 0-3-1-3-3v-27l3-23z"/><path fill="#fdfefe" d="M459 272l57-1h27l1 4-11 1h-76l2-4z"/><path fill="#f5fafe" d="M127 276h1c2 8 1 17 1 26a138724 138724 0 0 1 0 203v96l-1 31v50l-1 26c0 7-1 14 1 20 6 2 12 1 17 0h116l1 40c-1 4 0 7 1 11v19c-1 3-3 6-1 9 1 2 2 2 4 2 9 1 19-1 27-5 5-1 10-3 14-6 2-2 2-5 2-8-6-1-13 0-19 1-4-1-7-2-9-6v-5l4-24 4-28h43l15 1c4 14 5 28 7 43h5c1 6 3 12 3 19l1 9c8 0 15-3 22-5 7-3 14-6 20-11 3-1 4-4 4-8-6 0-13-2-19 2-3 0-6 0-9-2-2-1-2-3-3-5l4-1-2-41h58l28-1c-13-17-33-26-51-36 3 0 6 0 9 2l12 6 16 10 3-7 2 8 5-3 5 6 3-5c5 3 9 7 14 8 3 2 7 1 11 1 0-7 1-14 3-20l-1 24c0 2 0 4 2 5 4 2 9 1 14 1l26-1v-19-39-53l-1-43V430v-89l1-17h1c1 7-1 15-1 22v88c2 16 1 33 1 49 0 13 1 25-1 38v21l1 40v125l10 1c12 0 24 2 35 6 7 2 14 7 18 14 4 6 1 14-5 17-12 10-28 12-44 15l-45 8-32 5-9 2c7 6 16 8 21 15 2 2 4 5 4 9-1 4-4 8-8 10-8 7-19 10-29 13-23 6-47 9-70 11l-37 3h-55c-24-2-49-4-73-10-8-3-16-5-21-12-3-3-3-8 0-11 3-4 6-6 10-8l32-17c2-2 5-3 6-6s-3-5-5-6c-11-5-24-5-36-6-12-2-23 0-35-2-26 0-51-3-76-6-14-2-28-2-42-5-7-1-14-4-20-8-3-3-4-8-2-12 1-3 4-5 7-6 8-4 18-5 27-7l37-7 23-2 1-24v-43-94-82-186z"/><g fill="#00093b"><path d="M280 284l15-1c5 4 11 8 14 14l-12-6-1 27-8 37-8 26c-6 11-13 22-25 27-9 5-20 3-30 5-19 1-36 12-54 19-8 3-17 5-24 0-6-5-8-13-6-21 3-18 17-31 31-41 23-15 47-31 67-51l19-20c7-6 14-12 22-15zM271 514l4-8c17 5 35 4 52 4l24-3a208 208 0 0 1 4 21 538 538 0 0 0 8 46l2 15 2 11 1 15 8 71 4 43 2 41-4 1-19 1h-5c-2-15-3-29-7-43l-9-39c-5-31-13-62-18-94l-1-6c-1-7-5-13-10-18l-1 19-1 5-8 59-4 33a1558 1558 0 0 1-10 68l-4 24c-6 1-12 0-18-1-1-4-2-7-1-11l-1-40v-27l1-44 1-43 1-18v-5l1-19 1-9 1-10v-9c1-1 3-2 3-4 2-9 1-17 1-26zM390 778c6-4 13-2 19-2 0 4-1 7-4 8-6 5-13 8-20 11-7 2-14 5-22 5l-1-9 15-4 14-5-1-4zM290 791c6-1 13-2 19-1 0 3 0 6-2 8-4 3-9 5-14 6-8 4-18 6-27 5-2 0-3 0-4-2-2-3 0-6 1-9 9 0 19-1 28-5l-1-2z"/></g><g fill="#db8c60"><path d="M297 291l12 6c5 6 8 13 11 21 3 9 3 19-1 28-3 7-10 10-16 12l-15-3 8-37 1-27zM322 490l30-1-1 18-24 3c-17 0-35 1-52-4l-2-10v-4l19-1 30-1zM359 772l19-1c1 2 1 4 3 5 3 2 6 2 9 2l1 4-14 5-15 4c0-7-2-13-3-19zM263 779c6 1 12 2 18 1v5c2 4 5 5 9 6l1 2c-9 4-19 5-28 5v-19z"/></g><path fill="#fdfdfe" d="M415 291h5l13 1-3 4-16-1 1-4z"/><path fill="#b5cfeb" d="M537 294l8 4 7-4 1 5c3 1 8 0 9 4 3 6 3 13 3 20v1H431l14-25 11 2 3-1 13 2 13 3 11 1 8 5c3-1 7 1 10 3l-4-11 12-1 14-2 1-6z"/><path fill="#f1f4f7" d="M412 350l19-26h108l-1 17v232l1 43v92c-3-22-2-44-2-66l-1-23c0-3 1-7-2-8-5 0-9 2-12 4l3 1c-4 5-11 8-15 13-2 4 1 8 2 12l-5 6c-2 2-1 5-2 8 0 5-3 10-4 15-1 9-1 18-3 26v-23l1-14v-28l-1-12c0-2-4-2-6-2l-40-1h-58l-26-1-1-15v-4h41l9-1c-1-1-1-4-4-4l-9-1h-27c-4 1-8 0-12-1l-2-15v-2h138v-5H361l-3-18h136l7-2c-2-2-5-4-8-3H357l-2-16h127l19-1v-3c-7-2-15-1-23-1H354l-3-16a120 120 0 0 1 1-19v7l18-1c2 0 4 0 4-2 2-12 0-24 2-35v-40l-1-11 3-6 33-41c2-2 2-6 1-9m-14 36l-1 4c6 2 13 1 20 1h90v-3l-10-2h-99m1 28v4c6 2 12 0 18 1l66-1h19c1 0 4-1 3-3-2-2-5-1-8-1h-98m51 27l-39 1-13 1v3c11 2 22 0 33 0l49-1 23-1v-4l-53 1m33 27l-21 1h-62l-1 3 7 2 39-1h52l4-1c0-2-1-4-3-4h-15z"/><path fill="#febf60" d="M376 352c7-4 13-11 20-14l16 12c1 3 1 7-1 9l-33 41-1-13-8 3-10 1-4 8c-4 0-7 1-11 3l-1 4c-2 3-5 4-6 7-3 8-2 16-4 23h-7l-2 7c1 3 3 5 3 8l-6-6c-3-1-4 3-5 4-3 0-7-1-9 1s-2 4-3 7c-3-1-6-1-8-3-4-2-6-7-11-8l-11-6c-3-1-8 0-9 3l-8 11-8-22-1-11-5-5c-3 5-7 9-11 12-3 4-5 8-9 11-4 1-9-2-14 0l-16 8c4-6 8-12 14-16l18-18c10-2 21 0 30-5 12-5 19-16 25-27a1879 1879 0 0 0 62-14c12-4 24-8 34-15z"/><path fill="#d28257" d="M288 355l15 3c5 8 14 11 22 13l-45 10 8-26z"/><path fill="#a3bacc" d="M596 368l58 2v4l-37-1c-7-1-15 0-22-2l1-3z"/><path fill="#a5bbcd" d="M594 387c4-5 11-3 15-3l40 1 5 1v3l-32-1c-9 0-18 1-28-1z"/><g fill="#c3cfdf"><path d="M398 386h99l10 2v3h-90c-7 0-14 1-20-1l1-4zM365 589c4 1 8 2 12 1h27l9 1c3 0 3 3 4 4l-9 1h-41v4l-2-11zM319 590l1 6h-13l1-5 11-1zM170 592l12-1h82v5h-94v-4z"/></g><path fill="#fdb857" d="M369 390l8-3 1 13-3 6c-7 13-11 27-15 41a238 238 0 0 0-8 42l-30 1-30 1-19 1c-9-11-12-25-16-38l8-11c1-3 6-4 9-3l11 6c5 1 7 6 11 8 2 2 5 2 8 3 1-3 1-5 3-7s6-1 9-1c1-1 2-5 5-4l6 6c0-3-2-5-3-8l2-7h7c2-7 1-15 4-23 1-3 4-4 6-7l1-4c4-2 7-3 11-3l4-8 10-1z"/><path fill="#f8f9f9" d="M360 447c4-14 8-28 15-41l1 11v40c-2 11 0 23-2 35 0 2-2 2-4 2l-18 1v-7c1-14 4-28 8-41z"/><path fill="#fafbfb" d="M171 432c18-7 35-18 54-19l-18 18c-6 4-10 10-14 16-2 3-4 7-2 11 3 7 9 10 15 14l24 22-20 1h-28l-9-1c-2-4-1-9-1-14l-1-27v-21z"/><g fill="#c1cdde"><path d="M399 414h98c3 0 6-1 8 1 1 2-2 3-3 3h-19l-66 1c-6-1-12 1-18-1v-4zM354 523h124c8 0 16-1 23 1v3l-19 1H355l-1-5z"/></g><path fill="#fbb753" d="M232 428c4-3 8-7 11-12l5 5 1 11c-8 6-13 14-19 22l-3 5c0 4 3 6 6 8 4 5 9 9 11 14l-12 13h-2l-24-22c-6-4-12-7-15-14-2-4 0-8 2-11l16-8c5-2 10 1 14 0 4-3 6-7 9-11z"/><path fill="#eef2f6" d="M147 432c7 5 16 3 24 0v21l1 27c0 5-1 10 1 14l9 1h28l20-1h2l2 2c-8 2-16 1-24 1h-27l-10-1c-3-1-3-4-3-7 0-9 1-18-1-27-5 1-11 4-12 10-1 8-4 16-4 25-1 6 4 12 9 15 6 3 13 0 20-1 8-1 16 2 24 1l22-2 19-1 14 13-15 1h-65l-10 1v3c8 2 17 1 25 1h68c1 5 1 11 3 16h-62c-2-3-6-4-9-4l-24-8c-9-2-18-1-27-2l-9-5c-4-11-5-23-6-34v-19c0-4 4-7 6-11 4-4 5-10 8-15l4-8-1-6z"/><path fill="#fbfbfb" d="M249 432l8 22c4 13 7 27 16 38v4h-17l-12-15c-2-5-7-9-11-14-3-2-6-4-6-8l3-5c6-8 11-16 19-22z"/><path fill="#c3cedf" d="M450 441l53-1v4l-23 1-49 1c-11 0-22 2-33 0v-3l13-1 39-1z"/><path fill="#e5ebf4" d="M157 472c1-6 7-9 12-10 2 9 1 18 1 27 0 3 0 6 3 7l10 1h27c8 0 16 1 24-1l13 13-19 1-22 2c-8 1-16-2-24-1-7 1-14 4-20 1-5-3-10-9-9-15 0-9 3-17 4-25z"/><path fill="#c2cede" d="M483 468h15c2 0 3 2 3 4l-4 1h-52l-39 1-7-2 1-3h62l21-1z"/><path fill="#d38459" d="M232 494l12-13 12 15c4 7 10 12 15 18 0 9 1 17-1 26 0 2-2 3-3 4-2-5-2-11-3-16l-3-6-14-13-13-13-2-2z"/><path fill="#e6ecf4" d="M256 496h17l2 10-4 8c-5-6-11-11-15-18z"/><path fill="#c2cedf" d="M261 522l3 6h-68c-8 0-17 1-25-1v-3l10-1h65l15-1z"/><g fill="#c3cdde"><path d="M170 545c12-2 24-1 35-1h62v9l-1-4h-96v-4zM357 544h136c3-1 6 1 8 3l-7 2H358l-1-5z"/></g><g fill="#c2cdde"><path d="M265 567l1-4-1 9h-93v-5h93zM361 567h140v5H363v2l-2-7z"/></g><path fill="#f2f5f8" d="M309 572c5 5 9 11 10 18l-11 1 1-19z"/><path fill="#edf1f5" d="M157 612c2-1 5-1 6 2l3 24c1 4 5 5 8 5l-8 3-1 7h-6l-3 6-7 7-6 12c-3 3-9 2-12 6-2 5-2 10-2 15v28l16 1c-5 1-11 2-17 0-2-6-1-13-1-20l1-26c2-9 1-19 1-28 0-12 0-24 2-36l4 3c2-3 4-7 8-6l14-3z"/><path fill="#eaeff3" d="M522 615c3-2 7-4 12-4 3 1 2 5 2 8l1 23c0 22-1 44 2 66v19l-26 1c-5 0-10 1-14-1-2-1-2-3-2-5l1-24v-2c2-8 2-17 3-26 1-5 4-10 4-15 1-3 0-6 2-8l5-6c-1-4-4-8-2-12 4-5 11-8 15-13l-3-1z"/><path fill="#fdfdfd" d="M168 614l20-1 31 1h44l-1 43-1 2c-7-4-14-9-21-11l-16-5-2-3-8-1-8-6c-5-3-10-5-16-5-7 0-14-2-20-4-3 0-3-3-4-6 0-1 0-4 2-4z"/><path fill="#b5cbe1" d="M174 643a153 153 0 0 1 66 5c7 2 14 7 21 11l1-2-1 44-14-5-10-10c-5-3-8-7-12-11-4-5-10-8-16-12-4-3-9-3-13-4-6-1-13-3-19-2l-9 4c1 4 1 8-2 11l-1-19 1-7 8-3z"/><path fill="#e3eaf3" d="M159 653h6l1 19-1 30c1 8-1 16 1 24l1 2h-22l-16-1v-28c0-5 0-10 2-15 3-4 9-3 12-6l6-12 7-7 3-6z"/><path fill="#acc4dd" d="M168 661l9-4c6-1 13 1 19 2 4 1 9 1 13 4 6 4 12 7 16 12 4 4 7 8 12 11l10 10 14 5v27h-20c1-2 2-4 1-7-3-5-10-7-15-10l-9-10c-3-2-8-3-11-6-4-5-11-7-16-11h-14l-10-2-1 25v19c-2-8 0-16-1-24l1-30c3-3 3-7 2-11z"/><path fill="#a2bcda" d="M167 682l10 2h14c5 4 12 6 16 11 3 3 8 4 11 6l9 10c5 3 12 5 15 10 1 3 0 5-1 7h-74l-1-2v-19l1-25z"/><path fill="#b3c9e0" d="M376 686c13-1 26 3 39 6 18 10 38 19 51 36l-28 1h-58l-4-43z"/><path fill="#b0c7df" d="M289 728l6-40c3 4 7 6 12 6 11 2 21-1 31-4l9 39-15-1h-43z"/></svg>