<svg xmlns="http://www.w3.org/2000/svg" version="1" viewBox="0 0 1088 214"><path fill="#f7965b" d="M105 16a96 96 0 1 1 24 191 96 96 0 0 1-24-191m2 18a78 78 0 0 0-31 143A78 78 0 0 0 186 75a78 78 0 0 0-79-41z"/><path d="M313 54h25v121h-18c-4-1-4-7-5-10-7 7-16 12-26 12-8 0-16-4-21-10-8-10-10-22-10-34 0-13 4-27 14-36 11-9 30-11 41-1V54m-24 59c-4 6-5 13-5 20 0 6 0 11 3 17 1 3 4 6 7 7 7 1 15-2 19-8v-35c-6-7-18-8-24-1zM594 54h26v46c6-6 15-10 24-10 9-1 18 4 23 11 6 10 8 22 8 33 0 12-4 25-13 34-8 7-20 10-30 8-6-1-10-5-14-9 0 3 0 7-4 8h-20V54m35 56c-3 1-7 4-9 7v36c6 6 19 7 24-1 5-7 5-16 5-25-1-6-2-13-7-16-4-3-8-3-13-1zM681 54h26v121h-26V54zM873 70c1-2 3-4 5-3h14v24h20v17h-20v42c0 3 1 6 4 7l8-2c2 0 3 2 4 3l7 11c-9 6-20 8-30 7-6-1-11-4-14-9-4-5-5-11-5-16l1-43h-9l-4-5c-2 4-4 11-10 10l-14-5c-3 0-8 0-11 2-2 2-2 7 0 9l12 5c8 2 15 5 21 10 5 6 5 16 3 23-3 10-12 16-22 18-14 3-31 0-42-9l6-11c3-3 8-3 12 0 5 3 12 5 19 3 4-1 6-6 4-9-3-4-8-5-12-6-7-2-15-5-21-10-6-7-7-17-4-25 3-9 11-15 20-17 14-3 29-1 40 9v-7l13-2 5-21zM354 103c6-7 15-11 24-13 11-1 24 0 33 8 10 9 14 23 12 36 0 2-2 4-4 4h-50c1 5 3 11 7 15 5 4 12 5 18 4l13-5c3-2 6-2 8 0l8 10c-9 10-22 14-35 14-11 0-22-3-31-10-8-8-12-19-13-30-1-12 2-24 10-33m25 5c-6 3-8 9-9 15h31c0-4-1-9-4-12-5-4-12-5-18-3z"/><path d="M435 103c7-9 19-13 30-13 10 0 21 3 28 11 8 7 11 18 11 29 0 3-1 7-4 8h-51c1 6 3 12 8 16 8 5 18 4 26 0 3-2 8-5 11-2l9 10c-9 10-22 14-35 14-11 0-23-3-31-11-8-7-12-18-13-29-1-12 2-25 11-33m24 6c-6 2-8 8-9 14h31c0-4-1-9-4-12-5-5-12-5-18-2zM533 102c7-7 16-12 26-12 8-1 17 4 22 10 5 8 8 17 9 26 1 11-1 23-6 33-5 8-12 15-21 17s-20 1-28-5v31h-26V92h19c4 2 4 7 5 10m2 16v35c5 6 15 7 22 3 5-5 6-12 7-18 0-8 0-16-4-23-2-5-8-6-13-5s-9 4-12 8zM718 102c11-9 26-14 41-13 8 1 16 4 21 10s8 14 8 22v54l-15-1c-4 0-5-5-7-9-5 5-11 9-19 11-8 1-17 0-24-5-11-8-11-27 0-35 12-8 27-10 41-10 0-6 0-13-6-16s-13-1-19 2c-4 2-9 4-13 2-4-3-5-8-8-12m24 44c-5 2-4 10 1 12 7 2 16 0 21-6v-11c-8 0-16 1-22 5zM922 104c6-7 15-12 24-14 11-1 23 0 32 8 10 7 14 19 14 31 0 3 0 8-4 9h-51c1 6 3 12 8 16 8 5 18 4 26 0 3-2 8-5 12-2l8 10c-9 10-22 14-35 14-11 0-22-3-31-10-8-8-12-19-13-30s2-23 10-32m26 4c-7 3-9 9-10 15h31c0-4-1-9-4-12-5-4-12-5-17-3zM1038 91c5-2 11-1 16 1l-4 21c-3 2-7 0-11 0-7 0-13 5-16 11v51h-26V91h17c3 0 5 2 6 4l1 9c5-6 10-11 17-13z"/><g fill="#fec956"><path d="M83 75c8-3 18 2 20 10s-5 17-13 17c-7 1-14-5-15-12-1-6 3-12 8-15zM143 81a22 22 0 1 1 8 43 22 22 0 0 1-8-43z"/></g></svg>