<svg xmlns="http://www.w3.org/2000/svg" xmlns:xlink="http://www.w3.org/1999/xlink" viewBox="0 0 450.53 323.1"><defs><linearGradient id="b" x1="240.76" x2="240.76" y1="310.46" y2="237.33" gradientUnits="userSpaceOnUse"><stop offset="0" stop-color="#d5e4ff"/><stop offset="1" stop-color="#edfffe"/></linearGradient><linearGradient id="a" x1="2768.72" x2="2768.72" y1="-3565.99" y2="-3623.56" gradientTransform="matrix(.85 .53 -.53 .85 -3871.4 1670.38)" gradientUnits="userSpaceOnUse"><stop offset=".01" stop-color="#3c6127"/><stop offset="1" stop-color="#639c38"/></linearGradient><linearGradient id="e" x1="3139.08" x2="3139.08" y1="-6229.94" y2="-6302.18" gradientTransform="rotate(51.64 -4790.4237896 -5927.26201771)" xlink:href="#a"/><linearGradient id="f" x1="346.25" x2="160.17" y1="336.56" y2="-18.95" xlink:href="#b"/><linearGradient id="c" x1="146.48" x2="146.48" y1="25.54" y2="115.71" gradientUnits="userSpaceOnUse"><stop offset="0" stop-color="#40d5e6"/><stop offset="1" stop-color="#57f"/></linearGradient><linearGradient id="g" x1="146.4" x2="146.4" y1="25.54" y2="115.71" xlink:href="#c"/><linearGradient id="d" x1="349.37" x2="349.37" y1="188.38" y2="266.72" gradientUnits="userSpaceOnUse"><stop offset="0" stop-color="#ffc05c"/><stop offset="1" stop-color="#ff3857"/></linearGradient><linearGradient id="h" x1="364.9" x2="364.9" y1="188.38" y2="266.72" xlink:href="#d"/><linearGradient id="i" x1="380.43" x2="380.43" y1="188.38" y2="266.72" xlink:href="#d"/><linearGradient id="j" x1="395.95" x2="395.95" y1="188.38" y2="266.72" xlink:href="#d"/><linearGradient id="k" x1="146.4" x2="146.4" y1="32.72" y2="121.87" gradientUnits="userSpaceOnUse"><stop offset="0" stop-color="#d3dae0"/><stop offset="1" stop-color="#fff"/></linearGradient><linearGradient id="l" x1="-1878.63" x2="-1767.81" y1="217.05" y2="217.05" gradientTransform="rotate(-170.34 -883.90546123 137.6158304)" gradientUnits="userSpaceOnUse"><stop offset="0" stop-color="#ff9f55"/><stop offset="1" stop-color="#ffd255"/></linearGradient></defs><path fill="url(#b)" d="M161.82 253.37H319.7a5.89 5.89 0 0 1 5.89 5.89v18.28a5.88 5.88 0 0 1-5.88 5.88H161.82a5.88 5.88 0 0 1-5.88-5.88v-18.29a5.88 5.88 0 0 1 5.88-5.88z"/><path fill="#609a3e" d="M360.75 97.34c-.81-.28-1.26-.48-1.26-.48a12.36 12.36 0 0 0 1.31-.55c6.34-3 17.56-13.61 29.36-45.84 12.67-34.59 32.24-23.59 32.24-23.59-10.21 4.85-8.34 27.84-23.63 54.31-13.19 22.81-32.89 17.93-38.02 16.15z"/><path fill="url(#a)" d="M360.75 97.34c-.81-.28-1.26-.48-1.26-.48a12.36 12.36 0 0 0 1.31-.55c9.8-2.53 21.89-8.7 28-21 4.7-9.36 11.84-28.89 11.91-29.09l.94.34c-.07.2-7.23 19.79-11.95 29.21-6.33 12.7-18.87 19.03-28.95 21.57z"/><path fill="#609a3e" d="M407 103.65c-31.45 17.11-44.82-8-45.83-10l-.06-.12a27 27 0 0 0 2.77.31c24.2 1.77 38.62-26.14 55.61-36.3 17.63-10.54 31.07 2.67 31.07 2.67-16.74-5.5-10.86 25.62-43.56 43.44z"/><path fill="url(#e)" d="M382.93 99c-7.87.33-15.49-2.11-21.79-5.3l-.06-.12a27 27 0 0 0 2.77.31 42.38 42.38 0 0 0 19 4.11c8.69-.36 16.22-4.16 22.36-11.27 19.48-22.55 26-20.59 26.27-20.5l-.16.47-.16.48c-.38-.07-6.87-1-25.18 20.22-6.3 7.29-14.07 11.2-23.05 11.6z"/><rect width="299.51" height="270.04" x="91.01" fill="url(#f)" rx="12.05"/><path fill="#fff" d="M155.52 177.38a25.16 25.16 0 0 0-8.21-28.38 24.82 24.82 0 0 0-6.88-3.79 25.15 25.15 0 0 0-32.23 15.08c-.19.53-.36 1.07-.52 1.61a24.9 24.9 0 0 0-1 7.31 25.16 25.16 0 0 0 48.82 8.22zm-30.08 9.17A18.88 18.88 0 0 1 113 169.07a19.19 19.19 0 0 1 .74-5.48c.12-.4.25-.8.4-1.2a18.86 18.86 0 1 1 11.31 24.16z"/><path fill="#1a598c" d="M121.57 153l-3.44-5.28a25.12 25.12 0 0 1 22.3-2.56 24.82 24.82 0 0 1 6.88 3.79l-3.86 5a18.91 18.91 0 0 0-21.88-.92z"/><path fill="#2273b5" d="M113.73 163.59l-6-1.74c.16-.54.33-1.08.52-1.61a25.06 25.06 0 0 1 9.93-12.52l3.44 5.28a18.78 18.78 0 0 0-7.44 9.39c-.18.4-.33.8-.45 1.2z"/><path fill="#3d96e0" d="M106.7 169.16a24.9 24.9 0 0 1 1-7.31l6 1.74a19.19 19.19 0 0 0-.74 5.48z"/><path fill="#fff" d="M226.1 173.47a25.16 25.16 0 1 0-49.45-9.32c-.11.56-.19 1.12-.26 1.67a25.16 25.16 0 0 0 49.71 7.65zm-28.22 13.88a18.87 18.87 0 0 1-15.09-15.25 19.26 19.26 0 0 1-.15-5.53c.05-.42.12-.83.2-1.25a18.85 18.85 0 0 1 22-15 19.21 19.21 0 0 1 5.55 2 18.87 18.87 0 0 1-12.54 35.1z"/><path fill="#4b59c7" d="M188.67 154.86l-4.24-4.65a25.16 25.16 0 0 1 29-3.49l-3 5.53a19.21 19.21 0 0 0-5.55-2 18.86 18.86 0 0 0-16.21 4.61z"/><path fill="#6f5be0" d="M182.64 166.57l-6.25-.75c.07-.55.15-1.11.26-1.67a25 25 0 0 1 7.78-13.94l4.24 4.65a18.77 18.77 0 0 0-5.83 10.46c-.08.42-.15.83-.2 1.25z"/><path fill="#b487fe" d="M176.59 173.2a25.26 25.26 0 0 1-.2-7.38l6.25.75a19.26 19.26 0 0 0 .15 5.53z"/><path fill="#fff" d="M282.7 146.6a25.16 25.16 0 1 0-23.63 44.4c.5.26 1 .51 1.51.74a25.16 25.16 0 0 0 22.12-45.14zm4.84 31.07a18.82 18.82 0 0 1-24.38 8.33c-.38-.17-.76-.36-1.14-.55a18.86 18.86 0 0 1-7.79-25.45 19.2 19.2 0 0 1 3.54-4.71 18.87 18.87 0 0 1 29.77 22.43z"/><path fill="#1a598c" d="M253.78 176.78l-5.71 2.65a25.18 25.18 0 0 1 5.33-28.72l4.37 4.53a19.2 19.2 0 0 0-3.54 4.71 18.87 18.87 0 0 0-.45 16.83z"/><path fill="#2273b5" d="M263.16 186l-2.58 5.75c-.51-.23-1-.48-1.51-.74a25.15 25.15 0 0 1-11-11.6l5.71-2.65a18.84 18.84 0 0 0 8.24 8.69c.38.21.76.4 1.14.55z"/><path fill="#3788cc" d="M267.68 193.78a25.1 25.1 0 0 1-7.1-2l2.58-5.75a18.7 18.7 0 0 0 5.32 1.51z"/><path fill="#c4c4c4" d="M106.69 205.93h50.34v3.88h-50.34zM106.69 214.18h37.67v3.88h-37.67zM176.21 205.93h27.76v3.88h-27.76zM176.21 214.18h41.2v3.88h-41.2zM250.29 205.93h30.85v3.88h-30.85zM250.29 214.18h35.73v3.88h-35.73z"/><path fill="#b8d6ff" d="M328.37 40.99h36.6v3.67h-36.6zM328.37 52.36h42.07v3.67h-42.07zM328.31 63.66h21.77v3.67h-21.77zM328.31 74.97h33.54v3.67h-33.54z"/><path fill="#fff" d="M106.69 232.73h160.17v3.76H106.69zM106.69 241.49h173.06v3.76H106.69zM106.69 250.26h112.29v3.76H106.69z"/><path fill="#ffa347" d="M106.69 232.73h83.4v3.76h-83.4zM106.69 241.49h90.11v3.76h-90.11zM106.69 250.26h58.47v3.76h-58.47z"/><path fill="#d6d6d6" d="M130.09 110.05h32.62v4.02h-32.62zM122.18 102.89h48.46v4.02h-48.46z"/><circle cx="146.48" cy="47.72" r="8.42" fill="url(#c)"/><path fill="url(#g)" d="M161.67 75.18v16a37 37 0 0 1-30.54 0v-16a15.27 15.27 0 1 1 30.54 0z"/><path fill="#fff" d="M199.12 35.26h78.47v5.06h-78.47zM286.02 35.26h30.49v5.06h-30.49zM199.12 23.74h36.85v5.06h-36.85z"/><path fill="#bde1ff" d="M199.61 54.97h.66v59.94h-.66zM216.31 54.97h.66v59.94h-.66zM233.01 54.97h.66v59.94h-.66zM249.71 54.97h.66v59.94h-.66zM266.41 54.97h.66v59.94h-.66zM283.11 54.97h.66v59.94h-.66zM299.81 54.97h.66v59.94h-.66zM316.51 54.97h.66v59.94h-.66z"/><path fill="#4aafff" d="M199.94 95.07l11.37-11.38 5.54 5.54 12.1-12.1 9.59 9.59 12.27-12.27 8.4 8.4 21.41-21.4 16.05 16.04 9.71-9.72 10.46 10.46v36.69h-116.9V95.07z"/><path fill="#6f5be0" d="M199.94 102.6l9.09-9.09 5.75 5.74 6.65-6.65 12.53 12.54 15.67-15.67 5.62 5.62 16.17-16.17 14.76 14.76 30.63-30.63v51.87H199.94V102.6z"/><path fill="#bde1ff" d="M199.61 49.92h7v1.48h-7zM216.31 49.92h4.79v1.48h-4.79zM233.01 49.92h5.92v1.48h-5.92zM249.71 49.92h4.41v1.48h-4.41zM266.41 49.92h3.68v1.48h-3.68zM283.11 49.92h7.15v1.48h-7.15zM299.81 49.92h4.99v1.48h-4.99zM316.51 49.92h3.15v1.48h-3.15z"/><rect width="93.54" height="126.55" x="325.9" y="134.62" fill="#fff" opacity=".73" rx="8.86"/><path fill="#d6d6d6" d="M348 155.32h2.75v85.14H348zM363.52 155.32h2.75v85.14h-2.75zM379.05 155.32h2.75v85.14h-2.75zM394.58 155.32h2.75v85.14h-2.75z"/><path fill="url(#d)" d="M346.79 197.89h5.18v34.56h-5.18z"/><path fill="url(#h)" d="M362.31 168.84h5.18v34.56h-5.18z"/><path fill="url(#i)" d="M377.84 188.25h5.17v34.56h-5.17z"/><path fill="url(#j)" d="M393.37 184.25h5.17v34.56h-5.17z"/><path fill="url(#k)" d="M146.4 95.5a37.52 37.52 0 0 1-15.68-3.39 37.95 37.95 0 1 1 31.37 0 37.56 37.56 0 0 1-15.69 3.39zm0-73.9a36 36 0 0 0-14.85 68.69 36.08 36.08 0 0 0 29.71 0A36 36 0 0 0 146.4 21.6z"/><path fill="#ffc84d" d="M44.29 187.62s7-15.92-1.12-14.6a29.54 29.54 0 0 0-5.63 7c-2.15 3.54-6.64 12.91-6.48 16.08s2.43 5.53 4.86 10.62c0 0 5.06 9.45 5.27 10.59l5.35-2.78s-4.53-9-7.72-17z"/><path fill="url(#l)" d="M.78 207.76h109.25v18.57H.78z" transform="rotate(170.34 55.41282414 217.04291012)"/><path fill="#2d3038" d="M116.20135609 213.8378953l-5.7571938.97995894-2.36599675-13.90007408 5.7571938-.97995894z"/><path fill="#eea886" d="M85 322.53h1.33s-.44-5 .78-5.06 4.28 4.08 6.09 4.72 11.15 1.18 11.2-.54-3.58-2.41-4.71-2.9-6.63-5.84-7.62-6.48-2.65-5.08-2.65-5.08l-5.23-.19s-.3 4.15-.61 6.34a18.72 18.72 0 0 0-.22 2.06c-.05 1.83 1.64 7.13 1.64 7.13zM51.43 321.54h1.1v-4.66c.92.08 4 3 5 3.85s2.27.81 6.3 1.07 4.41-2.16 3.78-3-2.71-1.18-3.78-1.7-5.31-5.29-6.44-6.42-1.82-4.36-1.82-4.36l-4.71.41a28.69 28.69 0 0 1-.51 5.44l-.15.62c-.72 2.62 1.23 8.75 1.23 8.75z"/><path fill="#1d3b54" d="M68.86 215.86a48.05 48.05 0 0 1 1.94 5.28c.16 1.07 4.33 11.15 5.53 17.94.73 4.07 2.72 16.81 2.88 18.43.28 2.77 1.58 8.89 1.78 11.72.11 1.58 7.91 25.88 9.8 38.56a23.45 23.45 0 0 1-7.85-.23 132.74 132.74 0 0 1-10.65-31.7 128.15 128.15 0 0 0-6.08-21.78c-1.77-4.61-11.82-17.67-12.86-19.14s-7.62-9.58-1.4-18.36 16.91-.72 16.91-.72z"/><path fill="#1d3b54" d="M46.41 253.18c.57 3.78 0 8.75-1.22 22.58s2.08 30.58 2.08 30.58c4.11 1.4 8.84 0 8.84 0-.11-1 0-33.71 0-36.63s.83-6.23 1-9.58a69.1 69.1 0 0 1 2.4-10.78c.36-1.29.73-2.58 1.09-3.83l.59-2.06c1.69-5.84 3.95-28.36 3.95-28.36s-12.54-10.1-18.65-.6-3 16.42-2.75 17.61 2.1 17.29 2.67 21.07z"/><path fill="#122536" d="M51.61 232.86c.1.22 6.35 14.09 8 16.49.36-1.29.73-2.58 1.09-3.83s-8.88-12.35-9.09-12.66z"/><path fill="#172f42" d="M51.43 321.54h1.1v-4.66c.92.08 4 3 5 3.85s2.27.81 6.3 1.07 4.41-2.16 3.78-3-2.71-1.18-3.78-1.7c-4.31.23-9.58-5.83-12.11-5.82-1.34 0-1.33.75-1.37.89l-.15.62c-.72 2.62 1.23 8.75 1.23 8.75zM85 322.53h1.33s-.44-5 .78-5.06 4.28 4.08 6.09 4.72 11.15 1.18 11.2-.54-3.58-2.41-4.71-2.9c-3.85 0-10.11-4.24-12-5.1a7 7 0 0 0-4-.35 18.72 18.72 0 0 0-.22 2.06c-.16 1.87 1.53 7.17 1.53 7.17z"/><path fill="#eea886" d="M57.79 163s-2 5.29-.45 9.38c0 0-7.33-.47-7.61-1.33s.3-8.79-.71-11.13 8.77 3.08 8.77 3.08z"/><path fill="#ffc84d" d="M58.5 170.57s4.33 1.54 6.29 2 6.06 2.37 5.73 9.68a155.56 155.56 0 0 1-2 16.79 66.06 66.06 0 0 0 .55 15 55.08 55.08 0 0 1-22.62 0s2.17-6.63 2.11-8.34-7.22-15.82-7.55-18-1.78-12.05 1.5-14.22 5.94-1.89 7.33-2.86 6.63-.74 8.66-.05z"/><path fill="#ffc84d" d="M41.77 225.51a60.8 60.8 0 0 0 31.89 0 44.17 44.17 0 0 1-2.93-7.85 47.58 47.58 0 0 1-1.09-5.27 47.78 47.78 0 0 1 .44-17.08c-2-16.87-27.57-21.9-29.62-16.56s4 28.33 4.27 30.3-2.96 16.46-2.96 16.46z"/><path fill="#eea886" d="M51.39 141.74c3-1 10.93-2.09 13 10.15s-2.41 12.44-7 12.1-11.71-8.61-12.26-11.12-2.13-8.24 6.26-11.13z"/><path fill="#e8734d" d="M62.72 146.44s-2.44 5.21-5.63 7c0 0-2 5.53-6.34 7.77 0 0-11.5-7.62-4.82-16.67s16.07-1.81 16.79 1.9z"/><path fill="#eea886" d="M57.37 151.66a1.51 1.51 0 0 0-2.76.07c-.77 1.75 2 4.83 2.77 4.66s.97-2.31-.01-4.73z"/><path fill="#e8734d" d="M46.31 146c-.25-.39-7.86-3.92-9.44 3.45S43 165.35 44.35 169s-.61 12.32-.61 12.32 4.64-4.39 6-9c1.59-5 2.11-17.72-3.43-26.32z"/><path fill="#e54242" d="M45.93 145.72a7.66 7.66 0 0 1 2.63 4.75 5.68 5.68 0 0 0-.5-3.65 2.1 2.1 0 0 0-2.13-1.1z"/><path fill="#1d3b54" d="M70.73 217.68a47.58 47.58 0 0 1-1.09-5.27s-1.17-2.49-1.57-3.68-3.33-15.81-3.33-15.81-3.11 13.73 5.99 24.76z"/><path fill="#eea886" d="M83.8 218.53a17.25 17.25 0 0 0 3 2.5c.74.23 2.17-1 7.43-1.42.46 0 1.27.38 1.08 1s-2.48 2.27-3.46 2.52-5.6 2.09-7.85 1.19-3.78-3.77-3.78-3.77z"/><path fill="#ffc84d" d="M66 172.94s6.08 2.41 6.44 10.86.69 12.87 1 14.17 1 6.55 2.49 9.7 11.27 12.75 11.27 12.75l-4.72 4.43s-13.58-13.63-14.41-16.12-4.22-19.83-4.49-22.73c-.22-2.38-3.32-12.88 2.42-13.06z"/><circle cx="179.73" cy="192.37" r="57.58" fill="#b8b8b8" opacity=".1" transform="rotate(-76.38 179.71638289 192.36607462)"/><path fill="#869ac2" d="M141.71 150.37s73.55-9.12 88.2 68.5a56.68 56.68 0 0 0-88.21-68.5z" opacity=".3"/><path fill="#3f444f" d="M179.74 124.77a67.6 67.6 0 1 0 67.6 67.6 67.61 67.61 0 0 0-67.6-67.6zm0 124.19a56.59 56.59 0 1 1 56.59-56.59A56.58 56.58 0 0 1 179.74 249z"/><path fill="#5c544d" d="M433.85 309.89s.55 3.71.62 4.26 6.11-.32 6.11-.32l.49-4.41s-6.46-.05-7.22.47z"/><path fill="#1c1e26" d="M434.41 313.68a16.17 16.17 0 0 1-3.77 3.21c-1.84 1-4.75 1.36-5.85 2.36-.79.73-2.87 3.86 4.81 3.8s11.39.44 12.21-.76-1.19-8.86-1.19-8.86-1.82.64-6.21.25z"/><path fill="#5c544d" d="M390.6 309.89s.55 3.71.62 4.26 6.1-.32 6.1-.32l.49-4.41s-6.46-.05-7.21.47z"/><path fill="#1c1e26" d="M391.15 313.68a16.26 16.26 0 0 1-3.76 3.21c-1.85 1-8.66 1.77-9.75 2.78-.79.72-2.11 3.65 8.7 3.38 7.68-.2 11.39.44 12.22-.76s-1.2-8.86-1.2-8.86-1.71.68-6.21.25z"/><path fill="#20284d" d="M431.71 214.26s3.21 9.19 2.79 17.11 1.66 16.63 2.5 24.87c.95 9.22 4.84 31.06 5 36s-.6 20.69-.6 20.69l-7.78.17s-6.54-38.18-8.23-42.08-10.1-31.67-10.39-34.78 16.71-21.98 16.71-21.98z"/><path fill="#20284d" d="M399 215.89s-4.27 21.71-4.84 26.56-.94 23.47-1.22 26.5-1.88 39.65-3.38 44.15h9.95s7.63-26.62 7.63-39.22 5.9-27.38 9.71-35.69 12.53-8.51 14.87-23.93c-.01 0-29.56-3.26-32.72 1.63z"/><path fill="#eea886" d="M419.21 141.69s-7.84-2.82-11.46 2.93-3.26 17.26.69 18.67 9.89.68 11.92-2.92 3.85-8.8 3.76-12.27-2.85-5.41-4.91-6.41z"/><path fill="#eea886" d="M409.76 162.94a6.2 6.2 0 0 1-.21 3c-.52 1 9.86 1 9.86 1a64.15 64.15 0 0 1 2.45-9.79c1.6-4.52-12.1 5.79-12.1 5.79z"/><path fill="#fccca2" d="M421.86 157.11s-.72 1.14-3.65.7-6.49-4.19-7.72-4.61-1.23-1.1-1.23-1.1l-.77 1.08-1.29.08s1.18-3.36-.6-4.73 1.85-10.86 11.23-7.7c0 0 7.21 1.92 6.95 5.87s-1.31 8.44-2.92 10.41z"/><path fill="#e2d2ca" d="M408.93 165.78s0-1.86.91-2 9.68-1 10.76-.59v2.17s-2.07 1.19-11.67.42z"/><path fill="#eea886" d="M409.45 150.66c.17-.66 1.92-2.55 2.59-.52s-1 4.75-2 4.52-1.04-2.32-.59-4z"/><path fill="#ffc84d" d="M408.93 165.78s-4.82 1.67-10.41 4c0 0-6.43 2.31-7.13 9.15-.37 3.63-4.38 22.9-5.14 24.53s-9.65 27.82-10 28.37 7.26 3.57 7.76 3.33 8.62-23.89 9.44-25.64c0 0 4.67-14.18 4.79-16.3 0 0 .14 6 .39 7.72s-4.16 34.52-4 35.43 20 2 28 1.21a101.37 101.37 0 0 0 14.37-2.65s-6.26-25.91-6.07-28.78c.42-6.26 2.59-18.05 2.59-18.05l6.48 11.79-8.31 20.59 1.9 6.26s15.45-22.48 15.95-24.53-.76-4.67-1.57-6.36-6.17-14.56-7.43-16.37-3.37-9.07-8.49-11.09a83.56 83.56 0 0 0-11.47-3.07z"/><path fill="#c4c4c4" d="M398.31 243.66l-36.38-8.99 6.51-24.45 36.38 8.99-6.51 24.45z"/><path fill="#c98462" d="M373.12 237.13s-1 1.62-1.42 2.08.93.75 1.5.29-.08-2.37-.08-2.37z"/><path fill="#de9d7d" d="M380.7 242.66a3.88 3.88 0 0 0 .74-1s.19-.73.35-1.25a3.19 3.19 0 0 1 .14-.39 6.84 6.84 0 0 0 .83-2.13c.16-1 .62-5.48.62-5.48l-2.82-.69-2.26-.46s-4.9 4.7-5.16 5.61l-.06.27a9.29 9.29 0 0 0 .07 1.87c0 .15 0 1.71.4 2a1.59 1.59 0 0 0 1.49.35 3.9 3.9 0 0 0 1.94.71 2.42 2.42 0 0 0 2 .36s1.1.57 1.72.23z"/><path fill="#ffc84d" d="M391.7 214.31s-6.46 18.83-7.65 20.81a21.77 21.77 0 0 1-7.76-3.33l7.09-20.33z"/></svg>