<?xml version="1.0" encoding="UTF-8" ?>
<!DOCTYPE svg PUBLIC "-//W3C//DTD SVG 1.1//EN" "http://www.w3.org/Graphics/SVG/1.1/DTD/svg11.dtd">
<svg width="219pt" height="146pt" viewBox="0 0 219 146" version="1.1" xmlns="http://www.w3.org/2000/svg">
<g id="#ffffffff">
</g>
<g id="#fcc21bff">
<path fill="#fcc21b" opacity="1.00" d=" M 46.19 33.21 C 54.94 20.15 73.43 16.84 87.37 22.72 C 94.44 25.59 100.10 31.47 103.08 38.43 C 103.64 39.83 104.17 41.25 104.79 42.62 C 107.70 48.66 108.33 55.46 109.01 62.04 C 109.16 65.69 109.93 70.12 107.02 72.96 C 102.20 77.81 95.26 79.54 88.77 80.84 C 83.70 81.58 78.52 82.70 73.40 81.72 C 71.79 81.44 70.15 81.40 68.53 81.71 C 63.30 82.37 58.10 80.81 52.99 79.85 C 47.05 78.22 40.14 75.76 37.39 69.76 C 36.57 57.15 39.26 43.91 46.19 33.21 M 59.83 38.73 C 54.86 41.49 56.43 49.68 62.02 50.60 C 64.27 49.52 66.45 47.75 66.64 45.07 C 67.38 41.41 63.67 36.81 59.83 38.73 M 83.37 38.47 C 77.64 40.37 78.92 50.22 85.05 50.31 C 91.86 49.23 90.52 36.76 83.37 38.47 M 54.74 56.98 C 53.49 59.79 55.64 62.52 57.37 64.55 C 64.93 73.85 81.10 73.96 88.83 64.83 C 90.56 62.75 92.38 60.21 91.81 57.34 C 89.67 55.85 87.99 58.38 86.49 59.60 C 79.64 66.60 67.21 66.62 60.17 59.88 C 58.55 58.65 57.14 56.15 54.74 56.98 Z" />
<path fill="#fcc21b" opacity="1.00" d=" M 113.73 75.67 C 120.35 68.14 130.88 65.31 140.62 66.00 C 141.13 66.00 142.15 66.01 142.66 66.02 C 150.72 67.12 158.71 70.76 163.66 77.41 C 171.36 87.05 173.49 99.92 174.04 111.93 C 174.83 118.54 168.11 122.35 162.80 124.24 C 146.87 129.46 129.17 129.44 113.23 124.28 C 108.18 122.41 101.47 118.99 102.03 112.64 C 102.03 111.17 102.08 109.71 102.15 108.25 C 103.04 96.71 105.64 84.43 113.73 75.67 M 125.33 84.37 C 121.52 85.59 120.47 91.09 122.90 94.03 C 124.48 96.74 129.14 96.42 130.50 93.62 C 133.30 90.03 130.24 83.11 125.33 84.37 M 148.32 84.36 C 142.40 85.87 143.54 96.75 150.02 95.80 C 156.53 95.10 155.18 82.77 148.32 84.36 M 119.27 103.35 C 118.64 106.17 120.68 108.62 122.35 110.65 C 130.66 120.51 148.53 119.47 155.33 108.36 C 156.50 106.72 158.10 103.07 155.01 102.55 C 152.00 104.27 149.97 107.35 146.71 108.72 C 141.11 111.67 134.12 111.51 128.60 108.41 C 125.67 107.00 123.77 104.21 121.00 102.58 C 120.57 102.77 119.71 103.16 119.27 103.35 Z" />
</g>
<g id="#2f2f2fff">
<path fill="#2f2f2f" opacity="1.00" d=" M 59.83 38.73 C 63.67 36.81 67.38 41.41 66.64 45.07 C 66.45 47.75 64.27 49.52 62.02 50.60 C 56.43 49.68 54.86 41.49 59.83 38.73 Z" />
<path fill="#2f2f2f" opacity="1.00" d=" M 83.37 38.47 C 90.52 36.76 91.86 49.23 85.05 50.31 C 78.92 50.22 77.64 40.37 83.37 38.47 Z" />
<path fill="#2f2f2f" opacity="1.00" d=" M 54.74 56.98 C 57.14 56.15 58.55 58.65 60.17 59.88 C 67.21 66.62 79.64 66.60 86.49 59.60 C 87.99 58.38 89.67 55.85 91.81 57.34 C 92.38 60.21 90.56 62.75 88.83 64.83 C 81.10 73.96 64.93 73.85 57.37 64.55 C 55.64 62.52 53.49 59.79 54.74 56.98 Z" />
<path fill="#2f2f2f" opacity="1.00" d=" M 125.33 84.37 C 130.24 83.11 133.30 90.03 130.50 93.62 C 129.14 96.42 124.48 96.74 122.90 94.03 C 120.47 91.09 121.52 85.59 125.33 84.37 Z" />
<path fill="#2f2f2f" opacity="1.00" d=" M 148.32 84.36 C 155.18 82.77 156.53 95.10 150.02 95.80 C 143.54 96.75 142.40 85.87 148.32 84.36 Z" />
<path fill="#2f2f2f" opacity="1.00" d=" M 119.27 103.35 C 119.71 103.16 120.57 102.77 121.00 102.58 C 123.77 104.21 125.67 107.00 128.60 108.41 C 134.12 111.51 141.11 111.67 146.71 108.72 C 149.97 107.35 152.00 104.27 155.01 102.55 C 158.10 103.07 156.50 106.72 155.33 108.36 C 148.53 119.47 130.66 120.51 122.35 110.65 C 120.68 108.62 118.64 106.17 119.27 103.35 Z" />
</g>
<g id="#e56565ff">
<path fill="#e56565" opacity="1.00" d=" M 103.08 38.43 C 104.69 38.18 106.28 37.78 107.92 37.82 C 119.62 37.91 131.32 37.78 143.02 37.89 C 143.35 39.03 144.08 39.81 145.21 40.21 C 145.39 48.68 145.14 57.15 145.35 65.62 C 144.68 65.72 143.34 65.92 142.66 66.02 C 142.15 66.01 141.13 66.00 140.62 66.00 C 140.52 58.18 140.61 50.36 140.56 42.54 C 128.63 42.57 116.71 42.41 104.79 42.62 C 104.17 41.25 103.64 39.83 103.08 38.43 Z" />
<path fill="#e56565" opacity="1.00" d=" M 68.53 81.71 C 70.15 81.40 71.79 81.44 73.40 81.72 C 73.22 90.54 73.32 99.37 73.34 108.19 C 82.95 108.29 92.55 108.19 102.15 108.25 C 102.08 109.71 102.03 111.17 102.03 112.64 C 91.67 112.65 81.31 112.71 70.96 112.61 C 70.26 111.73 69.49 110.92 68.65 110.18 C 68.51 100.69 68.73 91.20 68.53 81.71 Z" />
</g>
</svg>
