<svg id="Слой_1" data-name="Слой 1" xmlns="http://www.w3.org/2000/svg" xmlns:xlink="http://www.w3.org/1999/xlink" viewBox="0 0 340.47 249.57"><defs><style>.cls-1{fill:#fff;}.cls-2{fill:url(#linear-gradient);}.cls-3{fill:url(#linear-gradient-2);}.cls-4{fill:#ffca55;}.cls-5{fill:#d46946;}.cls-6{fill:#7784f2;}.cls-7{fill:#ffd578;}.cls-8{fill:#d6d6d6;}.cls-9{fill:#e8e8e8;}.cls-10{fill:#c2c2c2;}.cls-11{fill:#eea987;}.cls-12{fill:#c78d71;}.cls-13{fill:#1d2033;}.cls-14{fill:#50558a;}.cls-15{fill:#1a598c;}.cls-16{fill:#bfb9b7;}.cls-17{fill:#f2ebe9;}.cls-18{fill:#3d8ed1;}.cls-19{fill:#f5eeec;}.cls-20{fill:#ded7d5;}.cls-21{fill:#eea886;}.cls-22{fill:#dbdff0;}.cls-23{fill:#202338;}.cls-24{fill:#2f6b8c;}.cls-25{fill:#292c47;}.cls-26{fill:#a3a9c4;}.cls-27{fill:#434343;}.cls-28{fill:#e2d2ca;}.cls-29{fill:#706865;}.cls-30{fill:#ccbdb7;}.cls-31{fill:#b59074;}.cls-32{fill:#323657;}.cls-33{fill:#ead8cf;}.cls-34{fill:#da9b5b;}.cls-35{fill:#424773;}.cls-36{fill:#3a3f47;}.cls-37{fill:#918783;}.cls-38{fill:#5e5854;}.cls-39{fill:#bfb2ac;}.cls-40{fill:#f2e2d9;}.cls-41{fill:#f5f7ff;}.cls-42{fill:#918681;}.cls-43{fill:#dfe1e8;}.cls-44{fill:#4373cf;}.cls-45{fill:#213a70;}.cls-46{fill:#a77860;}.cls-47{fill:#c9a043;}.cls-48{fill:#444c94;}.cls-49{fill:#303669;}.cls-50{fill:#518afa;}</style><linearGradient id="linear-gradient" x1="474.42" y1="200.22" x2="528.94" y2="200.22" gradientUnits="userSpaceOnUse"><stop offset="0" stop-color="#ff9f55"/><stop offset="1" stop-color="#ffd255"/></linearGradient><linearGradient id="linear-gradient-2" x1="508.61" y1="235.45" x2="534.52" y2="235.45" xlink:href="#linear-gradient"/></defs><title>hero-image</title><path class="cls-1" d="M551.36,83.54V82.31" transform="translate(-210.89 -58.86)"/><path class="cls-2" d="M524.44,194.33a23.06,23.06,0,0,0-2.5-6l2.55-3.82L521,181l-3.53-3.53L513.6,180a23.84,23.84,0,0,0-6-2.5l-.91-4.5h-10l-.91,4.5a23.84,23.84,0,0,0-6,2.5l-3.83-2.54L482.4,181l-3.53,3.53,2.55,3.82a23.06,23.06,0,0,0-2.5,6l-4.5.9v10l4.5.91a23.2,23.2,0,0,0,2.5,6L478.87,216l3.53,3.53,3.53,3.53,3.83-2.54a23.46,23.46,0,0,0,6,2.49l.91,4.5h10l.91-4.5a23.46,23.46,0,0,0,6-2.49l3.83,2.54L521,219.5l3.53-3.53-2.55-3.82a23.2,23.2,0,0,0,2.5-6l4.5-.91v-10Zm-22.76,23.38a17.49,17.49,0,1,1,17.49-17.49A17.49,17.49,0,0,1,501.68,217.71Z" transform="translate(-210.89 -58.86)"/><path class="cls-3" d="M532.38,232.65a11.15,11.15,0,0,0-1.19-2.87L532.4,228l-1.68-1.67-1.67-1.68-1.82,1.21a11.15,11.15,0,0,0-2.87-1.19l-.43-2.14h-4.74l-.43,2.14a10.94,10.94,0,0,0-2.86,1.19l-1.82-1.21-1.68,1.68L510.72,228l1.21,1.82a11.13,11.13,0,0,0-1.18,2.87l-2.14.43v4.74l2.14.43a10.92,10.92,0,0,0,1.18,2.86l-1.21,1.82,1.68,1.68,1.68,1.68,1.82-1.21a11.29,11.29,0,0,0,2.86,1.19l.43,2.13h4.74l.43-2.13a11.51,11.51,0,0,0,2.87-1.19l1.82,1.21,1.67-1.68,1.68-1.68-1.21-1.82a10.94,10.94,0,0,0,1.19-2.86l2.14-.43v-4.74Zm-10.82,11.11a8.31,8.31,0,1,1,8.31-8.31A8.31,8.31,0,0,1,521.56,243.76Z" transform="translate(-210.89 -58.86)"/><path class="cls-4" d="M461.49,107.46c-.13-27-26-48.76-57.87-48.6S346.1,81,346.23,108A42.53,42.53,0,0,0,351.34,128s17.77,34.32,20.42,66.91c.07,15.24,14.7,27.53,32.67,27.44s32.47-12.52,32.4-27.76c2.33-32.63,19.75-67.11,19.75-67.11h0A42.43,42.43,0,0,0,461.49,107.46Z" transform="translate(-210.89 -58.86)"/><rect class="cls-1" x="383.62" y="122.22" width="2.14" height="74.26" transform="translate(-227.86 -9.26) rotate(-7.22)"/><rect class="cls-1" x="422.49" y="122.03" width="2.14" height="74.26" transform="translate(614.98 307.38) rotate(-173.36)"/><polygon class="cls-1" points="208.8 74.91 200.75 66.94 192.91 74.86 185.12 67.15 177.55 74.8 169.1 66.44 170.14 65.4 177.53 72.72 185.11 65.07 192.9 72.78 200.74 64.86 208.79 72.83 216.18 65.37 217.22 66.4 208.8 74.91"/><path class="cls-5" d="M422.91,239.63l-36.89.19a7.42,7.42,0,0,1-7.45-7.38l-.07-14.52,51.71-.25.07,14.51A7.41,7.41,0,0,1,422.91,239.63Z" transform="translate(-210.89 -58.86)"/><path class="cls-6" d="M427.46,230.58l-46.08.23a11.13,11.13,0,0,1-11.19-11.08l-.12-24.17,68.35-.34.12,24.17A11.13,11.13,0,0,1,427.46,230.58Z" transform="translate(-210.89 -58.86)"/><path class="cls-7" d="M446.35,130.64s-1-56.51-40.77-64.47c0,0,27.58-1,39.42,19S446.35,130.64,446.35,130.64Z" transform="translate(-210.89 -58.86)"/><polygon class="cls-8" points="247.84 114.81 275.78 99.18 266.18 98.55 247.84 114.81"/><polygon class="cls-9" points="247.84 114.81 256.44 100.98 263.65 100.79 247.84 114.81"/><polygon class="cls-10" points="269.35 102.78 269.91 106.3 247.84 114.81 269.35 102.78"/><path class="cls-9" d="M259.26,169.62l-.56,0c.05-1,.11-2,.19-3l.56,0C259.38,167.59,259.31,168.61,259.26,169.62Zm.44-6.06-.56-.05c.09-1,.2-2,.31-3l.56.07C259.9,161.53,259.79,162.55,259.7,163.56Zm.69-6-.56-.08c.14-1,.29-2,.45-3l.55.09C260.68,155.51,260.53,156.52,260.39,157.52Zm228.81-4.76-.23-.51a24.89,24.89,0,0,0,2.65-1.46l.3.48A24.32,24.32,0,0,1,489.2,152.76Zm-227.85-1.24-.55-.1c.18-1,.38-2,.58-3l.56.11C261.73,149.52,261.53,150.53,261.35,151.52Zm233.1-2-.35-.45a24.52,24.52,0,0,0,2.29-2l.39.41A28.7,28.7,0,0,1,494.45,149.52ZM262.6,145.58l-.55-.13c.23-1,.48-2,.74-3l.54.14C263.08,143.6,262.83,144.59,262.6,145.58Zm236.27-.33-.44-.36a19.33,19.33,0,0,0,1.69-2.47l.49.28A19.52,19.52,0,0,1,498.87,145.25Zm3-5.35-.53-.19a15.57,15.57,0,0,0,.72-2.9l.56.08A15.78,15.78,0,0,1,501.91,139.9Zm-237.77-.19-.54-.16c.29-1,.59-2,.9-2.92l.53.18C264.73,137.76,264.43,138.74,264.14,139.71Zm1.86-5.78-.53-.19c.34-1,.7-1.92,1.06-2.86l.53.2C266.7,132,266.34,133,266,133.93Zm236.23-.09a17.26,17.26,0,0,0-.42-3l.55-.12a17.1,17.1,0,0,1,.44,3.06Zm-234-5.57-.52-.22c.4-.94.81-1.88,1.23-2.8l.51.24C269,126.4,268.58,127.34,268.19,128.27ZM500.92,128a27.76,27.76,0,0,0-1.28-2.73l.5-.26a26.54,26.54,0,0,1,1.3,2.78Zm-230.21-5.26-.5-.25c.45-.91.92-1.83,1.4-2.72l.49.27C271.63,120.93,271.16,121.84,270.71,122.75Zm227.37,0-.09-.13a18.44,18.44,0,0,0-1.76-2.2l.41-.38a17.83,17.83,0,0,1,1.82,2.26l.09.14ZM494,118.38a20.81,20.81,0,0,0-2.5-1.65l.28-.49a21.82,21.82,0,0,1,2.56,1.69Zm-220.43-1-.49-.28c.51-.88,1-1.76,1.57-2.62l.48.3C274.61,115.65,274.08,116.52,273.58,117.4Zm215.24-2c-.88-.38-1.83-.74-2.82-1.07l.17-.53c1,.33,2,.7,2.87,1.08Zm-5.73-1.92c-.93-.24-1.92-.47-2.95-.68l.11-.56c1,.22,2.05.45,3,.69Zm-206.3-1.23-.47-.31c.57-.85,1.15-1.69,1.74-2.51l.46.33C277.93,110.57,277.35,111.41,276.79,112.25Zm200.36,0c-.94-.16-1.95-.31-3-.45l.08-.56c1,.14,2.07.3,3,.46Zm-6-.83-3-.33.06-.56,3,.33Zm-6.06-.63-3-.27,0-.56,3,.27Zm-6.07-.54-3-.28,0-.56,3,.28Zm-6.07-.58c-1.07-.1-2.06-.21-3-.32l.06-.56,3,.32Zm-6.06-.69c-1-.13-2.05-.27-3-.41l.08-.56c1,.14,2,.28,3,.41Zm-6-.89c-1-.18-2-.36-3-.55L438,107c1,.19,2,.38,3,.55Zm-160.5-.75-.45-.35c.62-.8,1.27-1.6,1.91-2.38l.44.36C281.59,105.74,281,106.53,280.34,107.33Zm154.51-.44c-1-.23-2-.47-3-.73l.14-.54c1,.25,2,.49,3,.72Zm-5.92-1.56c-1-.3-2-.62-2.9-1l.18-.53c.94.32,1.91.64,2.89.94Zm-5.76-2c-.95-.39-1.9-.79-2.8-1.21l.23-.52c.9.42,1.84.83,2.78,1.21Zm-138.95-.63-.42-.38c.68-.75,1.37-1.51,2.07-2.24l.41.39C285.58,101.17,284.89,101.92,284.22,102.67Zm133.41-1.94c-.9-.48-1.8-1-2.65-1.51l.29-.48c.85.51,1.73,1,2.63,1.49ZM288.42,98.29l-.39-.4c.73-.71,1.48-1.41,2.23-2.09l.38.42C289.89,96.89,289.14,97.59,288.42,98.29Zm124-.74c-.84-.58-1.66-1.19-2.45-1.82l.35-.44c.78.62,1.6,1.22,2.42,1.8ZM292.92,94.23l-.36-.43c.78-.66,1.58-1.3,2.38-1.92l.34.44C294.49,92.94,293.7,93.58,292.92,94.23Zm114.7-.48c-.75-.66-1.52-1.33-2.3-2l.36-.43c.78.64,1.56,1.31,2.32,2ZM297.71,90.5l-.33-.46c.82-.6,1.66-1.18,2.5-1.75l.32.47C299.36,89.32,298.52,89.91,297.71,90.5Zm105.22-.59c-.8-.6-1.63-1.19-2.46-1.77l.32-.46c.84.58,1.67,1.17,2.48,1.78Zm-100.18-2.8-.3-.48c.86-.53,1.74-1.06,2.62-1.56l.28.49C304.48,86.06,303.6,86.58,302.75,87.11Zm95.18-.63c-.84-.53-1.72-1.06-2.6-1.56l.29-.49c.88.51,1.76,1,2.61,1.57ZM308,84.1l-.26-.5c.89-.48,1.81-.94,2.72-1.38l.25.51C309.81,83.16,308.9,83.63,308,84.1Zm84.67-.64c-.89-.46-1.81-.92-2.72-1.35l.24-.51c.92.44,1.84.9,2.74,1.36Zm-79.21-2-.23-.52c.93-.4,1.87-.8,2.81-1.18l.21.52C315.33,80.65,314.39,81,313.47,81.45Zm73.73-.59c-.92-.4-1.87-.78-2.81-1.15l.21-.53c.94.37,1.9.76,2.82,1.16Zm-68.12-1.67-.19-.53c.95-.34,1.92-.68,2.88-1l.18.53C321,78.52,320,78.85,319.08,79.19Zm62.47-.53c-.95-.33-1.92-.65-2.88-1l.16-.53c1,.3,1.95.62,2.9.95Zm-56.71-1.35-.16-.54c1-.28,2-.55,2.95-.8l.13.55C326.79,76.76,325.81,77,324.84,77.31Zm50.91-.44c-1-.27-2-.52-2.94-.75l.13-.55c1,.23,2,.49,3,.75Zm-45-1.05-.12-.55c1-.22,2-.43,3-.61l.1.55C332.69,75.4,331.69,75.6,330.71,75.82Zm39.14-.35c-1-.2-2-.39-3-.56l.09-.55c1,.17,2,.35,3,.55Zm-33.18-.76-.09-.56c1-.16,2-.29,3-.42l.07.56C338.67,74.41,337.66,74.55,336.67,74.71Zm27.2-.25c-1-.14-2-.26-3-.36l.06-.56c1,.1,2,.22,3,.36ZM342.68,74l-.05-.56c1-.09,2-.17,3-.22l0,.56C344.7,73.82,343.69,73.89,342.68,74Zm15.15-.14c-1-.07-2-.13-3-.16l0-.57c1,0,2,.1,3.05.17Zm-9.1-.21v-.56c1,0,2,0,3,0v.57C350.76,73.6,349.74,73.61,348.73,73.63Z" transform="translate(-210.89 -58.86)"/><path class="cls-11" d="M332.26,147s5.35.91,4.44,9.28-5.63,7.64-5.95,7.62-4.74.11-5-10.13C325.77,153.72,325.7,146.15,332.26,147Z" transform="translate(-210.89 -58.86)"/><path class="cls-11" d="M334.6,161.57a19.6,19.6,0,0,0,.12,4.22c.33.75-4.27,3.1-7.14.39a29.7,29.7,0,0,0,.4-5.1C327.8,159.75,334.6,161.57,334.6,161.57Z" transform="translate(-210.89 -58.86)"/><path class="cls-11" d="M336.81,153.86s.59-.62.8,0-.75,3.38-.88,3.59c0,0-.11.24-.25.11A32.78,32.78,0,0,1,336.81,153.86Z" transform="translate(-210.89 -58.86)"/><path class="cls-11" d="M325.83,153.64s-.56-.65-.8,0,.62,3.45.73,3.62c0,0,.18.29.33.16A31.87,31.87,0,0,0,325.83,153.64Z" transform="translate(-210.89 -58.86)"/><path class="cls-12" d="M328.34,162.73a3.43,3.43,0,0,0,2.84,1.15A3.91,3.91,0,0,0,334,162.8a3.47,3.47,0,0,1-2.86,1.94A3.52,3.52,0,0,1,328.34,162.73Z" transform="translate(-210.89 -58.86)"/><path class="cls-13" d="M314.68,270.42a10.89,10.89,0,0,1-1.35,2.29c-.61.66-3,1.82-3,3.76s4,1.51,5.54,1.43,1.69-1.19,2.34-2.38,1.32-1,1.45-1.95a11.54,11.54,0,0,0-.51-3.1Z" transform="translate(-210.89 -58.86)"/><path class="cls-14" d="M314.61,269.81l-.11,1a8.69,8.69,0,0,0,4.78.08l-.13-1.36Z" transform="translate(-210.89 -58.86)"/><polygon class="cls-15" points="202.24 215.38 201.68 215.36 204.51 144.36 155.59 144.36 152.77 215.38 152.2 215.36 155.05 143.79 205.1 143.79 202.24 215.38"/><polygon class="cls-15" points="206.82 215.38 204 144.36 155.08 144.36 157.91 215.36 157.35 215.38 154.5 143.79 204.54 143.79 207.39 215.36 206.82 215.38"/><polygon class="cls-16" points="157.63 192.28 207.11 192.28 204.27 120.99 154.79 120.99 157.63 192.28"/><polygon class="cls-17" points="200.57 192.28 151.09 192.28 153.93 120.99 203.41 120.99 200.57 192.28"/><polygon class="cls-18" points="166.94 170.8 166.41 170.61 171.1 157.45 181.27 154.76 184.92 140.32 192.77 136.86 194.53 125.63 195.09 125.72 193.29 137.26 185.41 140.74 181.74 155.23 171.53 157.93 166.94 170.8"/><path class="cls-19" d="M393.57,212.89a1.52,1.52,0,1,1-2.15-.22A1.53,1.53,0,0,1,393.57,212.89Z" transform="translate(-210.89 -58.86)"/><path class="cls-18" d="M393.54,215.26a1.82,1.82,0,1,1,.25-2.55A1.81,1.81,0,0,1,393.54,215.26Zm-1.93-2.36a1.24,1.24,0,1,0,1.56,1.92,1.25,1.25,0,0,0,.18-1.75A1.23,1.23,0,0,0,391.61,212.9Z" transform="translate(-210.89 -58.86)"/><path class="cls-19" d="M397.27,198.51a1.52,1.52,0,1,1-2.14-.22A1.52,1.52,0,0,1,397.27,198.51Z" transform="translate(-210.89 -58.86)"/><path class="cls-18" d="M397.24,200.88a1.81,1.81,0,1,1,.26-2.55A1.81,1.81,0,0,1,397.24,200.88Zm-1.93-2.36a1.24,1.24,0,0,0-.18,1.74,1.24,1.24,0,1,0,1.92-1.57A1.23,1.23,0,0,0,395.31,198.52Z" transform="translate(-210.89 -58.86)"/><path class="cls-19" d="M405,195a1.52,1.52,0,1,1-2.15-.22A1.53,1.53,0,0,1,405,195Z" transform="translate(-210.89 -58.86)"/><path class="cls-19" d="M383.44,215.72a1.52,1.52,0,1,1-2.15-.22A1.52,1.52,0,0,1,383.44,215.72Z" transform="translate(-210.89 -58.86)"/><path class="cls-18" d="M383.41,218.08a1.81,1.81,0,1,1,.25-2.55A1.81,1.81,0,0,1,383.41,218.08Zm-1.93-2.36a1.24,1.24,0,1,0,1.74.18A1.25,1.25,0,0,0,381.48,215.72Z" transform="translate(-210.89 -58.86)"/><rect class="cls-20" x="160.04" y="136.43" width="15.28" height="3.17" rx="1.1"/><path class="cls-20" d="M161.14,130.89h13.09a1.1,1.1,0,0,1,1.1,1.1v1a1.09,1.09,0,0,1-1.09,1.09H161.14A1.1,1.1,0,0,1,160,133v-1A1.09,1.09,0,0,1,161.14,130.89Z"/><path class="cls-18" d="M405,197.32a1.82,1.82,0,1,1,.25-2.55A1.82,1.82,0,0,1,405,197.32ZM403,195a1.24,1.24,0,1,0,1.74.18A1.24,1.24,0,0,0,403,195Z" transform="translate(-210.89 -58.86)"/><polygon class="cls-18" points="162.79 183.51 162.45 183.26 168.48 174.87 176.26 175.03 181.82 165.51 188.11 164.66 191.66 157.03 192.04 157.21 188.4 165.04 182.08 165.9 176.5 175.46 168.69 175.29 162.79 183.51"/><path class="cls-19" d="M388.31,233.66a1.13,1.13,0,1,1-1.48-.59A1.13,1.13,0,0,1,388.31,233.66Z" transform="translate(-210.89 -58.86)"/><path class="cls-18" d="M387.8,235.34a1.34,1.34,0,0,1-1.76-.7,1.34,1.34,0,1,1,2.46-1.06A1.33,1.33,0,0,1,387.8,235.34Zm-.89-2.08a.92.92,0,0,0,.72,1.69.92.92,0,1,0-.72-1.69Z" transform="translate(-210.89 -58.86)"/><path class="cls-19" d="M393.89,224.19a1.13,1.13,0,1,1-2.08.89,1.13,1.13,0,0,1,2.08-.89Z" transform="translate(-210.89 -58.86)"/><path class="cls-18" d="M393.38,225.87a1.34,1.34,0,0,1-1.76-.7,1.34,1.34,0,1,1,2.46-1.06A1.34,1.34,0,0,1,393.38,225.87Zm-.89-2.08a.92.92,0,1,0,1.2.49A.92.92,0,0,0,392.49,223.79Z" transform="translate(-210.89 -58.86)"/><path class="cls-19" d="M400.11,223.24a1.13,1.13,0,1,1-1.48-.59A1.12,1.12,0,0,1,400.11,223.24Z" transform="translate(-210.89 -58.86)"/><path class="cls-19" d="M380.53,233.6a1.13,1.13,0,0,1-2.08.89,1.13,1.13,0,1,1,2.08-.89Z" transform="translate(-210.89 -58.86)"/><path class="cls-18" d="M380,235.27a1.34,1.34,0,1,1,.7-1.76A1.33,1.33,0,0,1,380,235.27Zm-.89-2.07a.92.92,0,1,0,1.2.48A.91.91,0,0,0,379.13,233.2Z" transform="translate(-210.89 -58.86)"/><path class="cls-18" d="M399.6,224.92a1.34,1.34,0,1,1,.71-1.76A1.34,1.34,0,0,1,399.6,224.92Zm-.89-2.08a.92.92,0,1,0,1.21.48A.93.93,0,0,0,398.71,222.84Z" transform="translate(-210.89 -58.86)"/><path class="cls-21" d="M363.3,182.55s1.62-.51,1.75-1.47a5.48,5.48,0,0,1,1.06-2.08c.3-.4.76-2,1.27-1.6s-.64,2.63-.78,3.15,2.06-.47,2.6-.33,2,3.88.39,4.38-3.63,0-3.89.14a8.91,8.91,0,0,1-1.14.41Z" transform="translate(-210.89 -58.86)"/><path class="cls-21" d="M368.8,180.25s5-1.23,5.38-1,.45.47,0,.6-4.77,1.32-4.77,1.32,6.13-.45,6.49-.36.35.57.11.67-6.3.89-6.3.89,5.73-.41,6-.25a.4.4,0,0,1-.18.72l-5.72.74s4.19,0,4.35.24.23.62-.86.6-3.63.19-3.63.19Z" transform="translate(-210.89 -58.86)"/><path class="cls-22" d="M339.65,177.18s1.3,2.28,3,4.85l.48.71h0c.22.33.45.65.68,1s.57.77.86,1.14c1.6,2.08,3.29,3.85,4.57,4.16,2.77.68,16.7-2.4,16.7-2.4l-1.08-5.48a44.29,44.29,0,0,1-8.15,1.94c-2,.16-4.49.82-4.79.63s-6-8.42-6.41-9.31a29.71,29.71,0,0,0-3.8-6,3.08,3.08,0,0,0-3.24-1C333.84,170.36,339.65,177.18,339.65,177.18Z" transform="translate(-210.89 -58.86)"/><path class="cls-23" d="M346,269.93a10.48,10.48,0,0,0,4.34,2.74c2.19.47,3.71,1.08,3.73,2.38s-6.29,2.15-8.79.84c-3.74-1.95-4.12-1.36-4.53-2.34s.5-3.59.47-3.9S346,269.93,346,269.93Z" transform="translate(-210.89 -58.86)"/><path class="cls-24" d="M345.71,268.85a9.41,9.41,0,0,1,.24,1.08s-4.93.57-4.78-.28c.12-.69.29-1.44.29-1.44Z" transform="translate(-210.89 -58.86)"/><path class="cls-25" d="M340.78,205.22s2.26,16.43,3.18,22c1.09,6.5,1.45,11.87,1.75,15.23.38,4.23.88,25.87,1.15,27.1s-6.59.6-6.59.6-3.59-28.21-4.72-32.72c-1.05-4.19-4.11-22.3-5.07-21.16s-5.06,21.81-5.77,25.12S320,271.2,320,271.2s-4.25.77-6.83-.53c0,0,2-23.2,2.45-29.4.17-2.36.59-28.32,4.59-38.77C322.35,197,340.78,205.22,340.78,205.22Z" transform="translate(-210.89 -58.86)"/><path class="cls-22" d="M334.14,165.8s6,1.24,6.7,1.87,2.13,7.23,2.21,9.05a70.66,70.66,0,0,1-1.49,12.3c-.77,2.84-.49,16.82,0,20.76,0,0-8.87,4-23.84.36,0,0,2.61-13,2.13-16.85-.61-5-1.8-17.23-1.8-17.23s0-7.48,1-8.38,8.82-1.88,8.82-1.88Z" transform="translate(-210.89 -58.86)"/><path class="cls-22" d="M322.44,167.32s3.75,1,1.68,7.92c-1.61,5.39-1.83,6.55-1.83,6.55l-8.65-2.16s2.21-11.39,6.36-12.37A5.54,5.54,0,0,1,322.44,167.32Z" transform="translate(-210.89 -58.86)"/><path class="cls-26" d="M342.68,182l.48.71h0c.22.33.45.65.68,1a39.24,39.24,0,0,0-.66-7.66A40.45,40.45,0,0,1,342.68,182Z" transform="translate(-210.89 -58.86)"/><rect class="cls-22" x="126.21" y="118.22" width="3.68" height="5.61"/><path class="cls-22" d="M334.57,164.93a11.67,11.67,0,0,1-6.8-.19l-.21,1.52s4.16,1.57,7.4.85Z" transform="translate(-210.89 -58.86)"/><path class="cls-21" d="M313.35,209.56a11.27,11.27,0,0,0,.58,2.3,16.19,16.19,0,0,1,1,2.43c.07.25.47,2.08.54,2.31s-.45.57-.79.08a14.78,14.78,0,0,1-.71-1.87c-.15-.39-.59-1.59-.73-1.38a14.48,14.48,0,0,0-.18,2.23,13.63,13.63,0,0,0,.3,2.22c.11.53.75,2.75.47,2.86s-.52.07-.87-.53c0,0-.58.3-.89-.43,0,0-.52.17-.81-.78a1.26,1.26,0,0,1-.49-.55,20.91,20.91,0,0,1-.85-4.45c0-1.18.34-2,.32-2.83a22.77,22.77,0,0,0-.41-2.63Z" transform="translate(-210.89 -58.86)"/><path class="cls-22" d="M314.38,211.61a23.5,23.5,0,0,1-5,.07s1.68-19.09,1.6-20.17,3.85-18.73,6-21.42l3.29,10.37c-.25-.08-3.58,10.58-3.62,11.68C316.55,193.61,314.38,211.61,314.38,211.61Z" transform="translate(-210.89 -58.86)"/><path class="cls-27" d="M337.19,152.32a17.34,17.34,0,0,0-.29-5.19c-.36-1.4-2.62-1-2.62-1h0c-3.46-1-5.54-.56-6.85,0-1.95,1.61-2.1,4.34-2,5.84,0,.36.08.72.12,1.06v0c.17,1.49.36,2.79.36,2.79l.62.72s-.16-2.49.22-2.63c.21-.08.26-.58.26-1s0-.73,0-.73c4-1.84,8.47-.53,8.57-.27a9,9,0,0,1,.25,1.06c0,.25.11.49.15.62a20.4,20.4,0,0,1,.07,2.61l.78-1s.1-.49.23-1.22h0c0-.23.08-.5.13-.78C337.15,153.15,337.18,152.83,337.19,152.32Z" transform="translate(-210.89 -58.86)"/><rect class="cls-28" x="37.85" y="179.57" width="23.3" height="1.38"/><rect class="cls-29" x="251.86" y="243.42" width="2.04" height="62.91" transform="translate(294.88 490.88) rotate(180)"/><rect class="cls-30" x="57.51" y="179.18" width="16.2" height="1.98"/><rect class="cls-30" x="62.54" y="162.33" width="6.13" height="18.63"/><rect class="cls-31" x="29.49" y="180.98" width="89.75" height="3.58"/><path class="cls-32" d="M223.15,218.19s-1,13.76,1.71,15.41c1.69,1,8.4,4.51,8.2,5.17s-3.79,5.81-3.79,5.81-12.9-8.5-13.32-11.18.64-20.16,2.41-21c1.33-.61,2-.11,3.7,1.14C224.41,215.32,223.15,218.19,223.15,218.19Z" transform="translate(-210.89 -58.86)"/><path class="cls-33" d="M246.67,222.12l1.14-.42s-1.42-3.33-2-3.25a14.38,14.38,0,0,0-1.6.33Z" transform="translate(-210.89 -58.86)"/><path class="cls-34" d="M246.93,222.69c-.14-.11-2.42-4.46-2.42-4.46l-4.85.66,2.62,5.16Z" transform="translate(-210.89 -58.86)"/><path class="cls-35" d="M239,297.74s-.4,2.78-.45,3.2-4.47-.25-4.47-.25l-.35-3.31S238.48,297.34,239,297.74Z" transform="translate(-210.89 -58.86)"/><path class="cls-25" d="M238.62,300.59a12.08,12.08,0,0,0,2.76,2.41c1.35.73,3.47,1,4.27,1.77.58.55,2.11,2.9-3.51,2.86s-8.33.33-8.93-.57.87-6.66.87-6.66A11.86,11.86,0,0,0,238.62,300.59Z" transform="translate(-210.89 -58.86)"/><path class="cls-35" d="M267.31,297.76s-.4,2.79-.45,3.21-4.47-.25-4.47-.25L262,297.4S266.76,297.37,267.31,297.76Z" transform="translate(-210.89 -58.86)"/><path class="cls-25" d="M266.9,300.61a11.92,11.92,0,0,0,2.75,2.41c1.36.73,6.33,1.33,7.13,2.09.58.55,1.54,2.75-6.36,2.54-5.62-.14-8.33.34-8.93-.57s.87-6.66.87-6.66S263.61,300.94,266.9,300.61Z" transform="translate(-210.89 -58.86)"/><path class="cls-25" d="M224.79,249.63s16.05,2.71,19.67,3.28,23.28,5.46,25.74,7c1.95,1.18-1,29.67-1.73,40.54h-7.74l-.56-32.6c-9.29.23-15.91-2.17-22.68-1.15s-12.4,2.49-16.7-3.28C220.79,263.37,220.63,250.88,224.79,249.63Z" transform="translate(-210.89 -58.86)"/><path class="cls-25" d="M240.61,300.42l-7.54-.46-.74-32.16a45.91,45.91,0,0,1-8.6-.55l-6.09-14.15c5.33,1.06,22.43,5.38,24.71,6.76C244.31,261,241.31,289.56,240.61,300.42Z" transform="translate(-210.89 -58.86)"/><path class="cls-21" d="M232.18,189.48s5.88-1.63,8.13,2.94,1.22,13.22-1.74,14-7.23-.12-8.46-3-2.21-6.88-1.92-9.49S230.62,190.1,232.18,189.48Z" transform="translate(-210.89 -58.86)"/><path class="cls-21" d="M237,205.54s-.06,3.48.32,4.22-8.19.55-8.19.55a17.37,17.37,0,0,0,.58-7.72C229,199.07,237,205.54,237,205.54Z" transform="translate(-210.89 -58.86)"/><path class="cls-36" d="M229.28,201.27s.46.94,2.68.79,5.15-2.83,6.09-3.07,1-.78,1-.78l.49.89,1,.15s-.66-2.69.77-3.63-.64-8.56-7.88-6.72c0,0-5.52,1-5.59,4.1S228.21,199.64,229.28,201.27Z" transform="translate(-210.89 -58.86)"/><path class="cls-28" d="M237.8,209.67s0-1.42-.66-1.55-6.74-1-7.53-.67l-.34,1.87S230.79,210.25,237.8,209.67Z" transform="translate(-210.89 -58.86)"/><path class="cls-21" d="M239.57,197.58c-.17-1.16-1.49-2.49-2.24-.68s.51,4.43,1.35,4.29S239.79,199.15,239.57,197.58Z" transform="translate(-210.89 -58.86)"/><path class="cls-32" d="M263.34,226.38h0C263.38,226.4,263.38,226.4,263.34,226.38Z" transform="translate(-210.89 -58.86)"/><path class="cls-36" d="M230.46,190.31s-7.17-.34-1.25,10.85Z" transform="translate(-210.89 -58.86)"/><polygon class="cls-37" points="3.6 245.38 4.13 246.88 26.67 239.9 25.59 236.86 3.6 245.38"/><rect class="cls-37" x="24.88" y="214.32" width="2.56" height="24.51"/><rect class="cls-38" x="18.61" y="213.02" width="15.11" height="1.44"/><polygon class="cls-37" points="48.93 245.38 48.4 246.88 25.86 239.9 26.85 236.66 48.93 245.38"/><polygon class="cls-37" points="33.05 246.72 33.05 248.47 25.86 239.9 26.85 236.66 33.05 246.72"/><path class="cls-39" d="M261.93,306.33a2.11,2.11,0,1,1-2.11-2.11A2.11,2.11,0,0,1,261.93,306.33Z" transform="translate(-210.89 -58.86)"/><path class="cls-39" d="M244.12,306.33a2.11,2.11,0,1,1-2.11-2.11A2.11,2.11,0,0,1,244.12,306.33Z" transform="translate(-210.89 -58.86)"/><path class="cls-39" d="M216.59,306.33a2.11,2.11,0,1,1-2.11-2.11A2.1,2.1,0,0,1,216.59,306.33Z" transform="translate(-210.89 -58.86)"/><rect class="cls-28" x="8.36" y="207.55" width="35.8" height="5.47" rx="2.7"/><rect class="cls-29" x="105.71" y="184.56" width="2.04" height="62.91"/><rect class="cls-40" x="39.12" y="133.94" width="52.96" height="37.36" rx="2.69"/><rect class="cls-41" x="41.2" y="135.96" width="48.82" height="29.49"/><path class="cls-42" d="M278.2,226.66a1.71,1.71,0,1,1-1.71-1.71A1.7,1.7,0,0,1,278.2,226.66Z" transform="translate(-210.89 -58.86)"/><path class="cls-28" d="M287.46,239.89v-.67s-.94-4.13-7.55-4.13-6.48,4.8-6.48,4.8Z" transform="translate(-210.89 -58.86)"/><path class="cls-21" d="M273.35,235.7a6.4,6.4,0,0,0,2-.43c.53-.32,3.68-2.43,4.42-2.09s5.66,1.84,5.49,2.56-.63.65-1,.52a26.78,26.78,0,0,0-4.24-.75s3.51,1.28,3.52,2.22-.73,1.16-1.06,1.51-.74,1.23-1.64,1.3-5.32-1.47-6.23-1.54a21.72,21.72,0,0,1-2.7-.09A24.19,24.19,0,0,1,273.35,235.7Z" transform="translate(-210.89 -58.86)"/><path class="cls-32" d="M247.2,211.63c-4.58-.81-9.4-2-9.4-2l-8.53-.35s-7.83,1.72-10.91,3.12c-.29.13-.29,7-1.1,8.78l2.56,5.39s1.48,10.68,1.78,15.43c.14,2.18-.39,21.08-.39,21.08s.76.38,6.58,1,20.37-.23,20.46-.92-2.82-25.6-2.95-26.89c-.19-2,.58-11.13.58-11.13,1.09,1.47,3.89,8.12,6.8,11.29,1.72,1.86,10.21,3,11.81,3.06,3.48.11,9.84.81,10,.47s.55-5.64.16-5.78-12.15-.79-15.17-2.4c-1.11-.58-4.42-7.79-4.42-7.79S249.73,212.76,247.2,211.63Z" transform="translate(-210.89 -58.86)"/><path class="cls-28" d="M5.18,169.52H19.5a5.19,5.19,0,0,1,5.19,5.19v23.82a5.18,5.18,0,0,1-5.18,5.18H5.18A5.18,5.18,0,0,1,0,198.53V174.7A5.18,5.18,0,0,1,5.18,169.52Z"/><path class="cls-28" d="M231.2,270.51a11.29,11.29,0,0,1-8.77-3.63c-4.94-5.45-4.05-15-4-15.43a1.37,1.37,0,1,1,2.73.27c0,.11-.79,8.79,3.32,13.32a8.56,8.56,0,0,0,6.73,2.73,1.37,1.37,0,1,1,0,2.74Z" transform="translate(-210.89 -58.86)"/><rect class="cls-43" x="44.66" y="138.31" width="14.3" height="1.56" rx="0.39"/><rect class="cls-43" x="44.66" y="141.65" width="14.3" height="1.56" rx="0.39"/><rect class="cls-43" x="44.66" y="145.48" width="14.3" height="17.62" rx="1.3"/><rect class="cls-43" x="61.84" y="138.31" width="25.46" height="24.79" rx="2.06"/><path class="cls-44" d="M507.52,233.7c0,39.42-1.12,47.13-11,56-3.87,3.46-11,10.64-31.57,14.22a155.26,155.26,0,0,1-22.42,2.05,75.3,75.3,0,0,1-10-.37,53,53,0,0,1-7.06-1.23c-22.6-5.67-24.29-25-14.4-41.33a94.31,94.31,0,0,1,8.74-12c4.85-5.72,10-10.79,14.74-15.52A104.44,104.44,0,0,0,445.64,223a30.19,30.19,0,0,0,3-5.08,86.55,86.55,0,0,1,8.65-14.83,63.74,63.74,0,0,1,5-6.23,46.42,46.42,0,0,1,16.13-3.77C491.43,192.67,507.54,199.08,507.52,233.7Z" transform="translate(-210.89 -58.86)"/><path class="cls-45" d="M454.94,293a24.24,24.24,0,0,0,.75,3.81c.43,1.16,2.76,3.85,1.77,6.44-1.06,2.8-5.72.1-7.62-.76s-1.47-2.4-1.67-4.3-1.13-2-.79-3.29a16.12,16.12,0,0,1,2.42-3.9Z" transform="translate(-210.89 -58.86)"/><path class="cls-21" d="M450.7,289.66s-1.2,1.67-1.16,1.72,5.11,3.13,5.46,2.13a10.49,10.49,0,0,0,.4-1.95Z" transform="translate(-210.89 -58.86)"/><path class="cls-45" d="M433.48,294.91a19.34,19.34,0,0,0-2.94,3.44c-1.39,2.09-5.08,2.2-5.24,5s5,2.93,7.74,2,3.13-3.7,4.78-4.4,2.49-1.26,2.37-2.62a16.81,16.81,0,0,0-1-3.56,10.48,10.48,0,0,1-1.62.39A13.56,13.56,0,0,1,433.48,294.91Z" transform="translate(-210.89 -58.86)"/><path class="cls-4" d="M452.12,217.74s-1,6.2-1.88,10.29h0a24.37,24.37,0,0,1-.84,3.39,47.81,47.81,0,0,1-4.59,5.08c-4.2,4.33-9.75,9.77-9.75,9.77l-2.17-4.11s4.93-5.78,8.27-9.64c1.55-1.78,2.75-3.15,3-3.35.7-.63,1.51-6.79,2.65-11.86a20.45,20.45,0,0,1,3.43-7.88Z" transform="translate(-210.89 -58.86)"/><path class="cls-21" d="M444.81,236.5c-4.2,4.33-9.75,9.77-9.75,9.77l-2.17-4.11s4.93-5.78,8.27-9.64A7,7,0,0,1,444.81,236.5Z" transform="translate(-210.89 -58.86)"/><path class="cls-21" d="M433.73,293l-.25,1.9a9.37,9.37,0,0,0,5.67-.09l.06-1.69Z" transform="translate(-210.89 -58.86)"/><path class="cls-4" d="M472,245.44c.15.55-28.56,0-28.56,0s7.94-5.78,8.46-7.33-2-10.81-2.35-13.82c-.27-2.41-.93-13.21.66-14.86s7.64-3.53,7.64-3.53l8.73.33a13.58,13.58,0,0,1,2.47.78c1,.47,6.92,2.57,7.87,5.51s-5.87,12.4-5.87,12.4,0,.43,0,1.12h0c0,.93-.06,2.34-.1,3.87,0,2-.08,4.17-.08,5.76A56.63,56.63,0,0,0,472,245.44Z" transform="translate(-210.89 -58.86)"/><path class="cls-9" d="M472,245.44s3.9,5.73,4,9.65-6.93,17-8,18.9c-3.18,5.64-11.89,17.81-11.89,17.81s-1.5,0-6.19-1.86c0,0,5.8-16.07,6.53-17.74,3.12-7.07,4.86-12.09,3.81-13.31s-3.91-2.43-4.73-3.14-15.24,2.72-16.75,3.11c-3.91,1-2.13,7.82-1.26,10.87,1.44,5.1,2.71,23.53,2.71,23.53s-2.79,1.19-7.45.18c0,0-9.16-33.27-9.46-36.58s-.43-8.76,22.14-12.91Z" transform="translate(-210.89 -58.86)"/><path class="cls-21" d="M460.25,187s-7.58-1.71-5.85,7.82,3.56,10.28,8.13,8.31,4.16-8.08,4.39-11.08S462.67,187.05,460.25,187Z" transform="translate(-210.89 -58.86)"/><path class="cls-21" d="M458.25,208.35s3.35,3.56,8.65.32c0,0-1.19-7.7-.56-11.46s-6.92,5.82-6.92,5.82.17.41.18.92a9.39,9.39,0,0,1-.08,1.53C459.37,206.73,459,208,458.25,208.35Z" transform="translate(-210.89 -58.86)"/><path class="cls-36" d="M466.55,196.9s-.2-3-1.3-3.1-1.26,1.11-1.26,1.11l-1.11.21s.35-2.63-.74-3.09-7.1,1.45-8,.68-.47-6.12,1.13-6.85,6-2.36,9.19-.19c0,0,2.51-.28,2.88,1.74S467.23,195.39,466.55,196.9Z" transform="translate(-210.89 -58.86)"/><path class="cls-46" d="M459.52,205.48c5.47-1.69,5.88-5,5.89-5-1.8,3.09-5.81,3.5-5.81,3.5A9.39,9.39,0,0,1,459.52,205.48Z" transform="translate(-210.89 -58.86)"/><path class="cls-21" d="M469.14,207.05s-4,8-10.48,7.46-1.1-8.53-.81-8.61S464.49,204.25,469.14,207.05Z" transform="translate(-210.89 -58.86)"/><path class="cls-4" d="M440.16,245s19.82,2.45,31.84.41l-23-2.87S448.91,243.15,440.16,245Z" transform="translate(-210.89 -58.86)"/><path class="cls-21" d="M455,241.66l-1.48.75s.34,2.35,1.15,3.06l1.65-.42S456,242.47,455,241.66Z" transform="translate(-210.89 -58.86)"/><path class="cls-4" d="M477.93,236.86c-.3.34-4.19,1.91-8.6,3.61h0c-6,2.31-12.8,4.51-12.8,4.51L455,241.66s7.1-3.86,11.9-6.56c2.27-1.28,4-2.31,4.27-2.54.78-.74,1-1.92.41-4s-1.88-11.51-2-12.61.36-4,3.12-4.19a8.23,8.23,0,0,1,4.16.63s.69.28,1.21,7S478.63,236.05,477.93,236.86Z" transform="translate(-210.89 -58.86)"/><path class="cls-47" d="M471,226h0c0,.93-.06,2.34-.1,3.87A19.41,19.41,0,0,1,469.8,218C469.51,219.75,471,226,471,226Z" transform="translate(-210.89 -58.86)"/><path class="cls-47" d="M450.24,228h0a24.37,24.37,0,0,1-.84,3.39,34.9,34.9,0,0,1-.09-10.14A55.92,55.92,0,0,0,450.24,228Z" transform="translate(-210.89 -58.86)"/><path class="cls-21" d="M469.33,240.47h0c-6,2.31-13,4.58-13,4.58L455,241.66s7.1-3.86,11.9-6.56C466.89,235.1,468.64,236,469.33,240.47Z" transform="translate(-210.89 -58.86)"/><polygon class="cls-48" points="243.67 186.38 215.49 185.97 229.72 193.19 243.67 186.38"/><polygon class="cls-49" points="229.72 193.19 243.67 187.79 243.67 186.38 228.62 191.81 229.72 193.19"/><path class="cls-21" d="M453.83,242.46s-1.76-.27-3-.55c-.94-.22-3.28.08-3.88.68s-2.49,4.82-2.85,5.07.19.86.82.56c0,0,.57,1.84,2,1.15s2.4-2.2,3.14-2.46,5.1-1.6,5.1-1.6S455,242,453.83,242.46Z" transform="translate(-210.89 -58.86)"/><path class="cls-21" d="M447.4,242.32a11,11,0,0,0-1.42.79c-.3.24-1.49,1.14-1.78,1.35s.43.81,2.57-.12S447.4,242.32,447.4,242.32Z" transform="translate(-210.89 -58.86)"/><polygon class="cls-49" points="229.72 193.19 221.34 170.31 194.32 170.75 202.31 191.84 229.72 193.19"/><path class="cls-50" d="M423.58,239.29c.82,1.65.58,3.45-.56,4s-2.71-.31-3.54-2-.57-3.44.56-4S422.75,237.64,423.58,239.29Z" transform="translate(-210.89 -58.86)"/><path class="cls-21" d="M464,193.64a1,1,0,0,1,1.9.11c.13,1.26-.76,3.48-1.39,3.26S463.87,194.8,464,193.64Z" transform="translate(-210.89 -58.86)"/></svg>