<?xml version="1.0" encoding="utf-8"?>
<!-- Generator: Adobe Illustrator 23.0.3, SVG Export Plug-In . SVG Version: 6.00 Build 0)  -->
<svg version="1.1" id="Layer_1" xmlns="http://www.w3.org/2000/svg" xmlns:xlink="http://www.w3.org/1999/xlink" x="0px" y="0px"
	 viewBox="0 0 590.7 166" style="enable-background:new 0 0 590.7 166;" xml:space="preserve">
<style type="text/css">
	.st0{fill:#616161;}
	.st1{fill:#FFFFFF;}
	.st2{fill:#BEBEBE;}
</style>
<g>
	<path class="st0" d="M0,0h165.3c0,55.1,0,110.2,0,165.2c-55.1,0-110.2,0-165.2,0V0 M22,31c12.9,17.2,25.9,34.3,38.8,51.5
		C48,99.7,34.9,116.7,22.1,133.9c29.3,0.1,58.7,0,88,0.1c13.2-17.1,25.9-34.5,39.2-51.5l-0.3,0c-12.9-17.2-26-34.3-38.9-51.5
		C80.8,31,51.4,31,22,31z"/>
	<path class="st0" d="M221.3,48.3c9.8-12.3,25-20.2,40.7-21c14.9-1.1,30,4.1,41.2,13.9c-5.1,5.1-10.1,10.2-15.2,15.2
		c-8.6-7-20.6-9.7-31.3-6.7c-12,3.1-21.6,13.4-24.2,25.4c-3.3,13.1,1.4,27.9,12.2,36.2c12.3,10.1,31.3,9.5,43.4-0.6
		c5.1,5.1,10.2,10.1,15.2,15.3c-10,8.7-23,13.9-36.2,14.1c-16.7,0.5-33.4-6.9-44.4-19.6c-7.6-8.7-12.5-19.8-13.6-31.3
		C207.5,74.6,212,59.6,221.3,48.3z"/>
	<path class="st0" d="M323.3,30.3c7.3,0,14.5,0,21.7,0c0,35.6,0,71.2,0,106.8c-7.3,0-14.5,0-21.8,0
		C323.3,101.4,323.3,65.8,323.3,30.3z"/>
	<path class="st0" d="M371,30c7,0,14.1,0,21.2,0c12.6,22.6,24.8,45.4,37.5,67.9C442,75.2,454.6,52.7,466.9,30c7.1,0,14.2,0,21.3,0
		c0,35.6,0.1,71.2-0.1,106.8c-7.2-0.1-14.5,0-21.7-0.1c0-21.1,0-42.1,0-63.2c-12.5,21.3-24.4,42.9-37,64.1
		c-12.1-21.4-24.6-42.7-36.7-64.1c0,21.1,0,42.1,0,63.2c-7.3,0-14.5,0-21.7,0C371,101.2,371,65.6,371,30z"/>
	<path class="st0" d="M513,30.2c14.7,0,29.3,0,44,0c6.8,0.1,13.8,1.6,19.6,5.3c14,8.6,17.2,30.8,5.5,42.6c-1.5,1.6-3.3,2.9-5,4.2
		c6.7,3.5,11.8,10,13,17.5c1.8,10.1-0.5,21.7-8.3,28.9c-6.3,6-15.2,8.2-23.6,8.3c-15,0.2-30.1,0-45.2,0.1
		C513,101.4,513,65.8,513,30.2 M534.8,49.8c0,7.8,0,15.5,0,23.3c6.4,0,12.8,0,19.2,0c3.7-0.1,7.8-0.8,10.5-3.6
		c3.9-4.1,4-11.1,0.5-15.5c-2.6-3.2-7-4.2-11-4.2C547.6,49.8,541.2,49.8,534.8,49.8 M534.8,92.5c0,8.2,0,16.5,0,24.7
		c7.1,0,14.1,0,21.2,0c3.3,0.1,6.8-0.8,9.3-3.1c4.9-4.8,5-13.6,0-18.3c-2.7-2.6-6.6-3.3-10.2-3.3C548.2,92.5,541.5,92.5,534.8,92.5z
		"/>
</g>
<g>
	<path class="st1" d="M22,31c29.4-0.1,58.7,0,88.1,0c12.9,17.2,25.9,34.3,38.9,51.5c-29.4,0.1-58.8,0-88.2,0
		C47.9,65.3,34.9,48.2,22,31z"/>
</g>
<g>
	<path class="st2" d="M60.8,82.5c29.4,0,58.8,0,88.2,0l0.3,0c-13.3,17-26,34.5-39.2,51.5c-29.3-0.1-58.7,0.1-88-0.1
		C34.9,116.7,48,99.7,60.8,82.5z"/>
</g>
</svg>
