<svg id="Layer_1" data-name="Layer 1" xmlns="http://www.w3.org/2000/svg" fill="#ffffff" viewBox="0 0 158.66 36.01">
    <title>logo-text</title>
    <path d="M37.67,0h7.1l.1.1V34.9c0,.2.1.5-.1.6h-7.1Z" />
    <path
        d="M153.27.4a4.66,4.66,0,0,1,3.8.7,4.07,4.07,0,0,1,.9,5.5,4.65,4.65,0,0,1-4.8,1.7,4.21,4.21,0,0,1-2.6-2.1,4.75,4.75,0,0,1,0-3.7A4,4,0,0,1,153.27.4Z" />
    <path
        d="M6.17,4.5a18.55,18.55,0,0,1,10.4-4,20.37,20.37,0,0,1,8.5,1.1,16.23,16.23,0,0,1,6,4c-1.3,1.4-2.5,2.9-3.8,4.3-.3.3-.6.7-.9,1a10.48,10.48,0,0,0-6.6-3.7,12.29,12.29,0,0,0-5.4.4,10.38,10.38,0,0,0-5.5,4.6,12.34,12.34,0,0,0-1.4,6,11.65,11.65,0,0,0,2.2,7,9.86,9.86,0,0,0,6.4,3.9,11.11,11.11,0,0,0,6-.3,25.57,25.57,0,0,0,2.4-1.1V22.2h-7.6V16H32V31.3A18.67,18.67,0,0,1,18.77,36a19.14,19.14,0,0,1-11.6-3.5A17.38,17.38,0,0,1,1.27,25a19.15,19.15,0,0,1-.9-10.6A16.39,16.39,0,0,1,6.17,4.5Z" />
    <path
        d="M55.07,13.2a13.75,13.75,0,0,1,8.6-1.8,12.55,12.55,0,0,1,6.2,2.2,11.32,11.32,0,0,1,4.7,6.6,14.23,14.23,0,0,1,0,7.1,11.86,11.86,0,0,1-3.4,5.4A12.32,12.32,0,0,1,64,35.8a13.79,13.79,0,0,1-9.3-2A10.63,10.63,0,0,1,51,29.9a11.25,11.25,0,0,1-1.4-3.6,12.77,12.77,0,0,1,1.1-8.6c.1-.2.2-.3.3-.5a11.25,11.25,0,0,1,4.1-4m6,4.3a5,5,0,0,0-2.1.9,6.34,6.34,0,0,0-2.3,4.3,7.51,7.51,0,0,0,.7,4.2,5.16,5.16,0,0,0,3.1,2.7,6.89,6.89,0,0,0,3.2.1,5,5,0,0,0,3.5-2.7,7.58,7.58,0,0,0,.7-4.7,5.81,5.81,0,0,0-2.4-4A6.36,6.36,0,0,0,61.07,17.5Z" />
    <path
        d="M85.67,12.4a14,14,0,0,1,8.1-.9,12.92,12.92,0,0,1,6.1,2.7,12.16,12.16,0,0,1,4.2,6.8,12.79,12.79,0,0,1-1.4,9,12.19,12.19,0,0,1-5.2,4.6,14.34,14.34,0,0,1-8.2,1.1,12.72,12.72,0,0,1-6.5-2.8,11,11,0,0,1-3.2-4.2A13,13,0,0,1,79,20a9.87,9.87,0,0,1,1.2-2.8,11.73,11.73,0,0,1,5.5-4.8m4.5,5.1a5.37,5.37,0,0,0-4.1,3.6,7.24,7.24,0,0,0,.5,6.1,5.1,5.1,0,0,0,2.6,2.2,6.28,6.28,0,0,0,3.6.2,5.68,5.68,0,0,0,3.5-2.6,7.62,7.62,0,0,0,.8-4.7,6,6,0,0,0-2.4-4.1A7.08,7.08,0,0,0,90.17,17.5Z" />
    <path
        d="M128.07,11.7a11.08,11.08,0,0,1,6.5.1,7.16,7.16,0,0,1,3.6,2.6c.1-.7.2-1.5.3-2.2,0-.1,0-.4.2-.4h5.5a2.77,2.77,0,0,1,.9.1V35.4l-.1.1h-6.3a20.24,20.24,0,0,1-.4-2.6,7.89,7.89,0,0,1-3.7,2.5,11.5,11.5,0,0,1-7.1-.2,9.85,9.85,0,0,1-5-4.2,14.05,14.05,0,0,1-2-8,13.31,13.31,0,0,1,1.9-6.7,10.46,10.46,0,0,1,5.7-4.6m2.2,6.4a5.37,5.37,0,0,0-2.3,3.2,9.75,9.75,0,0,0,0,4.8,5.52,5.52,0,0,0,2.4,3.2,5.76,5.76,0,0,0,4.1.4,6.25,6.25,0,0,0,3.3-2.7V20.3a6.28,6.28,0,0,0-3.1-2.7A5.61,5.61,0,0,0,130.27,18.1Z" />
    <path d="M150.87,11.8c2.4-.1,4.8,0,7.2,0V35.5H151c-.1-.4,0-.8-.1-1.1Z" />
    <path
        d="M111.47,27.5a5.18,5.18,0,0,1,4,1,4.47,4.47,0,0,1,0,6.4,4.83,4.83,0,0,1-6.2-.1,4.39,4.39,0,0,1-.5-5.6A3.89,3.89,0,0,1,111.47,27.5Z" />
</svg>
