<?xml version="1.0" encoding="utf-8"?>
<!-- Generator: Adobe Illustrator 23.0.3, SVG Export Plug-In . SVG Version: 6.00 Build 0)  -->
<svg version="1.1" id="Layer_1" xmlns="http://www.w3.org/2000/svg" xmlns:xlink="http://www.w3.org/1999/xlink" x="0px" y="0px"
	 viewBox="0 0 254 74" style="enable-background:new 0 0 254 74;" xml:space="preserve">
<style type="text/css">
	.st0{fill:#FCC21B;}
	.st1{fill:#2F2F2F;}
	.st2{fill:#FFFFFF;}
</style>
<path class="st0" d="M37.2,3.1c2.3-0.3,4.6-0.2,6.8-0.2C49.7,2.7,55.4,4,60.4,6.5c5.9,2.9,10.7,7.7,14,13.3
	c2.6,4.1,4.2,8.8,5.6,13.4c1.6,6.7,2.8,13.6,2.7,20.5c0,1.6,0.2,3.3-0.6,4.8c-1.9,3.7-5.7,5.8-9.3,7.5c-7.5,3.2-15.7,4.6-23.8,5.1
	c-3.7,0.1-7.4,0-11.1,0c-6.1-0.2-12.2-1.3-18.1-2.8C15,66.8,10,64.9,6.2,61.4c-1.4-1.5-2.8-3.3-2.8-5.4c0-2.9-0.1-5.8,0.3-8.7
	c0.8-8.6,2.7-17.3,6.7-25.1c2.8-5.3,6.6-10.1,11.6-13.5C26.5,5.6,31.8,3.8,37.2,3.1 M29.3,23c-4.8,1.4-5.6,8.5-2,11.6
	c1.6,1.5,4.3,1.7,6,0.3c3.4-2.5,3.5-8.1,0.4-10.8C32.5,23,30.8,22.7,29.3,23 M54.6,23c-0.8,0.2-1.6,0.6-2.2,1.2
	c-2.9,2.7-2.8,8.1,0.3,10.6c1.7,1.4,4.4,1.4,6-0.1c3.1-2.6,3.2-7.9,0.2-10.6C57.8,23.1,56.1,22.7,54.6,23 M23.5,43.3
	c-1.4,0.3-1.3,1.9-1.1,3c0.9,3.2,3.2,5.8,5.7,8c4.1,3.6,9.6,5.1,14.9,5.2c5.5-0.1,11.3-1.8,15.4-5.7c2.5-2.3,5.1-5.2,5.3-8.7
	c0.2-1.6-1.7-2.3-2.9-1.5c-1.8,1.1-3,2.9-4.7,4.2c-7.3,5.8-18.5,5.9-25.9,0.3c-1.6-1.2-2.8-2.7-4.3-3.9
	C25.4,43.5,24.4,43.1,23.5,43.3z"/>
<g>
	<path class="st1" d="M29.3,23c1.5-0.4,3.2,0,4.4,1.1c3.2,2.7,3,8.4-0.4,10.8c-1.8,1.4-4.4,1.2-6-0.3C23.6,31.5,24.5,24.4,29.3,23z
		 M54.6,23c1.5-0.4,3.2,0.1,4.3,1.1c3,2.7,3,8-0.2,10.6c-1.7,1.4-4.3,1.5-6,0.1c-3.2-2.5-3.3-7.8-0.3-10.6
		C53,23.7,53.8,23.2,54.6,23z M23.5,43.3c0.9-0.2,1.8,0.2,2.5,0.7c1.5,1.2,2.7,2.8,4.3,3.9c7.4,5.7,18.6,5.6,25.9-0.3
		c1.7-1.3,2.9-3.1,4.7-4.2c1.2-0.8,3.1,0,2.9,1.5c-0.3,3.6-2.9,6.4-5.3,8.7c-4.1,3.9-9.9,5.5-15.4,5.7c-5.3-0.1-10.8-1.6-14.9-5.2
		c-2.4-2.2-4.8-4.7-5.7-8C22.2,45.3,22.2,43.6,23.5,43.3z"/>
</g>
<g>
	<path class="st2" d="M87.4,14.6h164v44.7h-164V14.6 M127.1,18.3c0,11.8,0,23.7,0,35.5c2.4,0,4.7,0,7.1,0c0.2-0.1,0.1-0.4,0.1-0.6
		c0-11.6,0-23.2,0-34.8c0,0-0.1-0.1-0.1-0.1C131.8,18.3,129.4,18.3,127.1,18.3 M242.7,18.8c-1.1,0.3-2.1,1.1-2.6,2.1
		c-0.5,1.1-0.5,2.5,0,3.7c0.5,1,1.5,1.8,2.6,2.1c1.7,0.5,3.8-0.1,4.8-1.7c1.1-1.7,0.8-4.3-0.9-5.5C245.4,18.6,244,18.5,242.7,18.8
		 M95.6,22.9c-3.1,2.5-5.2,6.1-5.9,10c-0.7,3.5-0.4,7.3,0.9,10.6c1.2,3,3.3,5.6,5.9,7.5c3.4,2.4,7.5,3.6,11.6,3.5
		c4.8,0.1,9.7-1.4,13.2-4.7c0-5.1,0-10.2,0-15.3c-5,0-10.1,0-15.1,0c0,2.1,0,4.2,0,6.2c2.5,0,5.1,0,7.6,0c0,1.8,0,3.7,0,5.5
		c-0.8,0.4-1.5,0.8-2.4,1.1c-1.9,0.7-4,0.7-6,0.3c-2.5-0.5-4.9-1.9-6.4-3.9c-1.5-2-2.2-4.5-2.2-7c0-2.1,0.4-4.2,1.4-6
		c1.1-2.2,3.1-3.8,5.5-4.6c1.7-0.6,3.6-0.7,5.4-0.4c2.5,0.4,4.9,1.7,6.6,3.7c0.4-0.3,0.6-0.7,0.9-1c1.3-1.4,2.5-2.9,3.8-4.3
		c-1.7-1.7-3.7-3.2-6-4c-2.7-1-5.6-1.3-8.5-1.1C102.2,19.2,98.5,20.5,95.6,22.9 M144.5,31.6c-1.7,1-3.2,2.4-4.1,4.2
		c-0.1,0.2-0.2,0.3-0.3,0.5c-1.4,2.6-1.7,5.7-1.1,8.6c0.3,1.2,0.7,2.5,1.4,3.6c0.9,1.6,2.2,2.9,3.7,3.9c2.7,1.8,6.1,2.3,9.3,2
		c2.7-0.3,5.3-1.4,7.2-3.1c1.6-1.4,2.8-3.3,3.4-5.4c0.7-2.3,0.7-4.8,0-7.1c-0.7-2.7-2.5-5-4.7-6.6c-1.8-1.3-4-2-6.2-2.2
		C150.1,29.5,147,30,144.5,31.6 M175.1,30.8c-2.3,1-4.4,2.7-5.6,4.9c-0.6,0.8-0.9,1.8-1.2,2.8c-0.8,2.9-0.6,6,0.6,8.7
		c0.7,1.6,1.8,3.1,3.2,4.2c1.8,1.5,4.2,2.5,6.5,2.8c2.8,0.4,5.7,0,8.2-1.1c2.1-1,4-2.6,5.2-4.6c1.7-2.7,2-6,1.4-9
		c-0.5-2.7-2.1-5.1-4.2-6.8c-1.7-1.4-3.9-2.3-6.1-2.7C180.5,29.4,177.6,29.7,175.1,30.8 M217.5,30.1c-2.5,0.7-4.5,2.4-5.8,4.6
		c-1.2,2-1.8,4.4-1.9,6.7c-0.1,2.8,0.5,5.6,2,8c1.2,1.9,2.9,3.4,5,4.2c2.3,0.8,4.8,0.9,7.1,0.2c1.4-0.5,2.8-1.3,3.7-2.5
		c0.2,0.8,0.1,1.7,0.4,2.6c2.1,0,4.2,0,6.3,0c0,0,0.1-0.1,0.1-0.1c0-7.8,0-15.7,0-23.5c-0.3-0.1-0.6-0.1-0.9-0.1c-1.8,0-3.6,0-5.5,0
		c-0.2,0-0.2,0.3-0.2,0.4c-0.1,0.7-0.2,1.5-0.3,2.2c-0.9-1.2-2.2-2.1-3.6-2.6C221.9,29.5,219.6,29.5,217.5,30.1 M240.2,30.2
		c0,7.5,0,15,0,22.6c0,0.4,0,0.8,0.1,1.1c2.4,0,4.8,0,7.1,0c0.1-0.6,0-1.3,0-1.9c0-7.3,0-14.6,0-21.8
		C245,30.2,242.6,30.1,240.2,30.2 M200.8,45.9c-1.1,0.2-2.1,0.8-2.8,1.7c-1.2,1.7-1,4.2,0.5,5.6c1.6,1.6,4.5,1.6,6.2,0.1
		c1.8-1.6,1.8-4.8,0-6.4C203.8,45.9,202.2,45.6,200.8,45.9z"/>
	<path class="st2" d="M150.4,35.9c1.5-0.3,3.1,0,4.3,0.8c1.3,0.9,2.2,2.4,2.4,4c0.2,1.6,0.1,3.3-0.7,4.7c-0.7,1.4-2,2.4-3.5,2.7
		c-1,0.2-2.2,0.2-3.2-0.1c-1.3-0.4-2.5-1.4-3.1-2.7c-0.7-1.3-0.8-2.8-0.7-4.2c0.2-1.6,0.9-3.3,2.3-4.3
		C148.9,36.3,149.7,36,150.4,35.9z"/>
	<path class="st2" d="M179.6,35.9c1.5-0.3,3.1,0,4.3,0.8c1.4,0.9,2.2,2.5,2.4,4.1c0.2,1.6,0.1,3.3-0.8,4.7c-0.7,1.3-2,2.3-3.5,2.6
		c-1.2,0.3-2.4,0.2-3.6-0.2c-1.1-0.4-2-1.2-2.6-2.2c-1.1-1.8-1.2-4.1-0.5-6.1C176.1,37.7,177.7,36.2,179.6,35.9z"/>
	<path class="st2" d="M219.7,36.5c1.3-0.8,2.9-0.9,4.3-0.5c1.4,0.4,2.4,1.5,3.1,2.7c0.1,2.2,0,4.5,0,6.7c-0.8,1.2-1.8,2.3-3.3,2.7
		c-1.3,0.4-2.8,0.3-4.1-0.4c-1.2-0.7-2-1.9-2.4-3.2c-0.4-1.6-0.4-3.2,0-4.8C217.8,38.4,218.6,37.2,219.7,36.5z"/>
</g>
<g>
	<path d="M133.5,20.7c2.4,0,4.7,0,7.1,0c0,0,0.1,0.1,0.1,0.1c0,11.6,0,23.2,0,34.8c0,0.2,0.1,0.5-0.1,0.6c-2.4,0-4.7,0-7.1,0
		C133.5,44.3,133.5,32.5,133.5,20.7z"/>
	<path d="M249.1,21.1c1.3-0.3,2.7-0.1,3.8,0.7c1.7,1.2,2.1,3.8,0.9,5.5c-1,1.5-3.1,2.1-4.8,1.7c-1.1-0.3-2.1-1.1-2.6-2.1
		c-0.5-1.1-0.5-2.5,0-3.7C247,22.1,248,21.3,249.1,21.1z"/>
	<path d="M102,25.2c2.9-2.4,6.6-3.7,10.4-4c2.9-0.2,5.8,0.1,8.5,1.1c2.3,0.8,4.3,2.3,6,4c-1.3,1.4-2.5,2.9-3.8,4.3
		c-0.3,0.3-0.6,0.7-0.9,1c-1.6-2-4-3.3-6.6-3.7c-1.8-0.3-3.7-0.1-5.4,0.4c-2.3,0.8-4.3,2.5-5.5,4.6c-1,1.8-1.4,3.9-1.4,6
		c0,2.5,0.7,5,2.2,7c1.5,2.1,3.9,3.5,6.4,3.9c2,0.4,4.1,0.4,6-0.3c0.8-0.3,1.6-0.7,2.4-1.1c0-1.8,0-3.7,0-5.5c-2.5,0-5.1,0-7.6,0
		c0-2.1,0-4.2,0-6.2c5,0,10.1,0,15.1,0c0,5.1,0,10.2,0,15.3c-3.5,3.3-8.4,4.8-13.2,4.7c-4.1,0.1-8.3-1.1-11.6-3.5
		c-2.6-1.9-4.7-4.5-5.9-7.5c-1.3-3.3-1.6-7.1-0.9-10.6C96.8,31.4,98.9,27.7,102,25.2z"/>
	<path d="M150.9,33.9c2.6-1.6,5.7-2.1,8.6-1.8c2.2,0.2,4.4,0.9,6.2,2.2c2.3,1.5,4,3.9,4.7,6.6c0.6,2.3,0.6,4.8,0,7.1
		c-0.6,2.1-1.8,3.9-3.4,5.4c-2,1.8-4.6,2.9-7.2,3.1c-3.2,0.4-6.6-0.2-9.3-2c-1.5-1-2.9-2.3-3.7-3.9c-0.7-1.1-1.1-2.3-1.4-3.6
		c-0.6-2.9-0.3-6,1.1-8.6c0.1-0.2,0.2-0.3,0.3-0.5C147.7,36.3,149.2,34.9,150.9,33.9 M156.9,38.2c-0.8,0.1-1.5,0.5-2.1,0.9
		c-1.3,1-2.1,2.6-2.3,4.3c-0.1,1.4,0,3,0.7,4.2c0.6,1.3,1.8,2.3,3.1,2.7c1,0.3,2.1,0.3,3.2,0.1c1.5-0.3,2.8-1.3,3.5-2.7
		c0.8-1.4,0.9-3.1,0.7-4.7c-0.2-1.6-1.1-3.1-2.4-4C159.9,38.2,158.3,37.9,156.9,38.2z"/>
	<path d="M181.5,33.1c2.5-1.1,5.4-1.4,8.1-0.9c2.2,0.3,4.3,1.3,6.1,2.7c2.1,1.7,3.6,4.1,4.2,6.8c0.6,3,0.2,6.4-1.4,9
		c-1.2,2-3.1,3.6-5.2,4.6c-2.5,1.2-5.4,1.5-8.2,1.1c-2.4-0.3-4.7-1.3-6.5-2.8c-1.4-1.1-2.5-2.6-3.2-4.2c-1.2-2.7-1.4-5.9-0.6-8.7
		c0.3-1,0.6-1.9,1.2-2.8C177.2,35.8,179.2,34.1,181.5,33.1 M186,38.2c-1.9,0.3-3.5,1.8-4.1,3.6c-0.7,2-0.6,4.3,0.5,6.1
		c0.6,1,1.5,1.8,2.6,2.2c1.1,0.4,2.4,0.5,3.6,0.2c1.4-0.3,2.7-1.3,3.5-2.6c0.8-1.4,1-3.1,0.8-4.7c-0.2-1.6-1.1-3.2-2.4-4.1
		C189.1,38.2,187.5,37.9,186,38.2z"/>
	<path d="M223.9,32.4c2.1-0.6,4.4-0.6,6.5,0.1c1.4,0.5,2.7,1.3,3.6,2.6c0.1-0.7,0.2-1.5,0.3-2.2c0-0.1,0-0.4,0.2-0.4
		c1.8,0,3.6,0,5.5,0c0.3,0,0.6,0,0.9,0.1c0,7.8,0,15.7,0,23.5c0,0-0.1,0.1-0.1,0.1c-2.1,0-4.2,0-6.3,0c-0.3-0.8-0.2-1.7-0.4-2.6
		c-0.9,1.2-2.3,2-3.7,2.5c-2.3,0.7-4.8,0.6-7.1-0.2c-2.1-0.8-3.9-2.3-5-4.2c-1.5-2.4-2.1-5.2-2-8c0.1-2.3,0.6-4.7,1.9-6.7
		C219.4,34.9,221.5,33.2,223.9,32.4 M226.1,38.8c-1.2,0.7-1.9,1.9-2.3,3.2c-0.4,1.6-0.4,3.3,0,4.8c0.4,1.3,1.2,2.5,2.4,3.2
		c1.2,0.7,2.7,0.7,4.1,0.4c1.4-0.4,2.5-1.5,3.3-2.7c0-2.2,0-4.5,0-6.7c-0.7-1.2-1.8-2.2-3.1-2.7C229,37.9,227.4,38,226.1,38.8z"/>
	<path d="M246.7,32.5c2.4-0.1,4.8,0,7.2,0c0,7.3,0,14.6,0,21.8c0,0.6,0,1.3,0,1.9c-2.4,0-4.8,0-7.1,0c-0.1-0.4,0-0.8-0.1-1.1
		C246.7,47.5,246.7,40,246.7,32.5z"/>
	<path d="M207.3,48.2c1.4-0.2,2.9,0.1,4,1c1.8,1.6,1.8,4.8,0,6.4c-1.7,1.5-4.6,1.4-6.2-0.1c-1.5-1.4-1.7-3.9-0.5-5.6
		C205.1,49,206.2,48.4,207.3,48.2z"/>
</g>
</svg>
