<?xml version="1.0" encoding="utf-8"?>
<!-- Generator: Adobe Illustrator 23.0.3, SVG Export Plug-In . SVG Version: 6.00 Build 0)  -->
<svg version="1.1" id="Layer_1" xmlns="http://www.w3.org/2000/svg" xmlns:xlink="http://www.w3.org/1999/xlink" x="0px" y="0px"
	 viewBox="0 0 516 532" style="enable-background:new 0 0 516 532;" xml:space="preserve">
<style type="text/css">
	.st0{fill:#616161;}
</style>
<path class="st0" d="M25.3,0h466.7c10.1,1.5,19.6,7.2,23.9,16.7v499.9c-3.4,6.6-8.8,12-15.4,15.4H16.7C7.2,527.6,1.5,518.1,0,508
	V23.8C2.1,11.1,12.4,1.2,25.3,0 M1.3,33.3c0,3.1,0,6.2,0,9.3c102-1.3,204.1,3.1,304.9,20.6c33.9,6.6,68.2,13.5,99.6,28.4
	c10.6,6.1,23.4,12.8,26.1,25.9c0.1,6.4-3.8,12.4-9.1,15.8c-20.6,14.5-46.2,18.7-70.2,24.5c-72.6,13.8-146.5,18.6-220,21.4
	c-18.3,2.2-36.9-1-55.2,2c-25.4,0.1-50.7,0-76.1,0.1c0,18.2,0,36.4,0,54.6c109.8,1.3,219.7-1.3,328.1-19.9
	c43.2-7.8,86.7-17.1,126.6-36.1c12.5-6.8,25.1-14.9,33-27.1c7-11.1,3.2-26-5.9-34.6c-24.3-25.1-59.3-35-91.6-45.7
	C264.5,37.5,132,33.1,1.3,33.3 M211.5,335.5c-3.8,10.9-1.6,22.6-2.2,33.8c-20.9-0.3-41.8-1.9-62.7-4.2c0-8.8,0-17.5,0-26.3
	c1-0.1,3-0.2,4-0.2v-1.2c-1-0.1-3-0.2-4-0.2c0-11.5,0-23,0-34.5c21.8,0,43.5,0,65.3,0c0-4.9,0-9.8,0-14.7c-30,0-60-0.1-90,0
	c-30.6,45.2-62,89.7-93,134.6c5.7,0,11.3,0,17,0c28.6-41.8,57.7-83.4,87.2-124.6c0.2,13.9,0,27.7,0.1,41.6
	c-10.9,1.6-22.1,5.4-29.3,14.2c0,2.4,0,4.8,0,7.2c7.5,8.5,19,11,29.3,14.2c0,15.9,0,31.7,0,47.5c26.2,0,52.4,0,78.7,0
	c0-4.4,0-8.9,0-13.3c-21.8,0-43.5,0-65.3,0c0-10.2,0-20.5,0-30.7c22.5,0.8,44.8,3.5,67.3,2.7c10.9,27.3,40.6,45.8,69.9,42.5
	c30.8-2.8,56.8-28.9,60.7-59.3c6.3-37.2-23.1-76.1-60.9-78.9C251.7,281.7,220.2,305,211.5,335.5 M354.7,288c0,44.9,0,89.8,0,134.7
	c4,0,8,0,12,0c0.1-36.7-0.1-73.3,0.1-110c26.9,35.9,51.8,73.4,78,109.9c4.6,0.1,9.3,0.1,13.9,0.1c0-44.9,0-89.8,0-134.7
	c-4.9,0-9.8,0-14.7,0c-0.1,36.6,0.1,73.3-0.1,109.9c-26-36.3-51.5-73-76.6-109.9C363.1,288,358.9,288,354.7,288 M155.3,336.2
	C156.5,341.2,160.1,333.2,155.3,336.2 M51.2,455.2c-12.2,7.5-12.5,25.8-3.6,35.9c6.6,6.5,20.5,7.1,25.2-1.9
	c-5.3,2.5-11.3,6.1-17.3,3.3c-7.3-3.4-9.1-12-9.7-19.2c0.7-7.3,2.3-16.3,10.3-18.8c5.7-3.4,11.2,1.7,16.5,3.3
	C69,450.6,57.3,450.9,51.2,455.2 M261.5,454.1c4.3-1.4,8.3,0.3,11.6,3.1c0.4-0.6,1.3-1.9,1.8-2.5
	C270.7,453.1,265.4,450.1,261.5,454.1 M413.9,453.8c-12.1,3.7-14.8,19.4-11,30c2.9,11.6,22.9,17.8,28.6,5.4c-6,5.1-15,5.9-21,0.4
	c-7.3-9.7-7.5-26.2,2.8-33.9c5.5-4.1,12.9-1.7,17.2,3.1c0.5-1.3,1-2.5,1.5-3.8C426,453.7,419.7,450.4,413.9,453.8 M82.7,453.4
	c0,13.8,0,27.5,0,41.3c1,0,3,0,4,0c0.1-6.9-0.1-13.9,0.2-20.8c6.9,5.4,11.4,13.5,16.1,20.8c1.1,0,3.2-0.1,4.3-0.1
	c-4.3-6.9-8.7-13.6-13.1-20.4c2.2-1.4,4.5-2.8,6.9-4c2.7-4.3,4.8-10.3,0.6-14.4C96.3,451.5,88.9,453.9,82.7,453.4 M117.3,453.3
	c0,13.8,0,27.5,0,41.3c5.8,0,11.5,0,17.3,0c0-0.7,0-2,0-2.6c-4.4,0-8.9,0-13.3,0c0-6.2,0-12.4,0-18.6c4,0,8,0,12,0c0-0.7,0-2,0-2.6
	c-4,0-8,0-12,0c0-4.9,0-9.8,0-14.6c4.4,0,8.9,0,13.3,0c0-0.7,0-2,0-2.6C128.9,453.3,123.1,453.3,117.3,453.3 M146.7,453.3
	c0,13.8,0,27.5,0,41.3c9.5,0.1,21.2,1.6,27.7-7c6.2-10,7.1-27.1-4.6-33.5C162.3,452.3,154.4,453.8,146.7,453.3 M189.3,453.3
	c0,13.8,0,27.6,0,41.3c1.8,0,3.5,0,5.3,0c0-13.8,0-27.6,0-41.3C192.9,453.3,191.1,453.3,189.3,453.3 M205.3,453.3c0,0.7,0,2,0,2.6
	c3.5,0,7.1,0,10.7,0.1c0,12.9,0,25.8,0,38.6c1,0,3,0,4,0c0-12.9,0-25.8,0-38.7c3.6,0,7.1,0,10.7,0c0-0.7,0-2,0-2.6
	C222.2,453.3,213.8,453.3,205.3,453.3 M286.7,453.3c0,13.8,0,27.5,0,41.3c5.8,0,11.5,0,17.3,0c0-0.7,0-2,0-2.6c-4.4,0-8.9,0-13.3,0
	c0-6.2,0-12.4,0-18.6c4,0,8,0,12,0c0-0.7,0-2,0-2.6c-4,0-8,0-12,0c0-4.9,0-9.8,0-14.6c4.4,0,8.9,0,13.3,0c0-0.7,0-2,0-2.6
	C298.2,453.3,292.5,453.3,286.7,453.3 M316,453.4c0,13.8,0,27.5,0,41.3c1,0,3,0,4,0c0-6.7,0-13.4,0-20c0.8,0,2.5,0.1,3.3,0.1
	c3.5,7.1,8.7,13.2,12.8,20c1.8,0,3.7,0,5.5,0c-6-6.1-10.3-13.7-15-20.8c7.9-1.6,12.5-8.3,10.8-16.3
	C331.8,451.6,323.3,453.5,316,453.4 M345.4,453.3c5.6,14,9.5,28.7,16.3,42.2c5.1-14.2,11-28.2,14.7-42.8c-0.6,0.3-1.9,0.9-2.5,1.2
	c-3.7,11.6-6.8,23.4-10.7,34.9c-7.7-10.1-8.4-24.1-13.9-35.5C348.3,453.3,346.4,453.3,345.4,453.3 M386.7,453.3
	c0,13.8,0,27.6,0,41.3c1,0,3,0,4,0c0-13.8,0-27.6,0-41.3C389.7,453.3,387.7,453.3,386.7,453.3 M441.3,453.3c0,13.8,0,27.5,0,41.3
	c6.2,0,12.4,0,18.7,0c0-0.7,0-2,0-2.6c-4.9,0-9.8,0-14.7,0c0-6.2,0-12.4,0-18.6c4.4,0,8.9,0,13.3,0c0-0.7,0-2,0-2.6
	c-4.4,0-8.9,0-13.3,0c0-4.9,0-9.8,0-14.6c4.9,0,9.8,0,14.7,0c0-0.7,0-2,0-2.6C453.8,453.3,447.6,453.3,441.3,453.3 M260.1,455
	c-10.5,9,0.4,20.6,10.5,22.8c2,4.5,1.7,9.5,0,14.1c-5.3,2.8-11.5,1.3-14.2-4.2c-0.6,1.4-1.1,2.8-1.7,4.3c8.8,9.5,22.5-0.8,21.3-11.9
	c-1.9-9.4-14.5-8.7-17.5-17.3C259.2,460.3,259.8,457.7,260.1,455z"/>
<path class="st0" d="M265.6,300.3c17.5-4.7,36.6,1.9,49.9,13.7c16.7,15.5,21.9,41.6,13,62.5c-7.7,20.8-29,35.2-51.1,35
	c-20.8,0-40.7-12.5-49.5-31.4c20.8-4.9,47.2-3.1,61.7-21.5c-1.7-10.6-13.2-14-22.2-16.1c3.9,2.5,8,4.6,11.8,7.2
	c-0.5,2.4-1.2,4.9-1.8,7.3c-16.8,8.6-36.1,10.3-54.6,11.1c0-5.8-0.1-11.6-0.1-17.4C223.3,326.7,242.3,305.1,265.6,300.3z M118.8,357
	c-4.9-9.5,9.1-12.9,15.8-14.7c0.1,6.9,0.1,13.7,0.1,20.6C129.1,361.6,123.8,359.5,118.8,357z M86.7,454.6c4.7-0.2,9.4,0.1,13.4,2.8
	c-0.1,3.5-0.1,7,0,10.5c-3.6,3.5-8.4,4.8-13.3,4.3C86.7,466.3,86.7,460.4,86.7,454.6z M150.7,454.7c6.7,0.2,15-1.9,19.7,4.3
	c5.5,7.4,5.2,17.9,1.2,26c-3.2,7.9-13.7,9.5-21,6.8C150.7,479.4,150.7,467.1,150.7,454.7z M320,454.7c3.5,0,7.1,0,10.6-0.1
	c4.1,5.4,3.4,12.7-1.4,17.4c-3.1,0-6.1,0-9.2,0C320,466.2,320,460.5,320,454.7z"/>
</svg>
