<?xml version="1.0" encoding="UTF-8" ?>
<!DOCTYPE svg PUBLIC "-//W3C//DTD SVG 1.1//EN" "http://www.w3.org/Graphics/SVG/1.1/DTD/svg11.dtd">
<svg width="223pt" height="149pt" viewBox="0 0 223 149" version="1.1" xmlns="http://www.w3.org/2000/svg">
<g id="#ffffffff">
</g>
<g id="#fcc21bff">
<path fill="#fcc21b" opacity="1.00" d=" M 120.48 16.74 C 132.11 15.61 144.25 15.46 155.34 19.71 C 172.92 25.42 185.63 40.94 191.84 57.88 C 197.61 74.06 200.63 91.41 199.46 108.59 C 197.12 115.65 190.25 119.92 183.85 122.94 C 164.26 131.88 142.18 132.84 120.99 132.07 C 107.81 130.99 94.41 129.15 82.26 123.67 C 76.35 121.06 70.32 117.78 66.68 112.25 C 64.01 108.37 64.82 103.43 64.76 99.00 C 65.80 77.32 70.35 54.59 84.19 37.25 C 93.00 25.94 106.46 18.97 120.48 16.74 M 108.36 50.50 C 103.32 52.19 100.80 58.07 101.58 63.09 C 102.03 68.43 107.25 73.72 112.85 72.03 C 121.50 69.28 122.31 55.62 114.69 51.24 C 112.81 50.08 110.46 50.14 108.36 50.50 M 151.35 50.50 C 145.43 52.57 143.09 60.19 145.28 65.74 C 146.66 70.34 152.06 73.88 156.72 71.70 C 164.11 68.39 164.97 57.07 158.89 52.10 C 156.87 50.23 153.93 49.97 151.35 50.50 M 96.87 89.00 C 98.95 97.39 105.85 103.73 113.08 107.96 C 121.83 112.39 132.20 113.67 141.75 111.36 C 151.55 109.46 160.21 102.96 165.37 94.50 C 166.65 91.80 168.79 87.95 166.36 85.36 C 162.98 84.24 160.19 86.77 158.08 89.06 C 147.51 100.67 128.96 103.42 115.26 95.91 C 109.22 93.25 105.59 87.36 99.90 84.19 C 98.44 85.41 96.10 86.70 96.87 89.00 Z" />
</g>
<g id="#e56565ff">
<path fill="#e56565" opacity="1.00" d=" M 18.86 31.02 C 18.13 24.85 23.88 19.09 30.05 19.79 C 34.76 19.47 38.29 23.01 40.33 26.86 C 46.36 27.11 52.40 26.97 58.44 27.00 C 58.44 29.39 58.44 31.78 58.44 34.17 C 52.43 34.20 46.41 34.10 40.40 34.27 C 38.33 38.13 34.85 41.96 30.03 41.47 C 24.18 42.14 18.59 36.89 18.86 31.02 M 26.78 27.73 C 26.79 29.55 26.63 31.41 27.18 33.17 C 28.73 33.57 30.44 33.91 31.94 33.10 C 32.85 31.63 32.43 29.72 32.66 28.07 C 30.70 27.90 28.74 27.79 26.78 27.73 Z" />
<path fill="#e56565" opacity="1.00" d=" M 22.80 50.72 C 25.73 48.17 30.01 48.13 33.59 48.99 C 36.88 49.86 38.36 53.14 40.46 55.47 C 46.38 56.33 52.45 55.59 58.44 55.83 C 58.44 58.22 58.44 60.61 58.44 63.00 C 52.64 63.15 46.82 62.68 41.04 63.19 C 38.63 64.54 37.72 67.82 35.08 69.04 C 31.10 70.87 25.73 70.79 22.41 67.66 C 17.38 63.52 17.63 54.64 22.80 50.72 M 26.93 56.58 C 26.87 58.31 26.83 60.04 26.82 61.77 C 27.60 61.98 29.15 62.39 29.93 62.59 C 30.58 62.33 31.89 61.81 32.55 61.54 C 32.50 59.90 32.44 58.26 32.36 56.62 C 30.55 56.58 28.74 56.57 26.93 56.58 Z" />
<path fill="#e56565" opacity="1.00" d=" M 23.13 79.16 C 25.80 76.87 29.60 77.13 32.87 77.55 C 36.54 78.25 38.57 81.71 40.50 84.55 C 46.48 84.60 52.46 84.57 58.44 84.58 C 58.44 86.99 58.44 89.39 58.44 91.80 C 52.58 91.95 46.70 91.49 40.85 91.97 C 38.42 94.12 36.89 97.46 33.61 98.51 C 29.91 99.58 25.42 99.35 22.50 96.56 C 17.24 92.31 17.67 83.08 23.13 79.16 M 27.44 85.32 C 27.18 86.01 26.66 87.37 26.40 88.06 C 26.62 88.74 27.08 90.10 27.30 90.78 C 27.97 90.96 29.30 91.31 29.97 91.49 C 30.60 91.23 31.87 90.69 32.50 90.42 C 32.49 88.78 32.46 87.13 32.42 85.49 C 30.76 85.42 29.10 85.37 27.44 85.32 Z" />
<path fill="#e56565" opacity="1.00" d=" M 22.51 108.51 C 25.20 105.82 29.34 105.71 32.86 106.35 C 36.53 107.14 38.54 110.59 40.65 113.35 C 46.58 113.33 52.51 113.33 58.44 113.34 C 58.44 115.74 58.44 118.15 58.44 120.55 C 52.41 120.57 46.38 120.48 40.35 120.64 C 38.51 123.50 36.47 126.86 32.86 127.57 C 29.57 128.05 25.75 128.19 23.06 125.89 C 17.63 121.94 17.30 112.77 22.51 108.51 M 27.30 114.38 C 27.07 115.03 26.60 116.32 26.37 116.96 C 26.63 117.67 27.17 119.09 27.44 119.79 C 29.10 119.74 30.77 119.67 32.43 119.60 C 32.47 117.97 32.50 116.34 32.49 114.71 C 31.86 114.42 30.60 113.84 29.96 113.55 C 29.30 113.76 27.97 114.17 27.30 114.38 Z" />
</g>
<g id="#2f2f2fff">
<path fill="#2f2f2f" opacity="1.00" d=" M 108.36 50.50 C 110.46 50.14 112.81 50.08 114.69 51.24 C 122.31 55.62 121.50 69.28 112.85 72.03 C 107.25 73.72 102.03 68.43 101.58 63.09 C 100.80 58.07 103.32 52.19 108.36 50.50 Z" />
<path fill="#2f2f2f" opacity="1.00" d=" M 151.35 50.50 C 153.93 49.97 156.87 50.23 158.89 52.10 C 164.97 57.07 164.11 68.39 156.72 71.70 C 152.06 73.88 146.66 70.34 145.28 65.74 C 143.09 60.19 145.43 52.57 151.35 50.50 Z" />
<path fill="#2f2f2f" opacity="1.00" d=" M 96.87 89.00 C 96.10 86.70 98.44 85.41 99.90 84.19 C 105.59 87.36 109.22 93.25 115.26 95.91 C 128.96 103.42 147.51 100.67 158.08 89.06 C 160.19 86.77 162.98 84.24 166.36 85.36 C 168.79 87.95 166.65 91.80 165.37 94.50 C 160.21 102.96 151.55 109.46 141.75 111.36 C 132.20 113.67 121.83 112.39 113.08 107.96 C 105.85 103.73 98.95 97.39 96.87 89.00 Z" />
</g>
</svg>
