<?xml version="1.0" encoding="UTF-8" ?>
<!DOCTYPE svg PUBLIC "-//W3C//DTD SVG 1.1//EN" "http://www.w3.org/Graphics/SVG/1.1/DTD/svg11.dtd">
<svg width="512pt" height="586pt" viewBox="0 0 512 586" version="1.1" xmlns="http://www.w3.org/2000/svg">
<g id="#ffffffff">
<path fill="#ffffff" opacity="1.00" d=" M 0.00 0.00 L 512.00 0.00 L 512.00 586.00 L 0.00 586.00 L 0.00 0.00 M 85.77 40.62 C 81.30 42.93 79.51 47.87 76.79 51.79 C 73.26 56.82 70.61 62.74 70.68 69.00 C 70.51 86.34 70.74 103.68 70.57 121.02 C 70.73 122.49 70.38 124.16 71.20 125.47 C 70.66 132.97 70.95 140.50 70.93 148.02 C 71.04 164.02 70.76 180.02 70.93 196.02 C 70.82 203.34 71.33 210.70 70.09 217.96 C 69.69 229.15 70.27 240.37 69.82 251.56 C 65.77 254.34 60.08 253.77 56.94 257.93 C 56.77 270.64 57.66 283.42 56.02 296.06 C 56.12 347.70 55.92 399.34 56.02 450.98 C 56.09 451.38 56.24 452.17 56.32 452.57 C 55.48 457.86 55.50 463.27 56.33 468.56 C 56.15 469.69 56.05 470.84 56.01 471.99 C 56.22 493.94 55.84 515.89 56.14 537.84 C 61.05 538.08 65.96 538.13 70.87 537.86 C 70.95 535.91 71.03 533.97 71.05 532.02 C 93.32 532.18 115.62 531.57 137.87 532.32 C 151.93 532.53 165.99 532.31 180.05 532.43 C 182.00 532.35 183.96 532.27 185.91 532.17 C 186.37 528.25 184.05 523.03 187.86 520.29 C 187.94 521.39 188.10 523.57 188.17 524.66 C 188.50 524.57 189.15 524.40 189.48 524.31 C 189.71 527.04 190.14 529.75 190.59 532.45 C 203.01 532.34 215.43 532.42 227.85 532.41 C 229.55 532.37 231.26 532.32 232.97 532.28 C 237.54 532.36 242.11 532.38 246.69 532.31 L 246.64 533.03 C 252.61 531.19 258.90 532.19 265.03 531.95 C 320.72 531.99 376.40 532.03 432.09 531.96 C 432.11 533.88 432.20 535.81 432.29 537.74 C 440.47 538.29 448.69 538.02 456.88 537.83 C 457.20 478.23 456.68 418.63 456.96 359.03 C 457.00 357.93 456.82 356.88 456.42 355.89 C 457.69 349.99 456.79 343.95 457.06 337.99 C 456.95 270.31 457.04 202.62 456.92 134.94 C 456.94 132.92 455.68 131.26 454.76 129.58 C 451.74 131.91 447.89 132.02 444.25 132.19 C 444.05 133.40 443.85 134.60 443.67 135.81 C 440.47 136.62 436.97 136.63 434.15 138.51 C 433.90 115.75 434.32 92.98 433.83 70.24 C 431.42 67.63 432.61 63.87 431.07 60.90 C 429.54 56.40 428.33 51.53 424.52 48.33 C 424.21 47.33 423.90 46.33 423.60 45.33 C 417.24 38.03 407.96 33.98 398.99 30.96 C 382.67 30.90 366.34 30.79 350.02 31.06 C 349.93 34.96 350.03 38.86 349.85 42.76 C 348.59 44.51 347.97 46.57 347.47 48.64 C 346.66 51.95 344.39 54.73 341.87 56.92 C 338.10 59.45 333.61 60.54 329.71 62.81 C 295.50 63.07 261.28 62.85 227.07 62.96 C 226.34 62.96 224.89 62.96 224.17 62.96 C 212.06 62.70 199.95 62.96 187.83 62.88 C 180.21 62.78 172.57 63.17 164.95 62.90 C 158.21 61.32 151.91 57.87 147.51 52.44 C 144.40 49.81 145.66 45.35 143.98 42.02 C 142.35 38.61 143.22 34.71 143.00 31.07 C 139.60 31.08 135.99 30.24 132.73 31.47 C 128.12 30.98 123.28 30.22 118.74 31.38 C 116.82 31.13 114.91 30.89 112.98 30.86 C 102.97 30.09 93.94 35.52 85.77 40.62 Z" />
<path fill="#ffffff" opacity="1.00" d=" M 195.83 196.80 C 197.43 194.42 200.60 195.08 203.04 194.90 C 279.32 195.12 355.59 194.72 431.86 195.04 C 432.27 255.54 431.68 316.05 432.08 376.54 C 418.96 375.89 405.82 376.62 392.70 376.12 C 377.51 375.82 362.31 376.06 347.11 376.02 C 305.33 376.03 263.55 375.93 221.77 376.07 C 221.18 370.49 225.35 366.52 228.70 362.71 C 233.79 357.18 238.57 351.37 243.27 345.53 C 249.67 340.18 253.03 331.78 260.32 327.47 C 260.64 328.00 261.29 329.06 261.61 329.59 C 270.38 330.20 279.18 329.74 287.96 329.80 C 288.29 329.51 288.93 328.94 289.25 328.66 C 289.62 328.32 290.36 327.65 290.73 327.31 C 291.29 320.11 291.23 312.83 290.74 305.63 C 290.42 305.22 289.80 304.40 289.48 303.99 C 289.27 303.72 288.86 303.19 288.65 302.93 C 286.66 302.50 284.61 302.35 282.58 302.36 C 286.28 296.15 291.49 291.05 295.07 284.76 C 295.88 285.06 296.70 285.36 297.52 285.66 C 297.82 299.12 297.38 312.59 297.69 326.04 C 297.68 328.79 300.61 330.09 303.00 329.87 C 309.68 329.87 316.36 329.93 323.03 329.84 C 325.72 330.14 328.17 327.79 327.85 325.07 C 327.98 311.80 327.75 298.52 327.90 285.24 C 327.92 270.67 328.30 256.09 327.80 241.52 C 326.09 240.70 324.41 239.80 322.88 238.67 C 326.57 232.55 331.33 227.20 335.90 221.74 C 335.05 221.45 334.20 221.17 333.35 220.88 C 333.60 219.37 333.84 217.86 334.09 216.36 C 332.47 217.12 330.85 217.90 329.23 218.65 C 329.31 218.18 329.46 217.25 329.54 216.78 C 331.20 215.53 332.66 214.05 333.46 212.11 C 331.68 212.19 329.91 212.27 328.14 212.43 C 327.99 211.72 327.69 210.31 327.54 209.61 C 325.83 210.27 324.26 211.22 322.73 212.22 C 323.78 210.39 324.66 208.47 325.32 206.46 C 320.84 207.85 318.96 212.90 314.86 215.07 C 316.84 211.44 319.53 208.27 321.83 204.85 C 321.79 204.06 321.71 202.48 321.68 201.69 C 317.42 206.43 312.07 210.16 308.62 215.62 C 308.26 213.36 307.99 211.09 307.86 208.81 C 307.15 208.94 305.73 209.19 305.03 209.32 C 305.09 209.82 305.21 210.83 305.27 211.33 C 302.50 214.80 300.83 218.94 298.44 222.65 C 293.95 228.92 288.35 234.27 283.56 240.29 C 277.03 239.89 270.49 239.82 263.97 240.00 C 262.52 240.04 260.23 240.13 260.21 242.08 C 259.78 250.20 260.03 258.37 260.34 266.50 C 260.10 266.74 259.63 267.22 259.40 267.46 C 257.29 269.39 255.04 271.18 252.98 273.16 C 250.89 262.28 252.88 251.13 251.87 240.14 C 244.93 239.77 237.99 240.09 231.05 239.93 C 228.29 239.96 225.41 239.76 222.81 240.82 C 221.68 242.67 222.01 244.95 221.92 247.02 C 222.14 257.05 221.87 267.09 222.07 277.12 C 222.21 284.53 221.96 291.93 222.19 299.33 C 219.81 301.06 217.25 302.52 214.60 303.80 C 213.91 304.68 213.22 305.56 212.53 306.45 C 207.12 309.17 202.40 313.03 197.00 315.77 C 197.03 314.11 197.06 312.45 197.08 310.79 C 199.56 308.15 199.05 304.36 199.18 301.03 C 199.02 297.37 199.73 293.22 197.20 290.17 C 197.20 286.19 195.91 282.07 196.97 278.17 C 201.12 276.30 206.43 274.23 207.18 269.08 C 207.63 264.42 205.28 258.29 200.10 257.49 C 199.12 254.54 196.69 252.24 193.84 251.10 C 194.17 237.09 193.90 223.06 193.97 209.04 C 194.20 204.99 192.85 200.13 195.83 196.80 M 221.91 218.00 C 222.04 219.60 222.13 221.21 222.21 222.82 C 234.89 222.96 247.58 222.79 260.26 222.90 C 260.33 221.21 260.45 219.53 260.58 217.85 C 260.11 215.64 257.77 216.03 256.05 215.93 C 246.04 216.00 236.02 215.96 226.00 215.96 C 224.34 216.12 221.77 215.53 221.91 218.00 M 335.87 244.98 C 335.95 266.60 335.96 288.23 335.90 309.86 C 336.21 316.50 334.73 323.43 336.97 329.84 C 345.98 329.84 354.99 329.88 363.99 329.82 C 366.18 323.41 364.82 316.52 365.00 309.89 C 365.04 288.25 365.02 266.61 365.08 244.98 C 364.98 243.53 365.08 241.95 364.31 240.66 C 362.43 239.57 360.09 240.10 358.02 239.96 C 351.38 240.25 344.71 239.63 338.09 240.09 C 335.62 240.26 335.99 243.23 335.87 244.98 M 372.90 243.97 C 373.15 257.79 372.76 271.64 373.14 285.46 C 373.00 298.66 373.12 311.87 373.09 325.07 C 372.72 327.80 375.26 330.18 377.94 329.84 C 385.88 329.83 393.82 329.95 401.75 329.72 C 401.77 329.39 401.81 328.71 401.82 328.38 C 403.54 328.05 404.16 326.73 403.99 325.10 C 404.09 313.73 403.90 302.34 404.07 290.96 C 403.94 288.66 404.62 285.69 402.17 284.35 C 401.88 269.59 402.44 254.81 401.89 240.06 C 393.59 239.94 385.27 239.88 376.97 240.06 C 374.72 239.89 372.37 241.47 372.90 243.97 Z" />
</g>
<g id="#c9dcfdff">
<path fill="#c9dcfd" opacity="1.00" d=" M 85.77 40.62 C 93.94 35.52 102.97 30.09 112.98 30.86 C 114.91 30.89 116.82 31.13 118.74 31.38 C 112.66 34.91 105.69 36.16 99.16 38.53 C 97.52 39.05 96.90 40.81 96.26 42.23 C 94.32 47.26 92.69 52.42 91.33 57.64 C 89.19 64.52 89.74 71.83 89.93 78.93 C 90.78 83.77 91.66 89.07 95.00 92.90 C 97.15 98.86 101.87 103.33 106.30 107.66 C 110.00 111.26 114.51 113.91 119.33 115.74 C 125.33 118.03 131.50 120.42 138.02 120.38 C 143.36 120.35 148.88 120.83 154.01 119.00 C 159.39 117.14 165.02 115.35 169.33 111.45 C 172.48 108.58 175.86 105.83 178.23 102.23 C 181.78 96.23 185.05 89.96 186.44 83.07 C 188.69 76.56 188.05 69.63 187.83 62.88 C 199.95 62.96 212.06 62.70 224.17 62.96 C 224.14 69.95 224.69 77.03 223.49 83.94 C 222.23 88.63 221.74 93.51 220.07 98.09 C 218.62 102.01 218.06 106.30 215.76 109.87 C 213.33 113.84 211.25 118.00 208.91 122.02 C 206.92 125.49 203.90 128.19 201.44 131.31 C 196.48 138.46 188.85 143.05 181.66 147.64 C 179.85 148.94 177.97 150.17 175.83 150.80 C 170.18 152.47 165.05 155.73 159.11 156.40 C 148.47 157.79 137.69 157.51 127.00 156.82 C 118.73 156.43 111.43 151.92 103.31 150.77 C 100.68 150.14 98.78 148.15 96.63 146.65 C 91.56 143.36 86.30 140.22 81.82 136.14 C 78.43 132.44 74.89 128.88 71.20 125.47 C 70.38 124.16 70.73 122.49 70.57 121.02 C 70.74 103.68 70.51 86.34 70.68 69.00 C 70.61 62.74 73.26 56.82 76.79 51.79 C 79.51 47.87 81.30 42.93 85.77 40.62 Z" />
</g>
<g id="#e3e6ecff">
<path fill="#e3e6ec" opacity="1.00" d=" M 118.74 31.38 C 123.28 30.22 128.12 30.98 132.73 31.47 C 127.47 34.68 121.23 35.14 115.61 37.42 C 110.87 39.24 105.67 39.83 101.13 42.15 C 97.28 48.51 95.54 56.03 94.17 63.30 C 92.54 68.39 92.77 73.77 92.84 79.05 C 92.90 83.76 95.05 88.16 95.00 92.90 C 91.66 89.07 90.78 83.77 89.93 78.93 C 89.74 71.83 89.19 64.52 91.33 57.64 C 92.69 52.42 94.32 47.26 96.26 42.23 C 96.90 40.81 97.52 39.05 99.16 38.53 C 105.69 36.16 112.66 34.91 118.74 31.38 Z" />
<path fill="#e3e6ec" opacity="1.00" d=" M 224.17 62.96 C 224.89 62.96 226.34 62.96 227.07 62.96 C 227.27 70.31 227.43 77.67 227.04 85.02 C 226.60 90.13 224.73 94.96 223.80 99.98 C 220.76 111.99 214.27 122.93 206.33 132.33 C 204.56 134.86 202.92 137.55 200.46 139.48 C 193.59 144.76 187.06 150.67 178.98 154.08 C 170.99 157.30 162.66 160.33 153.91 160.19 C 141.58 160.31 128.76 161.36 117.00 156.86 C 112.40 155.00 106.98 154.39 103.31 150.77 C 111.43 151.92 118.73 156.43 127.00 156.82 C 137.69 157.51 148.47 157.79 159.11 156.40 C 165.05 155.73 170.18 152.47 175.83 150.80 C 177.97 150.17 179.85 148.94 181.66 147.64 C 188.85 143.05 196.48 138.46 201.44 131.31 C 203.90 128.19 206.92 125.49 208.91 122.02 C 211.25 118.00 213.33 113.84 215.76 109.87 C 218.06 106.30 218.62 102.01 220.07 98.09 C 221.74 93.51 222.23 88.63 223.49 83.94 C 224.69 77.03 224.14 69.95 224.17 62.96 Z" />
</g>
<g id="#f6f7fcff">
<path fill="#f6f7fc" opacity="1.00" d=" M 132.73 31.47 C 135.99 30.24 139.60 31.08 143.00 31.07 C 143.22 34.71 142.35 38.61 143.98 42.02 C 145.66 45.35 144.40 49.81 147.51 52.44 C 151.91 57.87 158.21 61.32 164.95 62.90 C 172.57 63.17 180.21 62.78 187.83 62.88 C 188.05 69.63 188.69 76.56 186.44 83.07 C 185.05 89.96 181.78 96.23 178.23 102.23 C 175.86 105.83 172.48 108.58 169.33 111.45 C 165.02 115.35 159.39 117.14 154.01 119.00 C 148.88 120.83 143.36 120.35 138.02 120.38 C 131.50 120.42 125.33 118.03 119.33 115.74 C 114.51 113.91 110.00 111.26 106.30 107.66 C 101.87 103.33 97.15 98.86 95.00 92.90 C 95.05 88.16 92.90 83.76 92.84 79.05 C 92.77 73.77 92.54 68.39 94.17 63.30 C 95.54 56.03 97.28 48.51 101.13 42.15 C 105.67 39.83 110.87 39.24 115.61 37.42 C 121.23 35.14 127.47 34.68 132.73 31.47 M 100.85 46.70 C 100.63 48.77 100.69 50.86 100.76 52.93 C 107.60 53.00 114.44 53.45 121.28 53.15 C 121.26 51.03 121.22 48.91 121.18 46.80 C 119.07 46.87 116.96 46.97 114.86 47.12 C 114.45 47.13 113.65 47.15 113.24 47.16 C 111.66 48.61 109.01 49.90 107.30 47.89 C 106.22 46.26 103.91 46.58 103.58 48.60 C 103.06 47.51 102.30 46.36 100.85 46.70 M 125.27 52.27 C 127.46 52.62 129.67 52.85 131.89 53.03 C 132.05 52.29 132.37 50.80 132.53 50.05 C 133.86 51.31 135.31 52.43 136.89 53.33 C 137.03 51.19 137.16 49.04 137.02 46.89 C 135.76 46.96 134.77 47.64 134.06 48.91 C 133.01 48.39 132.04 47.74 131.08 47.08 C 130.79 48.32 130.50 49.55 130.21 50.79 C 129.68 49.49 129.12 48.20 128.53 46.92 C 125.91 47.02 126.13 50.49 125.27 52.27 Z" />
<path fill="#f6f7fc" opacity="1.00" d=" M 350.02 31.06 C 366.34 30.79 382.67 30.90 398.99 30.96 C 407.96 33.98 417.24 38.03 423.60 45.33 C 423.90 46.33 424.21 47.33 424.52 48.33 C 428.33 51.53 429.54 56.40 431.07 60.90 C 432.61 63.87 431.42 67.63 433.83 70.24 C 434.32 92.98 433.90 115.75 434.15 138.51 C 436.97 136.63 440.47 136.62 443.67 135.81 C 443.85 134.60 444.05 133.40 444.25 132.19 C 447.89 132.02 451.74 131.91 454.76 129.58 C 455.68 131.26 456.94 132.92 456.92 134.94 C 457.04 202.62 456.95 270.31 457.06 337.99 C 456.79 343.95 457.69 349.99 456.42 355.89 C 454.15 351.96 455.19 347.32 455.04 343.03 C 454.95 333.37 455.14 323.71 454.92 314.05 C 454.14 314.81 453.37 315.59 452.59 316.36 C 455.37 322.12 453.51 328.75 453.85 334.90 C 449.69 334.90 445.54 334.97 441.39 335.09 C 441.09 336.35 440.81 337.61 440.52 338.88 C 438.71 338.88 436.89 338.88 435.08 338.89 C 434.99 335.31 434.99 331.73 435.09 328.16 C 437.87 328.05 440.66 327.95 443.46 327.79 C 442.30 323.86 437.52 323.60 434.49 321.68 C 433.90 325.77 433.91 329.91 434.03 334.03 C 434.05 346.69 433.97 359.35 433.99 372.01 C 434.13 373.79 433.48 375.41 432.08 376.54 C 431.68 316.05 432.27 255.54 431.86 195.04 C 355.59 194.72 279.32 195.12 203.04 194.90 C 200.60 195.08 197.43 194.42 195.83 196.80 C 192.85 200.13 194.20 204.99 193.97 209.04 C 193.90 223.06 194.17 237.09 193.84 251.10 C 190.40 250.73 186.88 250.97 183.64 252.24 C 182.92 253.36 181.98 254.24 180.83 254.87 C 180.44 254.10 179.67 252.54 179.28 251.76 C 177.07 251.70 174.87 251.81 172.68 252.10 C 171.67 253.26 170.59 254.37 169.45 255.40 C 168.02 257.03 166.56 258.66 164.89 260.05 C 160.58 262.51 154.97 259.60 150.83 262.35 C 149.37 263.86 147.93 265.40 146.42 266.88 C 144.90 273.06 146.30 279.36 146.23 285.61 C 145.96 287.30 146.59 288.04 148.13 287.81 C 148.15 290.67 148.81 293.46 149.38 296.24 C 145.17 296.86 145.14 301.73 145.70 305.01 C 145.87 308.18 149.09 309.50 151.44 310.89 C 152.96 313.01 154.33 315.33 154.49 318.01 C 154.80 321.93 156.39 325.61 156.58 329.55 C 152.16 330.27 148.05 332.03 144.12 334.13 C 136.86 336.54 130.17 340.52 124.05 345.06 C 118.16 351.10 111.30 356.50 107.30 364.07 C 105.31 368.27 102.93 372.25 100.54 376.23 C 100.34 376.33 99.94 376.54 99.74 376.65 C 96.52 385.53 91.87 393.87 89.10 402.95 C 87.88 407.48 85.17 411.50 84.51 416.19 C 83.96 420.69 81.99 424.87 81.61 429.40 C 81.36 432.33 81.16 435.26 80.97 438.20 C 80.25 439.35 79.12 440.41 79.02 441.86 C 78.61 445.92 78.18 450.51 80.85 453.95 C 81.38 457.38 81.50 460.97 82.98 464.17 C 84.19 466.69 85.29 469.67 88.21 470.61 C 88.93 471.32 89.64 472.05 90.34 472.80 C 90.71 472.96 91.46 473.27 91.84 473.43 C 94.77 479.66 102.45 482.32 108.95 481.13 C 114.51 480.01 120.04 478.46 125.12 475.88 C 128.23 474.32 131.76 473.52 134.48 471.25 C 134.62 479.45 135.46 487.63 135.22 495.84 C 135.06 497.86 134.94 499.89 134.91 501.92 C 134.90 504.07 135.20 506.33 136.91 507.85 C 137.26 516.00 137.53 524.16 137.87 532.32 C 115.62 531.57 93.32 532.18 71.05 532.02 C 70.92 504.05 71.05 476.08 70.94 448.11 C 70.29 448.07 69.00 447.97 68.35 447.92 C 65.91 452.48 60.20 450.68 56.02 450.98 C 55.92 399.34 56.12 347.70 56.02 296.06 C 57.66 283.42 56.77 270.64 56.94 257.93 C 60.08 253.77 65.77 254.34 69.82 251.56 C 70.27 240.37 69.69 229.15 70.09 217.96 C 71.33 210.70 70.82 203.34 70.93 196.02 C 70.76 180.02 71.04 164.02 70.93 148.02 C 70.95 140.50 70.66 132.97 71.20 125.47 C 74.89 128.88 78.43 132.44 81.82 136.14 C 86.30 140.22 91.56 143.36 96.63 146.65 C 98.78 148.15 100.68 150.14 103.31 150.77 C 106.98 154.39 112.40 155.00 117.00 156.86 C 128.76 161.36 141.58 160.31 153.91 160.19 C 162.66 160.33 170.99 157.30 178.98 154.08 C 187.06 150.67 193.59 144.76 200.46 139.48 C 202.92 137.55 204.56 134.86 206.33 132.33 C 214.27 122.93 220.76 111.99 223.80 99.98 C 224.73 94.96 226.60 90.13 227.04 85.02 C 227.43 77.67 227.27 70.31 227.07 62.96 C 261.28 62.85 295.50 63.07 329.71 62.81 C 333.61 60.54 338.10 59.45 341.87 56.92 C 344.39 54.73 346.66 51.95 347.47 48.64 C 347.97 46.57 348.59 44.51 349.85 42.76 C 350.03 38.86 349.93 34.96 350.02 31.06 M 375.72 48.35 C 374.51 46.97 372.85 46.78 371.12 47.01 C 371.10 48.93 371.07 50.85 371.05 52.78 C 374.25 52.68 377.45 52.66 380.66 52.73 C 380.85 52.00 381.23 50.55 381.42 49.82 C 381.80 50.77 382.19 51.73 382.58 52.69 C 384.89 52.89 387.28 52.85 389.26 51.48 C 387.99 50.23 387.14 48.66 386.50 47.02 C 383.79 46.42 381.34 47.46 379.16 48.98 C 379.00 47.76 378.84 46.54 378.68 45.32 C 377.69 46.33 376.70 47.34 375.72 48.35 M 358.67 47.11 C 359.68 49.30 360.76 51.98 363.04 53.04 C 365.14 51.62 366.50 49.33 367.38 47.00 C 364.48 46.69 361.55 46.74 358.67 47.11 M 393.15 46.92 C 393.12 49.07 393.11 51.22 393.13 53.37 C 393.55 53.19 394.38 52.81 394.79 52.62 C 397.80 52.81 400.82 52.76 403.84 52.72 C 403.80 51.43 403.76 50.14 403.73 48.85 C 403.93 48.34 404.35 47.34 404.56 46.84 C 400.76 46.61 396.94 46.63 393.15 46.92 M 406.08 47.04 C 406.06 49.03 406.04 51.02 406.01 53.01 C 407.02 52.63 408.04 52.25 409.06 51.88 C 409.02 51.23 408.94 49.93 408.90 49.27 C 407.95 48.53 407.01 47.78 406.08 47.04 M 297.64 111.71 C 297.80 112.15 298.13 113.02 298.29 113.46 C 294.62 118.93 294.13 125.55 293.75 131.94 C 294.52 131.90 296.08 131.84 296.86 131.80 L 297.18 130.55 C 297.22 132.67 297.62 134.76 297.94 136.85 C 298.52 136.75 299.67 136.56 300.25 136.46 C 300.93 133.91 302.09 131.55 303.66 129.43 C 305.94 126.16 305.82 121.98 306.03 118.17 C 305.21 117.67 304.40 117.17 303.60 116.66 C 302.44 114.18 300.72 111.69 297.64 111.71 M 264.34 115.33 C 263.68 117.83 263.61 120.43 263.15 122.97 C 261.78 125.43 259.94 127.77 259.89 130.72 C 257.02 131.35 256.77 137.04 260.14 137.05 C 260.32 137.57 260.68 138.61 260.86 139.13 C 261.43 139.04 262.57 138.87 263.14 138.79 C 263.18 139.57 263.27 141.12 263.32 141.90 C 269.63 142.82 276.40 142.33 282.02 139.06 C 284.12 138.32 283.88 135.68 283.81 133.90 C 283.67 131.84 281.72 130.64 280.49 129.20 C 279.24 128.18 278.12 127.01 277.14 125.74 C 276.75 125.43 275.98 124.82 275.60 124.51 C 272.65 121.36 269.68 118.21 266.41 115.40 C 265.89 115.38 264.86 115.34 264.34 115.33 M 347.25 137.30 C 345.59 138.60 347.90 140.84 349.24 139.32 C 351.01 138.05 348.59 135.76 347.25 137.30 M 351.38 140.29 C 349.66 140.79 350.04 143.90 352.02 143.23 C 353.92 142.86 353.37 139.44 351.38 140.29 M 365.60 148.32 C 364.58 149.35 363.56 150.38 362.54 151.41 C 361.54 152.55 360.51 153.66 359.45 154.74 C 359.10 157.17 358.66 159.68 359.25 162.12 C 359.93 163.90 361.32 165.28 362.35 166.85 C 363.10 167.24 363.86 167.60 364.64 167.95 C 366.74 173.19 373.64 174.51 378.41 172.40 C 381.66 170.02 384.45 166.22 384.11 161.99 C 384.39 158.46 382.14 155.10 378.96 153.70 C 378.60 152.90 378.22 152.10 377.82 151.32 C 374.06 149.18 370.06 147.10 365.60 148.32 M 291.06 159.76 C 291.18 161.32 291.15 162.92 291.53 164.46 C 292.58 166.45 294.28 168.20 293.97 170.64 C 292.94 171.59 291.95 172.59 290.94 173.57 C 285.69 173.37 280.22 171.84 275.24 174.26 C 274.84 175.68 274.41 177.08 274.16 178.54 C 273.70 178.75 272.80 179.17 272.34 179.39 C 272.03 180.97 270.93 186.77 273.70 184.91 C 273.76 186.63 274.61 188.18 275.21 189.76 C 275.84 189.81 277.09 189.92 277.71 189.97 C 277.76 190.67 277.86 192.08 277.91 192.78 C 278.75 192.89 280.43 193.12 281.26 193.24 C 281.21 190.47 281.16 187.71 281.08 184.95 C 282.06 184.04 283.01 183.07 284.12 182.30 C 287.25 181.11 289.87 184.00 292.96 183.86 C 297.42 184.43 299.80 179.96 302.53 177.28 C 302.64 174.56 303.07 171.79 302.47 169.11 C 301.57 167.10 299.93 165.47 297.92 164.59 C 296.78 161.84 294.37 158.99 291.06 159.76 M 329.12 168.23 C 328.87 168.66 328.35 169.52 328.10 169.95 C 326.29 171.15 324.60 172.52 322.98 173.96 C 322.17 174.95 321.39 175.95 320.58 176.93 C 320.48 177.48 320.28 178.58 320.18 179.13 C 324.25 180.15 327.12 177.02 329.08 173.91 C 330.25 173.42 331.43 172.94 332.62 172.48 C 330.44 176.78 324.28 178.69 324.93 184.25 C 332.24 182.18 336.44 175.51 341.65 170.56 C 341.02 169.83 340.39 169.09 339.77 168.36 C 338.98 168.21 337.41 167.90 336.63 167.75 C 336.81 166.94 337.18 165.33 337.36 164.53 C 333.81 163.66 332.17 167.34 329.12 168.23 M 93.06 190.20 C 92.48 193.92 92.46 197.81 93.76 201.39 C 96.08 207.77 94.76 214.87 97.31 221.20 C 98.36 223.90 97.48 227.26 99.10 229.70 C 101.37 230.01 103.67 229.89 105.95 229.83 C 106.25 232.43 105.30 235.67 107.20 237.80 C 125.09 238.87 143.00 236.02 160.90 237.10 C 163.29 238.12 164.36 240.78 165.76 242.81 C 166.17 240.30 165.80 236.97 168.45 235.58 C 171.67 234.38 175.31 235.53 178.61 234.57 C 179.96 233.09 179.85 230.93 180.00 229.06 C 180.12 222.73 180.07 216.39 180.12 210.05 C 180.02 207.58 181.55 205.46 181.83 203.06 C 181.49 201.34 180.47 199.88 179.67 198.35 C 177.87 198.17 176.07 197.98 174.27 197.79 C 173.83 195.64 175.01 192.05 171.97 191.62 C 171.95 191.27 171.90 190.56 171.88 190.21 C 145.61 189.97 119.33 189.95 93.06 190.20 Z" />
<path fill="#f6f7fc" opacity="1.00" d=" M 222.14 383.28 C 256.44 383.42 290.74 383.31 325.04 383.34 C 333.72 383.24 342.40 383.66 351.06 382.96 C 355.95 389.67 360.75 396.73 363.13 404.77 C 366.02 416.15 359.53 427.77 350.71 434.63 C 340.58 441.12 328.05 440.25 316.58 439.52 C 311.09 439.40 306.03 437.02 300.62 436.46 C 292.98 435.56 285.80 432.04 278.03 432.13 C 273.00 432.13 267.88 431.65 262.95 432.92 C 253.01 435.42 242.68 437.95 234.41 444.32 C 229.65 446.98 226.33 451.36 222.11 454.70 C 222.02 430.89 221.95 407.08 222.14 383.28 Z" />
<path fill="#f6f7fc" opacity="1.00" d=" M 397.90 384.12 C 409.43 383.56 420.98 384.33 432.51 383.69 C 432.80 383.94 433.37 384.44 433.65 384.69 C 431.07 389.40 432.28 394.90 432.13 400.01 C 432.08 443.99 432.09 487.97 432.09 531.96 C 376.40 532.03 320.72 531.99 265.03 531.95 C 258.90 532.19 252.61 531.19 246.64 533.03 L 246.69 532.31 C 246.83 529.86 246.97 527.34 246.19 524.97 C 244.36 519.11 243.07 513.08 242.02 507.05 C 242.48 502.43 244.09 498.02 245.50 493.63 C 248.34 485.19 255.44 478.86 263.40 475.27 C 267.85 473.07 272.95 473.27 277.62 471.79 C 281.46 470.43 285.17 473.14 289.05 473.11 C 294.18 473.25 298.83 475.63 303.85 476.37 C 307.32 476.90 310.75 477.73 314.01 479.04 C 321.92 482.34 330.66 480.95 338.99 481.17 C 345.51 481.54 351.29 478.22 357.40 476.54 C 363.75 474.89 369.26 471.20 374.83 467.88 C 380.27 464.75 383.55 459.19 387.84 454.79 C 391.80 450.70 393.84 445.33 396.34 440.33 C 397.96 437.11 398.50 433.51 399.46 430.08 C 402.55 420.35 402.21 409.95 401.50 399.90 C 401.27 394.44 398.81 389.45 397.90 384.12 Z" />
</g>
<g id="#dedee9ff">
<path fill="#dedee9" opacity="1.00" d=" M 375.72 48.35 C 376.70 47.34 377.69 46.33 378.68 45.32 C 378.84 46.54 379.00 47.76 379.16 48.98 C 381.34 47.46 383.79 46.42 386.50 47.02 C 387.14 48.66 387.99 50.23 389.26 51.48 C 387.28 52.85 384.89 52.89 382.58 52.69 C 382.19 51.73 381.80 50.77 381.42 49.82 C 381.23 50.55 380.85 52.00 380.66 52.73 C 377.45 52.66 374.25 52.68 371.05 52.78 C 371.07 50.85 371.10 48.93 371.12 47.01 C 372.85 46.78 374.51 46.97 375.72 48.35 Z" />
</g>
<g id="#ebebf3ff">
<path fill="#ebebf3" opacity="1.00" d=" M 100.85 46.70 C 102.30 46.36 103.06 47.51 103.58 48.60 C 103.91 46.58 106.22 46.26 107.30 47.89 C 109.01 49.90 111.66 48.61 113.24 47.16 C 112.42 48.48 112.65 49.45 113.93 50.07 C 115.25 49.53 115.56 48.54 114.86 47.12 C 116.96 46.97 119.07 46.87 121.18 46.80 C 121.22 48.91 121.26 51.03 121.28 53.15 C 114.44 53.45 107.60 53.00 100.76 52.93 C 100.69 50.86 100.63 48.77 100.85 46.70 Z" />
</g>
<g id="#cecedcff">
<path fill="#cecedc" opacity="1.00" d=" M 113.24 47.16 C 113.65 47.15 114.45 47.13 114.86 47.12 C 115.56 48.54 115.25 49.53 113.93 50.07 C 112.65 49.45 112.42 48.48 113.24 47.16 Z" />
</g>
<g id="#dedee8ff">
<path fill="#dedee8" opacity="1.00" d=" M 125.27 52.27 C 126.13 50.49 125.91 47.02 128.53 46.92 C 129.12 48.20 129.68 49.49 130.21 50.79 C 130.50 49.55 130.79 48.32 131.08 47.08 C 132.04 47.74 133.01 48.39 134.06 48.91 C 134.77 47.64 135.76 46.96 137.02 46.89 C 137.16 49.04 137.03 51.19 136.89 53.33 C 135.31 52.43 133.86 51.31 132.53 50.05 C 132.37 50.80 132.05 52.29 131.89 53.03 C 129.67 52.85 127.46 52.62 125.27 52.27 Z" />
</g>
<g id="#bfbcd0ff">
<path fill="#bfbcd0" opacity="1.00" d=" M 358.67 47.11 C 361.55 46.74 364.48 46.69 367.38 47.00 C 366.50 49.33 365.14 51.62 363.04 53.04 C 360.76 51.98 359.68 49.30 358.67 47.11 Z" />
</g>
<g id="#bbb9cdff">
<path fill="#bbb9cd" opacity="1.00" d=" M 393.15 46.92 C 396.94 46.63 400.76 46.61 404.56 46.84 C 404.35 47.34 403.93 48.34 403.73 48.85 C 400.93 48.99 398.14 48.92 395.36 48.90 C 395.19 50.14 395.00 51.38 394.79 52.62 C 394.38 52.81 393.55 53.19 393.13 53.37 C 393.11 51.22 393.12 49.07 393.15 46.92 Z" />
</g>
<g id="#c3c2d3ff">
<path fill="#c3c2d3" opacity="1.00" d=" M 406.08 47.04 C 407.01 47.78 407.95 48.53 408.90 49.27 C 408.94 49.93 409.02 51.23 409.06 51.88 C 408.04 52.25 407.02 52.63 406.01 53.01 C 406.04 51.02 406.06 49.03 406.08 47.04 Z" />
</g>
<g id="#948dadff">
<path fill="#948dad" opacity="1.00" d=" M 395.36 48.90 C 398.14 48.92 400.93 48.99 403.73 48.85 C 403.76 50.14 403.80 51.43 403.84 52.72 C 400.82 52.76 397.80 52.81 394.79 52.62 C 395.00 51.38 395.19 50.14 395.36 48.90 Z" />
</g>
<g id="#c7c8ccff">
<path fill="#c7c8cc" opacity="1.00" d=" M 297.64 111.71 C 300.72 111.69 302.44 114.18 303.60 116.66 C 304.40 117.17 305.21 117.67 306.03 118.17 C 305.82 121.98 305.94 126.16 303.66 129.43 C 302.09 131.55 300.93 133.91 300.25 136.46 C 299.67 136.56 298.52 136.75 297.94 136.85 C 297.62 134.76 297.22 132.67 297.18 130.55 C 297.89 127.42 300.02 124.83 300.69 121.70 C 301.13 119.26 301.10 116.78 301.14 114.32 C 300.43 114.10 299.00 113.67 298.29 113.46 C 298.13 113.02 297.80 112.15 297.64 111.71 Z" />
</g>
<g id="#7e2e84ff">
<path fill="#7e2e84" opacity="1.00" d=" M 293.75 131.94 C 294.13 125.55 294.62 118.93 298.29 113.46 C 299.00 113.67 300.43 114.10 301.14 114.32 C 301.10 116.78 301.13 119.26 300.69 121.70 C 300.02 124.83 297.89 127.42 297.18 130.55 L 296.86 131.80 C 296.08 131.84 294.52 131.90 293.75 131.94 Z" />
</g>
<g id="#fac57fff">
<path fill="#fac57f" opacity="1.00" d=" M 264.34 115.33 C 264.86 115.34 265.89 115.38 266.41 115.40 C 269.68 118.21 272.65 121.36 275.60 124.51 C 275.98 124.82 276.75 125.43 277.14 125.74 C 278.12 127.01 279.24 128.18 280.49 129.20 C 280.10 131.09 280.33 133.40 278.69 134.76 C 276.96 136.49 274.35 136.49 272.10 136.90 C 269.05 137.25 266.11 138.10 263.14 138.79 C 262.57 138.87 261.43 139.04 260.86 139.13 C 260.68 138.61 260.32 137.57 260.14 137.05 C 259.89 134.95 259.84 132.83 259.89 130.72 C 259.94 127.77 261.78 125.43 263.15 122.97 C 263.61 120.43 263.68 117.83 264.34 115.33 M 266.55 122.60 C 265.87 125.72 264.16 128.61 264.26 131.87 C 263.78 132.48 263.32 133.09 262.86 133.71 C 265.06 133.79 267.10 133.06 268.89 131.80 C 270.78 131.35 273.81 132.63 274.57 130.15 C 273.78 128.49 271.66 128.36 270.19 127.60 L 270.48 126.67 C 269.48 125.98 268.49 125.27 267.49 124.58 C 267.26 124.09 266.79 123.10 266.55 122.60 Z" />
</g>
<g id="#ebe2d8ff">
<path fill="#ebe2d8" opacity="1.00" d=" M 266.55 122.60 C 266.79 123.10 267.26 124.09 267.49 124.58 C 267.26 127.33 266.11 129.85 264.26 131.87 C 264.16 128.61 265.87 125.72 266.55 122.60 Z" />
</g>
<g id="#c7c9ccff">
<path fill="#c7c9cc" opacity="1.00" d=" M 267.49 124.58 C 268.49 125.27 269.48 125.98 270.48 126.67 L 270.19 127.60 C 269.74 128.99 269.31 130.39 268.89 131.80 C 267.10 133.06 265.06 133.79 262.86 133.71 C 263.32 133.09 263.78 132.48 264.26 131.87 C 266.11 129.85 267.26 127.33 267.49 124.58 Z" />
</g>
<g id="#f4f6fbff">
<path fill="#f4f6fb" opacity="1.00" d=" M 270.19 127.60 C 271.66 128.36 273.78 128.49 274.57 130.15 C 273.81 132.63 270.78 131.35 268.89 131.80 C 269.31 130.39 269.74 128.99 270.19 127.60 Z" />
</g>
<g id="#c7c8cdff">
<path fill="#c7c8cd" opacity="1.00" d=" M 280.49 129.20 C 281.72 130.64 283.67 131.84 283.81 133.90 C 283.88 135.68 284.12 138.32 282.02 139.06 C 276.40 142.33 269.63 142.82 263.32 141.90 C 263.27 141.12 263.18 139.57 263.14 138.79 C 266.11 138.10 269.05 137.25 272.10 136.90 C 274.35 136.49 276.96 136.49 278.69 134.76 C 280.33 133.40 280.10 131.09 280.49 129.20 Z" />
<path fill="#c7c8cd" opacity="1.00" d=" M 378.96 153.70 C 382.14 155.10 384.39 158.46 384.11 161.99 C 384.45 166.22 381.66 170.02 378.41 172.40 C 373.64 174.51 366.74 173.19 364.64 167.95 C 369.01 169.07 373.52 168.39 377.65 166.72 C 379.21 162.57 379.96 158.09 378.96 153.70 Z" />
<path fill="#c7c8cd" opacity="1.00" d=" M 297.92 164.59 C 299.93 165.47 301.57 167.10 302.47 169.11 C 303.07 171.79 302.64 174.56 302.53 177.28 C 299.80 179.96 297.42 184.43 292.96 183.86 C 289.87 184.00 287.25 181.11 284.12 182.30 C 283.01 183.07 282.06 184.04 281.08 184.95 C 281.16 187.71 281.21 190.47 281.26 193.24 C 280.43 193.12 278.75 192.89 277.91 192.78 C 277.86 192.08 277.76 190.67 277.71 189.97 C 277.46 186.29 277.58 182.60 277.92 178.93 C 283.13 177.64 288.53 180.29 293.61 178.52 C 298.50 175.80 298.51 169.45 297.92 164.59 Z" />
</g>
<g id="#f8e0c5ff">
<path fill="#f8e0c5" opacity="1.00" d=" M 260.14 137.05 C 256.77 137.04 257.02 131.35 259.89 130.72 C 259.84 132.83 259.89 134.95 260.14 137.05 Z" />
</g>
<g id="#f4c5fcff">
<path fill="#f4c5fc" opacity="1.00" d=" M 347.25 137.30 C 348.59 135.76 351.01 138.05 349.24 139.32 C 347.90 140.84 345.59 138.60 347.25 137.30 Z" />
</g>
<g id="#d6d7dcff">
<path fill="#d6d7dc" opacity="1.00" d=" M 351.38 140.29 C 353.37 139.44 353.92 142.86 352.02 143.23 C 350.04 143.90 349.66 140.79 351.38 140.29 Z" />
</g>
<g id="#7cabfdff">
<path fill="#7cabfd" opacity="1.00" d=" M 365.60 148.32 C 370.06 147.10 374.06 149.18 377.82 151.32 C 378.22 152.10 378.60 152.90 378.96 153.70 C 379.96 158.09 379.21 162.57 377.65 166.72 C 373.52 168.39 369.01 169.07 364.64 167.95 C 363.86 167.60 363.10 167.24 362.35 166.85 C 361.32 165.28 359.93 163.90 359.25 162.12 C 358.66 159.68 359.10 157.17 359.45 154.74 C 360.51 153.66 361.54 152.55 362.54 151.41 C 363.56 150.38 364.58 149.35 365.60 148.32 M 364.08 156.78 C 363.92 159.13 364.33 161.45 365.17 163.64 C 365.67 163.80 366.66 164.12 367.15 164.28 C 370.11 165.28 372.86 163.95 375.03 161.97 C 375.21 160.14 375.42 158.32 375.66 156.50 C 374.39 152.76 369.90 153.25 366.84 154.02 C 365.34 152.74 363.02 155.30 364.08 156.78 Z" />
</g>
<g id="#dae4f6ff">
<path fill="#dae4f6" opacity="1.00" d=" M 364.08 156.78 C 363.02 155.30 365.34 152.74 366.84 154.02 C 367.30 155.71 365.70 157.10 364.08 156.78 Z" />
</g>
<g id="#c8c8cdff">
<path fill="#c8c8cd" opacity="1.00" d=" M 366.84 154.02 C 369.90 153.25 374.39 152.76 375.66 156.50 C 373.58 157.04 371.33 157.14 369.45 158.24 C 367.40 159.50 367.77 162.26 367.15 164.28 C 366.66 164.12 365.67 163.80 365.17 163.64 C 364.33 161.45 363.92 159.13 364.08 156.78 C 365.70 157.10 367.30 155.71 366.84 154.02 Z" />
</g>
<g id="#f5f6fcff">
<path fill="#f5f6fc" opacity="1.00" d=" M 369.45 158.24 C 371.33 157.14 373.58 157.04 375.66 156.50 C 375.42 158.32 375.21 160.14 375.03 161.97 C 372.86 163.95 370.11 165.28 367.15 164.28 C 367.77 162.26 367.40 159.50 369.45 158.24 Z" />
</g>
<g id="#fe7181ff">
<path fill="#fe7181" opacity="1.00" d=" M 291.06 159.76 C 294.37 158.99 296.78 161.84 297.92 164.59 C 298.51 169.45 298.50 175.80 293.61 178.52 C 288.53 180.29 283.13 177.64 277.92 178.93 C 277.58 182.60 277.46 186.29 277.71 189.97 C 277.09 189.92 275.84 189.81 275.21 189.76 C 274.61 188.18 273.76 186.63 273.70 184.91 C 273.82 182.78 273.94 180.65 274.16 178.54 C 274.41 177.08 274.84 175.68 275.24 174.26 C 280.22 171.84 285.69 173.37 290.94 173.57 C 291.95 172.59 292.94 171.59 293.97 170.64 C 294.28 168.20 292.58 166.45 291.53 164.46 C 291.15 162.92 291.18 161.32 291.06 159.76 Z" />
<path fill="#fe7181" opacity="1.00" d=" M 160.30 400.08 C 163.96 398.51 167.78 397.35 171.74 396.86 C 171.80 403.01 171.87 409.16 172.13 415.31 C 171.88 415.59 171.38 416.14 171.13 416.41 C 168.91 416.87 166.65 417.12 164.40 417.41 C 165.79 415.23 167.19 413.04 168.45 410.77 C 162.29 412.24 157.77 416.96 152.13 419.48 C 150.18 419.63 150.71 421.71 150.67 423.05 C 151.16 428.43 152.25 433.76 152.15 439.19 C 150.62 439.78 149.28 440.78 148.14 441.96 C 146.03 435.99 144.78 429.54 145.75 423.21 C 144.98 423.05 143.43 422.73 142.66 422.57 C 143.68 420.84 144.68 419.10 145.67 417.35 C 142.86 418.05 140.12 419.04 137.66 420.59 C 136.40 421.28 135.11 421.93 133.77 422.47 C 133.32 422.59 132.42 422.84 131.97 422.96 C 129.80 423.56 127.81 424.67 126.14 426.20 C 126.46 421.43 126.38 416.64 126.77 411.88 C 130.61 411.06 134.75 411.20 138.31 409.36 C 145.36 405.64 152.79 402.70 160.30 400.08 M 148.17 415.25 C 147.28 417.32 149.69 417.51 150.99 418.23 C 151.01 417.39 151.06 415.70 151.08 414.86 C 150.35 414.96 148.90 415.15 148.17 415.25 Z" />
</g>
<g id="#fd957eff">
<path fill="#fd957e" opacity="1.00" d=" M 329.12 168.23 C 332.17 167.34 333.81 163.66 337.36 164.53 C 337.18 165.33 336.81 166.94 336.63 167.75 C 335.29 169.33 333.85 170.81 332.62 172.48 C 331.43 172.94 330.25 173.42 329.08 173.91 C 327.12 177.02 324.25 180.15 320.18 179.13 C 320.28 178.58 320.48 177.48 320.58 176.93 C 321.39 175.95 322.17 174.95 322.98 173.96 C 324.60 172.52 326.29 171.15 328.10 169.95 C 328.35 169.52 328.87 168.66 329.12 168.23 Z" />
</g>
<g id="#c7c9cdff">
<path fill="#c7c9cd" opacity="1.00" d=" M 332.62 172.48 C 333.85 170.81 335.29 169.33 336.63 167.75 C 337.41 167.90 338.98 168.21 339.77 168.36 C 340.39 169.09 341.02 169.83 341.65 170.56 C 336.44 175.51 332.24 182.18 324.93 184.25 C 324.28 178.69 330.44 176.78 332.62 172.48 Z" />
<path fill="#c7c9cd" opacity="1.00" d=" M 118.13 470.14 C 123.60 468.52 128.06 463.43 134.20 464.76 C 134.30 466.92 134.42 469.08 134.48 471.25 C 131.76 473.52 128.23 474.32 125.12 475.88 C 120.04 478.46 114.51 480.01 108.95 481.13 C 102.45 482.32 94.77 479.66 91.84 473.43 C 96.19 474.25 100.66 474.34 105.07 473.95 C 109.66 473.65 113.78 471.42 118.13 470.14 Z" />
<path fill="#c7c9cd" opacity="1.00" d=" M 179.32 495.30 C 179.91 495.31 181.09 495.34 181.68 495.35 C 182.28 498.90 182.58 502.62 184.38 505.82 C 185.33 510.70 185.93 515.68 187.86 520.29 C 184.05 523.03 186.37 528.25 185.91 532.17 C 183.96 532.27 182.00 532.35 180.05 532.43 C 179.60 520.06 179.27 507.68 179.32 495.30 Z" />
</g>
<g id="#faafbaff">
<path fill="#faafba" opacity="1.00" d=" M 272.34 179.39 C 272.80 179.17 273.70 178.75 274.16 178.54 C 273.94 180.65 273.82 182.78 273.70 184.91 C 270.93 186.77 272.03 180.97 272.34 179.39 Z" />
</g>
<g id="#fbc57fff">
<path fill="#fbc57f" opacity="1.00" d=" M 93.06 190.20 C 119.33 189.95 145.61 189.97 171.88 190.21 C 171.90 190.56 171.95 191.27 171.97 191.62 C 172.55 200.41 171.72 209.20 171.74 218.00 C 171.65 220.71 171.90 223.50 171.14 226.14 C 166.92 227.12 162.53 226.79 158.24 227.14 C 158.10 229.77 157.95 232.40 157.75 235.03 C 156.46 233.06 155.26 231.03 154.22 228.92 C 153.99 228.47 153.52 227.56 153.29 227.11 C 150.09 226.71 146.69 226.66 143.93 228.57 C 131.27 228.97 118.61 229.42 105.95 229.83 C 103.67 229.89 101.37 230.01 99.10 229.70 C 97.48 227.26 98.36 223.90 97.31 221.20 C 94.76 214.87 96.08 207.77 93.76 201.39 C 92.46 197.81 92.48 193.92 93.06 190.20 M 104.32 204.41 C 104.36 204.93 104.45 205.95 104.50 206.47 C 124.59 206.94 144.69 206.51 164.79 206.69 C 164.88 205.99 165.06 204.58 165.15 203.87 C 147.42 203.62 129.70 203.88 111.97 203.73 C 109.40 203.68 106.85 204.01 104.32 204.41 M 106.03 210.04 C 106.06 210.76 106.10 212.18 106.13 212.89 C 118.34 212.91 130.56 213.13 142.77 212.76 C 142.80 212.12 142.86 210.83 142.89 210.19 C 130.61 209.71 118.32 209.95 106.03 210.04 Z" />
</g>
<g id="#e8ebf0ff">
<path fill="#e8ebf0" opacity="1.00" d=" M 171.97 191.62 C 175.01 192.05 173.83 195.64 174.27 197.79 C 176.07 197.98 177.87 198.17 179.67 198.35 C 180.47 199.88 181.49 201.34 181.83 203.06 C 181.55 205.46 180.02 207.58 180.12 210.05 C 180.07 216.39 180.12 222.73 180.00 229.06 C 179.85 230.93 179.96 233.09 178.61 234.57 C 175.31 235.53 171.67 234.38 168.45 235.58 C 165.80 236.97 166.17 240.30 165.76 242.81 C 164.36 240.78 163.29 238.12 160.90 237.10 C 143.00 236.02 125.09 238.87 107.20 237.80 C 105.30 235.67 106.25 232.43 105.95 229.83 C 118.61 229.42 131.27 228.97 143.93 228.57 C 147.35 228.80 150.79 228.94 154.22 228.92 C 155.26 231.03 156.46 233.06 157.75 235.03 C 157.95 232.40 158.10 229.77 158.24 227.14 C 162.53 226.79 166.92 227.12 171.14 226.14 C 171.90 223.50 171.65 220.71 171.74 218.00 C 171.72 209.20 172.55 200.41 171.97 191.62 Z" />
</g>
<g id="#febab5ff">
<path fill="#febab5" opacity="1.00" d=" M 308.62 215.62 C 312.07 210.16 317.42 206.43 321.68 201.69 C 321.71 202.48 321.79 204.06 321.83 204.85 C 319.53 208.27 316.84 211.44 314.86 215.07 C 318.96 212.90 320.84 207.85 325.32 206.46 C 324.66 208.47 323.78 210.39 322.73 212.22 C 324.26 211.22 325.83 210.27 327.54 209.61 C 327.69 210.31 327.99 211.72 328.14 212.43 C 327.04 213.06 326.02 213.81 325.09 214.66 C 325.94 214.82 327.65 215.13 328.50 215.28 C 325.26 221.55 320.64 226.92 316.05 232.21 C 314.46 233.88 313.88 236.17 313.71 238.41 C 313.28 238.10 312.44 237.49 312.02 237.18 C 309.97 232.79 306.48 229.37 303.49 225.65 C 302.32 223.91 300.29 223.31 298.44 222.65 C 300.83 218.94 302.50 214.80 305.27 211.33 C 305.60 213.75 305.99 216.15 306.39 218.56 C 307.14 217.59 307.89 216.61 308.62 215.62 Z" />
<path fill="#febab5" opacity="1.00" d=" M 152.13 419.48 C 157.77 416.96 162.29 412.24 168.45 410.77 C 167.19 413.04 165.79 415.23 164.40 417.41 C 166.65 417.12 168.91 416.87 171.13 416.41 C 171.38 416.14 171.88 415.59 172.13 415.31 C 173.47 414.92 174.84 414.60 176.22 414.36 C 178.61 414.09 181.01 413.99 183.42 413.93 C 180.36 416.35 176.69 417.73 173.39 419.76 C 177.50 420.25 182.11 416.13 185.65 419.37 C 183.45 420.57 181.18 421.61 178.89 422.61 C 181.05 422.73 183.21 422.85 185.36 423.15 C 184.28 425.74 181.03 426.06 178.77 427.23 C 179.69 427.42 181.53 427.80 182.45 427.99 C 180.18 429.41 177.77 430.61 175.18 431.36 C 168.07 433.45 161.63 437.53 154.29 438.85 C 154.98 432.19 151.27 426.11 152.13 419.48 Z" />
</g>
<g id="#fefefdff">
<path fill="#fefefd" opacity="1.00" d=" M 104.32 204.41 C 106.85 204.01 109.40 203.68 111.97 203.73 C 129.70 203.88 147.42 203.62 165.15 203.87 C 165.06 204.58 164.88 205.99 164.79 206.69 C 144.69 206.51 124.59 206.94 104.50 206.47 C 104.45 205.95 104.36 204.93 104.32 204.41 Z" />
</g>
<g id="#fdd4d1ff">
<path fill="#fdd4d1" opacity="1.00" d=" M 305.03 209.32 C 305.73 209.19 307.15 208.94 307.86 208.81 C 307.99 211.09 308.26 213.36 308.62 215.62 C 307.89 216.61 307.14 217.59 306.39 218.56 C 305.99 216.15 305.60 213.75 305.27 211.33 C 305.21 210.83 305.09 209.82 305.03 209.32 Z" />
</g>
<g id="#fefaf6ff">
<path fill="#fefaf6" opacity="1.00" d=" M 106.03 210.04 C 118.32 209.95 130.61 209.71 142.89 210.19 C 142.86 210.83 142.80 212.12 142.77 212.76 C 130.56 213.13 118.34 212.91 106.13 212.89 C 106.10 212.18 106.06 210.76 106.03 210.04 Z" />
</g>
<g id="#eae6e6ff">
<path fill="#eae6e6" opacity="1.00" d=" M 328.14 212.43 C 329.91 212.27 331.68 212.19 333.46 212.11 C 332.66 214.05 331.20 215.53 329.54 216.78 C 329.28 216.40 328.76 215.66 328.50 215.28 C 327.65 215.13 325.94 214.82 325.09 214.66 C 326.02 213.81 327.04 213.06 328.14 212.43 Z" />
</g>
<g id="#cfcfcfff">
<path fill="#cfcfcf" opacity="1.00" d=" M 328.50 215.28 C 328.76 215.66 329.28 216.40 329.54 216.78 C 329.46 217.25 329.31 218.18 329.23 218.65 C 330.85 217.90 332.47 217.12 334.09 216.36 C 333.84 217.86 333.60 219.37 333.35 220.88 C 334.20 221.17 335.05 221.45 335.90 221.74 C 331.33 227.20 326.57 232.55 322.88 238.67 C 322.05 239.43 321.18 240.15 320.25 240.79 C 318.12 240.43 315.99 240.01 313.86 239.67 C 313.82 239.35 313.74 238.72 313.71 238.41 C 313.88 236.17 314.46 233.88 316.05 232.21 C 320.64 226.92 325.26 221.55 328.50 215.28 Z" />
<path fill="#cfcfcf" opacity="1.00" d=" M 252.08 322.91 C 254.45 319.56 256.91 316.24 260.04 313.55 C 260.34 318.02 260.46 322.51 260.33 326.99 L 260.32 327.47 C 253.03 331.78 249.67 340.18 243.27 345.53 C 238.57 351.37 233.79 357.18 228.70 362.71 C 225.35 366.52 221.18 370.49 221.77 376.07 C 219.88 376.13 217.99 376.18 216.10 376.23 C 216.43 371.90 215.11 367.15 217.16 363.13 C 222.19 355.58 229.42 349.71 234.15 341.96 C 237.77 339.12 240.83 335.52 242.83 331.38 C 243.73 331.01 244.62 330.64 245.54 330.31 C 247.28 329.81 249.22 329.79 250.82 328.87 C 252.84 327.55 251.84 324.84 252.08 322.91 Z" />
</g>
<g id="#feebe8ff">
<path fill="#feebe8" opacity="1.00" d=" M 221.91 218.00 C 221.77 215.53 224.34 216.12 226.00 215.96 C 236.02 215.96 246.04 216.00 256.05 215.93 C 257.77 216.03 260.11 215.64 260.58 217.85 C 247.70 218.18 234.80 217.92 221.91 218.00 Z" />
</g>
<g id="#ff9a90ff">
<path fill="#ff9a90" opacity="1.00" d=" M 221.91 218.00 C 234.80 217.92 247.70 218.18 260.58 217.85 C 260.45 219.53 260.33 221.21 260.26 222.90 C 247.58 222.79 234.89 222.96 222.21 222.82 C 222.13 221.21 222.04 219.60 221.91 218.00 Z" />
</g>
<g id="#ff907dff">
<path fill="#ff907d" opacity="1.00" d=" M 298.44 222.65 C 300.29 223.31 302.32 223.91 303.49 225.65 C 306.48 229.37 309.97 232.79 312.02 237.18 C 312.44 237.49 313.28 238.10 313.71 238.41 C 313.74 238.72 313.82 239.35 313.86 239.67 C 307.13 253.39 297.76 265.54 289.29 278.19 C 286.47 281.75 283.60 285.28 281.16 289.11 C 278.25 293.75 274.39 297.66 271.18 302.08 C 266.95 305.34 264.12 310.08 260.04 313.55 C 256.91 316.24 254.45 319.56 252.08 322.91 C 249.48 324.97 247.09 327.34 245.54 330.31 C 244.62 330.64 243.73 331.01 242.83 331.38 C 240.83 335.52 237.77 339.12 234.15 341.96 C 227.33 341.29 221.08 345.02 215.26 348.09 C 205.40 351.67 195.54 355.23 185.54 358.41 C 182.53 358.90 179.62 359.91 177.58 362.30 C 176.67 361.92 175.78 361.51 174.91 361.07 C 173.55 357.58 172.92 353.85 171.68 350.31 C 170.93 350.99 170.19 351.68 169.46 352.37 C 166.29 352.00 163.33 353.03 161.45 355.70 C 159.49 355.96 157.52 356.20 155.56 356.43 C 155.34 356.96 154.89 358.01 154.67 358.54 C 148.91 359.24 143.66 361.75 138.26 363.64 C 137.18 363.19 136.18 362.59 135.17 362.03 C 135.20 358.30 133.39 354.94 130.61 352.54 C 131.48 356.32 133.65 359.71 134.00 363.62 C 131.37 366.04 128.75 368.83 125.00 369.31 C 119.26 371.49 113.09 372.58 107.73 375.64 C 105.43 376.41 102.92 376.01 100.54 376.23 C 102.93 372.25 105.31 368.27 107.30 364.07 C 111.30 356.50 118.16 351.10 124.05 345.06 C 130.17 340.52 136.86 336.54 144.12 334.13 C 148.05 332.03 152.16 330.27 156.58 329.55 C 156.06 331.26 155.49 332.96 155.06 334.71 C 154.57 340.50 154.41 346.35 155.22 352.12 C 160.76 351.50 165.95 348.87 169.91 344.99 C 171.09 345.10 172.28 345.17 173.48 345.27 C 175.36 347.15 177.14 349.82 180.13 349.80 C 182.00 349.91 184.74 349.39 184.80 347.03 C 186.22 341.42 183.97 335.96 182.65 330.59 C 182.34 328.29 182.02 325.98 181.69 323.69 C 181.86 323.32 182.19 322.60 182.36 322.24 C 185.00 321.88 188.00 322.18 190.22 320.42 C 192.44 318.82 194.61 317.12 197.00 315.77 C 202.40 313.03 207.12 309.17 212.53 306.45 C 213.22 305.56 213.91 304.68 214.60 303.80 C 217.25 302.52 219.81 301.06 222.19 299.33 C 226.84 295.66 232.20 292.93 236.45 288.73 C 241.12 284.31 247.27 281.27 250.56 275.56 C 251.50 274.90 252.41 274.17 252.98 273.16 C 255.04 271.18 257.29 269.39 259.40 267.46 C 259.63 267.22 260.10 266.74 260.34 266.50 C 261.03 265.79 261.74 265.09 262.47 264.41 C 268.96 255.92 277.05 248.78 283.56 240.29 C 288.35 234.27 293.95 228.92 298.44 222.65 M 301.09 235.21 C 300.62 236.85 301.19 237.40 302.80 236.87 C 303.26 235.23 302.69 234.67 301.09 235.21 M 127.11 350.15 C 126.60 351.75 127.16 352.32 128.80 351.85 C 129.32 350.24 128.75 349.67 127.11 350.15 Z" />
</g>
<g id="#f0dac0ff">
<path fill="#f0dac0" opacity="1.00" d=" M 143.93 228.57 C 146.69 226.66 150.09 226.71 153.29 227.11 C 153.52 227.56 153.99 228.47 154.22 228.92 C 150.79 228.94 147.35 228.80 143.93 228.57 Z" />
</g>
<g id="#ce7474ff">
<path fill="#ce7474" opacity="1.00" d=" M 301.09 235.21 C 302.69 234.67 303.26 235.23 302.80 236.87 C 301.19 237.40 300.62 236.85 301.09 235.21 Z" />
</g>
<g id="#f1f8feff">
<path fill="#f1f8fe" opacity="1.00" d=" M 320.25 240.79 C 321.18 240.15 322.05 239.43 322.88 238.67 C 324.41 239.80 326.09 240.70 327.80 241.52 C 328.30 256.09 327.92 270.67 327.90 285.24 C 323.56 282.13 317.99 283.61 313.04 283.33 C 307.85 283.69 301.83 281.85 297.52 285.66 C 296.70 285.36 295.88 285.06 295.07 284.76 C 298.90 279.97 302.00 274.64 305.81 269.84 C 310.01 263.97 312.86 257.22 317.58 251.70 C 320.40 248.75 319.53 244.46 320.25 240.79 Z" />
<path fill="#f1f8fe" opacity="1.00" d=" M 222.81 240.82 C 225.41 239.76 228.29 239.96 231.05 239.93 C 237.99 240.09 244.93 239.77 251.87 240.14 C 252.88 251.13 250.89 262.28 252.98 273.16 C 252.41 274.17 251.50 274.90 250.56 275.56 C 245.37 275.27 240.18 275.30 234.99 275.28 C 230.64 275.34 225.91 274.57 222.07 277.12 C 221.87 267.09 222.14 257.05 221.92 247.02 C 222.01 244.95 221.68 242.67 222.81 240.82 Z" />
<path fill="#f1f8fe" opacity="1.00" d=" M 260.21 242.08 C 260.23 240.13 262.52 240.04 263.97 240.00 C 270.49 239.82 277.03 239.89 283.56 240.29 C 277.05 248.78 268.96 255.92 262.47 264.41 C 261.74 265.09 261.03 265.79 260.34 266.50 C 260.03 258.37 259.78 250.20 260.21 242.08 Z" />
<path fill="#f1f8fe" opacity="1.00" d=" M 335.87 244.98 C 335.99 243.23 335.62 240.26 338.09 240.09 C 344.71 239.63 351.38 240.25 358.02 239.96 C 360.09 240.10 362.43 239.57 364.31 240.66 C 365.08 241.95 364.98 243.53 365.08 244.98 C 365.02 266.61 365.04 288.25 365.00 309.89 L 364.81 309.78 C 360.91 306.62 355.58 308.36 351.00 307.96 C 346.07 308.35 340.45 306.54 336.16 309.73 L 335.90 309.86 C 335.96 288.23 335.95 266.60 335.87 244.98 Z" />
<path fill="#f1f8fe" opacity="1.00" d=" M 372.90 243.97 C 372.37 241.47 374.72 239.89 376.97 240.06 C 385.27 239.88 393.59 239.94 401.89 240.06 C 402.44 254.81 401.88 269.59 402.17 284.35 C 400.18 283.69 398.11 283.15 396.00 283.23 C 389.43 283.35 382.86 283.29 376.30 283.31 C 375.23 284.01 374.20 284.76 373.14 285.46 C 372.76 271.64 373.15 257.79 372.90 243.97 Z" />
</g>
<g id="#c3cbceff">
<path fill="#c3cbce" opacity="1.00" d=" M 313.86 239.67 C 315.99 240.01 318.12 240.43 320.25 240.79 C 319.53 244.46 320.40 248.75 317.58 251.70 C 312.86 257.22 310.01 263.97 305.81 269.84 C 302.00 274.64 298.90 279.97 295.07 284.76 C 291.49 291.05 286.28 296.15 282.58 302.36 C 282.28 302.36 281.68 302.37 281.38 302.37 C 277.97 302.49 274.57 302.31 271.18 302.08 C 274.39 297.66 278.25 293.75 281.16 289.11 C 283.60 285.28 286.47 281.75 289.29 278.19 C 297.76 265.54 307.13 253.39 313.86 239.67 Z" />
</g>
<g id="#231352ff">
<path fill="#231352" opacity="1.00" d=" M 183.64 252.24 C 186.88 250.97 190.40 250.73 193.84 251.10 C 196.69 252.24 199.12 254.54 200.10 257.49 C 200.33 260.87 200.00 264.28 198.97 267.52 C 197.60 268.40 196.26 269.31 194.93 270.24 C 192.34 271.00 189.87 272.12 187.66 273.69 C 185.44 274.64 183.28 275.73 181.03 276.60 C 174.10 278.36 167.00 276.24 160.00 276.57 C 157.73 276.55 156.09 278.47 154.91 280.17 C 154.08 285.41 155.26 290.80 154.03 296.02 C 152.48 296.09 150.93 296.14 149.38 296.24 C 148.81 293.46 148.15 290.67 148.13 287.81 C 148.39 286.07 147.76 285.34 146.23 285.61 C 146.30 279.36 144.90 273.06 146.42 266.88 C 147.93 265.40 149.37 263.86 150.83 262.35 C 154.97 259.60 160.58 262.51 164.89 260.05 C 166.56 258.66 168.02 257.03 169.45 255.40 C 170.59 254.37 171.67 253.26 172.68 252.10 C 174.87 251.81 177.07 251.70 179.28 251.76 C 179.67 252.54 180.44 254.10 180.83 254.87 C 181.98 254.24 182.92 253.36 183.64 252.24 Z" />
<path fill="#231352" opacity="1.00" d=" M 149.41 303.62 C 149.47 302.25 149.58 300.89 150.26 299.68 C 150.50 302.02 150.46 304.39 150.46 306.74 C 150.19 306.75 149.64 306.77 149.37 306.78 C 149.51 306.18 149.80 304.98 149.94 304.38 C 149.46 304.30 148.49 304.15 148.01 304.07 C 148.36 303.96 149.06 303.73 149.41 303.62 Z" />
<path fill="#231352" opacity="1.00" d=" M 138.32 456.71 C 141.04 456.00 141.84 452.39 144.99 452.98 C 142.95 454.50 140.86 456.15 138.32 456.71 Z" />
<path fill="#231352" opacity="1.00" d=" M 134.20 464.76 C 160.66 465.02 187.14 464.79 213.60 464.87 C 214.04 467.05 214.53 469.26 215.38 471.34 C 215.93 473.51 216.45 475.72 217.37 477.79 C 218.28 482.27 218.39 486.92 219.83 491.30 C 221.67 496.68 221.20 502.54 223.19 507.89 C 225.10 513.17 223.98 519.18 226.59 524.23 C 227.12 526.94 227.51 529.67 227.85 532.41 C 215.43 532.42 203.01 532.34 190.59 532.45 C 190.14 529.75 189.71 527.04 189.48 524.31 C 189.15 524.40 188.50 524.57 188.17 524.66 C 188.10 523.57 187.94 521.39 187.86 520.29 C 185.93 515.68 185.33 510.70 184.38 505.82 C 182.58 502.62 182.28 498.90 181.68 495.35 C 181.09 495.34 179.91 495.31 179.32 495.30 C 179.27 507.68 179.60 520.06 180.05 532.43 C 165.99 532.31 151.93 532.53 137.87 532.32 C 137.53 524.16 137.26 516.00 136.91 507.85 C 136.93 505.84 136.97 503.85 136.99 501.86 C 137.00 499.60 136.95 497.33 136.90 495.07 C 136.48 495.26 135.64 495.65 135.22 495.84 C 135.46 487.63 134.62 479.45 134.48 471.25 C 134.42 469.08 134.30 466.92 134.20 464.76 M 144.39 478.53 C 142.82 480.50 140.18 481.68 139.65 484.37 C 143.05 483.91 145.34 481.28 146.56 478.26 C 147.40 476.54 149.55 473.60 146.99 472.35 C 145.91 474.31 145.34 476.50 144.39 478.53 M 205.23 474.08 C 204.70 475.70 205.25 476.27 206.88 475.79 C 207.40 474.15 206.85 473.58 205.23 474.08 M 205.03 504.56 C 205.10 507.56 204.10 511.17 206.52 513.54 C 207.52 517.88 207.31 522.44 208.45 526.73 C 208.83 526.81 209.60 526.98 209.98 527.06 C 210.30 524.56 210.49 521.89 209.29 519.59 C 207.12 515.16 207.60 510.09 206.63 505.38 C 206.23 505.18 205.43 504.77 205.03 504.56 Z" />
</g>
<g id="#cfceceff">
<path fill="#cfcece" opacity="1.00" d=" M 200.10 257.49 C 205.28 258.29 207.63 264.42 207.18 269.08 C 206.43 274.23 201.12 276.30 196.97 278.17 C 195.91 282.07 197.20 286.19 197.20 290.17 C 197.05 297.04 197.00 303.92 197.08 310.79 C 197.06 312.45 197.03 314.11 197.00 315.77 C 194.61 317.12 192.44 318.82 190.22 320.42 C 188.00 322.18 185.00 321.88 182.36 322.24 L 183.08 320.76 C 185.68 316.70 190.03 313.48 190.53 308.35 C 192.01 296.85 191.52 285.13 190.26 273.63 C 189.61 273.64 188.31 273.68 187.66 273.69 C 189.87 272.12 192.34 271.00 194.93 270.24 C 196.26 269.31 197.60 268.40 198.97 267.52 C 200.00 264.28 200.33 260.87 200.10 257.49 Z" />
</g>
<g id="#ffbab5ff">
<path fill="#ffbab5" opacity="1.00" d=" M 181.03 276.60 C 183.28 275.73 185.44 274.64 187.66 273.69 C 188.31 273.68 189.61 273.64 190.26 273.63 C 191.52 285.13 192.01 296.85 190.53 308.35 C 190.03 313.48 185.68 316.70 183.08 320.76 C 179.59 321.43 176.46 323.26 173.00 323.98 C 169.52 323.64 166.44 321.61 163.00 320.95 C 163.83 321.93 164.66 322.92 165.49 323.91 C 170.78 325.68 176.40 325.13 181.69 323.69 C 182.02 325.98 182.34 328.29 182.65 330.59 C 182.34 333.27 182.30 336.27 180.48 338.43 C 178.38 340.94 175.85 343.03 173.48 345.27 C 172.28 345.17 171.09 345.10 169.91 344.99 C 164.10 344.75 159.34 340.68 157.21 335.45 C 156.67 335.27 155.60 334.90 155.06 334.71 C 155.49 332.96 156.06 331.26 156.58 329.55 C 156.39 325.61 154.80 321.93 154.49 318.01 C 154.33 315.33 152.96 313.01 151.44 310.89 C 149.09 309.50 145.87 308.18 145.70 305.01 C 145.14 301.73 145.17 296.86 149.38 296.24 C 150.93 296.14 152.48 296.09 154.03 296.02 C 155.26 290.80 154.08 285.41 154.91 280.17 C 156.09 278.47 157.73 276.55 160.00 276.57 C 167.00 276.24 174.10 278.36 181.03 276.60 M 182.55 280.23 C 181.74 281.13 180.94 282.03 180.13 282.93 C 181.98 282.97 183.82 283.03 185.68 283.11 C 185.58 282.30 185.38 280.69 185.28 279.88 C 184.60 279.97 183.23 280.14 182.55 280.23 M 164.43 282.94 C 164.57 283.39 164.86 284.28 165.00 284.72 C 161.91 283.96 164.13 287.94 165.76 285.77 C 166.34 285.91 167.48 286.19 168.05 286.33 C 167.99 285.55 167.87 284.00 167.81 283.22 C 166.97 283.15 165.28 283.01 164.43 282.94 M 177.38 285.68 C 176.84 290.41 176.78 295.19 177.34 299.92 C 177.26 301.00 177.17 302.09 177.09 303.19 C 175.19 305.58 180.61 305.59 178.88 303.15 L 180.08 303.32 C 179.98 300.90 179.81 298.48 179.40 296.09 C 179.27 293.35 179.09 290.61 178.80 287.88 C 178.81 286.85 178.33 286.12 177.38 285.68 M 183.69 288.09 C 183.10 289.22 184.69 291.00 185.88 290.53 C 186.92 289.30 185.00 287.24 183.69 288.09 M 168.23 289.39 C 167.44 290.14 167.31 292.63 168.73 292.64 C 169.50 291.87 169.64 289.39 168.23 289.39 M 149.41 303.62 C 149.06 303.73 148.36 303.96 148.01 304.07 C 148.49 304.15 149.46 304.30 149.94 304.38 C 149.80 304.98 149.51 306.18 149.37 306.78 C 149.64 306.77 150.19 306.75 150.46 306.74 C 150.46 304.39 150.50 302.02 150.26 299.68 C 149.58 300.89 149.47 302.25 149.41 303.62 M 167.63 305.01 C 168.11 306.64 168.62 308.26 169.16 309.87 C 172.40 311.28 177.57 312.30 179.13 308.09 C 176.96 309.17 174.65 309.95 172.22 310.12 C 171.71 308.40 171.20 306.69 170.71 304.98 C 169.94 304.99 168.40 305.00 167.63 305.01 Z" />
</g>
<g id="#8ecafcff">
<path fill="#8ecafc" opacity="1.00" d=" M 222.07 277.12 C 225.91 274.57 230.64 275.34 234.99 275.28 C 240.18 275.30 245.37 275.27 250.56 275.56 C 247.27 281.27 241.12 284.31 236.45 288.73 C 232.20 292.93 226.84 295.66 222.19 299.33 C 221.96 291.93 222.21 284.53 222.07 277.12 Z" />
</g>
<g id="#765177ff">
<path fill="#765177" opacity="1.00" d=" M 182.55 280.23 C 183.23 280.14 184.60 279.97 185.28 279.88 C 185.38 280.69 185.58 282.30 185.68 283.11 C 183.82 283.03 181.98 282.97 180.13 282.93 C 180.94 282.03 181.74 281.13 182.55 280.23 Z" />
</g>
<g id="#976985ff">
<path fill="#976985" opacity="1.00" d=" M 164.43 282.94 C 165.28 283.01 166.97 283.15 167.81 283.22 C 167.87 284.00 167.99 285.55 168.05 286.33 C 167.48 286.19 166.34 285.91 165.76 285.77 C 165.57 285.51 165.19 284.98 165.00 284.72 C 164.86 284.28 164.57 283.39 164.43 282.94 Z" />
</g>
<g id="#9dbbfdff">
<path fill="#9dbbfd" opacity="1.00" d=" M 297.52 285.66 C 301.83 281.85 307.85 283.69 313.04 283.33 C 317.99 283.61 323.56 282.13 327.90 285.24 C 327.75 298.52 327.98 311.80 327.85 325.07 C 328.17 327.79 325.72 330.14 323.03 329.84 C 316.36 329.93 309.68 329.87 303.00 329.87 C 300.61 330.09 297.68 328.79 297.69 326.04 C 297.38 312.59 297.82 299.12 297.52 285.66 Z" />
</g>
<g id="#ada8fdff">
<path fill="#ada8fd" opacity="1.00" d=" M 373.14 285.46 C 374.20 284.76 375.23 284.01 376.30 283.31 C 382.86 283.29 389.43 283.35 396.00 283.23 C 398.11 283.15 400.18 283.69 402.17 284.35 C 401.78 299.02 402.32 313.71 401.82 328.38 C 401.81 328.71 401.77 329.39 401.75 329.72 C 393.82 329.95 385.88 329.83 377.94 329.84 C 375.26 330.18 372.72 327.80 373.09 325.07 C 373.12 311.87 373.00 298.66 373.14 285.46 Z" />
</g>
<g id="#3c255cff">
<path fill="#3c255c" opacity="1.00" d=" M 165.76 285.77 C 164.13 287.94 161.91 283.96 165.00 284.72 C 165.19 284.98 165.57 285.51 165.76 285.77 Z" />
</g>
<g id="#e1ddfeff">
<path fill="#e1ddfe" opacity="1.00" d=" M 402.17 284.35 C 404.62 285.69 403.94 288.66 404.07 290.96 C 403.90 302.34 404.09 313.73 403.99 325.10 C 404.16 326.73 403.54 328.05 401.82 328.38 C 402.32 313.71 401.78 299.02 402.17 284.35 Z" />
</g>
<g id="#bdb9ceff">
<path fill="#bdb9ce" opacity="1.00" d=" M 146.23 285.61 C 147.76 285.34 148.39 286.07 148.13 287.81 C 146.59 288.04 145.96 287.30 146.23 285.61 Z" />
</g>
<g id="#a07089ff">
<path fill="#a07089" opacity="1.00" d=" M 177.38 285.68 C 178.33 286.12 178.81 286.85 178.80 287.88 C 179.09 290.61 179.27 293.35 179.40 296.09 C 178.76 297.38 178.05 298.65 177.34 299.92 C 176.78 295.19 176.84 290.41 177.38 285.68 Z" />
</g>
<g id="#bd8595ff">
<path fill="#bd8595" opacity="1.00" d=" M 183.69 288.09 C 185.00 287.24 186.92 289.30 185.88 290.53 C 184.69 291.00 183.10 289.22 183.69 288.09 Z" />
</g>
<g id="#9c6c86ff">
<path fill="#9c6c86" opacity="1.00" d=" M 168.23 289.39 C 169.64 289.39 169.50 291.87 168.73 292.64 C 167.31 292.63 167.44 290.14 168.23 289.39 Z" />
</g>
<g id="#eaeaeaff">
<path fill="#eaeaea" opacity="1.00" d=" M 197.20 290.17 C 199.73 293.22 199.02 297.37 199.18 301.03 C 199.05 304.36 199.56 308.15 197.08 310.79 C 197.00 303.92 197.05 297.04 197.20 290.17 Z" />
</g>
<g id="#cc929dff">
<path fill="#cc929d" opacity="1.00" d=" M 179.40 296.09 C 179.81 298.48 179.98 300.90 180.08 303.32 L 178.88 303.15 C 178.43 303.16 177.54 303.18 177.09 303.19 C 177.17 302.09 177.26 301.00 177.34 299.92 C 178.05 298.65 178.76 297.38 179.40 296.09 Z" />
</g>
<g id="#74a1cdff">
<path fill="#74a1cd" opacity="1.00" d=" M 260.04 313.55 C 264.12 310.08 266.95 305.34 271.18 302.08 C 274.57 302.31 277.97 302.49 281.38 302.37 C 279.47 306.86 275.90 310.27 272.29 313.41 C 267.64 317.30 264.14 322.32 260.33 326.99 C 260.46 322.51 260.34 318.02 260.04 313.55 Z" />
</g>
<g id="#91c6fdff">
<path fill="#91c6fd" opacity="1.00" d=" M 281.38 302.37 C 281.68 302.37 282.28 302.36 282.58 302.36 C 284.61 302.35 286.66 302.50 288.65 302.93 C 288.86 303.19 289.27 303.72 289.48 303.99 C 288.65 312.18 288.94 320.44 289.25 328.66 C 288.93 328.94 288.29 329.51 287.96 329.80 C 279.18 329.74 270.38 330.20 261.61 329.59 C 261.29 329.06 260.64 328.00 260.32 327.47 L 260.33 326.99 C 264.14 322.32 267.64 317.30 272.29 313.41 C 275.90 310.27 279.47 306.86 281.38 302.37 Z" />
</g>
<g id="#976984ff">
<path fill="#976984" opacity="1.00" d=" M 177.09 303.19 C 177.54 303.18 178.43 303.16 178.88 303.15 C 180.61 305.59 175.19 305.58 177.09 303.19 Z" />
</g>
<g id="#ad798eff">
<path fill="#ad798e" opacity="1.00" d=" M 167.63 305.01 C 168.40 305.00 169.94 304.99 170.71 304.98 C 171.20 306.69 171.71 308.40 172.22 310.12 C 174.65 309.95 176.96 309.17 179.13 308.09 C 177.57 312.30 172.40 311.28 169.16 309.87 C 168.62 308.26 168.11 306.64 167.63 305.01 Z" />
</g>
<g id="#c3ddfdff">
<path fill="#c3ddfd" opacity="1.00" d=" M 289.48 303.99 C 289.80 304.40 290.42 305.22 290.74 305.63 C 291.23 312.83 291.29 320.11 290.73 327.31 C 290.36 327.65 289.62 328.32 289.25 328.66 C 288.94 320.44 288.65 312.18 289.48 303.99 Z" />
</g>
<g id="#cfd9fdff">
<path fill="#cfd9fd" opacity="1.00" d=" M 336.16 309.73 C 340.45 306.54 346.07 308.35 351.00 307.96 C 355.58 308.36 360.91 306.62 364.81 309.78 C 355.27 310.19 345.70 310.02 336.16 309.73 Z" />
</g>
<g id="#a3b3feff">
<path fill="#a3b3fe" opacity="1.00" d=" M 335.90 309.86 L 336.16 309.73 C 345.70 310.02 355.27 310.19 364.81 309.78 L 365.00 309.89 C 364.82 316.52 366.18 323.41 363.99 329.82 C 354.99 329.88 345.98 329.84 336.97 329.84 C 334.73 323.43 336.21 316.50 335.90 309.86 Z" />
</g>
<g id="#eef1f2ff">
<path fill="#eef1f2" opacity="1.00" d=" M 452.59 316.36 C 453.37 315.59 454.14 314.81 454.92 314.05 C 455.14 323.71 454.95 333.37 455.04 343.03 C 455.19 347.32 454.15 351.96 456.42 355.89 C 456.82 356.88 457.00 357.93 456.96 359.03 C 456.68 418.63 457.20 478.23 456.88 537.83 C 448.69 538.02 440.47 538.29 432.29 537.74 C 432.20 535.81 432.11 533.88 432.09 531.96 C 432.09 487.97 432.08 443.99 432.13 400.01 C 432.28 394.90 431.07 389.40 433.65 384.69 C 433.37 384.44 432.80 383.94 432.51 383.69 L 431.86 383.11 C 431.82 380.92 431.92 378.72 432.08 376.54 C 433.48 375.41 434.13 373.79 433.99 372.01 C 433.97 359.35 434.05 346.69 434.03 334.03 C 433.91 329.91 433.90 325.77 434.49 321.68 C 437.52 323.60 442.30 323.86 443.46 327.79 C 440.66 327.95 437.87 328.05 435.09 328.16 C 434.99 331.73 434.99 335.31 435.08 338.89 C 436.89 338.88 438.71 338.88 440.52 338.88 C 440.81 337.61 441.09 336.35 441.39 335.09 C 445.54 334.97 449.69 334.90 453.85 334.90 C 453.51 328.75 455.37 322.12 452.59 316.36 Z" />
</g>
<g id="#a9798eff">
<path fill="#a9798e" opacity="1.00" d=" M 163.00 320.95 C 166.44 321.61 169.52 323.64 173.00 323.98 C 176.46 323.26 179.59 321.43 183.08 320.76 L 182.36 322.24 C 182.19 322.60 181.86 323.32 181.69 323.69 C 176.40 325.13 170.78 325.68 165.49 323.91 C 164.66 322.92 163.83 321.93 163.00 320.95 Z" />
</g>
<g id="#7ca9c9ff">
<path fill="#7ca9c9" opacity="1.00" d=" M 245.54 330.31 C 247.09 327.34 249.48 324.97 252.08 322.91 C 251.84 324.84 252.84 327.55 250.82 328.87 C 249.22 329.79 247.28 329.81 245.54 330.31 Z" />
</g>
<g id="#fed4b9ff">
<path fill="#fed4b9" opacity="1.00" d=" M 180.48 338.43 C 182.30 336.27 182.34 333.27 182.65 330.59 C 183.97 335.96 186.22 341.42 184.80 347.03 C 184.74 349.39 182.00 349.91 180.13 349.80 C 177.14 349.82 175.36 347.15 173.48 345.27 C 175.85 343.03 178.38 340.94 180.48 338.43 Z" />
</g>
<g id="#fed4b8ff">
<path fill="#fed4b8" opacity="1.00" d=" M 155.06 334.71 C 155.60 334.90 156.67 335.27 157.21 335.45 C 159.34 340.68 164.10 344.75 169.91 344.99 C 165.95 348.87 160.76 351.50 155.22 352.12 C 154.41 346.35 154.57 340.50 155.06 334.71 Z" />
</g>
<g id="#fe7f7fff">
<path fill="#fe7f7f" opacity="1.00" d=" M 215.26 348.09 C 221.08 345.02 227.33 341.29 234.15 341.96 C 229.42 349.71 222.19 355.58 217.16 363.13 C 215.11 367.15 216.43 371.90 216.10 376.23 C 216.10 377.68 216.08 379.13 216.08 380.59 C 212.11 380.39 208.59 382.46 204.93 383.66 C 201.67 387.32 196.21 386.00 191.94 387.39 C 189.91 390.97 185.30 389.15 182.42 391.38 C 180.00 393.15 177.34 394.75 174.21 394.37 C 174.58 385.58 173.93 376.80 173.89 368.01 C 173.88 365.83 173.71 363.65 173.00 361.59 C 171.93 363.91 172.07 366.51 172.00 369.01 C 171.95 378.29 171.61 387.57 171.74 396.86 C 167.78 397.35 163.96 398.51 160.30 400.08 C 152.79 402.70 145.36 405.64 138.31 409.36 C 134.75 411.20 130.61 411.06 126.77 411.88 C 127.09 407.67 127.55 403.43 126.85 399.25 C 125.17 404.30 123.83 409.46 122.81 414.69 C 119.26 415.15 116.47 417.68 112.94 418.18 C 109.09 418.70 106.46 422.19 102.56 422.60 C 99.11 423.09 95.58 423.70 92.63 425.70 C 89.33 427.87 85.55 429.12 81.61 429.40 C 81.99 424.87 83.96 420.69 84.51 416.19 C 85.17 411.50 87.88 407.48 89.10 402.95 C 91.87 393.87 96.52 385.53 99.74 376.65 C 99.94 376.54 100.34 376.33 100.54 376.23 C 102.92 376.01 105.43 376.41 107.73 375.64 C 113.09 372.58 119.26 371.49 125.00 369.31 C 128.75 368.83 131.37 366.04 134.00 363.62 C 134.04 367.53 134.56 371.60 133.18 375.35 C 132.50 377.33 131.85 379.34 131.88 381.46 C 132.33 381.33 133.22 381.08 133.66 380.95 C 135.56 374.85 135.16 368.33 135.17 362.03 C 136.18 362.59 137.18 363.19 138.26 363.64 C 143.66 361.75 148.91 359.24 154.67 358.54 C 154.89 358.01 155.34 356.96 155.56 356.43 C 157.52 356.20 159.49 355.96 161.45 355.70 C 163.33 353.03 166.29 352.00 169.46 352.37 C 170.19 351.68 170.93 350.99 171.68 350.31 C 172.92 353.85 173.55 357.58 174.91 361.07 C 175.78 361.51 176.67 361.92 177.58 362.30 C 179.62 359.91 182.53 358.90 185.54 358.41 C 195.54 355.23 205.40 351.67 215.26 348.09 M 186.00 373.33 C 186.02 373.70 186.05 374.43 186.07 374.80 C 188.66 375.62 191.24 374.92 193.64 373.88 C 196.56 372.68 201.10 373.80 202.27 370.00 C 197.03 371.93 191.38 372.00 186.00 373.33 Z" />
</g>
<g id="#d97b76ff">
<path fill="#d97b76" opacity="1.00" d=" M 127.11 350.15 C 128.75 349.67 129.32 350.24 128.80 351.85 C 127.16 352.32 126.60 351.75 127.11 350.15 Z" />
</g>
<g id="#da7777ff">
<path fill="#da7777" opacity="1.00" d=" M 130.61 352.54 C 133.39 354.94 135.20 358.30 135.17 362.03 C 135.16 368.33 135.56 374.85 133.66 380.95 C 133.22 381.08 132.33 381.33 131.88 381.46 C 131.85 379.34 132.50 377.33 133.18 375.35 C 134.56 371.60 134.04 367.53 134.00 363.62 C 133.65 359.71 131.48 356.32 130.61 352.54 Z" />
</g>
<g id="#e9637cff">
<path fill="#e9637c" opacity="1.00" d=" M 172.00 369.01 C 172.07 366.51 171.93 363.91 173.00 361.59 C 173.71 363.65 173.88 365.83 173.89 368.01 C 173.93 376.80 174.58 385.58 174.21 394.37 C 174.67 401.05 176.52 407.60 176.22 414.36 C 174.84 414.60 173.47 414.92 172.13 415.31 C 171.87 409.16 171.80 403.01 171.74 396.86 C 171.61 387.57 171.95 378.29 172.00 369.01 Z" />
</g>
<g id="#e36e79ff">
<path fill="#e36e79" opacity="1.00" d=" M 186.00 373.33 C 191.38 372.00 197.03 371.93 202.27 370.00 C 201.10 373.80 196.56 372.68 193.64 373.88 C 191.24 374.92 188.66 375.62 186.07 374.80 C 186.05 374.43 186.02 373.70 186.00 373.33 Z" />
</g>
<g id="#a2a2a6ff">
<path fill="#a2a2a6" opacity="1.00" d=" M 216.10 376.23 C 217.99 376.18 219.88 376.13 221.77 376.07 C 221.84 376.53 221.99 377.45 222.07 377.91 C 222.05 379.61 221.96 381.32 221.87 383.04 C 219.94 383.14 218.00 383.24 216.07 383.35 C 216.07 382.66 216.08 381.28 216.08 380.59 C 216.08 379.13 216.10 377.68 216.10 376.23 Z" />
</g>
<g id="#d7d7dbff">
<path fill="#d7d7db" opacity="1.00" d=" M 221.77 376.07 C 263.55 375.93 305.33 376.03 347.11 376.02 C 347.08 376.53 347.02 377.56 346.99 378.08 C 305.35 377.82 263.70 378.20 222.07 377.91 C 221.99 377.45 221.84 376.53 221.77 376.07 Z" />
</g>
<g id="#dbc2c6ff">
<path fill="#dbc2c6" opacity="1.00" d=" M 347.11 376.02 C 362.31 376.06 377.51 375.82 392.70 376.12 C 392.94 376.54 393.43 377.38 393.67 377.80 C 378.23 378.26 362.78 377.79 347.33 378.08 L 346.99 378.08 C 347.02 377.56 347.08 376.53 347.11 376.02 Z" />
</g>
<g id="#c8c9cdff">
<path fill="#c8c9cd" opacity="1.00" d=" M 392.70 376.12 C 405.82 376.62 418.96 375.89 432.08 376.54 C 431.92 378.72 431.82 380.92 431.86 383.11 C 419.77 383.16 407.69 383.04 395.61 383.27 L 395.48 383.27 C 395.03 381.39 394.73 379.44 393.67 377.80 C 393.43 377.38 392.94 376.54 392.70 376.12 Z" />
<path fill="#c8c9cd" opacity="1.00" d=" M 222.07 377.91 C 263.70 378.20 305.35 377.82 346.99 378.08 L 347.33 378.08 C 348.52 379.02 349.73 379.93 350.95 380.85 C 350.98 381.38 351.03 382.43 351.06 382.96 C 342.40 383.66 333.72 383.24 325.04 383.34 C 290.74 383.31 256.44 383.42 222.14 383.28 C 221.95 407.08 222.02 430.89 222.11 454.70 C 222.11 455.03 222.11 455.69 222.11 456.02 C 220.24 458.29 218.24 460.45 216.12 462.48 C 216.04 446.91 216.25 431.33 215.97 415.77 C 216.24 404.96 216.06 394.15 216.07 383.35 C 218.00 383.24 219.94 383.14 221.87 383.04 C 221.96 381.32 222.05 379.61 222.07 377.91 Z" />
</g>
<g id="#ccaab1ff">
<path fill="#ccaab1" opacity="1.00" d=" M 347.33 378.08 C 362.78 377.79 378.23 378.26 393.67 377.80 C 394.73 379.44 395.03 381.39 395.48 383.27 C 380.67 383.22 365.84 383.75 351.06 382.96 C 351.03 382.43 350.98 381.38 350.95 380.85 C 349.73 379.93 348.52 379.02 347.33 378.08 Z" />
</g>
<g id="#fe6d81ff">
<path fill="#fe6d81" opacity="1.00" d=" M 204.93 383.66 C 208.59 382.46 212.11 380.39 216.08 380.59 C 216.08 381.28 216.07 382.66 216.07 383.35 C 216.06 394.15 216.24 404.96 215.97 415.77 C 212.71 412.76 214.14 407.92 213.73 404.01 C 213.38 405.23 213.02 406.44 212.67 407.66 C 203.41 408.41 195.99 415.98 186.47 415.30 C 186.22 416.64 185.99 418.00 185.69 419.34 L 185.65 419.37 C 182.11 416.13 177.50 420.25 173.39 419.76 C 176.69 417.73 180.36 416.35 183.42 413.93 C 181.01 413.99 178.61 414.09 176.22 414.36 C 176.52 407.60 174.67 401.05 174.21 394.37 C 177.34 394.75 180.00 393.15 182.42 391.38 C 185.30 389.15 189.91 390.97 191.94 387.39 C 196.21 386.00 201.67 387.32 204.93 383.66 Z" />
</g>
<g id="#fcd1daff">
<path fill="#fcd1da" opacity="1.00" d=" M 351.06 382.96 C 365.84 383.75 380.67 383.22 395.48 383.27 L 395.61 383.27 C 396.47 388.08 398.33 392.71 398.51 397.65 C 399.15 408.14 399.26 418.95 395.88 429.03 C 394.86 435.45 391.50 441.09 388.47 446.73 C 384.47 452.55 379.53 457.68 374.55 462.66 C 365.62 469.46 355.15 474.27 344.12 476.40 C 334.03 477.57 323.77 477.61 313.68 476.48 C 306.76 474.74 299.80 473.13 293.00 470.94 C 285.14 469.36 277.02 469.44 269.04 469.84 C 263.61 469.88 258.98 472.93 254.37 475.38 C 249.33 477.89 246.67 483.12 243.35 487.38 C 240.30 493.03 238.81 499.58 239.17 506.01 C 239.31 510.49 241.00 514.71 241.71 519.11 C 242.39 523.83 244.69 528.05 246.69 532.31 C 242.11 532.38 237.54 532.36 232.97 532.28 C 232.58 529.16 232.29 526.02 231.81 522.91 C 231.19 518.06 227.89 513.97 227.88 508.97 C 227.68 502.69 225.26 496.82 224.45 490.64 C 223.37 484.51 220.78 478.53 221.50 472.19 C 222.09 466.82 222.18 461.42 222.11 456.02 C 222.11 455.69 222.11 455.03 222.11 454.70 C 226.33 451.36 229.65 446.98 234.41 444.32 C 242.68 437.95 253.01 435.42 262.95 432.92 C 267.88 431.65 273.00 432.13 278.03 432.13 C 285.80 432.04 292.98 435.56 300.62 436.46 C 306.03 437.02 311.09 439.40 316.58 439.52 C 328.05 440.25 340.58 441.12 350.71 434.63 C 359.53 427.77 366.02 416.15 363.13 404.77 C 360.75 396.73 355.95 389.67 351.06 382.96 Z" />
</g>
<g id="#e7e9eeff">
<path fill="#e7e9ee" opacity="1.00" d=" M 395.61 383.27 C 407.69 383.04 419.77 383.16 431.86 383.11 L 432.51 383.69 C 420.98 384.33 409.43 383.56 397.90 384.12 C 398.81 389.45 401.27 394.44 401.50 399.90 C 402.21 409.95 402.55 420.35 399.46 430.08 C 398.50 433.51 397.96 437.11 396.34 440.33 C 393.84 445.33 391.80 450.70 387.84 454.79 C 383.55 459.19 380.27 464.75 374.83 467.88 C 369.26 471.20 363.75 474.89 357.40 476.54 C 351.29 478.22 345.51 481.54 338.99 481.17 C 330.66 480.95 321.92 482.34 314.01 479.04 C 310.75 477.73 307.32 476.90 303.85 476.37 C 298.83 475.63 294.18 473.25 289.05 473.11 C 285.17 473.14 281.46 470.43 277.62 471.79 C 272.95 473.27 267.85 473.07 263.40 475.27 C 255.44 478.86 248.34 485.19 245.50 493.63 C 244.09 498.02 242.48 502.43 242.02 507.05 C 243.07 513.08 244.36 519.11 246.19 524.97 C 246.97 527.34 246.83 529.86 246.69 532.31 C 244.69 528.05 242.39 523.83 241.71 519.11 C 241.00 514.71 239.31 510.49 239.17 506.01 C 238.81 499.58 240.30 493.03 243.35 487.38 C 246.67 483.12 249.33 477.89 254.37 475.38 C 258.98 472.93 263.61 469.88 269.04 469.84 C 277.02 469.44 285.14 469.36 293.00 470.94 C 299.80 473.13 306.76 474.74 313.68 476.48 C 323.77 477.61 334.03 477.57 344.12 476.40 C 355.15 474.27 365.62 469.46 374.55 462.66 C 379.53 457.68 384.47 452.55 388.47 446.73 C 391.50 441.09 394.86 435.45 395.88 429.03 C 399.26 418.95 399.15 408.14 398.51 397.65 C 398.33 392.71 396.47 388.08 395.61 383.27 Z" />
</g>
<g id="#c6c8cdff">
<path fill="#c6c8cd" opacity="1.00" d=" M 126.85 399.25 C 127.55 403.43 127.09 407.67 126.77 411.88 C 126.38 416.64 126.46 421.43 126.14 426.20 C 126.03 426.58 125.79 427.35 125.68 427.74 C 124.26 428.13 122.84 428.52 121.43 428.93 L 119.71 429.43 C 120.13 424.40 121.34 419.50 122.81 414.69 C 123.83 409.46 125.17 404.30 126.85 399.25 Z" />
</g>
<g id="#fe5d81ff">
<path fill="#fe5d81" opacity="1.00" d=" M 212.67 407.66 C 213.02 406.44 213.38 405.23 213.73 404.01 C 214.14 407.92 212.71 412.76 215.97 415.77 C 216.25 431.33 216.04 446.91 216.12 462.48 C 216.06 463.05 215.93 464.19 215.86 464.76 C 215.30 464.79 214.17 464.84 213.60 464.87 C 187.14 464.79 160.66 465.02 134.20 464.76 C 128.06 463.43 123.60 468.52 118.13 470.14 C 113.78 471.42 109.66 473.65 105.07 473.95 C 100.66 474.34 96.19 474.25 91.84 473.43 C 91.46 473.27 90.71 472.96 90.34 472.80 C 89.64 472.05 88.93 471.32 88.21 470.61 C 89.18 469.61 89.48 467.60 91.07 467.36 C 96.65 466.53 100.82 462.30 106.32 461.18 C 110.15 460.35 113.72 455.42 117.66 458.24 C 117.95 457.68 118.24 457.13 118.53 456.60 C 120.29 455.96 122.06 455.33 123.82 454.69 C 124.11 454.95 124.68 455.48 124.97 455.74 C 129.43 452.65 134.91 451.55 139.30 448.36 C 141.68 447.93 144.12 447.56 146.33 446.50 C 146.65 446.20 147.29 445.59 147.61 445.29 C 147.81 444.18 147.99 443.07 148.14 441.96 C 149.28 440.78 150.62 439.78 152.15 439.19 C 152.69 439.10 153.76 438.94 154.29 438.85 C 161.63 437.53 168.07 433.45 175.18 431.36 C 177.77 430.61 180.18 429.41 182.45 427.99 C 181.53 427.80 179.69 427.42 178.77 427.23 C 181.03 426.06 184.28 425.74 185.36 423.15 C 183.21 422.85 181.05 422.73 178.89 422.61 C 181.18 421.61 183.45 420.57 185.65 419.37 L 185.69 419.34 C 185.99 418.00 186.22 416.64 186.47 415.30 C 195.99 415.98 203.41 408.41 212.67 407.66 M 173.88 440.00 C 174.30 446.54 173.30 453.24 174.95 459.65 C 176.39 456.30 176.00 452.59 176.04 449.04 C 175.94 443.21 176.42 437.38 175.86 431.57 C 172.95 433.36 174.10 437.15 173.88 440.00 M 149.39 446.21 C 148.24 446.71 147.29 448.38 148.10 449.53 C 149.90 450.24 152.29 445.58 149.39 446.21 M 138.32 456.71 C 140.86 456.15 142.95 454.50 144.99 452.98 C 141.84 452.39 141.04 456.00 138.32 456.71 Z" />
</g>
<g id="#fe6881ff">
<path fill="#fe6881" opacity="1.00" d=" M 112.94 418.18 C 116.47 417.68 119.26 415.15 122.81 414.69 C 121.34 419.50 120.13 424.40 119.71 429.43 C 117.09 430.22 114.42 431.43 112.74 433.67 C 111.49 435.70 113.31 437.90 113.84 439.87 C 116.68 436.42 117.61 431.54 121.43 428.93 C 122.84 428.52 124.26 428.13 125.68 427.74 C 125.79 427.35 126.03 426.58 126.14 426.20 C 127.81 424.67 129.80 423.56 131.97 422.96 C 131.25 426.71 137.35 424.65 133.77 422.47 C 135.11 421.93 136.40 421.28 137.66 420.59 C 139.15 421.95 141.10 423.00 142.03 424.87 C 144.26 431.90 145.47 439.19 146.33 446.50 C 144.12 447.56 141.68 447.93 139.30 448.36 C 134.91 451.55 129.43 452.65 124.97 455.74 C 124.68 455.48 124.11 454.95 123.82 454.69 C 122.06 455.33 120.29 455.96 118.53 456.60 C 118.24 457.13 117.95 457.68 117.66 458.24 C 113.72 455.42 110.15 460.35 106.32 461.18 C 100.82 462.30 96.65 466.53 91.07 467.36 C 89.48 467.60 89.18 469.61 88.21 470.61 C 85.29 469.67 84.19 466.69 82.98 464.17 C 81.50 460.97 81.38 457.38 80.85 453.95 C 80.99 448.70 80.94 443.45 80.97 438.20 C 81.16 435.26 81.36 432.33 81.61 429.40 C 85.55 429.12 89.33 427.87 92.63 425.70 C 95.58 423.70 99.11 423.09 102.56 422.60 C 106.46 422.19 109.09 418.70 112.94 418.18 Z" />
</g>
<g id="#cf5a76ff">
<path fill="#cf5a76" opacity="1.00" d=" M 148.17 415.25 C 148.90 415.15 150.35 414.96 151.08 414.86 C 151.06 415.70 151.01 417.39 150.99 418.23 C 149.69 417.51 147.28 417.32 148.17 415.25 Z" />
</g>
<g id="#dc5b79ff">
<path fill="#dc5b79" opacity="1.00" d=" M 137.66 420.59 C 140.12 419.04 142.86 418.05 145.67 417.35 C 144.68 419.10 143.68 420.84 142.66 422.57 C 143.43 422.73 144.98 423.05 145.75 423.21 C 144.78 429.54 146.03 435.99 148.14 441.96 C 147.99 443.07 147.81 444.18 147.61 445.29 C 147.29 445.59 146.65 446.20 146.33 446.50 C 145.47 439.19 144.26 431.90 142.03 424.87 C 141.10 423.00 139.15 421.95 137.66 420.59 Z" />
</g>
<g id="#e16d85ff">
<path fill="#e16d85" opacity="1.00" d=" M 150.67 423.05 C 150.71 421.71 150.18 419.63 152.13 419.48 C 151.27 426.11 154.98 432.19 154.29 438.85 C 153.76 438.94 152.69 439.10 152.15 439.19 C 152.25 433.76 151.16 428.43 150.67 423.05 Z" />
</g>
<g id="#d85e78ff">
<path fill="#d85e78" opacity="1.00" d=" M 131.97 422.96 C 132.42 422.84 133.32 422.59 133.77 422.47 C 137.35 424.65 131.25 426.71 131.97 422.96 Z" />
</g>
<g id="#cf5875ff">
<path fill="#cf5875" opacity="1.00" d=" M 112.74 433.67 C 114.42 431.43 117.09 430.22 119.71 429.43 L 121.43 428.93 C 117.61 431.54 116.68 436.42 113.84 439.87 C 113.31 437.90 111.49 435.70 112.74 433.67 Z" />
</g>
<g id="#df5279ff">
<path fill="#df5279" opacity="1.00" d=" M 173.88 440.00 C 174.10 437.15 172.95 433.36 175.86 431.57 C 176.42 437.38 175.94 443.21 176.04 449.04 C 176.00 452.59 176.39 456.30 174.95 459.65 C 173.30 453.24 174.30 446.54 173.88 440.00 Z" />
</g>
<g id="#f7d9e1ff">
<path fill="#f7d9e1" opacity="1.00" d=" M 79.02 441.86 C 79.12 440.41 80.25 439.35 80.97 438.20 C 80.94 443.45 80.99 448.70 80.85 453.95 C 78.18 450.51 78.61 445.92 79.02 441.86 Z" />
</g>
<g id="#d45179ff">
<path fill="#d45179" opacity="1.00" d=" M 149.39 446.21 C 152.29 445.58 149.90 450.24 148.10 449.53 C 147.29 448.38 148.24 446.71 149.39 446.21 Z" />
</g>
<g id="#f2f4f4ff">
<path fill="#f2f4f4" opacity="1.00" d=" M 56.02 450.98 C 60.20 450.68 65.91 452.48 68.35 447.92 C 69.00 447.97 70.29 448.07 70.94 448.11 C 71.05 476.08 70.92 504.05 71.05 532.02 C 71.03 533.97 70.95 535.91 70.87 537.86 C 65.96 538.13 61.05 538.08 56.14 537.84 C 55.84 515.89 56.22 493.94 56.01 471.99 C 56.05 470.84 56.15 469.69 56.33 468.56 C 57.40 463.29 57.44 457.84 56.32 452.57 C 56.24 452.17 56.09 451.38 56.02 450.98 Z" />
</g>
<g id="#dbdbdcff">
<path fill="#dbdbdc" opacity="1.00" d=" M 56.32 452.57 C 57.44 457.84 57.40 463.29 56.33 468.56 C 55.50 463.27 55.48 457.86 56.32 452.57 Z" />
</g>
<g id="#cdaab1ff">
<path fill="#cdaab1" opacity="1.00" d=" M 216.12 462.48 C 218.24 460.45 220.24 458.29 222.11 456.02 C 222.18 461.42 222.09 466.82 221.50 472.19 C 220.78 478.53 223.37 484.51 224.45 490.64 C 225.26 496.82 227.68 502.69 227.88 508.97 C 227.89 513.97 231.19 518.06 231.81 522.91 C 232.29 526.02 232.58 529.16 232.97 532.28 C 231.26 532.32 229.55 532.37 227.85 532.41 C 227.51 529.67 227.12 526.94 226.59 524.23 C 223.98 519.18 225.10 513.17 223.19 507.89 C 221.20 502.54 221.67 496.68 219.83 491.30 C 218.39 486.92 218.28 482.27 217.37 477.79 C 216.45 475.72 215.93 473.51 215.38 471.34 C 214.53 469.26 214.04 467.05 213.60 464.87 C 214.17 464.84 215.30 464.79 215.86 464.76 C 215.93 464.19 216.06 463.05 216.12 462.48 Z" />
</g>
<g id="#352768ff">
<path fill="#352768" opacity="1.00" d=" M 144.39 478.53 C 145.34 476.50 145.91 474.31 146.99 472.35 C 149.55 473.60 147.40 476.54 146.56 478.26 C 145.34 481.28 143.05 483.91 139.65 484.37 C 140.18 481.68 142.82 480.50 144.39 478.53 Z" />
</g>
<g id="#3e2f72ff">
<path fill="#3e2f72" opacity="1.00" d=" M 205.23 474.08 C 206.85 473.58 207.40 474.15 206.88 475.79 C 205.25 476.27 204.70 475.70 205.23 474.08 Z" />
</g>
<g id="#9992b0ff">
<path fill="#9992b0" opacity="1.00" d=" M 135.22 495.84 C 135.64 495.65 136.48 495.26 136.90 495.07 C 136.95 497.33 137.00 499.60 136.99 501.86 C 136.47 501.88 135.43 501.91 134.91 501.92 C 134.94 499.89 135.06 497.86 135.22 495.84 Z" />
</g>
<g id="#c8c5d7ff">
<path fill="#c8c5d7" opacity="1.00" d=" M 134.91 501.92 C 135.43 501.91 136.47 501.88 136.99 501.86 C 136.97 503.85 136.93 505.84 136.91 507.85 C 135.20 506.33 134.90 504.07 134.91 501.92 Z" />
</g>
<g id="#342567ff">
<path fill="#342567" opacity="1.00" d=" M 205.03 504.56 C 205.43 504.77 206.23 505.18 206.63 505.38 C 207.60 510.09 207.12 515.16 209.29 519.59 C 210.49 521.89 210.30 524.56 209.98 527.06 C 209.60 526.98 208.83 526.81 208.45 526.73 C 207.31 522.44 207.52 517.88 206.52 513.54 C 204.10 511.17 205.10 507.56 205.03 504.56 Z" />
</g>
</svg>
