<?xml version="1.0" encoding="UTF-8" ?>
<!DOCTYPE svg PUBLIC "-//W3C//DTD SVG 1.1//EN" "http://www.w3.org/Graphics/SVG/1.1/DTD/svg11.dtd">
<svg width="617pt" height="334pt" viewBox="0 0 617 334" version="1.1" xmlns="http://www.w3.org/2000/svg">
<g id="#b00ed8ff">
<path fill="#b00ed8" opacity="1.00" d=" M 425.57 0.00 L 446.43 0.00 C 460.40 2.77 473.78 10.07 482.75 21.28 C 491.67 32.04 496.27 46.11 496.34 60.01 C 495.99 74.02 491.21 88.20 481.77 98.72 C 475.96 106.27 467.61 111.25 459.07 115.16 C 453.98 117.31 448.54 118.75 443.03 119.20 C 434.41 119.62 425.58 119.67 417.31 116.84 C 402.63 111.76 389.49 101.40 382.53 87.33 C 376.70 75.86 374.20 62.52 376.54 49.79 C 378.86 35.16 386.81 21.58 398.30 12.27 C 406.38 6.32 415.66 1.80 425.57 0.00 M 412.15 18.89 C 412.02 24.48 411.17 30.01 410.49 35.55 C 409.26 44.44 408.57 53.39 407.18 62.26 C 412.37 63.77 417.69 64.73 422.93 66.06 C 427.15 61.67 433.76 60.87 439.36 62.71 C 444.46 64.87 445.61 70.94 445.63 75.90 C 445.40 79.19 444.92 82.55 443.50 85.57 C 440.72 90.81 432.70 91.50 428.71 87.29 C 426.66 85.42 426.23 82.54 425.57 79.99 C 418.97 79.74 412.37 79.82 405.78 79.93 C 405.29 88.90 411.35 96.91 418.96 101.04 C 426.10 105.10 434.65 105.82 442.66 104.68 C 450.12 103.14 457.42 99.03 461.27 92.26 C 465.67 85.20 465.77 76.49 464.56 68.51 C 463.48 61.90 459.98 55.35 454.04 51.92 C 445.97 46.79 435.40 46.73 426.85 50.74 C 427.68 45.19 427.86 39.56 428.85 34.04 C 440.22 34.05 451.59 34.16 462.96 34.00 C 463.04 28.96 463.04 23.92 462.96 18.88 C 446.02 18.73 429.09 18.72 412.15 18.89 Z" />
<path fill="#b00ed8" opacity="1.00" d=" M 252.60 334.00 C 252.64 265.98 252.42 197.96 252.71 129.94 C 252.53 167.63 252.69 205.31 252.64 243.00 C 252.73 273.10 252.45 303.21 252.77 333.31 C 268.25 333.65 283.74 333.60 299.22 333.34 C 299.63 313.79 299.07 294.23 299.49 274.68 C 299.71 274.91 300.14 275.39 300.35 275.62 C 299.93 279.07 299.51 282.52 299.55 286.00 C 299.69 302.00 299.58 318.00 299.62 334.00 L 252.60 334.00 Z" />
</g>
<g id="#2f183356">
<path fill="#2f1833" opacity="0.34" d=" M 569.03 61.02 C 585.02 60.83 601.01 60.97 617.00 60.98 L 617.00 285.01 C 606.59 284.82 596.17 285.45 585.78 284.68 C 595.81 283.82 605.88 284.59 615.93 284.08 C 615.99 210.06 615.99 136.04 615.93 62.02 C 609.62 61.76 603.31 61.92 597.00 62.02 C 588.01 62.17 579.02 61.63 570.04 62.03 C 569.77 87.79 570.06 113.55 569.92 139.32 C 569.52 139.04 568.72 138.50 568.31 138.23 C 569.46 130.20 568.88 122.08 568.97 114.00 C 569.05 96.34 568.87 78.68 569.03 61.02 Z" />
<path fill="#2f1833" opacity="0.34" d=" M 76.90 127.77 C 78.40 126.63 80.32 126.34 82.09 126.96 C 80.67 128.27 78.66 128.54 76.90 127.77 Z" />
<path fill="#2f1833" opacity="0.34" d=" M 88.91 126.98 C 90.67 126.37 92.59 126.59 94.14 127.65 C 92.40 128.52 90.36 128.28 88.91 126.98 Z" />
<path fill="#2f1833" opacity="0.34" d=" M 163.69 127.99 C 166.38 126.49 169.48 127.03 172.39 127.25 C 169.50 127.57 166.59 127.78 163.69 127.99 Z" />
<path fill="#2f1833" opacity="0.34" d=" M 185.21 127.43 C 186.42 125.96 190.37 125.94 190.65 128.07 C 188.82 128.06 187.00 127.83 185.21 127.43 Z" />
<path fill="#2f1833" opacity="0.34" d=" M 332.88 127.82 C 334.01 126.68 335.65 126.37 337.13 127.01 C 336.04 128.23 334.34 128.52 332.88 127.82 Z" />
<path fill="#2f1833" opacity="0.34" d=" M 539.94 127.02 C 542.01 126.40 544.22 126.60 546.11 127.70 C 544.04 128.57 541.74 128.36 539.94 127.02 Z" />
<path fill="#2f1833" opacity="0.34" d=" M 456.98 130.03 L 458.00 129.97 C 458.10 181.65 458.10 233.32 458.00 285.00 C 444.66 285.10 431.32 284.91 417.99 285.08 C 415.48 285.11 412.97 284.88 410.49 284.56 L 411.36 284.49 C 426.54 283.81 441.76 284.66 456.94 284.09 C 457.05 232.74 456.94 181.38 456.98 130.03 Z" />
<path fill="#2f1833" opacity="0.34" d=" M 539.70 161.92 C 543.65 160.26 548.01 161.13 552.16 161.14 L 552.04 162.13 C 547.93 161.95 543.81 161.90 539.70 161.92 Z" />
<path fill="#2f1833" opacity="0.34" d=" M 166.57 162.72 C 170.14 162.14 173.79 162.08 177.36 162.71 C 173.76 162.82 170.16 162.84 166.57 162.72 Z" />
<path fill="#2f1833" opacity="0.34" d=" M 322.90 162.21 C 326.33 162.08 329.81 161.97 333.15 162.86 C 329.77 162.76 326.38 162.85 323.01 163.06 L 322.90 162.21 Z" />
<path fill="#2f1833" opacity="0.34" d=" M 69.76 170.88 C 73.54 169.98 77.46 170.18 81.25 170.90 C 77.42 170.73 73.59 170.72 69.76 170.88 Z" />
<path fill="#2f1833" opacity="0.34" d=" M 569.30 171.36 L 569.38 170.55 C 570.31 175.99 569.90 181.52 569.94 187.00 C 569.94 199.34 569.93 211.67 569.94 224.00 C 569.90 228.84 570.37 233.75 569.22 238.50 L 569.16 237.56 C 568.74 223.04 569.10 208.52 568.98 194.00 C 569.15 186.46 568.58 178.89 569.30 171.36 Z" />
<path fill="#2f1833" opacity="0.34" d=" M 299.69 175.60 L 299.76 176.45 C 300.51 198.56 299.58 220.73 300.20 242.85 L 299.13 242.94 C 298.98 223.96 299.19 204.98 299.05 186.00 C 298.94 182.52 299.08 179.03 299.69 175.60 Z" />
<path fill="#2f1833" opacity="0.34" d=" M 194.26 181.58 C 195.10 185.99 195.14 190.50 195.00 194.98 C 192.57 194.93 190.15 194.86 187.73 194.86 C 189.70 194.12 191.79 193.84 193.88 193.64 C 193.92 189.62 193.99 185.59 194.26 181.58 Z" />
<path fill="#2f1833" opacity="0.34" d=" M 45.99 207.00 C 46.11 200.97 45.19 194.76 46.97 188.88 C 47.10 220.91 47.13 252.95 46.98 284.98 C 31.32 285.10 15.66 284.96 0.00 285.02 L 0.00 284.14 C 15.31 284.28 30.63 284.43 45.93 284.09 C 46.08 258.40 45.92 232.70 45.99 207.00 Z" />
<path fill="#2f1833" opacity="0.34" d=" M 469.00 195.04 C 468.39 192.95 468.59 190.74 469.74 188.88 C 470.57 190.95 470.34 193.24 469.00 195.04 Z" />
<path fill="#2f1833" opacity="0.34" d=" M 517.46 193.78 C 515.92 192.89 516.18 189.31 518.18 189.36 C 518.18 190.86 517.92 192.35 517.46 193.78 Z" />
<path fill="#2f1833" opacity="0.34" d=" M 351.95 190.70 C 353.42 193.73 352.88 197.14 352.69 200.37 C 352.31 197.16 352.12 193.93 351.95 190.70 Z" />
<path fill="#2f1833" opacity="0.34" d=" M 400.34 192.69 C 400.57 195.56 400.69 198.43 400.75 201.31 C 400.67 198.43 400.53 195.56 400.34 192.69 Z" />
<path fill="#2f1833" opacity="0.34" d=" M 172.49 196.25 C 175.46 194.31 179.06 195.09 182.37 195.25 C 179.08 195.59 175.78 195.86 172.49 196.25 Z" />
<path fill="#2f1833" opacity="0.34" d=" M 166.33 197.08 C 166.57 194.96 170.50 194.90 171.68 196.39 C 169.92 196.81 168.14 197.09 166.33 197.08 Z" />
<path fill="#2f1833" opacity="0.34" d=" M 515.97 206.01 C 515.89 202.85 515.92 199.65 516.88 196.61 C 516.89 204.33 517.30 212.05 516.79 219.75 L 516.72 220.72 C 515.64 215.89 516.10 210.92 515.97 206.01 Z" />
<path fill="#2f1833" opacity="0.34" d=" M 468.69 219.40 C 467.64 212.16 467.55 204.79 468.74 197.57 C 468.87 204.84 468.87 212.12 468.69 219.40 Z" />
<path fill="#2f1833" opacity="0.34" d=" M 400.20 220.32 C 400.34 216.78 400.50 213.23 400.76 209.69 C 400.83 213.24 400.76 216.81 400.20 220.32 Z" />
<path fill="#2f1833" opacity="0.34" d=" M 351.89 221.31 C 352.06 218.08 352.27 214.85 352.68 211.65 C 352.81 214.86 353.73 218.39 351.89 221.31 Z" />
<path fill="#2f1833" opacity="0.34" d=" M 180.71 223.04 C 183.41 221.64 186.50 222.14 189.40 222.36 C 186.51 222.61 183.61 222.84 180.71 223.04 Z" />
<path fill="#2f1833" opacity="0.34" d=" M 194.28 222.13 L 194.40 221.20 C 195.37 228.88 195.48 236.78 194.33 244.45 L 194.25 243.60 C 193.75 236.46 193.63 229.26 194.28 222.13 Z" />
<path fill="#2f1833" opacity="0.34" d=" M 469.05 222.95 C 470.32 224.80 470.54 227.08 469.81 229.20 C 468.59 227.31 468.39 225.06 469.05 222.95 Z" />
<path fill="#2f1833" opacity="0.34" d=" M 470.00 230.76 C 471.17 231.90 471.50 233.59 470.84 235.09 C 469.68 233.93 469.36 232.26 470.00 230.76 Z" />
<path fill="#2f1833" opacity="0.34" d=" M 148.97 247.26 C 147.37 244.31 147.84 240.88 148.91 237.85 C 148.84 240.98 148.88 244.12 148.97 247.26 Z" />
<path fill="#2f1833" opacity="0.34" d=" M 536.03 250.84 C 539.77 251.05 543.52 251.11 547.27 251.05 C 543.67 252.49 539.77 251.98 536.02 251.83 L 536.03 250.84 Z" />
<path fill="#2f1833" opacity="0.34" d=" M 159.69 256.03 C 163.88 256.05 168.06 256.07 172.25 256.03 C 168.20 257.29 163.69 257.68 159.69 256.03 Z" />
<path fill="#2f1833" opacity="0.34" d=" M 211.33 283.87 C 212.53 283.85 213.71 284.10 214.83 284.55 C 214.28 286.20 211.04 285.71 211.33 283.87 Z" />
<path fill="#2f1833" opacity="0.34" d=" M 138.29 285.91 C 139.51 285.82 140.71 286.10 141.83 286.59 C 141.22 288.15 138.04 287.71 138.29 285.91 Z" />
<path fill="#2f1833" opacity="0.34" d=" M 144.58 287.15 C 148.82 287.08 153.05 287.03 157.29 287.06 C 153.23 288.56 148.64 288.72 144.58 287.15 Z" />
<path fill="#2f1833" opacity="0.34" d=" M 328.61 287.29 C 332.53 287.18 336.46 287.18 340.39 287.27 C 336.50 288.07 332.50 288.08 328.61 287.29 Z" />
<path fill="#2f1833" opacity="0.34" d=" M 519.59 287.28 C 523.18 287.27 526.78 287.26 530.38 287.27 C 526.81 287.95 523.15 288.00 519.59 287.28 Z" />
</g>
<g id="#000000ff">
<path fill="#000000" opacity="1.00" d=" M 570.04 62.03 C 579.02 61.63 588.01 62.17 597.00 62.02 C 603.31 61.92 609.62 61.76 615.93 62.02 C 615.99 136.04 615.99 210.06 615.93 284.08 C 605.88 284.59 595.81 283.82 585.78 284.68 C 582.40 284.53 578.80 283.06 577.20 279.90 C 574.98 275.50 574.05 270.59 572.52 265.93 C 566.90 270.54 561.81 275.90 555.36 279.39 C 547.78 283.94 539.08 286.15 530.38 287.27 C 526.78 287.26 523.18 287.27 519.59 287.28 C 509.44 285.99 499.53 281.99 491.95 275.02 C 480.48 264.68 474.18 249.90 470.84 235.09 C 471.50 233.59 471.17 231.90 470.00 230.76 C 469.95 230.37 469.85 229.59 469.81 229.20 C 470.54 227.08 470.32 224.80 469.05 222.95 C 468.92 221.76 468.80 220.58 468.69 219.40 C 468.87 212.12 468.87 204.84 468.74 197.57 C 468.80 196.94 468.94 195.67 469.00 195.04 C 470.34 193.24 470.57 190.95 469.74 188.88 C 473.06 170.45 481.36 152.16 496.23 140.24 C 508.32 130.21 524.38 125.79 539.94 127.02 C 541.74 128.36 544.04 128.57 546.11 127.70 C 554.24 129.42 561.63 133.39 568.31 138.23 C 568.72 138.50 569.52 139.04 569.92 139.32 C 570.06 113.55 569.77 87.79 570.04 62.03 M 539.70 161.92 C 526.88 163.99 519.38 177.40 518.18 189.36 C 516.18 189.31 515.92 192.89 517.46 193.78 C 517.31 194.49 517.03 195.91 516.88 196.61 C 515.92 199.65 515.89 202.85 515.97 206.01 C 516.10 210.92 515.64 215.89 516.72 220.72 L 516.79 219.75 C 517.39 227.68 519.13 235.77 523.41 242.58 C 526.17 246.94 530.73 250.53 536.03 250.84 L 536.02 251.83 C 539.77 251.98 543.67 252.49 547.27 251.05 C 556.03 249.84 563.85 244.49 569.16 237.56 L 569.22 238.50 C 570.37 233.75 569.90 228.84 569.94 224.00 C 569.93 211.67 569.94 199.34 569.94 187.00 C 569.90 181.52 570.31 175.99 569.38 170.55 L 569.30 171.36 C 564.77 166.55 558.85 162.45 552.04 162.13 L 552.16 161.14 C 548.01 161.13 543.65 160.26 539.70 161.92 Z" />
<path fill="#000000" opacity="1.00" d=" M 82.09 126.96 C 84.36 126.96 86.64 126.97 88.91 126.98 C 90.36 128.28 92.40 128.52 94.14 127.65 C 97.17 128.85 100.09 130.28 102.90 131.92 C 101.06 142.42 99.15 152.91 97.44 163.44 C 96.74 166.24 96.46 170.06 93.36 171.29 C 89.41 172.60 85.24 171.39 81.25 170.90 C 77.46 170.18 73.54 169.98 69.76 170.88 C 59.77 172.72 51.73 180.22 46.97 188.88 C 45.19 194.76 46.11 200.97 45.99 207.00 C 45.92 232.70 46.08 258.40 45.93 284.09 C 30.63 284.43 15.31 284.28 0.00 284.14 L 0.00 129.99 C 9.69 130.08 19.39 129.81 29.07 130.03 C 33.08 130.09 37.86 131.30 39.47 135.45 C 41.83 141.49 41.95 148.11 43.67 154.33 C 48.63 148.13 53.33 141.59 59.65 136.67 C 64.65 132.42 70.68 129.66 76.90 127.77 C 78.66 128.54 80.67 128.27 82.09 126.96 Z" />
<path fill="#000000" opacity="1.00" d=" M 172.39 127.25 C 176.65 126.75 180.99 126.54 185.21 127.43 C 187.00 127.83 188.82 128.06 190.65 128.07 C 202.18 129.03 213.16 134.57 221.65 142.32 C 233.58 153.40 239.43 169.88 239.70 185.94 C 239.71 218.92 239.63 251.90 239.74 284.87 C 231.45 284.86 223.07 285.60 214.83 284.55 C 213.71 284.10 212.53 283.85 211.33 283.87 C 208.13 283.88 205.69 281.37 204.31 278.72 C 202.45 275.12 201.23 271.23 199.37 267.63 C 193.88 271.76 188.63 276.27 182.58 279.58 C 174.85 283.92 166.15 286.57 157.29 287.06 C 153.05 287.03 148.82 287.08 144.58 287.15 C 143.89 287.01 142.52 286.73 141.83 286.59 C 140.71 286.10 139.51 285.82 138.29 285.91 C 128.21 285.04 118.51 279.68 112.26 271.73 C 101.81 257.74 100.83 236.64 111.37 222.41 C 119.63 211.44 132.60 205.42 145.39 201.41 C 152.22 199.41 159.16 197.26 166.33 197.08 C 168.14 197.09 169.92 196.81 171.68 196.39 L 172.49 196.25 C 175.78 195.86 179.08 195.59 182.37 195.25 C 184.15 195.07 185.93 194.90 187.73 194.86 C 190.15 194.86 192.57 194.93 195.00 194.98 C 195.14 190.50 195.10 185.99 194.26 181.58 C 193.37 177.09 192.20 172.42 189.17 168.86 C 186.21 165.37 181.73 163.63 177.36 162.71 C 173.79 162.08 170.14 162.14 166.57 162.72 C 160.38 163.70 154.51 166.06 149.04 169.06 C 143.80 171.92 138.10 174.74 131.95 174.17 C 127.05 174.03 122.69 170.98 120.14 166.92 C 116.97 161.82 113.99 156.60 111.22 151.28 C 125.90 138.57 144.33 130.07 163.69 127.99 C 166.59 127.78 169.50 127.57 172.39 127.25 M 180.71 223.04 C 173.33 223.70 165.96 225.20 159.12 228.08 C 154.69 229.94 150.51 233.16 148.91 237.85 C 147.84 240.88 147.37 244.31 148.97 247.26 C 149.88 252.34 154.84 255.52 159.69 256.03 C 163.69 257.68 168.20 257.29 172.25 256.03 C 180.89 254.89 188.16 249.51 194.25 243.60 L 194.33 244.45 C 195.48 236.78 195.37 228.88 194.40 221.20 L 194.28 222.13 C 192.65 222.18 191.03 222.23 189.40 222.36 C 186.50 222.14 183.41 221.64 180.71 223.04 Z" />
<path fill="#000000" opacity="1.00" d=" M 337.13 127.01 C 343.91 126.82 350.83 126.67 357.44 128.50 C 368.88 131.43 378.75 138.97 385.49 148.55 C 394.56 161.45 398.92 177.13 400.34 192.69 C 400.53 195.56 400.67 198.43 400.75 201.31 C 400.81 204.10 400.80 206.89 400.76 209.69 C 400.50 213.23 400.34 216.78 400.20 220.32 C 397.77 238.46 390.75 256.54 377.64 269.65 C 367.77 279.68 354.36 285.84 340.39 287.27 C 336.46 287.18 332.53 287.18 328.61 287.29 C 318.24 286.33 308.40 282.19 300.35 275.62 C 300.14 275.39 299.71 274.91 299.49 274.68 C 299.07 294.23 299.63 313.79 299.22 333.34 C 283.74 333.60 268.25 333.65 252.77 333.31 C 252.45 303.21 252.73 273.10 252.64 243.00 C 252.69 205.31 252.53 167.63 252.71 129.94 C 262.17 130.04 271.62 129.90 281.08 129.96 C 284.96 129.96 289.40 130.86 291.59 134.43 C 294.06 138.73 294.93 143.71 296.71 148.32 C 301.95 143.64 307.05 138.69 313.20 135.21 C 319.25 131.56 326.02 129.36 332.88 127.82 C 334.34 128.52 336.04 128.23 337.13 127.01 M 322.90 162.21 L 323.01 163.06 C 313.59 163.59 305.75 169.60 299.76 176.45 L 299.69 175.60 C 299.08 179.03 298.94 182.52 299.05 186.00 C 299.19 204.98 298.98 223.96 299.13 242.94 L 300.20 242.85 C 302.25 246.63 306.63 248.74 310.41 250.58 C 319.80 254.23 331.56 254.29 339.70 247.71 C 347.32 241.17 350.76 231.01 351.89 221.31 C 353.73 218.39 352.81 214.86 352.68 211.65 C 353.16 207.90 353.14 204.11 352.69 200.37 C 352.88 197.14 353.42 193.73 351.95 190.70 C 351.23 183.69 349.28 176.60 345.30 170.71 C 342.55 166.54 337.97 163.89 333.15 162.86 C 329.81 161.97 326.33 162.08 322.90 162.21 Z" />
<path fill="#000000" opacity="1.00" d=" M 411.20 130.09 C 426.46 129.87 441.72 130.00 456.98 130.03 C 456.94 181.38 457.05 232.74 456.94 284.09 C 441.76 284.66 426.54 283.81 411.36 284.49 C 411.03 233.03 411.37 181.56 411.20 130.09 Z" />
</g>
</svg>
