<?xml version="1.0" encoding="UTF-8" ?>
<!DOCTYPE svg PUBLIC "-//W3C//DTD SVG 1.1//EN" "http://www.w3.org/Graphics/SVG/1.1/DTD/svg11.dtd">
<svg width="200pt" height="108pt" viewBox="0 0 200 108" version="1.1" xmlns="http://www.w3.org/2000/svg">
<g id="#a147a1ff">
<path fill="#a147a1" opacity="1.00" d=" M 135.66 0.00 L 145.17 0.00 C 155.10 2.27 161.96 12.89 159.95 22.86 C 158.24 31.64 150.17 38.99 141.04 38.85 C 130.20 39.76 120.17 29.81 120.64 19.03 C 120.37 10.15 127.15 2.08 135.66 0.00 M 133.29 6.72 C 132.89 11.09 132.23 15.42 131.84 19.79 C 133.33 20.08 134.82 20.37 136.31 20.65 C 138.04 19.80 139.99 18.94 141.89 19.91 C 143.98 22.16 143.83 27.42 140.15 27.86 C 138.39 27.85 137.82 26.07 136.91 24.90 C 134.97 24.86 133.03 24.84 131.09 24.83 C 131.84 30.97 139.16 33.99 144.43 31.43 C 150.10 29.00 150.63 19.84 145.51 16.58 C 143.23 15.15 140.44 15.50 137.92 15.84 C 137.99 14.33 138.05 12.81 138.13 11.30 C 141.49 11.30 144.84 11.30 148.20 11.28 C 148.20 9.77 148.21 8.26 148.21 6.75 C 143.24 6.72 138.26 6.74 133.29 6.72 Z" />
</g>
<g id="#ffffffff">
<path fill="#ffffff" opacity="1.00" d=" M 133.29 6.72 C 138.26 6.74 143.24 6.72 148.21 6.75 C 148.21 8.26 148.20 9.77 148.20 11.28 C 144.84 11.30 141.49 11.30 138.13 11.30 C 138.05 12.81 137.99 14.33 137.92 15.84 C 140.44 15.50 143.23 15.15 145.51 16.58 C 150.63 19.84 150.10 29.00 144.43 31.43 C 139.16 33.99 131.84 30.97 131.09 24.83 C 133.03 24.84 134.97 24.86 136.91 24.90 C 137.82 26.07 138.39 27.85 140.15 27.86 C 143.83 27.42 143.98 22.16 141.89 19.91 C 139.99 18.94 138.04 19.80 136.31 20.65 C 134.82 20.37 133.33 20.08 131.84 19.79 C 132.23 15.42 132.89 11.09 133.29 6.72 Z" />
</g>
<g id="#000000ff">
<path fill="#000000" opacity="1.00" d=" M 184.84 19.74 C 189.89 19.74 194.94 19.73 200.00 19.74 L 200.00 92.14 C 196.35 92.11 192.66 92.47 189.05 91.83 C 186.70 91.00 186.69 87.95 185.73 86.02 C 181.32 90.43 175.28 93.53 168.90 92.84 C 162.00 92.47 156.48 86.96 154.25 80.70 C 150.99 71.64 150.99 61.06 155.40 52.37 C 158.82 45.46 166.27 40.61 174.08 41.01 C 178.05 40.87 181.62 42.81 184.90 44.82 C 184.78 36.46 184.87 28.10 184.84 19.74 M 168.97 57.97 C 167.13 63.11 167.26 68.80 168.17 74.13 C 168.75 77.55 171.03 81.40 174.96 81.32 C 178.86 81.76 182.37 79.66 184.88 76.86 C 184.79 69.61 184.85 62.36 184.85 55.11 C 182.57 53.38 179.94 51.85 176.97 52.12 C 173.30 51.91 170.10 54.60 168.97 57.97 Z" />
<path fill="#000000" opacity="1.00" d=" M 14.13 49.98 C 17.12 46.05 20.76 41.89 25.94 41.15 C 28.53 40.60 31.05 41.54 33.44 42.42 C 32.53 46.61 32.35 50.99 30.85 55.02 C 29.00 55.84 26.89 55.16 24.94 55.27 C 20.07 54.64 14.63 58.82 15.04 63.94 C 15.06 73.34 15.09 82.75 15.06 92.15 C 10.04 92.16 5.02 92.16 0.00 92.16 L 0.00 42.02 C 3.87 42.13 7.86 41.52 11.63 42.50 C 13.78 44.24 13.43 47.52 14.13 49.98 Z" />
<path fill="#000000" opacity="1.00" d=" M 36.07 48.90 C 43.70 42.38 54.44 39.50 64.25 41.80 C 72.01 43.68 77.48 51.17 77.72 59.03 C 77.90 70.07 77.77 81.12 77.77 92.16 C 74.57 92.08 71.30 92.49 68.15 91.74 C 66.01 90.94 65.75 88.25 64.74 86.49 C 58.45 92.41 48.82 94.90 40.76 91.25 C 32.75 87.74 31.33 75.49 37.96 69.95 C 44.94 64.17 54.46 63.22 63.18 62.84 C 63.01 59.67 63.37 55.69 60.38 53.64 C 56.70 51.50 52.10 52.63 48.57 54.53 C 46.12 55.76 43.02 57.30 40.46 55.47 C 38.43 53.74 37.45 51.12 36.07 48.90 M 50.39 74.38 C 47.25 76.00 47.30 81.81 51.02 82.64 C 55.44 83.86 59.90 81.92 63.10 78.91 C 63.09 76.51 63.09 74.11 63.09 71.70 C 58.80 72.10 54.22 72.15 50.39 74.38 Z" />
<path fill="#000000" opacity="1.00" d=" M 105.95 42.15 C 109.22 41.64 112.59 40.55 115.89 41.50 C 120.59 42.69 124.41 46.21 126.60 50.46 C 130.04 57.09 130.69 64.87 129.71 72.19 C 128.60 79.66 124.58 87.15 117.69 90.73 C 111.24 94.17 102.98 93.52 97.17 89.06 C 97.28 95.37 97.21 101.69 97.22 108.00 L 82.07 108.00 C 82.07 86.01 82.07 64.01 82.07 42.02 C 85.70 42.04 89.36 41.72 92.97 42.27 C 95.33 43.01 95.37 46.05 96.31 47.95 C 99.13 45.49 102.07 42.70 105.95 42.15 M 97.18 57.11 C 97.27 64.33 97.22 71.56 97.22 78.78 C 100.94 82.20 107.55 83.29 111.20 79.23 C 114.81 74.75 114.75 68.55 114.44 63.09 C 114.06 59.51 113.34 55.10 109.86 53.21 C 105.32 51.27 100.14 53.45 97.18 57.11 Z" />
<path fill="#000000" opacity="1.00" d=" M 133.42 42.05 C 138.45 41.97 143.48 42.02 148.52 42.00 C 148.52 58.72 148.53 75.43 148.51 92.15 C 143.53 92.17 138.55 92.11 133.57 92.22 C 133.28 75.51 133.57 58.78 133.42 42.05 Z" />
</g>
</svg>
