<?xml version="1.0" encoding="UTF-8" ?>
<!DOCTYPE svg PUBLIC "-//W3C//DTD SVG 1.1//EN" "http://www.w3.org/Graphics/SVG/1.1/DTD/svg11.dtd">
<svg width="401pt" height="219pt" viewBox="0 0 401 219" version="1.1" xmlns="http://www.w3.org/2000/svg">
<g id="#ffffffff">
<path fill="#ffffff" opacity="1.00" d=" M 274.46 0.00 L 293.54 0.00 C 308.34 3.64 320.23 16.70 322.63 31.75 C 324.66 40.39 322.16 49.43 318.31 57.20 C 312.98 65.97 304.60 73.25 294.49 75.77 C 284.43 79.20 273.23 77.15 264.11 72.05 C 255.01 67.42 248.60 58.46 245.98 48.72 C 242.70 37.80 245.04 25.68 251.13 16.18 C 256.18 7.82 265.04 2.16 274.46 0.00 M 269.06 15.04 C 268.66 22.98 266.60 30.78 266.96 38.76 C 269.96 39.46 272.95 40.22 275.92 41.08 C 277.84 39.91 279.64 38.11 282.00 37.96 C 285.15 38.49 289.09 40.28 289.02 44.06 C 289.73 47.80 288.27 51.29 285.90 54.11 C 284.03 54.06 282.15 54.08 280.30 53.81 C 278.66 52.31 278.29 50.00 277.57 48.01 C 273.67 48.00 269.76 48.01 265.86 48.01 C 266.09 50.35 265.65 52.94 266.98 55.03 C 270.06 59.90 275.41 63.11 281.07 63.96 C 287.39 64.72 294.22 62.24 298.23 57.23 C 301.54 52.61 301.35 46.58 300.82 41.18 C 299.68 37.76 298.20 33.97 294.88 32.11 C 290.27 28.63 284.08 29.96 278.79 30.66 C 278.93 27.74 279.23 24.82 279.98 21.99 C 286.65 22.02 293.33 21.98 300.01 22.00 C 299.99 18.67 299.99 15.34 300.01 12.00 C 290.38 12.07 280.74 11.87 271.12 12.06 C 269.55 11.91 268.98 13.80 269.06 15.04 Z" />
<path fill="#ffffff" opacity="1.00" d=" M 369.82 41.81 C 380.20 41.89 390.70 40.83 401.00 42.42 L 401.00 187.52 C 393.80 187.99 386.51 188.36 379.32 187.63 C 373.98 186.60 373.49 180.17 371.87 175.98 C 366.63 180.66 361.01 185.21 354.22 187.40 C 344.73 190.55 333.66 190.40 324.92 185.17 C 317.43 181.01 312.29 173.65 308.96 165.93 C 303.06 150.99 301.99 134.06 306.40 118.58 C 309.69 107.07 316.51 96.12 327.05 90.00 C 335.24 84.78 345.35 83.72 354.81 85.00 C 360.28 85.99 365.18 88.80 369.78 91.80 C 369.62 75.14 369.55 58.47 369.82 41.81 M 349.36 108.55 C 340.73 110.99 337.67 120.67 336.70 128.62 C 335.99 137.33 335.86 146.32 338.37 154.78 C 339.65 159.08 342.63 163.39 347.17 164.57 C 353.24 165.64 359.99 164.80 364.92 160.84 C 367.03 159.07 370.09 157.23 369.68 154.04 C 369.55 140.84 369.92 127.62 369.50 114.44 C 365.27 108.03 356.32 106.86 349.36 108.55 Z" />
<path fill="#ffffff" opacity="1.00" d=" M 47.28 86.15 C 54.05 83.41 61.93 84.16 68.15 87.93 C 67.13 94.22 66.04 100.49 64.97 106.77 C 64.40 109.36 64.18 112.46 61.80 114.12 C 56.55 115.04 51.27 113.05 46.02 114.06 C 40.31 114.79 35.72 118.98 32.73 123.66 C 31.65 125.20 31.33 127.09 31.32 128.94 C 31.26 148.59 31.52 168.25 31.21 187.90 C 20.81 187.69 10.36 188.49 0.00 187.45 L 0.00 86.76 C 7.87 86.90 15.88 85.93 23.66 87.18 C 28.72 90.02 28.22 96.77 29.27 101.74 C 33.83 95.16 39.71 89.14 47.28 86.15 Z" />
<path fill="#ffffff" opacity="1.00" d=" M 72.47 100.98 C 81.73 91.34 95.13 86.84 108.09 84.92 C 117.30 84.21 127.03 84.09 135.49 88.38 C 144.96 92.92 152.75 101.59 155.20 111.93 C 156.33 116.17 156.91 120.57 156.93 124.96 C 156.92 144.65 156.89 164.35 156.95 184.04 C 156.89 185.39 157.14 187.04 155.69 187.77 C 151.79 188.16 147.86 187.90 143.96 187.96 C 140.66 187.93 137.00 187.89 134.33 185.68 C 132.12 183.22 131.21 179.97 129.88 177.01 C 123.13 182.50 115.65 187.67 106.82 188.90 C 97.38 190.02 86.87 189.82 78.73 184.30 C 67.47 176.61 64.02 159.77 71.26 148.28 C 78.06 138.78 89.26 133.69 100.35 131.12 C 108.75 128.88 117.47 128.74 126.06 127.88 C 126.08 122.21 126.58 115.30 121.72 111.29 C 116.35 107.31 109.00 108.04 103.06 110.22 C 97.86 112.54 92.85 115.75 87.04 116.25 C 79.04 115.54 75.79 107.09 72.47 100.98 M 101.48 152.56 C 97.23 154.88 97.34 160.51 98.56 164.56 C 100.34 167.53 104.16 168.05 107.28 168.57 C 114.37 169.00 120.80 165.31 125.96 160.78 C 126.14 156.26 126.14 151.72 125.94 147.20 C 117.60 147.45 108.78 148.16 101.48 152.56 Z" />
<path fill="#ffffff" opacity="1.00" d=" M 211.57 86.39 C 217.14 84.44 223.15 84.28 228.99 84.79 C 238.46 86.04 247.04 91.92 252.09 99.98 C 260.13 112.65 262.17 128.22 261.16 142.95 C 259.41 157.50 253.75 172.65 241.65 181.69 C 232.62 188.74 220.45 190.76 209.35 188.73 C 204.16 187.75 199.65 184.89 195.36 181.95 C 195.31 194.30 195.45 206.65 195.28 219.00 L 164.74 219.00 C 164.49 174.90 164.61 130.80 164.68 86.70 C 171.74 86.82 178.84 86.21 185.87 86.91 C 191.28 87.48 191.85 93.73 193.32 97.82 C 198.73 93.08 204.63 88.62 211.57 86.39 M 212.43 108.54 C 207.50 108.84 202.60 110.58 198.91 113.93 C 197.19 115.57 194.93 117.29 195.35 119.97 C 195.51 133.15 195.03 146.37 195.58 159.53 C 199.31 164.53 206.07 166.22 212.05 165.86 C 218.19 165.93 223.41 161.33 225.84 155.96 C 229.33 148.14 229.33 139.35 228.95 130.95 C 228.74 125.15 227.77 119.17 224.77 114.10 C 222.24 109.99 217.07 108.28 212.43 108.54 Z" />
<path fill="#ffffff" opacity="1.00" d=" M 266.71 86.71 C 277.23 86.62 287.76 86.61 298.28 86.71 C 298.40 117.14 298.27 147.57 298.35 178.00 C 298.33 180.95 298.50 183.92 298.16 186.86 C 296.89 188.29 294.73 187.78 293.04 187.97 C 285.07 187.82 277.09 188.10 269.13 187.85 C 266.52 187.87 266.63 184.90 266.63 183.03 C 266.71 150.92 266.57 118.81 266.71 86.71 Z" />
</g>
</svg>
