<?xml version="1.0" encoding="UTF-8" ?>
<!DOCTYPE svg PUBLIC "-//W3C//DTD SVG 1.1//EN" "http://www.w3.org/Graphics/SVG/1.1/DTD/svg11.dtd">
<svg width="547pt" height="150pt" viewBox="0 0 547 150" version="1.1" xmlns="http://www.w3.org/2000/svg">
<g id="#000000ff">
<path fill="#000000" opacity="1.00" d=" M 234.34 0.00 L 240.61 0.00 C 246.56 1.92 252.41 6.41 253.11 13.05 C 254.61 21.82 246.60 30.03 237.95 29.82 C 229.20 30.30 221.25 21.77 222.73 13.04 C 223.38 6.69 228.81 2.29 234.34 0.00 Z" />
<path fill="#000000" opacity="1.00" d=" M 311.69 0.72 C 320.14 0.57 328.59 0.56 337.05 0.73 C 337.19 41.52 337.12 82.32 337.08 123.12 C 330.86 123.04 324.51 123.91 318.39 122.56 C 314.73 120.96 314.46 116.21 312.99 112.96 C 308.83 116.59 304.55 120.34 299.28 122.26 C 290.27 125.62 279.39 125.40 271.43 119.55 C 262.73 113.22 258.49 102.51 256.88 92.19 C 255.52 81.68 255.71 70.64 259.71 60.68 C 262.51 53.25 267.31 46.41 274.04 42.05 C 281.23 37.23 290.35 35.54 298.82 37.19 C 303.48 38.11 307.55 40.67 311.63 42.97 C 311.58 28.89 311.46 14.80 311.69 0.72 M 287.09 61.04 C 282.58 67.73 282.33 76.19 282.49 83.98 C 282.76 90.04 283.37 96.71 287.51 101.50 C 290.50 105.00 295.55 105.22 299.78 104.54 C 304.47 103.86 308.11 100.58 311.57 97.62 C 311.59 87.06 311.53 76.49 311.66 65.93 C 311.54 63.64 311.88 60.78 309.74 59.25 C 303.38 53.97 292.07 53.79 287.09 61.04 Z" />
<path fill="#000000" opacity="1.00" d=" M 41.36 37.34 C 46.33 35.77 51.52 37.12 56.29 38.75 C 54.88 45.90 54.61 53.35 52.08 60.23 C 48.18 61.64 43.95 60.48 39.92 60.80 C 34.47 60.73 29.51 64.21 26.80 68.78 C 25.19 71.54 25.35 74.86 25.26 77.95 C 25.41 93.00 25.46 108.07 25.27 123.13 C 16.85 123.26 8.42 123.23 0.00 123.18 L 0.00 38.33 C 6.54 38.59 13.38 37.29 19.71 39.30 C 22.99 42.19 22.82 47.24 23.97 51.21 C 28.73 45.52 33.87 39.33 41.36 37.34 Z" />
<path fill="#000000" opacity="1.00" d=" M 60.89 49.99 C 71.99 40.07 87.31 35.59 102.04 36.80 C 110.41 37.54 118.75 41.30 123.98 48.04 C 129.40 54.73 131.26 63.56 131.22 72.00 C 131.17 89.04 131.29 106.09 131.14 123.13 C 125.88 123.14 120.52 123.73 115.34 122.58 C 111.56 121.50 110.80 117.02 109.24 113.96 C 103.45 117.78 97.81 122.39 90.79 123.64 C 82.67 125.17 73.70 124.79 66.45 120.49 C 54.47 113.08 53.54 93.28 64.87 84.83 C 76.55 75.75 92.00 74.12 106.31 73.67 C 106.26 68.71 106.78 62.88 102.96 59.05 C 99.20 55.52 93.45 55.79 88.74 56.78 C 82.44 58.19 76.95 63.96 70.13 62.08 C 65.10 60.05 63.47 54.27 60.89 49.99 M 85.04 93.09 C 81.19 95.11 80.24 100.30 82.03 104.01 C 83.60 106.79 87.06 107.62 90.03 107.67 C 95.91 107.79 102.16 105.39 105.75 100.61 C 106.94 96.75 106.24 92.61 106.26 88.63 C 99.08 89.15 91.45 89.43 85.04 93.09 Z" />
<path fill="#000000" opacity="1.00" d=" M 162.43 47.97 C 168.98 42.08 176.90 37.05 185.97 36.69 C 195.08 35.74 204.36 39.83 209.85 47.14 C 217.24 56.68 219.47 69.21 219.34 81.02 C 219.18 94.10 214.70 107.84 204.56 116.58 C 196.97 123.35 186.09 125.78 176.21 123.80 C 171.72 122.88 167.77 120.44 163.86 118.17 C 163.75 128.78 163.78 139.39 163.82 150.00 L 138.30 150.00 C 138.36 112.77 138.37 75.55 138.29 38.32 C 144.10 38.38 149.96 37.85 155.74 38.58 C 160.21 39.22 160.78 44.64 162.43 47.97 M 175.39 56.52 C 170.92 57.48 166.28 60.00 164.23 64.24 C 163.12 71.09 164.08 78.09 163.79 85.00 C 164.00 90.15 163.03 95.50 164.50 100.51 C 170.23 107.29 182.91 107.85 188.22 100.20 C 192.74 93.78 193.16 85.54 193.06 77.95 C 192.77 71.72 192.31 64.85 188.20 59.81 C 185.16 56.04 179.81 55.69 175.39 56.52 Z" />
<path fill="#000000" opacity="1.00" d=" M 225.06 38.27 C 233.43 38.35 241.80 38.36 250.17 38.26 C 250.47 66.54 250.35 94.83 250.24 123.12 C 241.80 123.27 233.36 123.26 224.93 123.13 C 224.88 94.84 224.63 66.55 225.06 38.27 Z" />
<path fill="#000000" opacity="1.00" d=" M 390.63 63.38 C 393.83 63.12 397.04 63.01 400.25 62.89 C 400.31 67.30 400.31 71.72 400.27 76.13 C 403.93 76.21 407.58 76.24 411.24 76.27 C 411.26 79.28 411.33 82.28 411.27 85.28 C 407.61 85.35 403.94 85.36 400.28 85.33 C 400.54 93.16 399.90 101.00 400.49 108.80 C 400.64 112.85 405.46 111.00 408.02 111.04 C 409.56 113.29 411.15 115.54 412.26 118.05 C 410.57 120.41 407.49 121.11 404.82 121.74 C 399.91 122.63 394.02 122.52 390.31 118.69 C 387.18 115.69 386.70 111.12 386.67 107.02 C 386.63 99.89 386.76 92.76 386.71 85.62 C 384.90 85.42 383.07 85.28 381.29 84.88 C 379.97 82.70 380.37 80.00 380.18 77.58 C 382.68 77.02 385.18 76.44 387.67 75.84 C 388.65 71.68 389.64 67.53 390.63 63.38 Z" />
<path fill="#000000" opacity="1.00" d=" M 482.53 82.80 C 486.49 77.92 492.95 73.01 499.44 76.34 C 499.57 80.22 498.59 84.03 497.87 87.83 C 493.72 88.21 488.82 87.38 485.52 90.51 C 483.00 92.55 483.27 96.05 483.21 98.95 C 483.30 106.42 483.36 113.90 483.20 121.37 C 478.74 121.48 474.27 121.48 469.81 121.36 C 469.64 106.23 469.67 91.10 469.80 75.97 C 473.32 76.02 476.92 75.74 480.38 76.59 C 481.68 78.40 481.91 80.71 482.53 82.80 Z" />
<path fill="#000000" opacity="1.00" d=" M 343.66 84.60 C 345.48 79.85 350.28 76.93 355.10 75.96 C 361.44 74.74 368.40 75.58 373.87 79.18 C 377.93 81.15 373.88 85.82 371.58 87.55 C 366.91 87.17 362.34 83.81 357.62 85.62 C 355.28 86.10 354.91 89.83 356.85 91.03 C 361.93 94.39 368.69 94.48 373.30 98.71 C 377.73 102.92 377.37 110.36 374.18 115.20 C 370.15 120.91 362.56 122.55 355.96 122.13 C 350.56 121.95 345.61 119.57 341.04 116.90 C 342.80 114.44 343.90 110.82 347.04 109.85 C 350.53 110.36 353.57 112.36 357.04 112.96 C 359.44 113.37 362.24 112.69 363.67 110.58 C 363.90 109.20 363.89 107.37 362.53 106.54 C 357.57 103.45 351.17 103.27 346.65 99.35 C 342.46 95.83 341.84 89.50 343.66 84.60 Z" />
<path fill="#000000" opacity="1.00" d=" M 431.41 76.50 C 438.92 74.49 447.67 75.12 454.02 79.98 C 463.26 87.17 464.60 101.39 459.34 111.34 C 451.67 125.61 428.16 125.89 419.63 112.36 C 415.81 106.29 415.39 98.62 416.82 91.75 C 418.40 84.46 424.26 78.49 431.41 76.50 M 435.33 86.28 C 431.81 87.63 430.51 91.61 430.13 95.03 C 429.75 99.21 429.74 103.64 431.45 107.56 C 434.16 113.80 444.80 113.68 447.09 107.14 C 448.96 101.71 449.01 95.46 446.91 90.09 C 445.11 85.65 439.39 84.60 435.33 86.28 Z" />
<path fill="#000000" opacity="1.00" d=" M 507.65 83.63 C 515.40 73.31 533.22 72.34 541.48 82.49 C 545.21 87.59 547.15 94.78 544.75 100.82 C 535.38 101.99 525.89 100.94 516.48 101.31 C 517.17 105.48 518.76 110.38 523.39 111.55 C 529.13 113.71 534.28 109.44 539.70 108.41 C 542.09 109.79 544.35 112.04 544.91 114.83 C 539.74 121.19 530.73 122.72 522.98 122.02 C 514.63 121.42 507.00 115.55 504.46 107.55 C 502.01 99.69 502.40 90.31 507.65 83.63 M 520.25 86.28 C 518.10 87.94 517.54 90.77 516.42 93.11 C 522.22 93.44 528.03 93.43 533.84 93.16 C 533.19 91.18 532.86 89.01 531.68 87.26 C 528.87 84.07 523.63 83.98 520.25 86.28 Z" />
</g>
<g id="#b00ed8ff">
<path fill="#b00ed8" opacity="1.00" d=" M 362.32 5.05 C 370.44 3.87 379.69 3.30 386.73 8.33 C 393.20 12.92 398.66 19.84 399.48 27.96 C 399.84 34.08 400.05 40.58 397.06 46.15 C 393.03 53.42 386.30 59.81 377.86 61.23 C 369.56 62.25 360.25 62.05 353.51 56.42 C 348.08 51.68 343.16 45.48 342.52 38.04 C 342.18 31.91 341.92 25.37 344.98 19.81 C 348.87 13.16 354.68 7.12 362.32 5.05 M 360.40 15.21 C 359.77 21.64 359.12 28.07 358.25 34.48 C 361.90 34.72 365.60 34.80 369.16 33.77 C 371.62 32.92 374.67 34.36 375.37 36.92 C 376.07 39.74 376.17 42.94 374.75 45.55 C 373.48 47.71 370.62 47.41 368.50 47.93 C 367.49 46.40 366.48 44.87 365.51 43.32 C 362.85 43.29 360.19 43.31 357.54 43.39 C 358.56 45.87 359.45 48.60 361.70 50.28 C 367.88 56.02 379.89 54.39 383.00 46.10 C 384.67 40.62 383.95 33.59 378.89 30.09 C 375.32 27.35 370.64 28.34 366.56 28.95 C 366.55 26.31 366.54 23.67 366.62 21.03 C 371.95 20.72 377.30 20.82 382.64 20.79 C 382.63 18.94 382.63 17.09 382.64 15.24 C 375.23 15.13 367.81 15.16 360.40 15.21 Z" />
</g>
</svg>
