<?xml version="1.0" encoding="utf-8"?>
<!-- Generator: Adobe Illustrator 23.0.3, SVG Export Plug-In . SVG Version: 6.00 Build 0)  -->
<svg version="1.1" id="Layer_1" xmlns="http://www.w3.org/2000/svg" xmlns:xlink="http://www.w3.org/1999/xlink" x="0px" y="0px"
	 viewBox="0 0 1000 1000" style="enable-background:new 0 0 1000 1000;" xml:space="preserve">
<style type="text/css">
	.st0{fill:#1A1A1A;}
	.st1{fill:#F7F7F8;}
	.st2{fill:#D8D9DD;}
	.st3{fill:#C2C3C9;}
	.st4{fill:#FFFFFF;}
	.st5{fill:#BF0411;}
	.st6{fill:#87868A;}
	.st7{fill:#AEADB3;}
	.st8{fill:#9A999E;}
	.st9{fill:#EDEEF0;}
	.st10{fill:#E6E6E6;}
	.st11{fill:none;}
	.st12{fill:#FCC21B;}
	.st13{fill:#2F2F2F;}
</style>
<path d="M628,885h-42l-2,3h45L628,885z"/>
<path class="st0" d="M628,885l-7-17h-28l-7,17H628z"/>
<path d="M558,885h-42l-2,3h45L558,885z"/>
<path class="st0" d="M558,885l-7-17h-28l-7,17H558z"/>
<g>
	<path d="M698,885h-43l-1,3h45L698,885z"/>
	<path class="st0" d="M698,885l-7-17h-29l-7,17H698z"/>
</g>
<g>
	<path class="st1" d="M685,661c0-5-4-9-9-9h-8c-10,0-18-8-18-19v235h52L685,661z"/>
	<path class="st2" d="M702,868l-17-207c0-5-4-9-9-9h-8l17,216H702z"/>
	<path class="st1" d="M544,652h-8c-5,0-9,4-9,9l-17,207h52V633C562,644,554,652,544,652z"/>
	<path class="st2" d="M546,868h16V633c0,11-8,19-18,19l-17,216H546z"/>
	<g>
		<path class="st1" d="M649,499c-1.3-3.8-5-6.2-9-6h-68c-4.9-0.6-9.4,3-9.9,7.9c0,0.4-0.1,0.7-0.1,1.1v366h88V502L649,499z"/>
		<path class="st2" d="M650,868V502c0-5-4-9-8.9-9.1c-0.4,0-0.7,0-1.1,0.1h-7v375H650z"/>
	</g>
</g>
<g>
	<path class="st3" d="M572,474h69v19h-69V474z"/>
</g>
<g>
	<path class="st1" d="M633,319h-71v146c0,5,4,9,10,9h68c6,0,10-4,10-9V319H633z"/>
	<path class="st2" d="M650,319h-17v155h7c6,0,10-4,10-9V319z"/>
</g>
<g>
	<path class="st4" d="M575,451c-2,0-4-2-4-4V345c0-2.2,1.8-4,4-4s4,1.8,4,4v102C579,449,577,451,575,451z M575,679c-2,0-4-2-4-4v-58
		c0-2.2,1.8-4,4-4s4,1.8,4,4v58C579,677,577,679,575,679z M575,736c-2,0-4-1-4-3v-36c0-2.2,1.8-4,4-4s4,1.8,4,4v36
		C579,735,577,736,575,736z"/>
</g>
<g>
	<path class="st2" d="M606,181l-2,1v67c0,1.1,0.9,2,2,2s2-0.9,2-2v-67L606,181z"/>
	<path class="st5" d="M650,319h-88l39-79c2-4,8-4,10,0L650,319z"/>
</g>
<g>
	<g>
		<path class="st6" d="M603,396h8v45h-8V396z M570,396h8v45h-8V396z M537,396h8v45h-8V396z M505,396h8v45h-8V396z M472,396h8v45h-8
			V396z"/>
	</g>
	<path class="st7" d="M456,393h162v10H456V393z M456,436h162v10H456V436z"/>
	<g>
		<path class="st6" d="M603,521h8v45h-8V521z M570,521h8v45h-8V521z M537,521h8v45h-8V521z M505,521h8v45h-8V521z M472,521h8v45h-8
			V521z"/>
	</g>
	<path class="st7" d="M456,518h162v10H456V518z M456,561h162v10H456V561z"/>
	<g>
		<g>
			<path class="st8" d="M687,932h45v59h-45V932z M603,932h45v59h-45V932z M519,932h45v59h-45V932z M436,932h45v59h-45V932z M352,932
				h45v59h-45V932z M268,932h45v59h-45V932z"/>
		</g>
		<path class="st3" d="M255,896h490v37H255V896z"/>
		<path class="st6" d="M144,986h712v14H144V986z"/>
	</g>
	<g>
		<g>
			<path class="st9" d="M451,330l6,6l-86,85l-5-5L451,330z M451,417l6,6l-86,85l-5-5L451,417z M451,504l6,6l-86,85l-5-5L451,504z
				 M451,591l6,6l-86,85l-5-5L451,591z M451,678l6,6l-86,85l-5-5L451,678z M451,765l6,6l-86,85l-5-6L451,765z"/>
		</g>
		<path class="st10" d="M449,333l-42-42l6-5l41,41L449,333z"/>
		<path class="st9" d="M457,416l-6,6l-85-86l5-5L457,416z M457,503l-6,6l-85-86l5-5L457,503z M457,590l-6,6l-85-86l5-6L457,590z
			 M457,677l-6,6l-85-86l5-6L457,677z M457,764l-6,6l-85-86l5-6L457,764z M457,851l-6,6l-85-86l5-6L457,851z"/>
		<g>
			<path class="st9" d="M367,764l-6,6l-86-86l6-6L367,764z M367,851l-6,6l-86-86l6-6L367,851z"/>
			<path class="st9" d="M361,678l6,6l-86,85l-5-5L361,678z M361,765l6,6l-86,85l-5-5L361,765z"/>
			<path class="st9" d="M361,683l-40-41l6-5l40,40L361,683z"/>
		</g>
		<path class="st2" d="M451,238l-90,90l8,4l88-87L451,238z"/>
		<g>
			<path class="st3" d="M365,328h92v10h-92V328z M365,415h92v10h-92V415z M365,502h92v10h-92V502z M365,588h92v10h-92V588z"/>
			<g>
				<path class="st3" d="M367,675h-92v10h182v-10H367z M367,762h-92v10h182v-10H367z M365,849h-90v9h182v-9h-90H365z"/>
			</g>
		</g>
		<g>
			<path class="st2" d="M361,328h12v549h-12V328z M451,238h12v638h-12V238z M278,674h-7v202h12V674H278z"/>
			<path class="st2" d="M367,597l-6-13l-90,90h12v6L367,597z"/>
		</g>
		<path class="st7" d="M255,875h224v22H255V875z"/>
	</g>
</g>
<g>
	<rect x="677.5" y="493.5" class="st11" width="135" height="135"/>
	<g>
		<path class="st12" d="M735.2,504.4c3.8-0.6,7.6-0.3,11.4-0.3c9.4-0.3,18.8,1.9,27.2,6c9.8,4.8,17.8,12.8,23.3,22.1
			c4.3,6.9,7,14.6,9.3,22.3c2.7,11.1,4.7,22.5,4.5,34c0,2.7,0.3,5.5-1,7.9c-3.1,6.1-9.4,9.6-15.4,12.5c-12.5,5.3-26,7.6-39.5,8.5
			c-6.1,0.1-12.3,0-18.5,0.1c-10.2-0.4-20.3-2.1-30.1-4.7c-8.1-2.5-16.4-5.6-22.7-11.5c-2.4-2.5-4.7-5.5-4.6-9
			c0-4.8-0.1-9.6,0.5-14.4c1.4-14.4,4.5-28.8,11.1-41.7c4.6-8.8,11-16.8,19.3-22.4C717.4,508.6,726.2,505.5,735.2,504.4 M722,537.5
			c-7.9,2.3-9.3,14.1-3.3,19.2c2.7,2.5,7.1,2.8,10,0.5c5.7-4.1,5.9-13.5,0.6-18C727.3,537.5,724.5,536.9,722,537.5 M764.2,537.5
			c-1.4,0.3-2.7,1.1-3.7,2c-4.9,4.5-4.7,13.4,0.6,17.5c2.8,2.4,7.2,2.2,10-0.1c5.2-4.2,5.3-13.2,0.3-17.6
			C769.4,537.6,766.7,536.9,764.2,537.5 M712.5,571.3c-2.3,0.4-2.2,3.2-1.8,4.9c1.4,5.4,5.4,9.7,9.4,13.3c6.8,6,15.9,8.4,24.8,8.7
			c9.2-0.2,18.8-2.9,25.6-9.4c4.1-3.9,8.4-8.6,8.9-14.5c0.3-2.6-2.9-3.8-4.9-2.6c-3,1.8-5,4.8-7.8,6.9c-12.1,9.7-30.7,9.9-43,0.5
			c-2.6-1.9-4.7-4.5-7.2-6.6C715.5,571.5,714,570.9,712.5,571.3z"/>
		<path class="st12" d="M702.3,530.4h88.6v73.8h-88.6V530.4z"/>
	</g>
	<g>
		<path class="st13" d="M722.3,537.6c2.5-0.6,5.2,0,7.1,1.7c5.2,4.4,5,13.7-0.6,17.7c-2.9,2.2-7.2,1.9-9.8-0.5
			C713.1,551.5,714.5,539.9,722.3,537.6z M763.9,537.5c2.5-0.6,5.2,0.1,7.1,1.9c4.9,4.4,4.8,13.2-0.3,17.4c-2.7,2.3-7.1,2.5-9.9,0.1
			c-5.2-4.1-5.4-12.9-0.6-17.3C761.3,538.6,762.5,537.8,763.9,537.5z M713,570.8c1.5-0.4,3,0.2,4.1,1.2c2.5,2,4.5,4.6,7.1,6.5
			c12.1,9.3,30.5,9.1,42.4-0.5c2.8-2.1,4.8-5,7.7-6.8c1.9-1.2,5.1,0,4.8,2.5c-0.5,5.8-4.7,10.5-8.8,14.3c-6.7,6.4-16.2,9.1-25.2,9.3
			c-8.7-0.2-17.8-2.7-24.4-8.5c-4-3.6-7.9-7.8-9.3-13.1C710.8,574,710.8,571.2,713,570.8z"/>
	</g>
</g>
<g>
	<rect x="539.5" y="743.5" class="st11" width="135" height="135"/>
	<g>
		<path class="st12" d="M597.2,754.4c3.8-0.6,7.6-0.3,11.4-0.3c9.4-0.3,18.8,1.9,27.2,6c9.8,4.8,17.8,12.8,23.3,22.1
			c4.3,6.9,7,14.6,9.3,22.3c2.7,11.1,4.7,22.5,4.5,34c0,2.7,0.3,5.5-1,7.9c-3.1,6.1-9.4,9.6-15.4,12.5c-12.5,5.3-26,7.6-39.5,8.5
			c-6.1,0.1-12.3,0-18.5,0.1c-10.2-0.4-20.3-2.1-30.1-4.7c-8.1-2.5-16.4-5.6-22.7-11.5c-2.4-2.5-4.7-5.5-4.6-9
			c0-4.8-0.1-9.6,0.5-14.4c1.4-14.4,4.5-28.8,11.1-41.7c4.6-8.8,11-16.8,19.3-22.4C579.4,758.6,588.2,755.5,597.2,754.4 M584,787.5
			c-7.9,2.3-9.3,14.1-3.3,19.2c2.7,2.5,7.1,2.8,10,0.5c5.7-4.1,5.9-13.5,0.6-18C589.3,787.5,586.5,786.9,584,787.5 M626.2,787.5
			c-1.4,0.3-2.7,1.1-3.7,2c-4.9,4.5-4.7,13.4,0.6,17.5c2.8,2.4,7.2,2.2,10-0.1c5.2-4.2,5.3-13.2,0.3-17.6
			C631.4,787.6,628.7,786.9,626.2,787.5 M574.5,821.3c-2.3,0.4-2.2,3.2-1.8,4.9c1.4,5.4,5.4,9.7,9.4,13.3c6.8,6,15.9,8.4,24.8,8.7
			c9.2-0.2,18.8-2.9,25.6-9.4c4.1-3.9,8.4-8.6,8.9-14.5c0.3-2.6-2.9-3.8-4.9-2.6c-3,1.8-5,4.8-7.8,6.9c-12.1,9.7-30.7,9.9-43,0.5
			c-2.6-1.9-4.7-4.5-7.2-6.6C577.5,821.5,576,820.9,574.5,821.3z"/>
		<path class="st12" d="M564.3,780.4h88.6v73.8h-88.6V780.4z"/>
	</g>
	<g>
		<path class="st13" d="M584.3,787.6c2.5-0.6,5.2,0,7.1,1.7c5.2,4.4,5,13.7-0.6,17.7c-2.9,2.2-7.2,1.9-9.8-0.5
			C575.1,801.5,576.5,789.9,584.3,787.6z M625.9,787.5c2.5-0.6,5.2,0.1,7.1,1.9c4.9,4.4,4.8,13.2-0.3,17.4c-2.7,2.3-7.1,2.5-9.9,0.1
			c-5.2-4.1-5.4-12.9-0.6-17.3C623.3,788.6,624.5,787.8,625.9,787.5z M575,820.8c1.5-0.4,3,0.2,4.1,1.2c2.5,2,4.5,4.6,7.1,6.5
			c12.1,9.3,30.5,9.1,42.4-0.5c2.8-2.1,4.8-5,7.7-6.8c1.9-1.2,5.1,0,4.8,2.5c-0.5,5.8-4.7,10.5-8.8,14.3c-6.7,6.4-16.2,9.1-25.2,9.3
			c-8.7-0.2-17.8-2.7-24.4-8.5c-4-3.6-7.9-7.8-9.3-13.1C572.8,824,572.8,821.2,575,820.8z"/>
	</g>
</g>
</svg>
