<svg id="Layer_1" data-name="Layer 1" xmlns="http://www.w3.org/2000/svg" xmlns:xlink="http://www.w3.org/1999/xlink" viewBox="0 0 119.24 85.65"><defs><style>.cls-1,.cls-9{fill:none;}.cls-2{clip-path:url(#clip-path);}.cls-3{fill:#cdcfcf;}.cls-4{fill:#f4f0f2;}.cls-5{fill:#70706f;}.cls-6{fill:#868686;}.cls-7{fill:#3d3d3c;}.cls-19,.cls-22,.cls-8{fill:#fff;}.cls-9{stroke:#d5d3b2;stroke-linecap:round;stroke-miterlimit:10;}.cls-10{fill:#9c9b9b;}.cls-11{fill:#303b42;}.cls-12{fill:#3a454c;}.cls-13{fill:#2f3c42;}.cls-14{fill:#3bb39d;}.cls-15{fill:#45555f;}.cls-16{fill:#d3d4d5;}.cls-17{fill:#22a692;}.cls-18{fill:#39b29d;}.cls-19{opacity:0.1;}.cls-20{fill:#32b3a1;}.cls-21{fill:#28b378;}.cls-22{font-size:10.5px;font-family:Roboto-Regular, Roboto;}</style><clipPath id="clip-path" transform="translate(0 -7.48)"><rect class="cls-1" x="3" width="100.8" height="56.08"/></clipPath></defs><title>wannatalklogo</title><g class="cls-2"><path class="cls-3" d="M53.44,7.48A19,19,0,0,0,34.5,24.83V25c0,.51-.07,1-.07,1.54a83.13,83.13,0,0,1-3.34,14c-3.78,10.3-6.38,20.69-5.67,28.68a26.23,26.23,0,0,0,5.37,14.21c-12.6,1-23.15,9.76-23.15,9.76H53.45V7.48Z" transform="translate(0 -7.48)"/><path class="cls-4" d="M81.47,69.13c.77-8.81-2.12-19.76-5.64-28.65-2.07-5.25-3.42-15.67-3.42-15.67l0,.05A19,19,0,0,0,53.45,7.48V93.13H99.26S88.62,84.28,76,83.36A25.84,25.84,0,0,0,81.47,69.13Z" transform="translate(0 -7.48)"/><path class="cls-5" d="M53.4,23.78v1h0V37.07h0c-4.48,0-7.33-.84-9.25-2.24,0-.32-.05-.64-.05-1C44.05,28.31,48.23,23.81,53.4,23.78Z" transform="translate(0 -7.48)"/><path class="cls-6" d="M53.4,37.07V24.76h0v-1h0c5.19,0,9.4,4.51,9.4,10.08,0,.28,0,.55,0,.83h0C60.87,36.17,57.64,37.06,53.4,37.07Z" transform="translate(0 -7.48)"/><path class="cls-7" d="M46.8,18.83a2.71,2.71,0,1,1-2.7-2.7A2.7,2.7,0,0,1,46.8,18.83Z" transform="translate(0 -7.48)"/><path class="cls-7" d="M65.5,18.83a2.71,2.71,0,1,1-2.7-2.7A2.7,2.7,0,0,1,65.5,18.83Z" transform="translate(0 -7.48)"/><path class="cls-8" d="M45.82,17.72a1.11,1.11,0,1,1-1.1-1.1A1.11,1.11,0,0,1,45.82,17.72Z" transform="translate(0 -7.48)"/><path class="cls-8" d="M64.54,17.72a1.11,1.11,0,1,1-1.11-1.1A1.11,1.11,0,0,1,64.54,17.72Z" transform="translate(0 -7.48)"/><path class="cls-9" d="M40,29.3" transform="translate(0 -7.48)"/><path class="cls-10" d="M49.75,28a.27.27,0,0,1-.17-.06c-.07-.05-6.94-5.08-13.29-.65a.28.28,0,1,1-.33-.46c6.69-4.67,13.89.6,14,.66a.28.28,0,0,1,.06.39A.27.27,0,0,1,49.75,28Z" transform="translate(0 -7.48)"/><path class="cls-10" d="M36.14,30.4a.3.3,0,0,1-.21-.1.29.29,0,0,1,0-.4c6.11-5.41,13.87-1,13.95-1a.29.29,0,0,1,.1.39.28.28,0,0,1-.39.1c-.07,0-7.49-4.24-13.28.89A.27.27,0,0,1,36.14,30.4Z" transform="translate(0 -7.48)"/><path class="cls-10" d="M36.35,33.6a.29.29,0,0,1-.19-.08.27.27,0,0,1,0-.4c5.41-6.1,13.64-2.64,13.73-2.6a.27.27,0,0,1,.14.37.29.29,0,0,1-.37.15c-.08,0-7.94-3.33-13.08,2.46A.28.28,0,0,1,36.35,33.6Z" transform="translate(0 -7.48)"/><path class="cls-10" d="M37.13,37.83a.33.33,0,0,1-.14,0,.28.28,0,0,1-.1-.39c4.07-7.06,12.83-5.33,12.92-5.31a.29.29,0,0,1-.11.56c-.09,0-8.45-1.67-12.32,5A.29.29,0,0,1,37.13,37.83Z" transform="translate(0 -7.48)"/><path class="cls-10" d="M57.14,28a.3.3,0,0,1-.23-.11.29.29,0,0,1,.06-.4c.07-.06,7.27-5.33,14-.66a.28.28,0,0,1,.07.39.29.29,0,0,1-.4.07c-6.35-4.43-13.22.6-13.29.65A.27.27,0,0,1,57.14,28Z" transform="translate(0 -7.48)"/><path class="cls-10" d="M70.75,30.4a.27.27,0,0,1-.19-.08c-5.79-5.13-13.2-.93-13.28-.89a.28.28,0,0,1-.39-.1.29.29,0,0,1,.11-.39c.07,0,7.84-4.45,13.94,1a.29.29,0,0,1-.19.5Z" transform="translate(0 -7.48)"/><path class="cls-10" d="M70.54,33.6a.3.3,0,0,1-.21-.1C65.18,27.71,57.33,31,57.25,31a.29.29,0,0,1-.37-.15.28.28,0,0,1,.15-.37c.08,0,8.31-3.5,13.73,2.6a.28.28,0,0,1,0,.4A.27.27,0,0,1,70.54,33.6Z" transform="translate(0 -7.48)"/><path class="cls-10" d="M69.76,37.83a.26.26,0,0,1-.24-.15c-3.88-6.7-12.24-5-12.32-5a.29.29,0,1,1-.12-.56c.09,0,8.85-1.75,12.93,5.31a.28.28,0,0,1-.11.39A.33.33,0,0,1,69.76,37.83Z" transform="translate(0 -7.48)"/><path class="cls-7" d="M60.6,34.15a.56.56,0,0,0-.73-.33,19.45,19.45,0,0,1-5.78.93V29.86c.86-1.28.54-3.86.93-4.65.46-.95,1.43.71,1.43.71l.45-1.43a8.05,8.05,0,0,0-3.42-.71v5h0v-5a8.05,8.05,0,0,0-3.42.71l.46,1.43s1-1.66,1.43-.71,0,3.53,1,4.77v4.77c-3.91-.07-5.22-.9-5.26-.92a.56.56,0,0,0-.65.92c.16.12,1.72,1.14,6.48,1.14h.57a20,20,0,0,0,6.19-1A.57.57,0,0,0,60.6,34.15Z" transform="translate(0 -7.48)"/></g><polygon class="cls-11" points="11.76 57.36 10.65 54.02 9.54 57.36 5.27 57.36 1.37 45.17 6.66 45.17 7.65 48.43 8.8 45.17 12.5 45.17 13.65 48.44 14.63 45.17 19.93 45.17 16.02 57.36 11.76 57.36"/><path class="cls-11" d="M18.56,53.65,15.3,63.83H12.48l-1.82-5.5-1.84,5.5H6L2.74,53.65H5.92l1.66,5.47L9.5,53.65h2.29l1.93,5.49,1.66-5.49h3.18m2.74-2H13.89l-.31,1-.37-1H8.09l-.37,1-.32-1H0l.84,2.61L4.1,64.44l.44,1.39h5.71l.4-1.17L11,65.83h5.71l.45-1.39,3.26-10.18.84-2.61Z" transform="translate(0 -7.48)"/><path class="cls-11" d="M23.07,65.12c-3.4,0-6-2.75-6-6.39s2.56-6.39,6-6.39a6.19,6.19,0,0,1,2.16.37v-.06h5.24V64.81H25.23v-.06A6,6,0,0,1,23.07,65.12Zm.67-8a1.64,1.64,0,0,0,0,3.26,1.64,1.64,0,0,0,0-3.26Z" transform="translate(0 -7.48)"/><path class="cls-11" d="M23.07,53.34a4.57,4.57,0,0,1,3.16,1.12v-.81h3.24V63.81H26.23V63a4.57,4.57,0,0,1-3.16,1.12,5.07,5.07,0,0,1-5-5.39,5.08,5.08,0,0,1,5-5.39m.67,8a2.63,2.63,0,0,0,0-5.26,2.64,2.64,0,0,0,0,5.26m-.67-10a7.11,7.11,0,0,0-7,7.39c0,4.21,3,7.39,7,7.39a7.36,7.36,0,0,0,2.13-.31h6.27V51.65H25.2a7.36,7.36,0,0,0-2.13-.31Zm.67,8c-.15,0-.45,0-.45-.63s.33-.63.45-.63.49.17.49.63-.25.63-.49.63Z" transform="translate(0 -7.48)"/><path class="cls-11" d="M37,64.81V58.26c0-.3-.08-1-.75-1-.33,0-1.1,0-1.1,1.83v5.72H30V52.65h5.24v.1a5.45,5.45,0,0,1,2.12-.41,4.89,4.89,0,0,1,4.95,5.24v7.23Z" transform="translate(0 -7.48)"/><path class="cls-11" d="M37.31,53.34c2.37,0,3.95,1.68,3.95,4.24v6.23H38V58.26a1.79,1.79,0,0,0-1.75-2c-1.27,0-2.1.87-2.1,2.83v4.72H31V53.65h3.24v1a4.19,4.19,0,0,1,3.12-1.28m0-2a6.66,6.66,0,0,0-2,.31H29V65.81H43.26V57.58c0-3.67-2.45-6.24-5.95-6.24Z" transform="translate(0 -7.48)"/><path class="cls-11" d="M48.68,64.81V58.26c0-.3-.07-1-.74-1-.33,0-1.11,0-1.11,1.83v5.72H41.59V52.65h5.24v.1A5.49,5.49,0,0,1,49,52.34a4.89,4.89,0,0,1,4.95,5.24v7.23Z" transform="translate(0 -7.48)"/><path class="cls-11" d="M49,53.34c2.37,0,3.95,1.68,3.95,4.24v6.23H49.68V58.26a1.79,1.79,0,0,0-1.74-2c-1.28,0-2.11.87-2.11,2.83v4.72H42.59V53.65h3.24v1A4.19,4.19,0,0,1,49,53.34m0-2a6.7,6.7,0,0,0-2,.31H40.59V65.81H54.9V57.58c0-3.67-2.45-6.24-5.95-6.24Z" transform="translate(0 -7.48)"/><path class="cls-11" d="M58.53,65.12c-3.4,0-6-2.75-6-6.39s2.56-6.39,6-6.39a6.28,6.28,0,0,1,2.16.37v-.06h5.24V64.81H60.69v-.06A6,6,0,0,1,58.53,65.12Zm.67-8a1.45,1.45,0,0,0-1.45,1.63,1.43,1.43,0,0,0,1.45,1.63,1.64,1.64,0,0,0,0-3.26Z" transform="translate(0 -7.48)"/><path class="cls-11" d="M58.53,53.34a4.57,4.57,0,0,1,3.16,1.12v-.81h3.24V63.81H61.69V63a4.57,4.57,0,0,1-3.16,1.12,5.07,5.07,0,0,1-5-5.39,5.08,5.08,0,0,1,5-5.39m.67,8a2.63,2.63,0,0,0,0-5.26,2.64,2.64,0,0,0,0,5.26m-.67-10a7.11,7.11,0,0,0-7,7.39c0,4.21,3,7.39,7,7.39a7.41,7.41,0,0,0,2.13-.31h6.27V51.65H60.66a7.41,7.41,0,0,0-2.13-.31Zm.67,8c-.15,0-.45,0-.45-.63s.32-.63.45-.63.49.17.49.63-.25.63-.49.63Z" transform="translate(0 -7.48)"/><path class="cls-11" d="M71.17,65.12c-3.17,0-5.06-1.89-5.06-5.05V57.22H64.27V52.65h1.84v-3h5.24v3h3v4.57h-3v2.52a.77.77,0,0,0,.08.44.64.64,0,0,0,.28,0,2.32,2.32,0,0,0,1-.27l1.1-.63,1.34,4.54-.72.39A6.45,6.45,0,0,1,71.17,65.12Z" transform="translate(0 -7.48)"/><path class="cls-11" d="M70.35,50.65v3h3v2.57h-3v3.52c0,1.06.51,1.48,1.36,1.48a3.35,3.35,0,0,0,1.48-.4l.75,2.55a5.58,5.58,0,0,1-2.78.75c-2.53,0-4-1.38-4-4.05V56.22H65.27V53.65h1.84v-3h3.24m2-2H65.11v3H63.27v6.57h1.84v1.85c0,3.73,2.32,6.05,6,6.05a7.58,7.58,0,0,0,3.73-1l1.42-.77-.45-1.56-.75-2.55-.6-2h.84V51.65h-3v-3Zm0,9.57H73.7L72.35,59v-.77Z" transform="translate(0 -7.48)"/><path class="cls-12" d="M78.43,63.63a6,6,0,0,1-6-6.38,6.06,6.06,0,0,1,6-6.39,6.2,6.2,0,0,1,2.16.36v-.06h5.24V63.33H80.59v-.06A6.2,6.2,0,0,1,78.43,63.63Zm.67-8a1.65,1.65,0,0,0,0,3.27,1.64,1.64,0,0,0,0-3.27Z" transform="translate(0 -7.48)"/><path class="cls-12" d="M78.43,51.86A4.61,4.61,0,0,1,81.59,53v-.81h3.24V62.33H81.59v-.81a4.57,4.57,0,0,1-3.16,1.11,5.06,5.06,0,0,1-5-5.38,5.08,5.08,0,0,1,5-5.39m.67,8a2.64,2.64,0,0,0,0-5.27,2.64,2.64,0,0,0,0,5.27m-.67-10a7.11,7.11,0,0,0-7,7.39c0,4.21,3,7.38,7,7.38a7.31,7.31,0,0,0,2.13-.3h6.27V50.16H80.56a7.31,7.31,0,0,0-2.13-.3Zm.67,8c-.14,0-.45,0-.45-.63s.33-.64.45-.64.49.17.49.64-.24.63-.49.63Z" transform="translate(0 -7.48)"/><rect class="cls-12" x="85.31" y="39.27" width="5.24" height="16.58"/><path class="cls-12" d="M89.55,47.75V62.33H86.31V47.75h3.24m2-2H84.31V64.33h7.24V45.75Z" transform="translate(0 -7.48)"/><polygon class="cls-12" points="97.71 55.85 95.27 53.14 95.27 55.85 90.03 55.85 90.03 39.27 95.27 39.27 95.27 46.09 97.5 43.69 104.12 43.69 98.75 49.52 104.59 55.85 97.71 55.85"/><path class="cls-12" d="M94.27,47.75v7.88h.45l3.22-3.47h3.9L97.39,57l4.92,5.33H98.16l-3.3-3.67h-.59v3.67H91V47.75h3.24m2-2H89V64.33h7.24V63.22l.4.45.6.66h9.61L103.78,61l-3.67-4,3.2-3.48,3.09-3.36H97.06l-.59.64-.2.22V45.75Z" transform="translate(0 -7.48)"/><path class="cls-8" d="M15.3,63.83H12.48l-1.82-5.5-1.84,5.5H6L2.74,53.65H5.92l1.66,5.47L9.5,53.65h2.29l1.93,5.49,1.66-5.49h3.18Z" transform="translate(0 -7.48)"/><path class="cls-8" d="M29.47,63.81H26.23V63a4.57,4.57,0,0,1-3.16,1.12,5.07,5.07,0,0,1-5-5.39,5.08,5.08,0,0,1,5-5.39,4.57,4.57,0,0,1,3.16,1.12v-.81h3.24Zm-3.24-5.08a2.53,2.53,0,0,0-2.49-2.63,2.64,2.64,0,0,0,0,5.26A2.52,2.52,0,0,0,26.23,58.73Z" transform="translate(0 -7.48)"/><path class="cls-8" d="M41.26,57.58v6.23H38V58.26a1.79,1.79,0,0,0-1.75-2c-1.27,0-2.1.87-2.1,2.83v4.72H31V53.65h3.24v1a4.19,4.19,0,0,1,3.12-1.28C39.68,53.34,41.26,55,41.26,57.58Z" transform="translate(0 -7.48)"/><path class="cls-8" d="M52.9,57.58v6.23H49.68V58.26a1.79,1.79,0,0,0-1.74-2c-1.28,0-2.11.87-2.11,2.83v4.72H42.59V53.65h3.24v1A4.19,4.19,0,0,1,49,53.34C51.32,53.34,52.9,55,52.9,57.58Z" transform="translate(0 -7.48)"/><path class="cls-8" d="M64.93,63.81H61.69V63a4.57,4.57,0,0,1-3.16,1.12,5.07,5.07,0,0,1-5-5.39,5.08,5.08,0,0,1,5-5.39,4.57,4.57,0,0,1,3.16,1.12v-.81h3.24Zm-3.24-5.08A2.54,2.54,0,0,0,59.2,56.1a2.64,2.64,0,0,0,0,5.26A2.52,2.52,0,0,0,61.69,58.73Z" transform="translate(0 -7.48)"/><path class="cls-8" d="M73.94,63.37a5.58,5.58,0,0,1-2.78.75c-2.53,0-4-1.38-4-4.05V56.22H65.27V53.65h1.84v-3h3.24v3h3v2.57h-3v3.52c0,1.06.51,1.48,1.36,1.48a3.35,3.35,0,0,0,1.48-.4Z" transform="translate(0 -7.48)"/><path class="cls-8" d="M84.79,63.81H81.55V63a4.57,4.57,0,0,1-3.16,1.12,5.07,5.07,0,0,1-5-5.39,5.08,5.08,0,0,1,5-5.39,4.57,4.57,0,0,1,3.16,1.12v-.81h3.24Zm-3.24-5.08a2.53,2.53,0,0,0-2.49-2.63,2.64,2.64,0,0,0,0,5.26A2.52,2.52,0,0,0,81.55,58.73Z" transform="translate(0 -7.48)"/><path class="cls-8" d="M86.27,63.81V49.23h3.24V63.81Z" transform="translate(0 -7.48)"/><path class="cls-8" d="M98.12,63.81l-3.3-3.66h-.59v3.66H91V49.23h3.24v7.88h.44l3.22-3.46h3.91l-4.45,4.84,4.92,5.32Z" transform="translate(0 -7.48)"/><polygon class="cls-13" points="71.89 44.66 77.02 44.66 77.02 26.38 70.03 26.38 71.89 44.66"/><path class="cls-13" d="M69.91,31.52a.77.77,0,0,1,.77-.65H77v3H70.09a.77.77,0,0,1-.78-.76v-.85a.77.77,0,0,1,.6-.73" transform="translate(0 -7.48)"/><polygon class="cls-8" points="83.44 44.66 78.06 44.66 78.06 26.49 85.3 26.49 83.44 44.66"/><polygon class="cls-14" points="84.51 36.59 78.71 36.59 78.71 31.58 84.86 31.58 84.51 36.59"/><polygon class="cls-14" points="84.36 36.59 78.56 36.59 78.56 31.58 84.71 31.58 84.36 36.59"/><path class="cls-15" d="M85.93,31.54a.77.77,0,0,0-.77-.67H78.37V34h7.38a.78.78,0,0,0,.78-.78V32.3a.78.78,0,0,0-.6-.76" transform="translate(0 -7.48)"/><polygon class="cls-16" points="72.97 44.66 78.11 44.66 78.11 26.49 71.11 26.49 72.97 44.66"/><polygon class="cls-14" points="72 36.59 77.73 36.59 77.73 31.58 71.65 31.58 72 36.59"/><path class="cls-15" d="M71.71,31.54a.78.78,0,0,1,.77-.67h6.34V34H71.9a.78.78,0,0,1-.79-.78V32.3a.79.79,0,0,1,.6-.76" transform="translate(0 -7.48)"/><path class="cls-17" d="M74.89,41.56A3.13,3.13,0,1,1,78,44.72,3.14,3.14,0,0,1,74.89,41.56Z" transform="translate(0 -7.48)"/><path class="cls-18" d="M75.42,41.58a2.64,2.64,0,1,1,2.64,2.64A2.64,2.64,0,0,1,75.42,41.58Z" transform="translate(0 -7.48)"/><path class="cls-8" d="M76.83,40.78A1.45,1.45,0,1,0,79,40.13,1.58,1.58,0,0,0,76.83,40.78Z" transform="translate(0 -7.48)"/><path class="cls-19" d="M78.7,40a1.86,1.86,0,0,0-1.25.83,1.59,1.59,0,0,0,.27,2.21,1.15,1.15,0,0,0,.25.12,1.23,1.23,0,0,1-.88-.18,1.58,1.58,0,0,1-.26-2.21A1.65,1.65,0,0,1,78.7,40Z" transform="translate(0 -7.48)"/><path class="cls-20" d="M79,40.13h0a1.87,1.87,0,0,1-.82,1.74,3.53,3.53,0,0,0-1,1.11h0L77,42.88a2.1,2.1,0,0,1,.86-1.11,2.56,2.56,0,0,0,1.07-1.68Z" transform="translate(0 -7.48)"/><path class="cls-8" d="M80.65,20.59a4.11,4.11,0,0,0-.16,4.33c1.28,2.1.64,3.94-2.29,4.95.85-1.78,1.8-2.61.47-4.64C76.68,22.2,79.33,21,80.65,20.59Z" transform="translate(0 -7.48)"/><rect class="cls-21" x="100.76" y="44.67" width="18.48" height="12.87" rx="6.44"/><text y="-7.48"/><text class="cls-22" transform="translate(104.08 55.09)">.ai</text></svg>