<svg id="Layer_1" data-name="Layer 1" xmlns="http://www.w3.org/2000/svg" xmlns:xlink="http://www.w3.org/1999/xlink" viewBox="0 0 99.53 58.64"><defs><style>.cls-1,.cls-9{fill:none;}.cls-2{clip-path:url(#clip-path);}.cls-3{fill:#cdcfcf;}.cls-4{fill:#f4f0f2;}.cls-5{fill:#70706f;}.cls-6{fill:#868686;}.cls-7{fill:#3d3d3c;}.cls-8{fill:#fff;}.cls-9{stroke:#d5d3b2;stroke-linecap:round;stroke-miterlimit:10;}.cls-10{fill:#9c9b9b;}</style><clipPath id="clip-path" transform="translate(-9.86 -9.61)"><rect class="cls-1" x="26.17" y="4.49" width="69.02" height="38.4"/></clipPath></defs><title>wannatalklogo-light</title><g class="cls-2"><path class="cls-3" d="M60.71,9.61a13,13,0,0,0-13,11.88h0v.1c0,.35-.05.7-.05,1.05A56,56,0,0,1,45.4,32.2C42.82,39.26,41,46.38,41.52,51.85a17.93,17.93,0,0,0,3.67,9.72c-8.62.68-15.84,6.68-15.84,6.68H60.72V9.61Z" transform="translate(-9.86 -9.61)"/><path class="cls-4" d="M79.91,51.82c.52-6-1.46-13.52-3.87-19.62-1.42-3.59-2.34-10.72-2.34-10.72l0,0a13,13,0,0,0-13-11.9V68.25H92.08s-7.28-6-16-6.69A17.67,17.67,0,0,0,79.91,51.82Z" transform="translate(-9.86 -9.61)"/><path class="cls-5" d="M60.68,20.77v.67h0v8.43h0c-3.07,0-5-.58-6.34-1.53,0-.22,0-.44,0-.66A6.68,6.68,0,0,1,60.68,20.77Z" transform="translate(-9.86 -9.61)"/><path class="cls-6" d="M60.68,29.87V21.44h0v-.67h0a6.68,6.68,0,0,1,6.43,6.91,5.25,5.25,0,0,1,0,.56h0C65.8,29.25,63.59,29.87,60.68,29.87Z" transform="translate(-9.86 -9.61)"/><path class="cls-7" d="M56.17,17.38a1.86,1.86,0,1,1-1.85-1.85A1.85,1.85,0,0,1,56.17,17.38Z" transform="translate(-9.86 -9.61)"/><path class="cls-7" d="M69,17.38a1.85,1.85,0,1,1-1.85-1.85A1.85,1.85,0,0,1,69,17.38Z" transform="translate(-9.86 -9.61)"/><path class="cls-8" d="M55.5,16.62a.76.76,0,1,1-.76-.75A.76.76,0,0,1,55.5,16.62Z" transform="translate(-9.86 -9.61)"/><path class="cls-8" d="M68.31,16.62a.76.76,0,0,1-.76.76.76.76,0,1,1,.76-.76Z" transform="translate(-9.86 -9.61)"/><path class="cls-9" d="M51.5,24.55" transform="translate(-9.86 -9.61)"/><path class="cls-10" d="M58.19,23.69a.28.28,0,0,1-.12,0s-4.75-3.48-9.1-.44a.19.19,0,1,1-.22-.32c4.58-3.2,9.51.41,9.55.45a.18.18,0,0,1,0,.27A.18.18,0,0,1,58.19,23.69Z" transform="translate(-9.86 -9.61)"/><path class="cls-10" d="M48.87,25.3a.19.19,0,0,1-.13-.34c4.18-3.7,9.49-.68,9.55-.65a.19.19,0,0,1,.07.26.2.2,0,0,1-.27.07c-.05,0-5.13-2.9-9.09.61A.18.18,0,0,1,48.87,25.3Z" transform="translate(-9.86 -9.61)"/><path class="cls-10" d="M49,27.49a.17.17,0,0,1-.13,0,.19.19,0,0,1,0-.27c3.71-4.18,9.35-1.81,9.41-1.78a.2.2,0,0,1,.1.25.19.19,0,0,1-.26.1s-5.43-2.28-9,1.69A.22.22,0,0,1,49,27.49Z" transform="translate(-9.86 -9.61)"/><path class="cls-10" d="M49.55,30.39a.17.17,0,0,1-.1,0,.18.18,0,0,1-.07-.26c2.79-4.84,8.79-3.65,8.85-3.64a.2.2,0,0,1,.15.23.19.19,0,0,1-.23.15c-.06,0-5.79-1.14-8.44,3.45A.17.17,0,0,1,49.55,30.39Z" transform="translate(-9.86 -9.61)"/><path class="cls-10" d="M63.24,23.69a.21.21,0,0,1-.15-.08.18.18,0,0,1,0-.27s5-3.65,9.56-.45a.2.2,0,0,1-.23.32c-4.35-3-9,.4-9.1.44A.21.21,0,0,1,63.24,23.69Z" transform="translate(-9.86 -9.61)"/><path class="cls-10" d="M72.56,25.3a.18.18,0,0,1-.13-.05c-4-3.51-9-.64-9.09-.61a.18.18,0,0,1-.26-.07.18.18,0,0,1,.07-.26c.05,0,5.37-3,9.54.65a.19.19,0,0,1-.13.34Z" transform="translate(-9.86 -9.61)"/><path class="cls-10" d="M72.42,27.49a.2.2,0,0,1-.14-.06c-3.53-4-8.9-1.71-9-1.69a.19.19,0,1,1-.15-.35s5.69-2.4,9.4,1.78a.19.19,0,0,1,0,.27A.17.17,0,0,1,72.42,27.49Z" transform="translate(-9.86 -9.61)"/><path class="cls-10" d="M71.89,30.39a.18.18,0,0,1-.17-.1c-2.66-4.59-8.38-3.46-8.44-3.45a.19.19,0,0,1-.23-.15.2.2,0,0,1,.15-.23c.07,0,6.06-1.2,8.86,3.64a.19.19,0,0,1-.08.26A.16.16,0,0,1,71.89,30.39Z" transform="translate(-9.86 -9.61)"/><path class="cls-7" d="M65.62,27.87a.4.4,0,0,0-.5-.23,13.17,13.17,0,0,1-4,.64V24.93c.59-.87.37-2.64.63-3.18s1,.49,1,.49l.31-1a5.54,5.54,0,0,0-2.34-.49v3.4h0v-3.4a5.54,5.54,0,0,0-2.34.49l.31,1s.67-1.14,1-.49,0,2.42.69,3.26v3.27c-2.68-.05-3.58-.61-3.6-.63a.39.39,0,0,0-.54.09.39.39,0,0,0,.09.55c.11.07,1.18.77,4.44.77h.39a13.61,13.61,0,0,0,4.23-.69A.39.39,0,0,0,65.62,27.87Z" transform="translate(-9.86 -9.61)"/></g><path class="cls-8" d="M22.41,63.1H19.6l-1.83-5.5-1.84,5.5H13.12L9.86,52.92H13l1.66,5.47,1.93-5.47h2.29l1.92,5.49,1.66-5.49h3.18Z" transform="translate(-9.86 -9.61)"/><path class="cls-8" d="M36.59,63.08H33.35v-.81a4.59,4.59,0,0,1-3.16,1.12,5.06,5.06,0,0,1-5-5.39,5.08,5.08,0,0,1,5-5.39,4.59,4.59,0,0,1,3.16,1.12v-.81h3.24ZM33.35,58a2.54,2.54,0,0,0-2.5-2.63,2.64,2.64,0,0,0,0,5.26A2.53,2.53,0,0,0,33.35,58Z" transform="translate(-9.86 -9.61)"/><path class="cls-8" d="M48.37,56.85v6.23H45.15V57.54a1.8,1.8,0,0,0-1.74-2c-1.28,0-2.11.87-2.11,2.84v4.71H38.06V52.92H41.3v1a4.21,4.21,0,0,1,3.12-1.28C46.79,52.61,48.37,54.3,48.37,56.85Z" transform="translate(-9.86 -9.61)"/><path class="cls-8" d="M60,56.85v6.23H56.79V57.54a1.79,1.79,0,0,0-1.74-2c-1.27,0-2.1.87-2.1,2.84v4.71H49.71V52.92H53v1a4.19,4.19,0,0,1,3.12-1.28C58.43,52.61,60,54.3,60,56.85Z" transform="translate(-9.86 -9.61)"/><path class="cls-8" d="M72,63.08H68.8v-.81a4.57,4.57,0,0,1-3.16,1.12,5.07,5.07,0,0,1-5-5.39,5.08,5.08,0,0,1,5-5.39,4.57,4.57,0,0,1,3.16,1.12v-.81H72ZM68.8,58a2.53,2.53,0,0,0-2.49-2.63,2.64,2.64,0,0,0,0,5.26A2.52,2.52,0,0,0,68.8,58Z" transform="translate(-9.86 -9.61)"/><path class="cls-8" d="M81.05,62.64a5.57,5.57,0,0,1-2.77.75c-2.53,0-4-1.38-4-4V55.49H72.39V52.92h1.84v-3h3.24v3h3v2.57h-3V59c0,1.06.51,1.48,1.36,1.48a3.31,3.31,0,0,0,1.47-.4Z" transform="translate(-9.86 -9.61)"/><path class="cls-8" d="M91.91,63.08H88.67v-.81a4.57,4.57,0,0,1-3.16,1.12,5.07,5.07,0,0,1-5-5.39,5.08,5.08,0,0,1,5-5.39,4.57,4.57,0,0,1,3.16,1.12v-.81h3.24ZM88.67,58a2.54,2.54,0,0,0-2.49-2.63,2.64,2.64,0,0,0,0,5.26A2.52,2.52,0,0,0,88.67,58Z" transform="translate(-9.86 -9.61)"/><path class="cls-8" d="M93.39,63.08V48.5h3.24V63.08Z" transform="translate(-9.86 -9.61)"/><path class="cls-8" d="M105.23,63.08l-3.3-3.66h-.59v3.66H98.1V48.5h3.24v7.88h.45L105,52.92h3.91l-4.46,4.84,4.92,5.32Z" transform="translate(-9.86 -9.61)"/><text x="-9.86" y="-9.61"/></svg>