<svg xmlns="http://www.w3.org/2000/svg" xmlns:xlink="http://www.w3.org/1999/xlink" viewBox="0 0 99.51 58.67"><defs><clipPath id="a" transform="translate(0 0.03)"><rect x="16.31" y="-5.12" width="69.02" height="38.4" style="fill:none"/></clipPath></defs><title>wannatalklogo-light</title><g style="clip-path:url(#a)"><path d="M50.85,0a13,13,0,0,0-13,11.88h0V12c0,.35-.05.7-.05,1a55.84,55.84,0,0,1-2.26,9.56c-2.58,7.06-4.4,14.18-3.88,19.65A17.93,17.93,0,0,0,35.33,52c-8.62.68-15.84,6.68-15.84,6.68H50.86V0Z" transform="translate(0 0.03)"/><path d="M70.05,42.21c.52-6-1.46-13.52-3.87-19.62C64.76,19,63.84,11.87,63.84,11.87h0A13,13,0,0,0,50.84,0V58.64H82.22s-7.28-6-16-6.69A17.66,17.66,0,0,0,70.05,42.21Z" transform="translate(0 0.03)"/><path d="M50.82,11.16v.67h0v8.43h0c-3.07,0-5-.58-6.34-1.53v-.66A6.68,6.68,0,0,1,50.82,11.16Z" transform="translate(0 0.03)" style="fill:#fff"/><path d="M50.82,20.26V11.83h0v-.67h0a6.69,6.69,0,0,1,6.43,6.91,5.23,5.23,0,0,1,0,.56h0C55.94,19.64,53.73,20.26,50.82,20.26Z" transform="translate(0 0.03)" style="fill:#fff"/><path d="M46.31,7.77a1.86,1.86,0,1,1-1.87-1.85h0A1.85,1.85,0,0,1,46.31,7.77Z" transform="translate(0 0.03)" style="fill:#fff"/><path d="M59.14,7.77a1.85,1.85,0,1,1-1.85-1.85h0A1.85,1.85,0,0,1,59.14,7.77Z" transform="translate(0 0.03)" style="fill:#fff"/><path d="M45.64,7a.76.76,0,1,1-.77-.75h0A.76.76,0,0,1,45.64,7Z" transform="translate(0 0.03)"/><path d="M58.45,7a.76.76,0,0,1-.76.76h0A.76.76,0,1,1,58.45,7Z" transform="translate(0 0.03)"/><path d="M41.64,14.94" transform="translate(0 0.03)" style="fill:#fff;stroke:#d5d3b2;stroke-linecap:round;stroke-miterlimit:10"/><path d="M48.33,14.08h-.12s-4.75-3.48-9.1-.44a.19.19,0,0,1-.22-.32h0c4.58-3.2,9.51.41,9.55.45a.19.19,0,0,1,0,.25l0,0A.15.15,0,0,1,48.33,14.08Z" transform="translate(0 0.03)" style="fill:#fff"/><path d="M39,15.69a.18.18,0,0,1-.2-.18.17.17,0,0,1,.07-.16c4.18-3.7,9.49-.68,9.55-.65a.19.19,0,0,1,.07.26h0a.21.21,0,0,1-.27.07s-5.13-2.9-9.09.61A.19.19,0,0,1,39,15.69Z" transform="translate(0 0.03)" style="fill:#fff"/><path d="M39.14,17.88a.15.15,0,0,1-.13,0,.19.19,0,0,1,0-.27h0c3.71-4.18,9.35-1.81,9.41-1.78a.2.2,0,0,1-.15.36h0s-5.43-2.28-9,1.69A.25.25,0,0,1,39.14,17.88Z" transform="translate(0 0.03)" style="fill:#fff"/><path d="M39.69,20.78h-.1a.17.17,0,0,1-.08-.24v0c2.79-4.84,8.79-3.65,8.85-3.64a.2.2,0,0,1,.15.23.19.19,0,0,1-.22.15h0c-.06,0-5.79-1.14-8.44,3.45A.17.17,0,0,1,39.69,20.78Z" transform="translate(0 0.03)" style="fill:#fff"/><path d="M53.38,14.08a.19.19,0,0,1-.15-.08.19.19,0,0,1,0-.25l0,0s5-3.65,9.56-.45a.19.19,0,0,1,0,.28.2.2,0,0,1-.23,0c-4.35-3-9,.4-9.1.44Z" transform="translate(0 0.03)" style="fill:#fff"/><path d="M62.7,15.69a.19.19,0,0,1-.13,0c-4-3.51-9-.64-9.09-.61a.19.19,0,0,1-.25,0v0a.19.19,0,0,1,.05-.25h0c.05,0,5.37-3,9.54.65a.19.19,0,0,1,0,.27A.19.19,0,0,1,62.7,15.69Z" transform="translate(0 0.03)" style="fill:#fff"/><path d="M62.56,17.88a.2.2,0,0,1-.14-.06c-3.53-4-8.9-1.71-9-1.69a.19.19,0,1,1-.15-.35h0s5.69-2.4,9.4,1.78a.19.19,0,0,1,0,.27h0A.16.16,0,0,1,62.56,17.88Z" transform="translate(0 0.03)" style="fill:#fff"/><path d="M62,20.78a.19.19,0,0,1-.17-.1c-2.66-4.59-8.38-3.46-8.44-3.45a.2.2,0,0,1-.23-.14h0a.2.2,0,0,1,.15-.23c.07,0,6.06-1.2,8.86,3.64a.19.19,0,0,1-.08.26h0A.16.16,0,0,1,62,20.78Z" transform="translate(0 0.03)" style="fill:#fff"/><path d="M55.76,18.26a.4.4,0,0,0-.5-.23,13.23,13.23,0,0,1-4,.64V15.32c.59-.87.37-2.64.63-3.18s1,.49,1,.49l.31-1a5.55,5.55,0,0,0-2.34-.49v3.4h0v-3.4a5.55,5.55,0,0,0-2.34.49l.31,1s.67-1.14,1-.49,0,2.42.69,3.26v3.27c-2.68-.05-3.58-.61-3.6-.63a.39.39,0,0,0-.46.64h0c.11.07,1.18.77,4.44.77h.39a13.78,13.78,0,0,0,4.23-.69A.39.39,0,0,0,55.76,18.26Z" transform="translate(0 0.03)"/></g><path d="M12.55,53.49H9.74L7.91,48l-1.84,5.5H3.26L0,43.31H3.14L4.8,48.78l1.93-5.47H9l1.92,5.49,1.66-5.49h3.18Z" transform="translate(0 0.03)"/><path d="M26.73,53.47H23.49v-.81a4.56,4.56,0,0,1-3.16,1.12,5.06,5.06,0,0,1-5-5.11,2.62,2.62,0,0,1,0-.28A5.08,5.08,0,0,1,20.09,43h.24a4.56,4.56,0,0,1,3.16,1.12v-.81h3.24Zm-3.24-5.08A2.55,2.55,0,0,0,21,45.76H21A2.64,2.64,0,0,0,21,51a2.53,2.53,0,0,0,2.5-2.56Z" transform="translate(0 0.03)"/><path d="M38.51,47.24v6.23H35.29V47.93a1.8,1.8,0,0,0-1.59-2h-.15c-1.28,0-2.11.87-2.11,2.84v4.71H28.2V43.31h3.24v1A4.22,4.22,0,0,1,34.56,43C36.93,43,38.51,44.69,38.51,47.24Z" transform="translate(0 0.03)"/><path d="M50.14,47.24v6.23H46.93V47.93a1.8,1.8,0,0,0-1.57-2h-.17c-1.27,0-2.1.87-2.1,2.84v4.71H39.85V43.31h3.29v1A4.2,4.2,0,0,1,46.26,43C48.57,43,50.14,44.69,50.14,47.24Z" transform="translate(0 0.03)"/><path d="M62.14,53.47h-3.2v-.81a4.56,4.56,0,0,1-3.16,1.12,5.07,5.07,0,0,1-5-5.13,2.26,2.26,0,0,1,0-.26A5.08,5.08,0,0,1,55.54,43h.24a4.56,4.56,0,0,1,3.16,1.12v-.81h3.2Zm-3.2-5.08a2.53,2.53,0,0,0-2.43-2.63h-.06a2.64,2.64,0,0,0,0,5.26,2.52,2.52,0,0,0,2.49-2.55Z" transform="translate(0 0.03)"/><path d="M71.19,53a5.51,5.51,0,0,1-2.77.75c-2.53,0-4-1.38-4-4v-3.9H62.53V43.31h1.84v-3h3.24v3h3v2.57h-3v3.51c0,1.06.51,1.48,1.36,1.48a3.3,3.3,0,0,0,1.47-.4Z" transform="translate(0 0.03)"/><path d="M82.05,53.47H78.81v-.81a4.56,4.56,0,0,1-3.16,1.12,5.07,5.07,0,0,1-5-5.13,2.26,2.26,0,0,1,0-.26A5.08,5.08,0,0,1,75.41,43h.24a4.56,4.56,0,0,1,3.16,1.12v-.81h3.24Zm-3.24-5.08a2.55,2.55,0,0,0-2.45-2.63h0a2.64,2.64,0,0,0,0,5.26,2.52,2.52,0,0,0,2.49-2.55Z" transform="translate(0 0.03)"/><path d="M83.53,53.47V38.89h3.24V53.47Z" transform="translate(0 0.03)"/><path d="M95.37,53.47l-3.3-3.66h-.59v3.66H88.24V38.89h3.24v7.88h.45l3.21-3.46h3.91l-4.46,4.84,4.92,5.32Z" transform="translate(0 0.03)"/></svg>